<?xml version="1.0" encoding="utf-8"?><!DOCTYPE svg  PUBLIC '-//W3C//DTD SVG 1.1//EN'  'http://www.w3.org/Graphics/SVG/1.1/DTD/svg11.dtd'><svg enable_background="new 0 0 700 704" height="704px" pretty_print="False" style="stroke-linejoin: round; stroke:#000; fill: none;" version="1.1" viewBox="0 0 700 704" width="700px" xmlns="http://www.w3.org/2000/svg" xmlns:xlink="http://www.w3.org/1999/xlink"><defs><style type="text/css"><![CDATA[path { fill-rule: evenodd; }]]></style></defs><metadata><views><view h="704.060475683" padding="0" w="700"><proj id="laea" lat0="0" lon0="11"/><bbox h="901.2" w="897.28" x="651.89" y="540.06"/></view></views></metadata><g class="" id="layer0"><path d="M290.9,415.1L288.8,416.0L286.2,421.6L289.1,425.1L289.5,427.8L291.6,433.1L294.4,438.7L294.2,441.8L291.2,444.8L293.9,454.3L295.4,456.8L298.6,463.3L298.0,471.7L296.2,476.2L294.5,478.5L290.4,480.9L289.6,483.3L286.3,487.2L285.8,490.2L284.6,493.0L283.7,498.7L281.2,507.0L279.1,511.5L279.3,516.4L278.9,519.9L278.6,523.5L286.1,523.2L291.2,520.9L299.7,525.1L303.4,524.9L340.3,525.3L344.1,528.8L361.8,531.4L370.8,530.9L383.3,528.7L386.2,528.2L384.5,526.6L376.7,519.0L374.4,514.8L374.0,511.9L375.0,483.6L392.5,483.8L394.1,478.3L394.6,464.6L394.4,463.3L394.0,463.5L389.0,464.3L386.7,465.2L380.4,465.3L378.7,466.3L377.9,465.6L378.8,461.4L378.8,458.6L376.9,453.5L374.4,449.6L375.5,438.8L374.6,436.6L375.1,429.9L374.3,428.8L363.4,428.5L363.4,425.2L354.4,426.1L353.1,427.1L351.2,435.0L349.3,435.4L343.8,434.7L334.4,436.2L330.5,430.1L328.9,428.1L326.6,422.0L326.4,418.4L323.7,415.1L316.9,414.7L304.2,415.0L300.2,414.6L291.5,414.7L290.9,415.1Z M291.6,402.9L291.3,402.7L289.7,401.0L285.0,402.7L284.2,404.1L281.4,406.4L281.7,406.7L283.0,409.5L283.2,410.9L283.2,413.4L283.3,413.6L285.9,413.3L286.3,407.8L285.6,407.1L289.2,403.8L291.4,403.0L291.6,402.9Z " data-iso-a2="AO" data-key="AGO" data-label="Angola"/><path d="M646.5,111.3L644.4,111.1L644.1,111.6L646.5,111.3Z M641.4,110.9L641.7,109.3L640.1,110.7L641.4,110.9Z M659.3,90.7L658.9,93.4L656.3,96.7L654.0,101.6L651.1,106.3L650.1,109.9L646.4,112.3L635.9,112.5L632.0,114.7L629.0,113.9L626.9,111.5L626.7,112.0L630.7,117.5L637.9,124.7L659.9,125.9L660.3,125.0L660.0,123.6L659.9,120.1L660.5,113.5L659.7,112.4L661.5,108.0L660.1,102.8L662.6,103.9L664.6,101.2L664.4,100.8L662.9,95.3L662.2,94.5L661.2,94.7L660.8,94.2L659.3,90.6L659.3,90.7Z " data-iso-a2="AE" data-key="ARE" data-label="United Arab Emirates"/><path d="M458.4,381.7L454.3,381.8L452.1,384.8L450.5,385.5L447.6,385.7L445.8,383.8L444.2,384.2L444.0,384.8L444.0,385.2L446.0,388.0L445.8,394.2L447.3,400.2L447.5,401.6L450.4,401.7L452.6,400.3L456.5,395.2L457.3,393.3L461.0,388.7L458.5,382.0L458.6,381.7L458.4,381.7Z " data-iso-a2="BI" data-key="BDI" data-label="Burundi"/><path d="M201.1,244.9L194.4,239.2L191.2,240.3L190.6,242.8L190.3,243.8L190.1,244.4L186.4,248.4L180.5,248.7L176.3,252.4L176.1,252.4L175.8,253.4L174.6,258.2L179.9,262.0L180.0,266.1L182.3,271.1L182.2,290.8L181.3,290.9L183.5,297.6L182.0,298.4L183.9,298.0L188.4,297.3L192.4,296.9L193.1,293.6L192.6,291.1L193.3,286.3L192.7,284.9L193.4,271.2L196.6,269.9L196.9,267.3L198.8,265.3L198.8,264.2L201.9,260.6L201.2,259.5L203.2,257.9L202.7,251.7L200.6,248.7L201.3,246.4L201.7,245.8L201.1,244.9Z " data-iso-a2="BJ" data-key="BEN" data-label="Benin"/><path d="M168.9,214.0L166.6,213.3L161.8,213.3L160.3,214.3L152.1,218.6L151.1,218.6L148.8,221.6L145.6,220.5L141.6,223.5L141.1,226.1L138.0,226.3L137.3,229.9L134.7,230.7L132.2,228.9L129.4,229.6L128.5,234.5L126.0,235.6L126.5,237.4L124.8,240.6L122.8,241.7L119.9,242.3L118.1,243.6L117.8,249.7L115.9,251.2L115.5,256.6L115.4,257.2L115.9,257.8L120.2,260.9L120.4,262.0L126.3,264.8L131.5,262.3L136.8,262.6L140.5,267.1L141.5,266.8L141.7,266.6L141.6,266.1L140.6,257.2L140.3,256.7L141.6,252.1L153.1,251.9L160.9,252.3L161.4,252.9L164.8,250.6L166.9,251.1L169.1,251.6L172.1,252.3L172.7,252.7L173.6,252.4L176.1,252.4L176.3,252.4L180.5,248.7L186.4,248.4L190.1,244.4L190.3,243.8L189.9,243.3L187.3,239.4L188.8,237.6L186.4,236.0L185.3,236.8L182.7,236.7L178.4,233.1L177.3,231.5L177.5,229.6L179.5,229.7L174.2,226.3L172.0,222.7L170.2,218.7L170.7,215.2L170.8,214.7L168.9,214.0Z " data-iso-a2="BF" data-key="BFA" data-label="Burkina Faso"/><path d="M615.1,97.0L614.5,94.6L613.7,96.3L615.1,97.0Z " data-iso-a2="BH" data-key="BHR" data-label="Bahrain"/><path d="M403.0,529.9L399.1,530.6L396.6,532.3L395.1,531.6L392.9,532.5L388.8,535.7L387.7,536.0L386.7,533.9L384.6,531.6L373.4,533.3L363.8,534.3L362.7,559.5L362.1,569.3L353.1,569.1L351.9,595.1L351.9,595.4L352.3,595.6L355.0,597.8L358.5,606.2L358.6,608.1L356.6,612.4L357.5,615.0L363.7,614.9L368.8,613.2L375.6,606.0L378.5,601.1L380.7,600.6L382.9,601.4L386.0,603.9L388.7,604.2L389.8,605.3L395.7,605.6L400.9,604.3L404.3,596.7L409.0,595.2L413.2,591.7L415.9,585.5L419.8,583.7L426.7,577.4L428.3,576.5L432.5,575.6L435.4,573.1L437.5,573.0L437.1,572.6L434.6,570.5L434.9,569.3L425.6,566.1L423.4,562.2L423.7,556.4L420.1,556.1L415.1,550.3L410.0,545.2L407.5,538.3L405.8,536.2L403.2,530.5L403.4,530.0L403.0,529.9Z " data-iso-a2="BW" data-key="BWA" data-label="Botswana"/><path d="M383.5,252.9L380.5,252.2L373.2,256.7L373.4,257.4L370.4,261.9L369.1,262.1L364.6,267.7L360.5,270.4L358.0,270.3L347.4,272.2L348.9,275.0L344.1,280.7L335.1,281.5L327.9,284.9L327.2,285.6L324.7,282.9L319.0,286.1L315.5,286.0L314.5,286.0L313.5,287.6L312.3,288.5L310.3,293.1L305.8,298.8L306.3,301.9L305.8,307.5L306.6,308.5L307.3,313.4L310.3,316.4L311.4,319.5L310.4,319.7L318.2,328.4L320.3,330.3L321.0,335.6L321.5,336.5L322.1,335.1L324.2,331.1L324.3,327.8L325.1,325.0L332.1,323.5L333.5,322.8L339.9,324.1L344.2,324.5L344.7,324.8L344.6,322.9L344.9,320.2L344.5,316.4L345.5,316.1L349.0,311.2L351.4,309.4L356.0,309.2L364.1,315.5L365.5,315.4L372.6,317.3L381.1,318.4L382.9,315.4L385.3,312.7L390.5,313.2L399.1,310.0L403.3,310.6L406.2,310.2L410.5,306.8L421.1,309.0L423.3,309.1L425.6,307.9L428.4,308.7L427.7,307.9L426.5,303.8L425.2,302.2L421.8,300.1L420.5,299.9L417.7,295.7L418.2,294.0L415.0,290.9L406.8,285.1L407.3,284.3L402.4,279.1L398.2,278.1L397.4,277.4L397.2,274.6L396.7,274.5L395.8,274.3L391.0,271.9L390.1,270.9L391.6,268.1L391.7,263.4L387.8,257.3L384.7,254.1L384.0,252.9L383.5,252.9Z " data-iso-a2="CF" data-key="CAF" data-label="Central African Rep."/><path d="M135.8,308.5L135.5,308.8L136.7,309.0L137.0,308.6L135.8,308.5Z M92.1,259.4L91.9,259.7L90.5,265.8L92.7,266.6L93.7,269.9L92.5,270.5L91.9,272.7L93.5,273.4L89.4,275.7L88.9,277.9L90.0,282.7L89.1,284.4L87.0,284.2L86.5,284.6L86.6,284.7L88.1,289.4L87.0,292.9L85.0,294.8L88.0,296.7L91.7,297.6L95.7,301.4L96.0,303.3L95.0,308.6L94.5,308.8L94.6,315.9L95.7,315.7L104.1,312.0L113.5,308.9L117.8,308.2L128.0,307.6L122.6,307.5L123.1,307.1L128.5,307.0L129.6,307.7L136.4,306.5L137.6,308.4L137.6,308.6L139.6,308.4L139.6,303.9L138.3,303.7L135.8,295.0L135.8,293.9L140.4,281.6L143.1,278.9L142.0,271.7L141.1,270.2L141.8,267.1L141.7,266.6L141.5,266.8L140.5,267.1L136.8,262.6L131.5,262.3L126.3,264.8L120.4,262.0L120.2,260.9L115.9,257.8L115.4,257.2L115.1,257.0L111.7,258.3L110.5,259.3L108.6,258.7L108.6,254.2L104.6,257.3L101.9,257.8L100.4,259.1L98.0,258.5L96.8,256.8L95.3,256.9L92.4,259.4L92.1,259.4Z " data-iso-a2="CI" data-key="CIV" data-label="Ivory Coast"/><path d="M315.0,285.2L314.5,283.2L312.2,278.3L308.5,273.7L307.2,273.1L302.9,269.1L300.0,265.2L302.5,262.4L308.1,262.8L314.8,262.6L315.9,262.1L312.3,258.8L309.9,251.6L310.7,247.5L308.3,240.5L308.0,238.3L305.1,235.2L304.8,233.7L302.3,232.8L300.6,232.8L301.5,237.2L302.6,239.7L304.9,240.2L305.6,247.0L302.0,250.1L299.9,250.6L297.3,253.9L294.6,260.6L293.3,261.9L292.8,265.7L290.9,267.2L286.8,275.5L285.1,275.7L281.4,285.4L279.8,287.2L279.9,289.9L277.2,292.1L277.0,294.0L274.0,296.3L272.4,295.8L269.2,291.2L267.9,290.4L266.7,292.1L264.9,292.2L263.5,291.1L260.4,293.1L258.9,295.5L252.5,301.4L250.6,308.3L248.3,312.6L248.4,312.6L251.7,314.5L252.5,319.0L255.5,320.4L256.9,320.4L261.6,328.7L260.4,333.9L260.2,336.1L260.8,337.0L261.9,337.5L272.6,337.5L274.8,337.5L275.0,336.8L277.1,336.2L289.6,336.7L293.5,336.9L293.7,337.5L296.0,337.5L305.2,337.6L306.1,337.2L311.7,338.7L313.4,339.6L315.9,339.5L321.0,341.7L320.4,338.8L321.5,336.5L321.5,336.5L321.0,335.6L320.3,330.3L318.2,328.4L310.4,319.7L311.4,319.5L310.3,316.4L307.3,313.4L306.6,308.5L305.8,307.5L306.3,301.9L305.8,298.8L310.3,293.1L312.3,288.5L313.5,287.6L314.5,286.0L315.0,285.2Z " data-iso-a2="CM" data-key="CMR" data-label="Cameroon"/><path d="M425.6,307.9L423.3,309.1L421.1,309.0L410.5,306.8L406.2,310.2L403.3,310.6L399.1,310.0L390.5,313.2L385.3,312.7L382.9,315.4L381.1,318.4L372.6,317.3L365.5,315.4L364.1,315.5L356.0,309.2L351.4,309.4L349.0,311.2L345.5,316.1L344.5,316.4L344.9,320.2L344.6,322.9L344.7,324.8L344.8,326.5L339.6,338.9L339.6,341.7L338.0,347.5L338.2,353.1L337.9,356.0L336.3,361.0L336.6,363.6L329.1,369.3L327.2,371.6L324.9,376.0L321.8,379.3L321.1,391.6L319.6,394.5L312.6,399.7L307.9,404.9L305.2,405.0L304.8,401.1L303.9,399.6L299.9,401.4L297.7,401.1L297.4,403.4L294.5,404.7L291.7,402.5L291.6,402.9L291.4,403.0L289.2,403.8L285.6,407.1L286.3,407.8L285.9,413.3L283.3,413.6L283.6,414.1L284.3,415.0L286.2,416.0L290.9,414.4L291.5,414.7L300.2,414.6L304.2,415.0L316.9,414.7L323.7,415.1L326.4,418.4L326.6,422.0L328.9,428.1L330.5,430.1L334.4,436.2L343.8,434.7L349.3,435.4L351.2,435.0L353.1,427.1L354.4,426.1L363.4,425.2L363.4,428.5L374.3,428.8L375.1,429.9L374.6,436.6L375.5,438.8L374.4,449.6L376.9,453.5L378.8,458.6L378.8,461.4L377.9,465.6L378.7,466.3L380.4,465.3L386.7,465.2L389.0,464.3L394.0,463.5L394.4,463.3L394.7,463.4L398.1,465.9L397.7,468.2L407.0,467.0L406.7,467.9L408.6,472.0L420.0,474.3L420.8,474.2L422.9,471.3L424.1,470.5L424.8,472.5L428.4,477.3L434.9,479.4L437.7,483.2L440.6,488.1L445.0,487.2L447.1,489.1L447.9,488.3L448.5,476.5L445.8,477.2L445.7,478.7L441.6,478.3L436.4,473.0L436.0,471.9L437.4,463.2L438.4,461.9L438.6,453.8L436.7,448.4L442.3,440.6L457.5,438.4L459.2,438.2L458.9,437.3L453.5,425.7L452.2,424.6L448.0,416.4L449.1,414.0L446.8,406.8L447.5,402.1L447.5,401.6L447.3,400.2L445.8,394.2L446.0,388.0L444.0,385.2L444.0,384.8L443.1,384.4L442.6,382.1L445.2,379.7L449.1,372.0L449.5,371.8L449.5,371.5L449.8,365.0L450.8,357.3L452.9,353.4L452.8,351.7L462.4,341.9L465.5,337.3L464.6,336.1L460.3,334.3L461.4,330.5L461.7,324.5L461.2,324.2L461.0,323.8L458.5,322.7L458.0,320.9L455.0,319.5L450.0,313.6L445.8,315.6L441.0,314.5L437.7,316.3L436.0,316.0L428.7,309.4L428.4,308.7L425.6,307.9Z " data-iso-a2="CD" data-key="COD" data-label="Congo (Kinshasa)"/><path d="M344.2,324.5L339.9,324.1L333.5,322.8L332.1,323.5L325.1,325.0L324.3,327.8L324.2,331.1L322.1,335.1L321.5,336.5L321.5,336.5L320.4,338.8L321.0,341.7L315.9,339.5L313.4,339.6L311.7,338.7L306.1,337.2L305.2,337.6L296.0,337.5L293.7,337.5L293.7,338.2L293.0,346.3L299.1,344.7L302.8,345.6L304.7,349.6L302.7,353.0L301.4,353.1L299.4,356.5L299.5,360.6L301.2,360.9L305.1,364.3L304.5,367.7L304.2,376.5L302.4,379.3L302.4,380.9L300.4,382.3L298.4,379.1L295.4,381.3L290.8,380.5L288.9,376.9L285.4,376.9L285.6,380.7L281.9,381.5L277.2,381.0L276.9,385.6L277.8,385.8L280.6,390.5L279.8,393.8L274.5,393.3L272.9,395.9L275.2,398.0L279.1,402.2L279.6,404.0L281.3,406.2L281.4,406.4L284.2,404.1L285.0,402.7L289.7,401.0L291.3,402.7L291.6,402.9L291.7,402.5L294.5,404.7L297.4,403.4L297.7,401.1L299.9,401.4L303.9,399.6L304.8,401.1L305.2,405.0L307.9,404.9L312.6,399.7L319.6,394.5L321.1,391.6L321.8,379.3L324.9,376.0L327.2,371.6L329.1,369.3L336.6,363.6L336.3,361.0L337.9,356.0L338.2,353.1L338.0,347.5L339.6,341.7L339.6,338.9L344.8,326.5L344.7,324.8L344.2,324.5Z " data-iso-a2="CG" data-key="COG" data-label="Congo (Brazzaville)"/><path d="M574.5,477.2L573.0,472.5L572.5,475.7L574.5,477.2Z " data-iso-a2="KM" data-key="COM" data-label="Comoros"/><path d="M572.1,242.8L566.5,243.6L568.6,241.2L572.7,238.8L573.8,236.5L573.1,234.8L570.8,232.0L570.7,231.5L567.7,234.4L566.9,234.9L564.4,233.8L564.2,234.1L563.4,235.6L559.7,241.6L560.1,249.0L560.8,249.2L569.6,248.6L570.3,248.5L571.3,246.6L572.2,244.8L572.9,243.5L572.1,242.8Z " data-iso-a2="DJ" data-key="DJI" data-label="Djibouti"/><path d="M248.4,9.4L241.0,7.7L241.2,8.8L235.9,8.5L235.2,7.7L231.7,9.7L225.4,11.6L221.1,9.2L213.2,9.1L211.1,9.9L203.4,11.5L201.4,11.4L192.5,12.0L183.2,15.9L181.4,18.0L178.3,17.6L174.1,19.2L164.6,24.3L162.9,24.1L165.7,31.0L165.6,40.7L166.6,44.8L170.0,48.7L149.3,55.2L146.0,58.2L145.5,59.8L146.6,62.0L143.9,62.4L135.1,66.2L131.9,69.9L125.6,71.8L121.3,71.8L120.5,73.7L116.0,73.3L114.8,73.8L105.3,79.0L101.4,81.5L100.4,89.0L100.1,91.3L99.9,92.9L99.6,94.8L101.1,95.9L108.6,101.5L119.3,109.2L129.1,116.3L131.0,117.7L133.5,119.6L149.5,131.9L169.2,146.6L181.9,155.8L182.0,158.5L188.7,163.8L191.3,164.1L193.6,166.1L199.5,168.0L200.2,168.6L200.4,175.9L206.4,175.3L209.3,174.8L211.4,174.4L223.4,172.2L224.2,171.7L239.6,158.6L261.7,145.3L275.7,136.7L280.4,133.8L279.5,132.1L268.9,124.1L266.7,124.7L265.0,123.7L262.8,116.7L257.9,109.8L258.3,107.3L261.8,104.6L261.9,102.5L260.7,98.0L262.2,93.8L261.4,86.5L261.6,82.8L258.1,71.5L258.9,71.0L258.4,68.8L255.1,53.9L249.0,48.1L247.1,44.5L244.1,41.9L242.5,37.6L243.0,34.9L245.4,32.3L247.8,30.9L250.2,25.1L249.1,19.6L250.1,14.4L249.0,13.2L252.2,9.7L252.1,9.2L248.4,9.4Z " data-iso-a2="DZ" data-key="DZA" data-label="Algeria"/><path d="M467.7,55.4L463.8,57.3L459.2,57.2L454.3,58.1L452.4,56.7L448.9,57.1L450.7,56.0L449.0,54.6L441.5,54.0L434.8,57.6L432.4,58.0L428.5,61.0L425.7,62.1L420.7,60.2L416.0,60.0L414.8,59.1L409.6,57.6L398.0,55.8L393.8,57.0L392.4,56.8L391.7,55.7L389.5,58.8L391.0,63.9L389.4,70.0L392.6,78.8L395.5,110.5L398.1,144.5L398.3,146.6L401.7,146.5L449.7,145.1L454.6,144.9L455.3,143.1L456.2,144.9L504.4,142.9L504.4,142.7L499.9,139.2L497.9,137.0L495.0,136.1L492.9,134.2L491.3,131.1L490.2,124.9L492.3,124.6L486.5,119.7L482.6,113.5L472.8,99.5L470.6,93.7L469.6,93.1L467.6,87.8L464.2,85.0L461.1,81.8L458.0,76.1L455.0,72.0L455.6,69.2L461.9,76.9L464.1,81.6L469.2,86.3L473.5,88.8L474.8,85.5L474.6,83.1L475.4,79.2L475.7,74.3L476.4,72.7L476.7,72.3L473.6,65.6L472.1,63.3L469.5,58.2L468.5,56.3L468.1,55.5L467.9,55.2L467.7,55.4Z " data-iso-a2="EG" data-key="EGY" data-label="Egypt"/><path d="M540.9,203.0L539.5,201.7L539.4,203.8L543.3,204.0L540.9,203.0Z M539.9,199.2L539.2,199.6L539.4,199.8L539.9,199.2Z M509.3,218.2L509.5,218.2L513.1,217.8L515.2,216.2L518.7,219.0L521.2,212.0L527.2,216.0L530.0,215.3L532.2,213.8L533.5,215.2L536.5,214.6L538.5,214.9L548.1,218.0L563.3,233.1L564.2,234.1L564.4,233.8L566.9,234.9L567.7,234.4L570.7,231.5L570.2,230.3L567.6,230.0L564.8,226.6L563.7,226.7L562.0,223.1L556.3,219.3L551.3,213.2L547.8,212.1L546.1,210.8L540.6,207.7L540.3,206.6L538.2,205.9L538.1,206.8L535.3,204.8L533.0,201.1L530.8,193.2L528.0,186.4L524.6,180.9L521.9,185.1L517.3,186.9L515.2,190.1L511.1,191.1L511.1,198.2L508.5,208.5L507.7,209.7L508.8,215.4L509.3,218.2Z " data-iso-a2="ER" data-key="ERI" data-label="Eritrea"/><path d="M509.3,218.2L508.8,220.8L506.6,233.2L502.1,235.2L499.3,241.0L497.0,247.7L496.9,250.8L493.6,251.6L491.1,255.1L490.6,261.1L489.8,265.1L489.8,265.6L489.8,266.0L490.3,274.2L489.1,275.6L482.8,275.7L480.5,280.5L481.2,281.7L486.7,283.2L489.0,284.7L492.7,289.6L494.7,290.6L499.4,298.9L499.7,300.8L502.3,304.1L502.5,304.3L502.4,304.7L507.4,306.4L507.3,311.0L509.4,314.0L520.4,316.3L529.3,322.2L534.2,322.7L542.4,324.0L547.2,319.1L554.0,315.8L563.1,318.6L564.5,318.6L564.8,318.1L568.8,316.3L572.8,315.4L575.7,311.9L579.9,309.7L583.9,308.7L592.1,309.1L605.2,292.8L616.3,279.8L618.4,277.3L615.3,277.4L599.0,274.0L581.8,268.3L577.9,264.9L576.6,264.5L573.9,260.7L570.2,256.5L568.2,252.4L570.2,248.9L570.3,248.5L569.6,248.6L560.8,249.2L560.1,249.0L559.7,241.6L563.4,235.6L564.2,234.1L563.3,233.1L548.1,218.0L538.5,214.9L536.5,214.6L533.5,215.2L532.2,213.8L530.0,215.3L527.2,216.0L521.2,212.0L518.7,219.0L515.2,216.2L513.1,217.8L509.5,218.2L509.3,218.2Z " data-iso-a2="ET" data-key="ETH" data-label="Ethiopia"/><path d="M668.4,578.3L669.2,576.3L667.7,573.5L665.3,573.5L664.6,576.7L668.4,578.3Z M589.0,488.5L588.5,485.2L588.1,485.7L589.0,488.5Z " data-iso-a2="FR" data-key="FRA" data-label="France"/><path d="M293.5,336.9L289.6,336.7L277.1,336.2L275.0,336.8L274.8,337.5L274.9,339.7L274.9,348.7L261.9,348.7L259.2,347.9L258.1,348.4L258.0,348.8L258.5,350.8L255.6,352.4L260.1,357.9L257.0,356.8L255.4,355.5L255.3,361.7L251.9,364.9L249.6,364.0L255.8,375.9L256.3,377.8L262.1,384.7L265.4,387.3L268.2,391.0L272.0,395.1L272.9,395.9L274.5,393.3L279.8,393.8L280.6,390.5L277.8,385.8L276.9,385.6L277.2,381.0L281.9,381.5L285.6,380.7L285.4,376.9L288.9,376.9L290.8,380.5L295.4,381.3L298.4,379.1L300.4,382.3L302.4,380.9L302.4,379.3L304.2,376.5L304.5,367.7L305.1,364.3L301.2,360.9L299.5,360.6L299.4,356.5L301.4,353.1L302.7,353.0L304.7,349.6L302.8,345.6L299.1,344.7L293.0,346.3L293.7,338.2L293.7,337.5L293.5,336.9Z " data-iso-a2="GA" data-key="GAB" data-label="Gabon"/><path d="M469.2,55.4L469.1,54.7L469.8,52.6L469.2,53.6L467.9,55.2L468.1,55.5L468.5,56.3L469.2,55.4Z " data-iso-a2="PS" data-key="GAZ" data-label="Gaza"/><path d="M164.8,250.6L161.4,252.9L160.9,252.3L153.1,251.9L141.6,252.1L140.3,256.7L140.6,257.2L141.6,266.1L141.7,266.6L141.8,267.1L141.1,270.2L142.0,271.7L143.1,278.9L140.4,281.6L135.8,293.9L135.8,295.0L138.3,303.7L139.6,303.9L139.6,308.4L137.6,308.6L137.0,308.6L136.7,309.0L137.0,309.1L143.5,310.6L147.3,312.2L156.3,308.2L158.8,307.8L163.1,305.2L169.0,302.7L173.6,302.7L175.6,302.3L177.1,299.9L177.9,299.6L173.6,296.1L172.3,293.3L172.6,288.6L171.5,285.5L172.6,283.8L173.5,277.7L170.6,273.8L172.1,267.7L166.9,255.8L167.5,251.7L166.9,251.1L164.8,250.6Z " data-iso-a2="GH" data-key="GHA" data-label="Ghana"/><path d="M61.0,236.9L57.0,236.9L53.2,237.6L48.6,236.2L46.3,234.6L43.1,234.0L40.2,233.9L40.1,234.6L37.8,238.6L39.0,239.9L39.5,243.0L35.9,243.8L29.6,246.0L26.9,250.5L26.8,251.6L28.0,250.5L32.2,257.5L34.5,258.7L39.0,262.2L40.9,265.8L42.0,269.1L42.1,269.4L46.5,267.0L50.6,261.3L55.3,261.1L55.4,260.4L61.4,260.5L63.4,262.6L65.9,266.5L65.8,269.1L67.1,269.7L67.9,273.6L66.7,274.9L69.2,275.3L69.9,275.4L70.4,275.4L72.0,276.0L74.4,275.1L77.1,276.8L78.2,283.1L77.8,285.0L80.3,287.6L84.1,285.2L84.4,283.6L86.1,284.4L86.5,284.6L87.0,284.2L89.1,284.4L90.0,282.7L88.9,277.9L89.4,275.7L93.5,273.4L91.9,272.7L92.5,270.5L93.7,269.9L92.7,266.6L90.5,265.8L91.9,259.7L92.1,259.4L92.3,258.7L90.0,256.7L89.2,253.6L89.4,251.7L86.2,250.8L88.8,247.9L85.0,244.6L85.2,242.2L80.6,237.8L76.9,240.8L71.8,239.1L67.4,241.9L65.7,239.0L62.6,240.9L61.3,237.3L61.6,237.0L61.0,236.9Z " data-iso-a2="GN" data-key="GIN" data-label="Guinea"/><path d="M15.1,225.5L16.6,226.6L17.3,227.1L12.6,228.4L12.6,229.3L21.2,228.6L21.5,227.0L26.4,226.4L32.0,227.0L34.1,227.9L39.6,227.4L38.5,225.3L35.3,225.7L29.9,222.7L25.4,223.1L24.5,224.5L14.9,224.2L15.1,225.5Z " data-iso-a2="GM" data-key="GMB" data-label="Gambia"/><path d="M19.1,249.0L18.5,249.2L19.0,249.2L19.1,249.0Z M17.1,249.1L17.6,247.8L16.1,248.8L17.1,249.1Z M20.8,247.7L20.9,246.8L20.6,247.2L20.8,247.7Z M22.6,244.6L23.3,243.6L22.8,243.8L22.6,244.6Z M18.9,241.1L17.3,241.1L17.3,241.4L18.9,241.1Z M40.2,233.9L37.1,233.8L26.7,233.4L20.6,235.7L16.9,235.5L12.5,236.2L15.0,237.8L17.5,240.7L19.2,240.3L20.3,242.3L24.0,240.6L23.2,242.7L23.9,243.8L27.1,244.1L23.7,245.0L26.5,249.8L26.9,250.5L29.6,246.0L35.9,243.8L39.5,243.0L39.0,239.9L37.8,238.6L40.1,234.6L40.2,233.9Z " data-iso-a2="GW" data-key="GNB" data-label="Guinea Bissau"/><path d="M274.8,337.5L272.6,337.5L261.9,337.5L260.8,337.0L260.2,336.1L260.0,338.4L258.1,343.5L256.2,347.4L258.2,348.2L258.1,348.4L259.2,347.9L261.9,348.7L274.9,348.7L274.9,339.7L274.8,337.5Z M250.0,322.2L247.4,326.9L249.1,327.4L252.0,322.7L250.0,322.2Z " data-iso-a2="GQ" data-key="GNQ" data-label="Eq. Guinea"/><path d="M478.6,40.6L478.6,37.7L478.8,37.3L477.9,35.1L477.9,34.5L475.5,36.4L475.5,37.7L472.4,38.2L472.3,39.3L471.4,46.7L470.9,49.6L469.8,52.5L469.8,52.6L469.1,54.7L469.2,55.4L468.5,56.3L469.5,58.2L472.1,63.3L473.6,65.6L476.7,72.3L477.2,71.5L477.5,65.4L477.3,62.2L478.0,54.5L478.0,53.1L477.7,53.1L473.7,54.6L472.8,46.9L473.1,44.1L474.1,43.3L476.7,44.4L477.2,44.4L477.0,42.3L477.2,41.7L478.1,41.2L478.6,41.1L478.6,40.6Z " data-iso-a2="IL" data-key="ISR" data-label="Israel"/><path d="M508.1,43.6L505.9,43.2L505.7,41.4L501.6,33.3L487.8,44.4L484.9,44.2L479.5,41.2L478.6,41.1L478.1,41.2L477.2,41.7L477.0,42.3L477.2,44.4L477.7,45.9L477.8,48.3L478.4,50.3L478.0,52.3L478.0,53.1L478.0,54.5L477.3,62.2L477.5,65.4L477.2,71.5L477.4,72.1L477.3,73.4L487.0,74.3L488.5,72.7L491.3,68.0L497.5,65.8L498.3,62.7L500.7,60.9L490.5,52.1L506.2,46.1L507.2,44.9L508.1,43.6Z " data-iso-a2="JO" data-key="JOR" data-label="Jordan"/><path d="M502.5,304.3L500.8,306.1L494.4,313.0L492.5,314.9L490.7,316.9L492.2,320.1L495.2,322.9L494.8,324.8L496.7,329.6L498.4,331.6L499.5,334.5L500.3,342.2L498.7,344.7L498.9,345.8L495.8,348.1L495.2,349.8L492.8,352.4L490.8,356.6L490.4,366.5L490.4,368.1L491.1,368.1L525.3,388.4L525.4,393.0L526.2,394.2L539.6,404.8L539.7,404.5L542.2,402.7L545.4,395.9L545.8,393.8L549.0,388.3L548.9,386.3L551.1,383.7L553.3,383.6L555.8,379.6L555.7,378.4L560.3,376.9L561.7,375.2L556.6,367.0L556.2,330.3L559.7,326.4L563.4,320.4L564.5,318.6L563.1,318.6L554.0,315.8L547.2,319.1L542.4,324.0L534.2,322.7L529.3,322.2L520.4,316.3L509.4,314.0L507.3,311.0L507.4,306.4L502.4,304.7L502.5,304.3Z " data-iso-a2="KE" data-key="KEN" data-label="Kenya"/><path d="M587.0,62.2L587.2,60.6L585.0,60.7L587.0,62.2Z M574.1,68.7L581.7,69.1L584.8,73.3L591.0,72.6L590.4,71.8L587.9,68.6L585.9,65.0L583.1,64.9L584.6,62.6L586.1,62.8L583.7,59.0L579.7,58.3L577.0,59.5L575.1,67.0L574.1,68.7Z " data-iso-a2="KW" data-key="KWT" data-label="Kuwait"/><path d="M478.3,34.2L478.1,32.3L481.1,30.3L480.4,30.0L482.2,26.7L479.0,22.6L476.7,24.0L474.6,27.0L474.7,29.1L472.6,37.5L472.4,38.2L475.5,37.7L475.5,36.4L477.9,34.5L478.3,34.2Z " data-iso-a2="LB" data-key="LBN" data-label="Lebanon"/><path d="M86.1,284.4L84.4,283.6L84.1,285.2L80.3,287.6L77.8,285.0L78.2,283.1L77.1,276.8L74.4,275.1L72.0,276.0L70.4,275.4L69.9,275.4L69.9,275.7L69.6,277.1L65.8,282.6L57.9,290.6L59.8,292.8L63.9,295.0L64.5,296.6L69.2,298.9L79.7,309.0L87.8,313.6L93.5,315.8L94.6,315.9L94.5,308.8L95.0,308.6L96.0,303.3L95.7,301.4L91.7,297.6L88.0,296.7L85.0,294.8L87.0,292.9L88.1,289.4L86.6,284.7L86.5,284.6L86.1,284.4Z " data-iso-a2="LR" data-key="LBR" data-label="Liberia"/><path d="M391.3,55.2L390.4,53.6L387.4,52.5L382.7,52.7L379.8,51.4L375.5,51.0L373.5,47.3L365.6,44.8L361.0,44.7L359.4,46.1L356.3,46.4L348.8,51.7L347.4,55.5L349.8,62.3L349.5,63.4L346.4,67.9L341.5,70.0L337.5,68.7L333.2,65.4L325.9,62.7L321.0,61.5L315.4,61.2L310.8,58.7L308.6,53.0L307.0,50.8L295.6,47.2L289.7,46.3L286.5,47.2L277.2,44.3L275.9,43.7L275.6,46.3L276.0,50.8L271.7,53.0L268.3,55.7L264.1,59.6L265.0,65.9L260.0,70.5L258.9,71.0L258.1,71.5L261.6,82.8L261.4,86.5L262.2,93.8L260.7,98.0L261.9,102.5L261.8,104.6L258.3,107.3L257.9,109.8L262.8,116.7L265.0,123.7L266.7,124.7L268.9,124.1L279.5,132.1L280.4,133.8L285.1,134.9L295.1,137.5L300.9,142.2L307.6,138.6L307.6,138.6L310.9,137.0L316.6,134.3L337.2,144.5L386.3,168.4L390.8,170.6L390.7,169.4L390.5,165.8L399.6,165.6L398.6,151.4L398.3,146.6L398.1,144.5L395.5,110.5L392.6,78.8L389.4,70.0L391.0,63.9L389.5,58.8L391.7,55.7L391.3,55.2Z " data-iso-a2="LY" data-key="LBY" data-label="Libya"/><path d="M423.7,647.6L430.3,640.0L429.7,638.3L423.2,633.6L416.5,636.4L412.7,641.1L409.9,642.6L414.8,651.9L417.0,652.4L420.7,647.9L423.7,647.6Z " data-iso-a2="LS" data-key="LSO" data-label="Lesotho"/><path d="M19.4,147.5L21.9,147.2L29.1,147.2L33.1,147.9L38.6,148.1L40.6,146.0L40.9,144.3L45.1,140.1L46.1,135.8L48.8,128.6L50.3,126.4L63.3,117.2L65.4,114.0L69.1,105.4L71.9,104.8L72.8,103.0L76.1,99.5L76.9,97.3L79.9,96.5L83.1,96.9L89.3,98.5L98.9,96.0L98.9,91.2L100.1,91.3L100.4,89.0L101.4,81.5L105.3,79.0L114.8,73.8L116.0,73.3L120.5,73.7L121.3,71.8L125.6,71.8L131.9,69.9L135.1,66.2L143.9,62.4L146.6,62.0L145.5,59.8L146.0,58.2L149.3,55.2L170.0,48.7L166.6,44.8L165.6,40.7L165.7,31.0L162.9,24.1L161.3,23.8L156.3,21.8L155.0,22.5L151.1,22.0L145.8,22.8L143.4,22.3L138.9,18.3L138.1,15.4L133.6,16.5L128.8,25.6L124.6,31.4L117.3,35.7L110.9,37.8L101.9,44.9L100.4,49.4L97.1,52.7L95.6,55.4L94.0,62.0L95.6,65.5L94.9,67.8L89.3,74.4L84.7,78.4L80.9,80.3L76.3,83.9L72.4,85.4L63.8,87.0L58.8,94.1L57.6,96.7L53.1,100.1L51.2,100.7L48.2,103.0L47.4,105.3L44.3,110.1L40.9,118.2L39.5,118.8L33.3,124.7L28.7,131.6L28.9,132.3L25.0,138.9L20.7,142.9L19.4,147.5Z " data-iso-a2="MA" data-key="MAR" data-label="Morocco"/><path d="M626.4,529.8L625.6,530.1L625.1,531.6L626.4,529.8Z M616.9,493.5L615.7,492.4L615.7,493.7L616.9,493.5Z M628.6,484.6L624.2,483.2L621.8,484.7L622.6,488.5L621.1,492.7L619.3,494.2L613.4,495.9L613.1,499.4L610.7,503.4L611.2,506.2L610.4,506.1L607.7,509.5L607.3,506.6L603.7,510.9L603.4,513.7L602.7,511.8L596.9,515.1L596.2,517.2L595.0,516.5L590.5,516.9L588.4,518.6L585.6,518.4L583.1,520.2L579.1,520.4L578.1,525.2L573.3,531.8L572.7,533.7L572.6,540.7L573.7,545.3L574.6,552.2L572.7,559.2L571.4,561.4L567.8,566.0L563.4,570.6L559.9,579.5L560.1,585.5L561.2,587.5L561.8,592.0L560.8,594.0L560.0,600.0L561.1,601.9L561.8,606.4L564.0,608.9L570.7,612.8L573.2,612.9L577.1,611.0L586.3,608.8L587.2,608.2L594.7,595.4L598.6,586.8L599.5,584.1L603.0,578.1L615.3,551.5L619.2,543.9L620.9,539.5L621.6,532.9L622.7,530.9L624.7,529.2L626.1,525.6L626.7,515.1L628.2,516.4L629.9,520.4L631.0,519.5L633.3,514.8L632.4,510.2L632.3,501.1L630.5,489.2L628.6,484.6Z " data-iso-a2="MG" data-key="MDG" data-label="Madagascar"/><path d="M206.4,175.3L200.4,175.9L200.2,168.6L199.5,168.0L193.6,166.1L191.3,164.1L188.7,163.8L182.0,158.5L181.9,155.8L169.2,146.6L149.5,131.9L133.5,119.6L131.0,117.7L127.9,117.6L115.4,117.2L115.7,145.5L116.5,176.5L117.4,197.9L119.7,200.7L117.9,208.2L87.7,207.6L83.0,207.4L81.6,206.7L78.7,208.3L70.0,207.8L67.5,210.4L67.0,209.7L61.1,206.7L60.3,207.5L58.2,212.7L56.6,214.1L55.1,213.4L55.8,215.0L57.0,220.6L56.3,224.9L58.1,228.0L60.0,227.5L61.9,231.8L61.7,236.3L61.6,237.0L61.3,237.3L62.6,240.9L65.7,239.0L67.4,241.9L71.8,239.1L76.9,240.8L80.6,237.8L85.2,242.2L85.0,244.6L88.8,247.9L86.2,250.8L89.4,251.7L89.2,253.6L90.0,256.7L92.3,258.7L92.1,259.4L92.4,259.4L95.3,256.9L96.8,256.8L98.0,258.5L100.4,259.1L101.9,257.8L104.6,257.3L108.6,254.2L108.6,258.7L110.5,259.3L111.7,258.3L115.1,257.0L115.4,257.2L115.5,256.6L115.9,251.2L117.8,249.7L118.1,243.6L119.9,242.3L122.8,241.7L124.8,240.6L126.5,237.4L126.0,235.6L128.5,234.5L129.4,229.6L132.2,228.9L134.7,230.7L137.3,229.9L138.0,226.3L141.1,226.1L141.6,223.5L145.6,220.5L148.8,221.6L151.1,218.6L152.1,218.6L160.3,214.3L161.8,213.3L166.6,213.3L168.9,214.0L170.8,214.7L170.9,214.2L175.5,214.4L179.3,212.8L181.0,211.4L201.6,210.8L201.8,209.6L205.9,205.2L208.5,195.5L208.8,195.2L209.3,176.5L209.3,174.8L206.4,175.3Z " data-iso-a2="ML" data-key="MLI" data-label="Mali"/><path d="M463.4,618.4L464.5,612.9L463.7,613.0L461.8,610.4L464.0,607.1L465.7,605.7L473.9,602.0L480.9,599.9L486.1,597.5L489.6,593.1L490.4,590.8L489.1,589.6L491.8,582.5L491.4,579.6L492.2,576.9L490.2,577.0L489.7,567.3L489.8,565.3L487.0,557.5L487.9,553.0L493.9,549.0L500.0,543.6L505.5,539.9L515.2,531.1L518.4,529.4L523.5,527.5L528.1,526.4L537.4,520.8L537.1,519.4L538.9,518.8L540.3,516.4L544.9,511.6L546.7,506.3L547.5,505.5L547.4,501.3L546.6,502.4L546.6,491.8L546.9,482.2L547.7,477.4L547.1,473.9L548.6,468.1L548.7,463.2L548.3,462.2L538.5,467.5L537.3,468.4L529.5,471.0L527.9,470.0L523.4,471.6L522.3,472.5L517.6,473.4L513.5,472.6L509.2,473.4L505.7,470.9L503.0,472.1L498.9,471.9L496.8,471.9L495.6,471.8L493.5,472.9L490.9,477.9L491.7,482.4L492.0,489.2L495.9,492.0L497.9,494.6L502.8,502.3L501.2,514.8L499.3,516.4L497.1,516.7L495.8,518.7L495.8,522.9L494.8,526.0L494.2,523.8L488.4,517.2L487.2,513.1L490.6,506.5L490.5,501.2L489.1,499.3L482.6,500.7L479.3,495.5L479.0,495.2L477.0,495.9L463.3,500.3L457.4,501.9L450.9,504.0L452.0,509.0L452.0,510.4L451.9,511.9L459.5,514.2L463.5,516.2L465.6,518.3L471.9,520.1L472.8,520.9L474.4,526.6L473.7,536.8L472.0,541.1L470.8,541.7L471.7,544.4L470.7,547.1L472.1,552.9L468.7,557.9L467.3,558.8L465.2,563.8L455.8,574.6L454.4,575.6L454.4,576.1L456.1,586.7L457.4,590.0L458.4,595.5L456.2,609.0L456.3,609.7L456.5,609.8L457.0,612.2L456.7,612.8L457.0,615.1L456.7,618.1L457.4,618.1L458.7,618.4L462.4,618.5L463.3,618.5L463.4,618.4Z M494.3,477.0L494.0,476.0L494.3,476.0L494.3,477.0Z M493.6,476.1L492.7,476.1L492.8,475.7L493.6,476.1Z " data-iso-a2="MZ" data-key="MOZ" data-label="Mozambique"/><path d="M131.0,117.7L129.1,116.3L119.3,109.2L108.6,101.5L101.1,95.9L99.6,94.8L99.4,96.4L98.1,107.0L69.2,105.7L65.9,129.9L56.4,133.9L55.5,135.0L54.6,150.0L19.6,148.4L18.2,153.5L19.0,151.2L20.1,150.8L21.0,153.6L23.5,155.2L24.9,159.4L23.7,163.7L21.4,168.5L23.4,171.3L24.0,179.0L23.0,185.6L20.0,191.5L17.6,197.7L17.2,202.1L20.5,195.4L27.1,195.4L32.2,194.4L36.1,194.8L40.8,198.3L41.7,199.9L44.5,200.1L45.8,200.9L48.6,206.5L49.1,206.4L54.9,213.3L55.1,213.4L56.6,214.1L58.2,212.7L60.3,207.5L61.1,206.7L67.0,209.7L67.5,210.4L70.0,207.8L78.7,208.3L81.6,206.7L83.0,207.4L87.7,207.6L117.9,208.2L119.7,200.7L117.4,197.9L116.5,176.5L115.7,145.5L115.4,117.2L127.9,117.6L131.0,117.7Z " data-iso-a2="MR" data-key="MRT" data-label="Mauritania"/><path d="M494.3,477.0L494.3,476.0L494.0,476.0L494.3,477.0Z M493.6,476.1L492.8,475.7L492.7,476.1L493.6,476.1Z M479.0,450.3L479.0,450.6L482.5,454.3L482.4,456.5L484.3,458.5L483.4,463.8L481.8,464.5L482.4,467.5L481.2,469.8L481.4,472.6L480.7,476.7L481.8,480.4L477.4,483.4L476.6,488.8L475.2,490.6L478.5,494.5L479.0,495.2L479.3,495.5L482.6,500.7L489.1,499.3L490.5,501.2L490.6,506.5L487.2,513.1L488.4,517.2L494.2,523.8L494.8,526.0L495.8,522.9L495.8,518.7L497.1,516.7L499.3,516.4L501.2,514.8L502.8,502.3L497.9,494.6L495.9,492.0L492.0,489.2L491.7,482.4L490.9,477.9L493.5,472.9L495.6,471.8L496.8,471.9L496.8,471.5L495.1,469.2L493.2,455.9L492.0,454.0L489.0,451.3L483.6,452.4L482.8,451.5L479.2,450.2L479.0,450.3Z " data-iso-a2="MW" data-key="MWI" data-label="Malawi"/><path d="M383.3,528.7L370.8,530.9L361.8,531.4L344.1,528.8L340.3,525.3L303.4,524.9L299.7,525.1L291.2,520.9L286.1,523.2L278.6,523.5L278.4,525.6L278.9,530.7L285.1,539.5L290.4,549.9L291.6,551.4L294.1,558.3L297.5,563.6L298.7,566.4L301.8,570.4L303.6,575.2L302.4,577.7L304.2,592.6L305.9,597.2L305.8,603.7L306.8,609.3L307.9,610.3L309.8,619.3L313.0,624.7L318.2,630.1L319.1,630.9L321.9,629.4L323.0,626.4L324.6,625.5L327.2,627.7L327.8,631.7L333.4,633.4L339.8,633.5L342.5,634.2L346.0,630.9L349.9,629.8L351.6,599.3L351.9,595.4L351.9,595.1L353.1,569.1L362.1,569.3L362.7,559.5L363.8,534.3L373.4,533.3L384.6,531.6L386.7,533.9L387.7,536.0L388.8,535.7L392.9,532.5L395.1,531.6L396.6,532.3L399.1,530.6L403.0,529.9L403.4,530.0L402.0,528.4L398.8,527.3L394.6,526.8L388.2,527.8L386.2,528.2L383.3,528.7Z " data-iso-a2="NA" data-key="NAM" data-label="Namibia"/><path d="M307.6,138.6L300.9,142.2L295.1,137.5L285.1,134.9L280.4,133.8L275.7,136.7L261.7,145.3L239.6,158.6L224.2,171.7L223.4,172.2L211.4,174.4L209.3,174.8L209.3,176.5L208.8,195.2L208.5,195.5L205.9,205.2L201.8,209.6L201.6,210.8L181.0,211.4L179.3,212.8L175.5,214.4L170.9,214.2L170.8,214.7L170.7,215.2L170.2,218.7L172.0,222.7L174.2,226.3L179.5,229.7L177.5,229.6L177.3,231.5L178.4,233.1L182.7,236.7L185.3,236.8L186.4,236.0L188.8,237.6L187.3,239.4L189.9,243.3L190.3,243.8L190.6,242.8L191.2,240.3L194.4,239.2L201.1,244.9L201.7,245.8L202.2,245.5L202.3,237.8L203.5,237.0L206.6,232.8L207.2,229.0L209.8,227.2L212.1,226.4L217.5,226.2L219.9,225.1L223.2,226.1L230.5,230.0L232.1,232.5L237.4,232.5L241.4,230.3L244.3,230.8L250.5,234.4L258.6,235.4L266.8,230.4L271.3,230.0L278.2,230.7L282.2,232.7L285.9,231.7L287.3,230.5L294.5,226.9L296.2,226.8L295.2,222.7L296.5,218.0L298.0,214.8L303.1,207.3L313.3,196.2L315.1,167.7L316.8,163.0L314.4,160.5L313.7,157.8L310.1,153.0L308.7,144.0L307.6,138.6L307.6,138.6Z " data-iso-a2="NE" data-key="NER" data-label="Niger"/><path d="M236.2,315.8L235.5,314.8L234.7,316.0L236.2,315.8Z M201.7,245.8L201.3,246.4L200.6,248.7L202.7,251.7L203.2,257.9L201.2,259.5L201.9,260.6L198.8,264.2L198.8,265.3L196.9,267.3L196.6,269.9L193.4,271.2L192.7,284.9L193.3,286.3L192.6,291.1L193.1,293.6L192.4,296.9L193.0,296.9L198.4,296.7L199.3,295.5L202.4,294.9L199.8,296.6L205.9,296.6L208.9,297.2L212.9,300.3L215.3,304.0L218.6,304.3L216.4,305.5L217.9,306.3L218.5,310.7L219.8,313.6L226.4,316.2L229.1,316.5L231.1,312.9L232.6,316.1L234.8,314.9L245.7,314.5L245.4,311.0L247.1,312.7L248.1,312.6L248.3,312.6L250.6,308.3L252.5,301.4L258.9,295.5L260.4,293.1L263.5,291.1L264.9,292.2L266.7,292.1L267.9,290.4L269.2,291.2L272.4,295.8L274.0,296.3L277.0,294.0L277.2,292.1L279.9,289.9L279.8,287.2L281.4,285.4L285.1,275.7L286.8,275.5L290.9,267.2L292.8,265.7L293.3,261.9L294.6,260.6L297.3,253.9L299.9,250.6L302.0,250.1L305.6,247.0L304.9,240.2L302.6,239.7L301.5,237.2L300.6,232.8L299.3,231.1L297.7,228.9L296.2,226.8L294.5,226.9L287.3,230.5L285.9,231.7L282.2,232.7L278.2,230.7L271.3,230.0L266.8,230.4L258.6,235.4L250.5,234.4L244.3,230.8L241.4,230.3L237.4,232.5L232.1,232.5L230.5,230.0L223.2,226.1L219.9,225.1L217.5,226.2L212.1,226.4L209.8,227.2L207.2,229.0L206.6,232.8L203.5,237.0L202.3,237.8L202.2,245.5L201.7,245.8Z " data-iso-a2="NG" data-key="NGA" data-label="Nigeria"/><path d="M695.2,147.5L696.4,144.3L695.5,142.6L694.2,146.4L695.2,147.5Z M660.3,125.0L661.1,126.1L665.6,131.8L664.3,152.5L641.8,164.0L640.7,164.6L641.2,165.6L650.0,181.3L650.7,181.6L654.1,187.7L655.8,186.8L658.5,186.3L662.0,183.5L664.6,183.0L668.1,183.5L670.5,182.6L671.8,179.6L671.2,177.7L672.6,174.1L680.1,172.0L681.1,170.1L681.2,165.7L685.0,162.1L690.1,160.5L687.9,152.5L688.5,146.8L689.3,144.4L690.5,145.8L692.7,145.8L694.6,138.2L698.1,130.8L699.2,124.0L698.8,123.1L695.2,121.9L687.7,113.8L685.8,112.7L683.8,113.1L681.9,112.4L677.6,111.9L674.1,111.1L671.0,109.0L666.1,103.7L664.6,101.2L662.6,103.9L660.1,102.8L661.5,108.0L659.7,112.4L660.5,113.5L659.9,120.1L660.0,123.6L660.3,125.0Z M659.3,90.6L660.8,94.2L661.2,94.7L662.2,94.5L662.1,93.9L661.9,89.8L659.6,89.1L659.3,90.6Z " data-iso-a2="OM" data-key="OMN" data-label="Oman"/><path d="M37.4,37.8L39.8,40.1L40.6,39.0L37.4,37.8Z M113.1,0.0L110.9,3.7L114.2,3.0L119.3,4.4L123.8,3.0L123.6,0.0L113.1,0.0Z " data-iso-a2="PT" data-key="PR1" data-label="Portugal"/><path d="M624.4,108.6L625.0,103.4L623.1,98.2L619.8,93.8L617.9,98.3L617.4,101.6L619.3,107.0L619.2,107.6L619.9,108.6L623.5,109.1L624.4,108.6Z " data-iso-a2="QA" data-key="QAT" data-label="Qatar"/><path d="M458.0,368.7L456.5,369.2L453.4,372.4L452.0,371.5L449.8,371.8L449.5,371.8L449.1,372.0L445.2,379.7L442.6,382.1L443.1,384.4L444.0,384.8L444.2,384.2L445.8,383.8L447.6,385.7L450.5,385.5L452.1,384.8L454.3,381.8L458.4,381.7L458.6,381.7L459.0,381.7L461.5,380.4L461.2,373.6L458.0,368.9L458.3,368.7L458.0,368.7Z " data-iso-a2="RW" data-key="RWA" data-label="Rwanda"/><path d="M99.9,92.9L100.1,91.3L98.9,91.2L98.9,96.0L89.3,98.5L83.1,96.9L79.9,96.5L76.9,97.3L76.1,99.5L72.8,103.0L71.9,104.8L69.1,105.4L65.4,114.0L63.3,117.2L50.3,126.4L48.8,128.6L46.1,135.8L45.1,140.1L40.9,144.3L40.6,146.0L38.6,148.1L33.1,147.9L29.1,147.2L21.9,147.2L19.4,147.5L19.3,147.9L17.8,153.0L18.2,153.5L19.6,148.4L54.6,150.0L55.5,135.0L56.4,133.9L65.9,129.9L69.2,105.7L98.1,107.0L99.4,96.4L99.6,94.8L99.9,92.9Z " data-iso-a2="-99" data-key="SAH" data-label="W. Sahara"/><path d="M556.3,192.3L555.7,190.1L554.6,191.7L556.3,192.3Z M500.0,110.3L498.5,108.7L496.4,107.5L500.0,110.3Z M496.9,107.3L496.6,105.9L496.3,106.3L496.9,107.3Z M507.2,44.9L506.2,46.1L490.5,52.1L500.7,60.9L498.3,62.7L497.5,65.8L491.3,68.0L488.5,72.7L487.0,74.3L477.3,73.4L477.0,79.5L477.2,81.5L476.5,85.8L477.3,85.1L481.3,85.8L483.8,88.5L485.6,91.3L492.6,99.0L495.7,103.5L499.8,107.8L502.3,111.0L504.9,117.4L507.2,120.5L510.6,121.3L514.2,123.8L516.0,125.6L521.4,133.4L523.4,138.1L523.2,143.1L525.1,146.5L524.9,148.6L527.0,151.7L533.2,158.1L535.0,158.3L538.9,160.8L543.4,165.5L549.3,175.4L552.8,180.9L558.2,185.1L561.2,190.5L562.1,191.2L563.8,194.6L564.0,195.3L566.4,192.3L566.3,185.4L568.1,183.8L571.8,185.3L580.0,184.0L586.0,184.8L597.7,184.8L600.3,187.8L601.8,187.7L604.2,186.0L605.8,181.0L609.1,175.2L616.0,170.5L617.3,170.0L638.7,165.1L640.7,164.6L641.8,164.0L664.3,152.5L665.6,131.8L661.1,126.1L660.3,125.0L659.9,125.9L637.9,124.7L630.7,117.5L626.7,112.0L626.4,112.0L624.4,111.7L624.6,110.3L624.1,109.4L623.5,109.1L619.9,108.6L619.2,107.6L618.4,106.9L616.5,104.8L615.6,102.7L610.8,95.2L610.8,93.1L609.5,89.6L605.2,87.1L599.7,82.8L600.0,82.2L597.0,81.1L595.6,78.6L591.7,73.5L591.0,72.6L584.8,73.3L581.7,69.1L574.1,68.7L572.8,69.2L558.8,69.0L543.3,59.4L533.2,52.9L517.5,45.8L509.0,45.0L507.2,44.9Z " data-iso-a2="SA" data-key="SAU" data-label="Saudi Arabia"/><path d="M398.3,146.6L398.6,151.4L399.6,165.6L390.5,165.8L390.7,169.4L390.8,170.6L391.0,174.8L392.7,206.1L392.6,206.7L384.6,207.0L383.2,212.2L378.3,218.1L379.9,221.8L376.2,224.9L377.3,229.8L373.7,235.0L378.6,236.2L379.3,237.3L381.2,246.6L384.4,248.8L384.2,251.9L384.0,252.9L384.7,254.1L387.8,257.3L391.7,263.4L391.6,268.1L390.1,270.9L391.0,271.9L395.8,274.3L396.7,274.5L396.7,274.5L396.8,274.2L400.3,272.4L402.5,266.2L402.7,263.1L407.0,258.5L411.8,257.4L413.8,260.3L419.2,266.0L420.2,266.4L424.1,265.1L430.9,265.2L433.4,267.7L440.8,267.7L440.7,266.4L447.7,261.8L447.7,260.4L451.3,258.3L455.9,261.1L458.7,263.5L463.0,262.7L466.8,258.6L469.2,254.2L472.8,248.5L472.4,243.9L469.8,241.1L476.0,241.0L480.1,238.9L479.3,245.0L480.6,252.5L487.7,258.4L488.5,261.9L488.0,263.1L489.8,265.6L489.8,265.6L489.8,265.6L489.8,265.1L490.6,261.1L491.1,255.1L493.6,251.6L496.9,250.8L497.0,247.7L499.3,241.0L502.1,235.2L506.6,233.2L508.8,220.8L509.3,218.2L508.8,215.4L507.7,209.7L508.5,208.5L511.1,198.2L511.1,191.1L515.2,190.1L517.3,186.9L521.9,185.1L524.6,180.9L524.2,180.3L513.5,173.4L510.7,166.1L509.3,156.6L504.8,145.1L504.4,142.9L456.2,144.9L455.3,143.1L454.6,144.9L449.7,145.1L401.7,146.5L398.3,146.6Z " data-iso-a2="SD" data-key="SDN" data-label="Sudan"/><path d="M396.7,274.5L396.7,274.5L397.2,274.6L397.4,277.4L398.2,278.1L402.4,279.1L407.3,284.3L406.8,285.1L415.0,290.9L418.2,294.0L417.7,295.7L420.5,299.9L421.8,300.1L425.2,302.2L426.5,303.8L427.7,307.9L428.4,308.7L428.7,309.4L436.0,316.0L437.7,316.3L441.0,314.5L445.8,315.6L450.0,313.6L455.0,319.5L458.0,320.9L458.5,322.7L461.0,323.8L461.2,324.2L461.5,323.7L470.2,321.1L471.6,323.0L474.0,323.0L475.3,322.1L481.5,320.3L486.2,321.5L488.5,319.2L490.7,316.9L492.5,314.9L494.4,313.0L500.8,306.1L502.5,304.3L502.3,304.1L499.7,300.8L499.4,298.9L494.7,290.6L492.7,289.6L489.0,284.7L486.7,283.2L481.2,281.7L480.5,280.5L482.8,275.7L489.1,275.6L490.3,274.2L489.8,266.0L489.8,265.6L489.8,265.6L489.8,265.6L488.0,263.1L488.5,261.9L487.7,258.4L480.6,252.5L479.3,245.0L480.1,238.9L476.0,241.0L469.8,241.1L472.4,243.9L472.8,248.5L469.2,254.2L466.8,258.6L463.0,262.7L458.7,263.5L455.9,261.1L451.3,258.3L447.7,260.4L447.7,261.8L440.7,266.4L440.8,267.7L433.4,267.7L430.9,265.2L424.1,265.1L420.2,266.4L419.2,266.0L413.8,260.3L411.8,257.4L407.0,258.5L402.7,263.1L402.5,266.2L400.3,272.4L396.8,274.2L396.7,274.5Z " data-iso-a2="SS" data-key="SDS" data-label="S. Sudan"/><path d="M54.9,213.3L49.1,206.4L48.6,206.5L45.8,200.9L44.5,200.1L41.7,199.9L40.8,198.3L36.1,194.8L32.2,194.4L27.1,195.4L20.5,195.4L17.2,202.1L16.7,203.1L13.9,207.3L10.8,210.9L8.1,212.8L10.3,213.7L13.2,219.1L14.7,223.2L14.9,224.2L24.5,224.5L25.4,223.1L29.9,222.7L35.3,225.7L38.5,225.3L39.6,227.4L34.1,227.9L32.0,227.0L26.4,226.4L21.5,227.0L21.2,228.6L12.6,229.3L12.6,230.1L12.4,234.0L12.0,235.1L12.3,235.8L12.5,236.2L16.9,235.5L20.6,235.7L26.7,233.4L37.1,233.8L40.2,233.9L43.1,234.0L46.3,234.6L48.6,236.2L53.2,237.6L57.0,236.9L61.0,236.9L61.6,237.0L61.7,236.3L61.9,231.8L60.0,227.5L58.1,228.0L56.3,224.9L57.0,220.6L55.8,215.0L55.1,213.4L54.9,213.3Z " data-iso-a2="SN" data-key="SEN" data-label="Senegal"/><path d="M116.5,513.2L116.3,512.3L115.7,512.8L116.5,513.2Z M31.6,436.8L32.2,436.4L31.4,435.9L31.6,436.8Z " data-iso-a2="SH" data-key="SHN" data-label="Saint Helena"/><path d="M48.5,285.3L47.8,283.4L44.6,284.0L48.5,285.3Z M42.2,270.0L43.8,273.6L45.0,273.7L43.7,275.6L42.1,274.9L43.0,277.6L44.2,277.8L45.4,281.2L49.4,284.3L50.2,286.3L54.0,287.9L57.5,290.2L57.9,290.6L65.8,282.6L69.6,277.1L69.9,275.7L69.9,275.4L69.2,275.3L66.7,274.9L67.9,273.6L67.1,269.7L65.8,269.1L65.9,266.5L63.4,262.6L61.4,260.5L55.4,260.4L55.3,261.1L50.6,261.3L46.5,267.0L42.1,269.4L42.2,270.0Z " data-iso-a2="SL" data-key="SLE" data-label="Sierra Leone"/><path d="M624.1,244.1L622.0,243.5L616.3,245.6L609.2,246.3L607.1,248.1L596.7,249.3L589.1,253.6L584.1,253.8L579.0,250.4L574.8,244.9L572.9,243.5L572.2,244.8L571.3,246.6L570.3,248.5L570.2,248.9L568.2,252.4L570.2,256.5L573.9,260.7L576.6,264.5L577.9,264.9L581.8,268.3L599.0,274.0L615.3,277.4L618.4,277.3L619.6,275.0L626.0,262.4L625.6,257.1L624.4,244.1L624.1,244.1Z " data-iso-a2="-99" data-key="SOL" data-label="Somaliland"/><path d="M562.6,374.0L565.9,368.0L579.7,352.1L587.6,344.3L592.9,340.1L601.2,335.0L603.2,333.4L610.6,325.1L616.2,318.1L620.2,312.7L622.4,308.1L625.9,302.5L629.2,295.6L630.5,289.4L634.7,280.3L635.3,277.2L637.4,274.7L639.9,268.1L642.9,262.0L642.9,253.6L645.5,251.7L644.2,251.7L644.6,249.4L644.1,245.2L644.5,237.5L640.2,236.1L637.6,238.8L634.6,240.9L630.5,241.9L625.5,243.9L624.4,244.1L625.6,257.1L626.0,262.4L619.6,275.0L618.4,277.3L616.3,279.8L605.2,292.8L592.1,309.1L583.9,308.7L579.9,309.7L575.7,311.9L572.8,315.4L568.8,316.3L564.8,318.1L564.5,318.6L563.4,320.4L559.7,326.4L556.2,330.3L556.6,367.0L561.7,375.2L562.6,374.0Z " data-iso-a2="SO" data-key="SOM" data-label="Somalia"/><path d="M230.0,357.1L230.2,354.4L229.0,357.8L230.0,357.1Z M237.3,343.2L237.6,342.6L236.4,342.9L237.3,343.2Z " data-iso-a2="ST" data-key="STP" data-label="Sao Tome and Principe"/><path d="M456.1,609.8L451.9,607.5L448.8,609.6L445.4,617.1L447.2,620.3L448.9,621.6L454.7,622.5L456.4,618.0L456.7,618.1L457.0,615.1L456.7,612.8L457.0,612.2L456.5,609.8L456.3,609.7L456.1,609.8Z " data-iso-a2="SZ" data-key="SWZ" data-label="Swaziland"/><path d="M688.1,407.0L687.4,405.6L686.7,406.1L688.1,407.0Z " data-iso-a2="SC" data-key="SYC" data-label="Seychelles"/><path d="M386.3,168.4L337.2,144.5L316.6,134.3L310.9,137.0L307.6,138.6L308.7,144.0L310.1,153.0L313.7,157.8L314.4,160.5L316.8,163.0L315.1,167.7L313.3,196.2L303.1,207.3L298.0,214.8L296.5,218.0L295.2,222.7L296.2,226.8L297.7,228.9L299.3,231.1L300.6,232.8L302.3,232.8L304.8,233.7L305.1,235.2L308.0,238.3L308.3,240.5L310.7,247.5L309.9,251.6L312.3,258.8L315.9,262.1L314.8,262.6L308.1,262.8L302.5,262.4L300.0,265.2L302.9,269.1L307.2,273.1L308.5,273.7L312.2,278.3L314.5,283.2L315.0,285.2L314.5,286.0L315.5,286.0L319.0,286.1L324.7,282.9L327.2,285.6L327.9,284.9L335.1,281.5L344.1,280.7L348.9,275.0L347.4,272.2L358.0,270.3L360.5,270.4L364.6,267.7L369.1,262.1L370.4,261.9L373.4,257.4L373.2,256.7L380.5,252.2L383.5,252.9L384.0,252.9L384.2,251.9L384.4,248.8L381.2,246.6L379.3,237.3L378.6,236.2L373.7,235.0L377.3,229.8L376.2,224.9L379.9,221.8L378.3,218.1L383.2,212.2L384.6,207.0L392.6,206.7L392.7,206.1L391.0,174.8L390.8,170.6L386.3,168.4Z " data-iso-a2="TD" data-key="TCD" data-label="Chad"/><path d="M173.6,252.4L172.7,252.7L172.1,252.3L169.1,251.6L166.9,251.1L167.5,251.7L166.9,255.8L172.1,267.7L170.6,273.8L173.5,277.7L172.6,283.8L171.5,285.5L172.6,288.6L172.3,293.3L173.6,296.1L177.9,299.6L179.0,299.0L182.0,298.4L183.5,297.6L181.3,290.9L182.2,290.8L182.3,271.1L180.0,266.1L179.9,262.0L174.6,258.2L175.8,253.4L176.1,252.4L173.6,252.4Z " data-iso-a2="TG" data-key="TGO" data-label="Togo"/><path d="M271.3,38.8L271.0,37.2L269.9,38.8L271.3,38.8Z M274.0,29.3L273.0,29.4L272.7,29.9L274.0,29.3Z M252.1,9.2L252.2,9.7L249.0,13.2L250.1,14.4L249.1,19.6L250.2,25.1L247.8,30.9L245.4,32.3L243.0,34.9L242.5,37.6L244.1,41.9L247.1,44.5L249.0,48.1L255.1,53.9L258.4,68.8L258.9,71.0L260.0,70.5L265.0,65.9L264.1,59.6L268.3,55.7L271.7,53.0L276.0,50.8L275.6,46.3L275.9,43.7L275.0,43.3L271.3,39.6L269.4,40.7L267.1,39.3L263.8,35.7L265.0,33.0L269.1,30.0L272.7,24.8L271.7,21.2L267.6,17.6L267.8,14.9L272.7,9.9L271.3,8.2L266.0,10.7L266.3,9.9L262.6,6.4L261.1,5.6L256.7,6.9L254.1,8.7L252.1,9.2Z " data-iso-a2="TN" data-key="TUN" data-label="Tunisia"/><path d="M541.6,419.5L540.5,417.3L538.9,417.1L538.7,419.5L541.6,419.5Z M545.5,407.0L543.9,409.0L543.3,411.6L545.5,407.0Z M458.3,368.7L458.0,368.9L461.2,373.6L461.5,380.4L459.0,381.7L458.6,381.7L458.5,382.0L461.0,388.7L457.3,393.3L456.5,395.2L452.6,400.3L450.4,401.7L447.5,401.6L447.5,402.1L446.8,406.8L449.1,414.0L448.0,416.4L452.2,424.6L453.5,425.7L458.9,437.3L459.2,438.2L459.4,438.9L462.1,442.3L464.7,442.3L468.2,445.2L468.9,445.2L478.5,450.0L479.0,450.3L479.2,450.2L482.8,451.5L483.6,452.4L489.0,451.3L492.0,454.0L493.2,455.9L495.1,469.2L496.8,471.5L496.8,471.9L498.9,471.9L503.0,472.1L505.7,470.9L509.2,473.4L513.5,472.6L517.6,473.4L522.3,472.5L523.4,471.6L527.9,470.0L529.5,471.0L537.3,468.4L538.5,467.5L548.3,462.2L548.2,461.9L545.0,459.0L541.8,457.4L542.4,456.6L541.5,449.4L539.9,446.9L538.8,441.9L540.3,437.7L540.3,435.7L539.0,435.4L539.1,432.8L541.1,426.5L539.4,425.8L535.8,421.0L535.5,416.5L537.1,413.0L539.4,405.6L539.6,404.8L526.2,394.2L525.4,393.0L525.3,388.4L491.1,368.1L490.4,368.1L489.4,368.1L461.5,368.1L461.3,368.1L458.4,368.7L458.3,368.7Z " data-iso-a2="TZ" data-key="TZA" data-label="Tanzania"/><path d="M490.4,366.5L490.8,356.6L492.8,352.4L495.2,349.8L495.8,348.1L498.9,345.8L498.7,344.7L500.3,342.2L499.5,334.5L498.4,331.6L496.7,329.6L494.8,324.8L495.2,322.9L492.2,320.1L490.7,316.9L488.5,319.2L486.2,321.5L481.5,320.3L475.3,322.1L474.0,323.0L471.6,323.0L470.2,321.1L461.5,323.7L461.2,324.2L461.7,324.5L461.4,330.5L460.3,334.3L464.6,336.1L465.5,337.3L462.4,341.9L452.8,351.7L452.9,353.4L450.8,357.3L449.8,365.0L449.5,371.5L449.5,371.8L449.8,371.8L452.0,371.5L453.4,372.4L456.5,369.2L458.0,368.7L458.3,368.7L458.4,368.7L461.3,368.1L461.5,368.1L489.4,368.1L490.4,368.1L490.4,366.5Z " data-iso-a2="UG" data-key="UGA" data-label="Uganda"/><path d="M476.7,44.4L474.1,43.3L473.1,44.1L472.8,46.9L473.7,54.6L477.7,53.1L478.0,53.1L478.0,52.3L478.4,50.3L477.8,48.3L477.7,45.9L477.2,44.4L476.7,44.4Z " data-iso-a2="PS" data-key="WEB" data-label="West Bank"/><path d="M665.6,228.2L661.8,229.5L663.6,230.5L669.2,230.9L672.3,228.7L669.3,227.8L665.6,228.2Z M566.5,221.7L566.2,221.3L565.9,222.1L566.5,221.7Z M566.5,219.1L566.2,218.1L565.6,218.7L566.5,219.1Z M563.3,206.0L563.3,204.7L563.0,204.9L563.3,206.0Z M640.7,164.6L638.7,165.1L617.3,170.0L616.0,170.5L609.1,175.2L605.8,181.0L604.2,186.0L601.8,187.7L600.3,187.8L597.7,184.8L586.0,184.8L580.0,184.0L571.8,185.3L568.1,183.8L566.3,185.4L566.4,192.3L564.0,195.3L564.8,198.7L564.1,202.4L565.1,205.2L564.0,206.6L566.8,209.4L569.2,218.6L570.6,220.0L571.2,225.9L573.8,230.1L578.8,232.2L584.1,229.9L585.4,230.4L590.9,227.2L595.2,223.7L602.9,222.7L608.3,220.5L610.0,218.4L613.0,216.4L615.6,216.8L619.0,216.1L621.9,211.8L626.0,208.9L634.2,205.3L640.9,203.0L648.1,198.2L647.3,195.2L647.5,193.0L650.0,189.8L654.1,187.7L650.7,181.6L650.0,181.3L641.2,165.6L640.7,164.6Z " data-iso-a2="YE" data-key="YEM" data-label="Yemen"/><path d="M437.5,573.0L435.4,573.1L432.5,575.6L428.3,576.5L426.7,577.4L419.8,583.7L415.9,585.5L413.2,591.7L409.0,595.2L404.3,596.7L400.9,604.3L395.7,605.6L389.8,605.3L388.7,604.2L386.0,603.9L382.9,601.4L380.7,600.6L378.5,601.1L375.6,606.0L368.8,613.2L363.7,614.9L357.5,615.0L356.6,612.4L358.6,608.1L358.5,606.2L355.0,597.8L352.3,595.6L351.9,595.4L351.6,599.3L349.9,629.8L346.0,630.9L342.5,634.2L339.8,633.5L333.4,633.4L327.8,631.7L327.2,627.7L324.6,625.5L323.0,626.4L321.9,629.4L319.1,630.9L319.4,631.1L321.5,634.6L323.2,638.3L325.0,644.8L328.7,653.4L332.9,660.1L333.6,663.7L333.5,667.2L329.5,671.4L333.9,680.0L333.0,680.5L333.6,684.2L334.4,681.8L336.7,684.4L339.3,685.0L343.1,688.2L346.2,688.6L349.8,686.1L353.6,685.1L361.1,685.1L365.2,682.5L369.3,682.0L370.8,682.6L381.2,682.9L384.5,684.1L388.1,682.4L393.3,682.9L393.6,681.4L396.5,680.3L400.1,680.9L405.7,678.9L408.3,677.5L418.2,671.1L422.0,668.1L428.0,662.6L432.6,659.5L435.7,656.3L446.7,641.8L451.1,637.8L453.3,637.0L455.8,635.1L458.5,631.2L460.3,625.6L462.7,620.7L463.3,618.5L462.4,618.5L458.7,618.4L457.4,618.1L456.7,618.1L456.4,618.0L454.7,622.5L448.9,621.6L447.2,620.3L445.4,617.1L448.8,609.6L451.9,607.5L456.1,609.8L456.3,609.7L456.2,609.0L458.4,595.5L457.4,590.0L456.1,586.7L454.4,576.1L454.4,575.6L453.7,575.0L449.4,574.4L447.1,574.6L440.2,572.6L437.6,573.0L437.5,573.0Z M423.2,633.6L429.7,638.3L430.3,640.0L423.7,647.6L420.7,647.9L417.0,652.4L414.8,651.9L409.9,642.6L412.7,641.1L416.5,636.4L423.2,633.6Z " data-iso-a2="ZA" data-key="ZAF" data-label="South Africa"/><path d="M478.5,450.0L468.9,445.2L468.2,445.2L464.7,442.3L462.1,442.3L459.4,438.9L459.2,438.2L457.5,438.4L442.3,440.6L436.7,448.4L438.6,453.8L438.4,461.9L437.4,463.2L436.0,471.9L436.4,473.0L441.6,478.3L445.7,478.7L445.8,477.2L448.5,476.5L447.9,488.3L447.1,489.1L445.0,487.2L440.6,488.1L437.7,483.2L434.9,479.4L428.4,477.3L424.8,472.5L424.1,470.5L422.9,471.3L420.8,474.2L420.0,474.3L408.6,472.0L406.7,467.9L407.0,467.0L397.7,468.2L398.1,465.9L394.7,463.4L394.4,463.3L394.6,464.6L394.1,478.3L392.5,483.8L375.0,483.6L374.0,511.9L374.4,514.8L376.7,519.0L384.5,526.6L386.2,528.2L388.2,527.8L394.6,526.8L398.8,527.3L402.0,528.4L403.4,530.0L405.2,530.5L407.8,530.7L408.9,531.6L413.2,531.5L419.5,531.9L425.6,525.4L426.8,523.4L430.8,520.7L437.1,517.6L437.8,513.8L439.5,512.6L443.6,510.7L450.7,510.3L452.0,510.4L452.0,509.0L450.9,504.0L457.4,501.9L463.3,500.3L477.0,495.9L479.0,495.2L478.5,494.5L475.2,490.6L476.6,488.8L477.4,483.4L481.8,480.4L480.7,476.7L481.4,472.6L481.2,469.8L482.4,467.5L481.8,464.5L483.4,463.8L484.3,458.5L482.4,456.5L482.5,454.3L479.0,450.6L479.0,450.3L478.5,450.0Z " data-iso-a2="ZM" data-key="ZMB" data-label="Zambia"/><path d="M455.8,574.6L465.2,563.8L467.3,558.8L468.7,557.9L472.1,552.9L470.7,547.1L471.7,544.4L470.8,541.7L472.0,541.1L473.7,536.8L474.4,526.6L472.8,520.9L471.9,520.1L465.6,518.3L463.5,516.2L459.5,514.2L451.9,511.9L452.0,510.4L450.7,510.3L443.6,510.7L439.5,512.6L437.8,513.8L437.1,517.6L430.8,520.7L426.8,523.4L425.6,525.4L419.5,531.9L413.2,531.5L408.9,531.6L407.8,530.7L405.2,530.5L403.4,530.0L403.2,530.5L405.8,536.2L407.5,538.3L410.0,545.2L415.1,550.3L420.1,556.1L423.7,556.4L423.4,562.2L425.6,566.1L434.9,569.3L434.6,570.5L437.1,572.6L437.5,573.0L437.6,573.0L440.2,572.6L447.1,574.6L449.4,574.4L453.7,575.0L454.4,575.6L455.8,574.6Z " data-iso-a2="ZW" data-key="ZWE" data-label="Zimbabwe"/></g></svg>