<?xml version="1.0" ?><!DOCTYPE svg  PUBLIC '-//W3C//DTD SVG 1.1//EN'  'http://www.w3.org/Graphics/SVG/1.1/DTD/svg11.dtd'><svg enable_background="new 0 0 700 628" height="628px" pretty_print="False" style="stroke-linejoin: round; stroke:#000; fill: none;" version="1.1" viewBox="0 0 700 628" width="700px" xmlns="http://www.w3.org/2000/svg" xmlns:xlink="http://www.w3.org/1999/xlink"><defs><style type="text/css"><![CDATA[path { fill-rule: evenodd; }]]></style></defs><metadata><views><view h="628.705000475" padding="0.05" w="700"><proj id="laea" lat0="46" lon0="11"/><bbox h="452.25" w="504.33" x="756.77" y="676.86"/></view></views></metadata><g class="" id="layer0"><path d="M451.3,500.4L447.5,501.3L446.3,499.6L442.4,507.9L443.7,513.0L445.3,513.0L446.8,514.0L445.7,520.4L446.8,528.7L446.0,531.3L447.3,536.6L445.9,537.9L448.3,541.0L453.4,543.3L455.7,547.3L455.9,548.8L458.7,549.5L460.7,546.7L459.5,544.2L463.7,540.9L464.7,536.0L466.8,534.0L466.3,529.2L466.3,528.0L466.1,527.6L460.6,523.8L459.3,521.5L458.4,517.3L459.0,511.4L459.2,511.2L459.3,510.4L458.0,506.2L455.6,504.1L454.2,503.7L452.1,500.8L451.6,500.4L451.3,500.4Z " data-iso="ALB" data-key="AL" data-label="Albania"/><path d="M420.0,203.0L418.9,202.5L419.3,203.6L420.0,203.0Z M411.6,201.5L411.2,200.5L410.6,202.3L411.6,201.5Z M414.0,198.4L411.6,200.7L413.0,203.1L415.0,202.7L416.5,199.7L414.0,198.4Z " data-iso="ALA" data-key="-99" data-label="Aland"/><path d="M220.8,500.5L220.9,499.1L219.2,498.4L217.8,498.5L217.4,498.9L217.1,499.7L219.1,501.5L220.3,500.9L220.7,500.9L220.8,500.5Z " data-iso="AND" data-key="AD" data-label="Andorra"/><path d="M404.6,400.5L404.0,399.1L398.6,398.3L398.1,398.9L394.6,398.9L391.9,397.1L382.2,395.6L379.5,401.1L379.4,402.4L372.1,402.6L369.7,400.0L369.3,399.9L369.2,400.2L367.9,404.1L365.7,403.2L365.0,406.4L364.0,407.5L358.3,410.6L357.7,411.5L360.0,415.2L360.9,422.2L358.5,421.2L357.0,419.0L354.7,419.6L351.4,418.5L351.3,420.0L345.9,420.7L341.1,423.4L337.4,423.9L336.1,422.1L331.6,421.4L328.8,425.8L326.4,422.5L324.2,421.1L320.9,421.4L320.6,421.6L320.9,421.8L321.7,422.6L321.5,423.9L320.5,425.9L320.6,426.2L320.8,427.4L321.0,427.8L321.3,429.3L321.1,429.6L321.5,429.6L323.0,429.9L328.0,433.0L330.0,430.9L331.2,432.4L331.2,433.0L331.5,433.1L337.9,434.2L338.4,433.1L346.7,430.9L351.2,429.2L351.1,431.7L353.9,435.6L363.1,437.7L366.9,437.8L369.4,438.4L369.9,438.4L379.5,440.0L387.1,435.5L393.5,434.0L395.7,434.4L396.5,431.5L397.1,431.1L398.9,429.1L401.1,428.4L401.3,426.1L400.5,422.2L403.1,419.2L402.6,418.0L400.1,417.3L401.8,415.6L403.7,416.6L407.4,415.9L406.8,413.7L407.3,411.5L407.9,410.8L407.1,410.2L404.2,404.5L404.1,403.6L404.8,401.0L404.9,400.8L404.6,400.5Z " data-iso="AUT" data-key="AT" data-label="Austria"/><path d="M280.2,364.1L281.8,363.7L282.3,364.7L281.3,364.6L283.4,364.8L283.6,365.2L285.9,367.6L285.1,368.5L287.0,372.5L284.8,373.8L284.1,375.4L284.1,375.7L284.0,375.6L282.6,374.8L281.3,376.1L279.4,380.7L280.9,383.6L280.1,385.1L279.8,385.4L278.9,385.3L276.7,385.6L274.3,382.6L269.9,380.4L269.3,377.4L270.4,374.4L266.6,377.2L262.6,376.8L263.0,371.9L261.7,370.5L257.6,370.1L257.4,367.8L254.1,366.6L251.4,361.9L248.6,361.9L246.7,355.7L251.7,353.3L254.6,352.2L256.0,351.8L263.1,354.8L265.3,352.6L266.1,353.1L268.4,351.3L269.7,352.3L271.1,351.3L272.0,352.8L274.0,351.9L275.7,355.2L282.1,358.3L280.9,361.6L279.8,362.6L280.2,364.2L280.2,364.1Z " data-iso="BEL" data-key="BE" data-label="Belgium"/><path d="M480.4,467.5L480.0,467.8L479.5,470.4L478.1,471.6L477.4,475.8L480.5,481.0L482.4,481.9L486.3,484.8L486.3,485.6L483.7,490.4L480.9,491.6L481.0,495.3L482.5,498.3L481.5,500.4L480.6,500.8L482.8,503.0L490.3,509.7L489.9,511.7L490.2,515.9L490.1,516.3L491.5,516.3L494.1,514.9L500.6,513.4L504.0,510.8L508.2,510.2L513.5,512.2L516.3,511.6L519.9,513.1L526.4,510.4L528.2,510.4L530.6,508.6L529.6,504.9L530.3,502.4L531.9,502.6L531.8,502.1L539.0,495.8L542.2,493.9L546.4,496.1L552.1,494.0L551.5,492.8L548.9,490.5L543.9,487.0L546.4,482.3L547.9,481.2L546.9,473.8L548.6,469.7L550.7,468.7L552.6,468.9L553.4,466.8L552.8,462.7L548.3,463.1L546.1,462.8L543.5,460.4L541.9,461.3L530.6,460.3L526.5,462.2L523.4,464.2L515.8,471.5L511.6,472.0L502.5,471.7L500.1,472.6L491.5,472.5L487.6,472.7L484.0,473.9L484.7,469.6L481.4,468.1L480.4,467.5Z " data-iso="BGR" data-key="BG" data-label="Bulgaria"/><path d="M431.2,502.3L431.4,502.2L430.6,495.3L432.8,494.1L432.6,492.5L435.1,488.4L436.8,489.3L436.3,484.9L438.6,484.8L439.0,484.8L439.7,483.9L442.3,481.5L440.6,479.3L440.1,476.9L442.9,475.6L439.6,472.8L436.9,471.3L436.6,468.7L438.7,462.0L434.9,462.2L434.5,462.3L433.7,462.4L430.0,459.1L421.9,458.8L419.8,460.1L417.7,458.8L416.5,459.6L408.8,457.5L407.3,459.0L404.2,458.9L401.6,462.6L398.2,459.7L395.3,460.1L395.1,467.2L399.8,471.1L401.5,476.2L402.6,477.7L413.0,487.4L417.3,492.5L423.3,498.1L430.0,502.0L431.2,502.3Z " data-iso="BIH" data-key="BA" data-label="Bosnia and Herz."/><path d="M499.6,256.2L493.5,263.6L490.9,263.7L487.4,267.1L487.2,267.3L487.4,268.1L487.2,273.0L489.5,275.0L489.3,276.3L486.0,277.1L485.7,279.2L482.5,282.9L482.1,292.0L479.7,293.6L477.7,296.0L476.0,296.1L475.5,299.1L474.0,299.3L471.3,301.3L470.4,301.0L463.7,302.1L462.9,301.9L465.0,307.5L469.6,316.6L470.3,322.8L465.4,327.7L464.8,330.8L469.4,332.7L470.3,334.8L470.2,341.0L471.2,342.6L471.3,342.5L470.9,341.0L476.2,339.2L478.0,335.4L494.1,331.6L503.3,332.2L507.2,331.7L509.0,333.8L519.7,332.0L523.0,331.9L523.9,333.2L527.4,329.4L530.8,332.4L539.4,329.1L541.8,331.2L544.7,329.9L542.7,326.1L543.0,322.2L545.2,317.5L546.0,316.7L550.9,314.8L552.8,314.4L552.6,314.0L549.9,311.4L547.2,303.5L543.4,300.6L544.2,297.2L546.6,296.5L548.8,297.5L550.9,297.3L554.0,294.2L555.3,289.6L552.7,288.5L549.0,285.4L545.2,286.3L544.4,282.8L539.3,280.7L537.8,279.4L534.4,274.0L530.7,272.6L531.2,267.7L529.4,265.1L528.0,259.3L525.0,258.4L520.5,256.4L518.8,257.0L514.3,260.8L513.4,260.3L512.1,256.9L508.6,256.3L506.7,258.1L504.8,256.5L501.5,257.4L499.9,256.2L499.6,256.2Z " data-iso="BLR" data-key="BY" data-label="Belarus"/><path d="M318.6,420.3L311.5,418.3L310.2,417.2L306.8,419.8L299.5,420.2L298.6,419.7L297.2,420.4L295.3,422.3L292.0,421.2L290.4,423.3L290.7,424.9L287.4,428.3L284.4,430.4L284.2,432.0L279.4,438.7L280.1,439.6L278.1,442.2L279.4,443.5L282.5,439.4L285.5,438.9L287.6,439.3L288.2,441.8L287.6,443.6L290.1,447.3L290.3,447.9L290.7,448.3L297.1,447.4L299.4,448.4L302.2,446.2L304.9,441.4L307.5,440.4L307.3,442.5L309.7,445.5L311.7,446.1L311.2,447.5L313.2,450.4L314.1,450.1L319.2,440.2L319.7,441.7L321.5,442.6L324.4,441.4L326.3,443.7L327.3,443.7L326.4,440.1L326.9,437.5L330.9,438.4L330.6,435.2L331.2,433.0L331.2,432.4L330.0,430.9L328.0,433.0L323.0,429.9L321.5,429.6L321.1,429.6L320.2,429.5L320.0,429.5L319.9,428.9L320.0,427.6L320.5,425.9L321.5,423.9L321.7,422.6L320.9,421.8L320.6,421.6L318.6,420.3Z " data-iso="CHE" data-key="CH" data-label="Switzerland"/><path d="M654.8,589.1L654.3,586.5L659.2,579.1L655.2,583.0L649.6,586.8L647.7,587.6L640.5,588.6L640.6,592.4L639.2,593.1L638.3,593.1L641.5,593.8L644.8,591.3L648.0,591.0L651.9,592.1L654.2,590.1L656.1,590.1L654.8,589.1Z " data-iso="-99" data-key="-99" data-label="N. Cyprus"/><path d="M637.5,593.2L634.5,596.3L633.1,596.1L633.9,598.2L637.4,601.6L640.1,601.9L643.2,601.3L648.0,598.5L650.6,596.2L652.4,592.8L656.5,590.3L656.1,590.1L654.2,590.1L651.9,592.1L648.0,591.0L644.8,591.3L641.5,593.8L638.3,593.1L637.5,593.2Z " data-iso="CYP" data-key="CY" data-label="Cyprus"/><path d="M378.6,364.0L376.6,363.9L376.7,362.9L372.9,361.1L372.2,364.0L369.0,365.8L365.0,367.1L364.5,368.4L361.9,369.2L359.6,370.7L358.8,372.2L354.5,372.5L351.6,376.2L350.0,374.0L349.5,374.7L351.6,378.6L354.3,381.0L355.8,388.4L357.8,390.6L359.0,390.6L363.8,395.1L365.0,396.8L366.2,396.7L368.8,399.1L369.3,399.9L369.7,400.0L372.1,402.6L379.4,402.4L379.5,401.1L382.2,395.6L391.9,397.1L394.6,398.9L398.1,398.9L398.6,398.3L404.0,399.1L404.6,400.5L404.9,400.8L405.1,399.4L407.2,396.1L410.5,396.4L414.3,394.4L416.9,391.8L419.6,386.9L421.9,384.0L424.2,383.5L424.4,383.4L424.4,382.9L424.0,381.7L421.4,379.5L420.3,377.1L415.6,376.0L413.2,376.6L409.8,373.7L411.0,372.9L409.2,371.9L402.8,369.8L400.4,375.1L399.0,375.1L396.0,371.5L395.1,369.2L395.9,368.8L394.9,366.3L392.6,366.9L383.8,363.0L383.5,361.8L380.6,361.0L380.6,363.2L379.7,363.6L378.8,363.7L378.6,364.0Z " data-iso="CZE" data-key="CZ" data-label="Czech Rep."/><path d="M368.2,309.9L366.0,308.4L368.4,312.8L369.7,312.6L370.1,312.6L369.9,311.8L370.0,311.3L368.2,309.9Z M340.4,304.0L339.9,302.5L338.5,302.0L340.4,304.0Z M364.7,304.1L360.8,298.8L359.8,299.9L359.5,305.2L361.3,306.5L364.7,304.1Z M314.7,297.2L317.3,301.6L317.2,302.8L313.9,304.7L314.0,305.7L316.6,306.4L316.5,310.8L318.1,312.5L320.5,313.3L323.7,317.8L319.5,313.3L316.3,313.6L313.6,312.8L312.3,316.3L310.5,317.3L309.5,320.1L307.3,315.8L299.9,315.6L299.1,316.0L297.3,320.7L298.2,321.6L298.7,322.4L296.7,331.5L293.4,333.2L292.8,335.5L295.9,337.0L295.4,340.6L292.5,343.4L292.7,345.5L287.9,346.3L286.6,345.7L284.1,347.5L286.4,352.4L284.9,356.8L285.4,358.2L282.6,360.8L284.2,362.2L283.4,364.8L283.6,365.2L285.9,367.6L285.1,368.5L287.0,372.5L284.8,373.8L284.1,375.4L284.1,375.7L284.0,376.1L283.9,377.1L287.8,382.2L286.0,386.2L285.9,387.2L286.3,387.2L289.9,392.5L292.9,392.3L297.9,393.0L301.7,395.0L305.4,396.4L305.5,397.9L301.9,402.0L298.6,411.6L298.0,419.5L298.6,419.7L299.5,420.2L306.8,419.8L310.2,417.2L311.5,418.3L318.6,420.3L320.6,421.6L320.9,421.4L324.2,421.1L326.4,422.5L328.8,425.8L331.6,421.4L336.1,422.1L337.4,423.9L341.1,423.4L345.9,420.7L351.3,420.0L351.4,418.5L354.7,419.6L357.0,419.0L358.5,421.2L360.9,422.2L360.0,415.2L357.7,411.5L358.3,410.6L364.0,407.5L365.0,406.4L365.7,403.2L367.9,404.1L369.2,400.2L369.3,399.9L368.8,399.1L366.2,396.7L365.0,396.8L363.8,395.1L359.0,390.6L357.8,390.6L355.8,388.4L354.3,381.0L351.6,378.6L349.5,374.7L350.0,374.0L351.6,376.2L354.5,372.5L358.8,372.2L359.6,370.7L361.9,369.2L364.5,368.4L365.0,367.1L369.0,365.8L372.2,364.0L372.9,361.1L376.7,362.9L376.6,363.9L378.6,364.0L378.8,363.7L378.8,363.5L380.2,359.6L380.6,356.9L379.3,353.3L375.7,347.2L377.1,342.9L376.2,340.0L374.8,338.2L375.3,335.3L374.1,333.4L369.9,329.6L372.2,325.6L372.6,322.5L370.6,315.0L370.6,315.0L366.6,313.1L365.0,308.0L362.2,308.3L359.1,306.0L357.9,303.8L353.3,303.0L348.8,308.1L345.6,308.6L341.6,312.0L335.7,309.8L337.7,308.0L338.3,306.3L334.9,305.7L329.1,302.7L326.3,302.9L328.0,301.1L327.9,299.5L325.2,297.2L325.2,296.9L319.7,296.5L316.9,295.5L314.6,295.3L314.7,297.2Z " data-iso="DEU" data-key="DE" data-label="Germany"/><path d="M341.2,295.9L340.2,294.9L338.0,297.9L342.2,300.3L345.2,299.5L344.1,296.8L341.2,295.9Z M332.5,296.6L330.4,294.9L331.1,296.4L332.5,296.6Z M352.9,294.5L350.5,293.2L348.6,295.4L352.9,294.5Z M328.3,295.9L327.8,294.2L326.1,293.0L325.8,295.5L328.3,295.9Z M335.0,298.3L337.1,291.4L334.5,298.4L335.0,298.3Z M377.8,292.6L378.1,290.5L374.4,288.1L373.8,291.4L377.8,292.6Z M334.2,283.6L326.5,285.2L326.5,287.9L327.7,291.2L330.3,292.5L333.9,293.1L335.5,291.8L335.8,288.5L334.2,283.6Z M353.8,283.7L352.3,283.4L352.7,284.4L353.8,283.7Z M333.8,280.7L334.1,278.4L333.3,277.1L333.8,280.7Z M352.8,280.5L353.0,276.3L349.3,274.9L347.6,276.0L345.5,282.1L343.6,277.7L340.7,281.2L337.4,281.7L339.5,286.1L339.3,288.4L340.4,290.5L344.0,290.8L346.1,297.9L348.0,297.1L348.3,290.7L351.4,289.0L349.7,284.8L352.8,282.2L352.8,280.5Z M338.1,255.7L338.4,254.3L337.0,254.7L338.1,255.7Z M314.6,295.3L316.9,295.5L319.7,296.5L325.2,296.9L324.8,295.1L323.6,293.2L322.4,293.2L324.6,289.4L323.9,285.5L327.9,281.4L327.0,279.6L329.7,279.2L330.2,276.9L332.1,272.3L333.2,273.6L336.2,272.0L336.2,268.1L332.8,268.1L330.8,266.4L331.0,259.9L333.3,252.3L332.5,250.4L334.0,247.4L330.8,249.4L328.0,250.0L324.2,255.9L317.2,257.8L315.4,257.7L313.5,259.8L311.9,263.7L316.6,264.3L320.0,259.0L321.3,259.6L320.6,264.8L320.1,264.0L317.7,264.2L316.0,267.4L310.8,266.2L309.8,283.3L314.4,286.5L314.8,291.0L313.8,291.4L314.6,293.9L314.6,295.3Z " data-iso="DNK" data-key="DK" data-label="Denmark"/><path d="M212.1,565.8L210.2,564.0L209.6,565.6L212.1,565.8Z M210.6,561.4L212.5,558.2L209.6,558.5L207.6,561.3L210.0,562.4L210.6,561.4Z M234.4,549.0L229.8,547.4L224.0,551.0L225.5,553.4L228.2,552.6L230.6,555.8L232.7,557.2L235.1,556.0L238.4,549.9L234.4,549.0Z M249.5,549.4L248.9,546.1L246.8,545.2L244.1,545.2L244.1,547.0L249.5,549.4Z M88.9,486.5L90.4,485.7L96.6,485.0L95.5,489.0L99.5,490.4L102.1,490.7L105.4,492.5L107.2,492.3L109.1,490.7L110.5,491.6L115.5,492.8L115.9,493.5L115.5,497.6L118.3,498.7L117.9,501.9L112.0,504.9L108.3,507.7L108.7,510.0L107.3,517.4L107.4,519.2L104.0,521.9L104.7,525.7L103.4,527.9L101.2,529.4L96.9,528.4L96.5,530.9L98.5,538.4L100.1,539.3L99.4,542.6L95.6,545.2L93.9,549.3L96.0,554.6L97.5,556.0L96.6,557.2L94.4,557.3L90.0,561.2L88.7,563.4L88.6,570.6L91.8,570.8L94.4,571.5L100.0,577.0L100.9,579.4L100.4,582.7L101.8,583.7L103.5,591.2L108.6,595.1L111.0,594.8L113.3,592.4L119.4,589.0L123.0,589.6L127.7,586.8L135.1,587.5L140.3,589.3L147.6,589.9L149.0,590.7L153.9,589.4L155.8,590.0L157.2,591.5L161.1,588.6L163.7,584.1L166.2,581.8L170.8,579.5L176.0,580.1L179.1,579.5L181.2,570.8L182.6,570.1L183.3,568.3L185.4,566.5L190.1,564.6L193.3,560.9L191.0,559.4L189.1,556.2L188.3,550.0L188.5,548.2L192.6,542.6L199.2,535.9L202.8,531.2L206.4,530.5L204.8,527.9L209.4,524.3L216.4,522.9L223.2,522.1L226.4,519.3L235.8,515.1L239.1,512.4L239.2,510.1L238.2,508.6L239.7,505.2L239.4,504.1L231.2,504.7L228.9,503.7L222.5,501.9L220.7,500.9L220.3,500.9L219.1,501.5L217.1,499.7L217.4,498.9L216.6,497.1L209.6,493.7L208.1,494.2L207.8,495.9L202.4,494.8L199.3,494.9L196.4,492.2L192.8,492.1L191.1,489.9L184.8,486.4L182.6,486.2L183.7,483.1L179.4,479.5L179.0,479.6L172.6,479.8L169.5,477.8L164.0,477.5L159.7,475.4L154.1,473.5L148.7,473.9L146.2,473.4L139.4,470.6L137.0,469.2L132.9,467.8L131.0,466.3L118.1,464.5L116.0,464.6L113.8,463.3L109.2,459.2L105.3,459.5L101.2,461.3L101.3,463.1L97.5,463.9L93.4,462.9L89.1,464.7L87.6,467.8L89.3,471.1L90.6,471.7L88.5,474.8L91.0,476.1L90.1,482.1L88.2,483.5L88.0,486.6L88.9,486.5Z " data-iso="ESP" data-key="ES" data-label="Spain"/><path d="M441.2,224.4L438.7,225.5L436.8,227.5L436.0,227.1L438.7,232.8L437.3,235.8L438.3,236.7L440.1,231.5L444.4,229.2L447.9,226.3L444.3,224.2L441.2,224.4Z M447.8,224.6L447.4,222.9L445.8,222.7L447.8,224.6Z M443.3,220.5L442.7,217.8L441.0,217.6L435.3,219.7L438.7,220.6L440.3,223.3L441.9,220.8L443.3,220.5Z M458.6,234.5L465.0,229.9L471.8,232.0L473.7,232.2L479.0,236.2L483.3,234.2L486.8,234.9L487.0,234.8L487.0,234.4L487.7,229.9L489.4,228.8L485.6,222.9L485.0,219.3L482.9,214.6L484.4,208.6L484.9,204.2L486.4,202.5L484.8,201.0L484.7,201.2L484.1,202.4L479.2,202.8L472.7,202.4L471.3,202.7L465.4,202.5L462.8,205.0L458.0,205.9L455.7,207.5L453.9,207.5L451.4,209.7L451.9,211.0L447.1,213.5L447.9,216.8L447.4,218.2L449.7,223.8L451.0,224.8L452.1,227.1L456.5,227.6L457.6,225.7L458.9,226.0L459.1,230.3L458.6,233.8L458.6,234.5Z " data-iso="EST" data-key="EE" data-label="Estonia"/><path d="M430.2,199.9L429.4,199.0L429.0,199.5L430.2,199.9Z M432.4,195.6L431.8,197.1L433.2,198.5L434.6,196.4L432.4,195.6Z M431.0,196.4L430.4,195.4L429.2,195.5L431.0,196.4Z M425.9,193.8L424.2,194.1L424.8,194.8L425.9,193.8Z M416.9,148.6L416.4,149.3L418.5,149.1L416.9,148.6Z M438.4,115.0L436.7,113.9L437.4,115.7L438.4,115.0Z M397.5,52.5L399.3,53.2L401.5,55.5L407.5,59.8L412.8,61.2L417.1,64.9L420.1,75.5L420.8,75.9L423.0,82.1L425.9,86.0L425.3,93.5L427.7,97.0L430.6,102.4L431.1,102.2L433.7,102.7L434.7,104.0L439.1,105.2L440.1,106.2L440.7,111.9L442.0,113.9L442.0,116.5L439.4,116.6L437.0,118.5L435.9,123.6L434.5,126.1L432.6,130.8L430.4,135.3L427.3,139.4L425.7,140.3L425.2,143.1L424.2,144.1L425.1,146.2L423.8,147.5L419.5,148.8L420.8,151.5L417.9,156.1L417.6,159.1L418.6,162.5L420.1,163.5L420.5,169.5L421.7,170.6L424.3,177.6L424.4,181.1L423.9,185.0L425.6,192.7L428.7,192.3L433.0,195.0L435.8,195.3L435.4,198.1L435.8,201.0L437.4,200.7L439.1,197.3L441.7,202.0L441.2,203.8L444.4,200.3L451.7,198.1L458.0,194.3L461.6,191.1L462.4,192.1L464.8,190.4L463.6,188.3L465.9,189.0L468.6,188.3L471.8,186.6L472.7,185.5L478.3,184.1L478.6,184.0L482.0,176.8L487.0,168.7L489.3,163.6L493.3,152.3L495.2,148.3L496.8,137.8L492.5,133.3L485.3,130.1L481.7,127.8L483.4,121.5L483.2,120.5L478.8,116.6L477.0,113.7L477.5,112.0L476.6,110.2L472.8,108.6L472.0,106.5L473.0,105.1L470.6,99.3L471.7,95.5L471.6,93.5L469.4,89.9L464.7,83.9L459.7,78.0L459.1,76.0L461.7,65.2L459.9,62.0L455.4,57.8L450.7,56.8L449.1,54.4L447.6,45.8L445.6,45.6L448.0,43.2L448.4,42.9L447.8,42.4L446.9,40.5L448.4,35.0L446.2,32.1L444.0,31.6L438.5,28.8L437.1,27.6L434.5,30.0L431.1,31.2L429.2,34.2L427.9,37.8L429.1,47.9L425.7,55.4L419.1,53.1L417.5,54.9L413.7,56.2L409.5,56.1L409.1,55.2L403.0,47.7L400.8,48.0L399.7,49.6L400.5,51.3L397.7,51.9L397.5,52.5Z " data-iso="FIN" data-key="FI" data-label="Finland"/><path d="M318.5,502.2L318.4,499.2L316.7,499.8L314.2,503.4L308.8,506.4L307.8,508.5L308.2,510.9L306.8,512.0L309.1,518.0L308.5,519.1L310.6,524.1L314.3,526.4L317.1,520.6L317.3,517.2L319.3,513.3L319.0,506.6L318.2,504.7L318.5,502.2Z M245.8,356.1L240.0,356.8L236.4,359.3L235.9,360.6L234.6,368.1L235.0,368.9L230.7,372.8L227.0,373.8L223.5,374.2L218.4,376.2L217.3,379.4L218.8,380.4L213.6,382.6L209.8,381.0L203.1,379.4L202.3,375.6L202.6,374.3L196.1,373.2L196.0,376.5L197.7,381.8L196.8,388.5L197.7,391.5L191.3,391.5L190.6,390.3L186.6,389.6L183.5,391.0L180.8,386.1L178.5,384.8L175.7,384.7L171.1,385.9L168.9,385.3L163.4,385.7L161.0,386.6L160.4,389.6L165.0,390.8L165.5,391.7L162.3,390.9L164.1,393.7L159.8,395.1L162.3,396.9L164.0,400.0L165.9,399.7L173.8,403.6L177.6,406.2L180.2,406.7L183.3,409.5L182.0,412.0L188.0,413.1L190.4,415.1L186.3,413.6L185.0,415.1L186.7,417.6L185.6,419.5L187.9,426.9L192.1,430.4L194.8,431.5L194.3,438.1L194.7,441.4L192.9,442.1L195.9,445.1L197.7,453.1L197.1,453.0L196.7,449.1L193.6,444.8L189.4,459.2L190.7,457.7L191.5,459.1L189.1,461.0L186.5,470.0L183.6,477.5L181.5,479.3L179.4,479.5L183.7,483.1L182.6,486.2L184.8,486.4L191.1,489.9L192.8,492.1L196.4,492.2L199.3,494.9L202.4,494.8L207.8,495.9L208.1,494.2L209.6,493.7L216.6,497.1L217.4,498.9L217.8,498.5L219.2,498.4L220.9,499.1L220.8,500.5L220.7,500.9L222.5,501.9L228.9,503.7L231.2,504.7L239.4,504.1L239.3,503.6L238.2,501.2L238.0,496.9L241.2,491.2L248.2,487.2L249.9,485.6L251.7,485.2L252.9,486.9L259.5,489.7L263.9,488.8L264.0,490.1L267.0,490.7L268.0,492.8L271.2,493.9L272.8,495.3L276.6,496.0L282.4,494.2L286.3,490.3L291.4,486.1L292.9,485.6L293.3,484.9L293.6,485.1L293.6,485.3L294.3,485.0L294.2,483.4L296.8,479.7L295.9,478.2L293.1,478.8L288.3,476.0L286.9,471.9L289.4,468.5L289.0,466.6L286.0,464.9L284.9,461.4L287.5,461.3L289.2,460.0L291.1,456.5L289.9,455.1L287.6,449.6L289.3,448.8L290.3,447.9L290.1,447.3L287.6,443.6L288.2,441.8L287.6,439.3L285.5,438.9L282.5,439.4L279.4,443.5L278.1,442.2L280.1,439.6L279.4,438.7L284.2,432.0L284.4,430.4L287.4,428.3L290.7,424.9L290.4,423.3L292.0,421.2L295.3,422.3L297.2,420.4L298.6,419.7L298.0,419.5L298.6,411.6L301.9,402.0L305.5,397.9L305.4,396.4L301.7,395.0L297.9,393.0L292.9,392.3L289.9,392.5L286.3,387.2L285.9,387.2L285.1,386.8L283.4,386.5L282.9,387.0L280.1,386.0L279.8,385.4L278.9,385.3L276.7,385.6L274.3,382.6L269.9,380.4L269.3,377.4L270.4,374.4L266.6,377.2L262.6,376.8L263.0,371.9L261.7,370.5L257.6,370.1L257.4,367.8L254.1,366.6L251.4,361.9L248.6,361.9L246.7,355.7L245.8,356.1Z " data-iso="FRA" data-key="FR" data-label="France"/><path d="M193.3,167.2L193.4,164.8L192.2,165.4L193.3,167.2Z M195.5,161.4L194.3,159.4L195.0,162.0L195.5,161.4Z M192.7,154.9L190.8,154.4L190.9,155.5L192.7,154.9Z M197.4,154.5L195.2,152.4L193.4,152.5L193.8,155.9L195.9,155.8L197.4,154.5Z " data-iso="FRO" data-key="FO" data-label="Faroe Is."/><path d="M207.4,357.5L205.0,355.7L202.6,357.1L204.6,358.8L207.4,357.5Z M183.3,307.4L182.5,305.6L179.8,305.6L179.5,307.7L180.9,310.2L184.2,308.6L183.3,307.4Z M160.9,271.3L152.6,276.2L153.1,278.6L150.4,278.9L150.9,284.3L153.6,286.5L157.3,285.9L157.6,284.5L160.5,283.9L162.3,287.7L161.9,289.8L166.3,290.3L167.1,291.0L169.0,290.9L170.7,288.7L173.8,287.0L173.4,283.8L174.7,282.1L171.8,281.8L174.0,279.2L173.0,277.2L171.7,271.7L168.5,270.5L163.8,270.4L162.6,271.9L161.1,272.0L160.9,271.3Z M182.3,269.9L182.8,267.9L182.0,265.2L180.3,266.5L180.3,268.9L182.3,269.9Z M174.6,259.8L172.1,261.9L172.1,264.9L173.9,264.4L174.6,259.8Z M175.6,262.0L178.0,259.2L178.4,257.5L176.9,258.3L175.0,260.5L175.6,262.0Z M179.6,253.6L178.3,248.7L177.1,247.8L176.8,250.4L175.9,252.6L179.6,253.6Z M177.5,242.2L176.4,241.0L176.6,241.9L177.5,242.2Z M169.4,237.6L170.2,233.1L169.1,232.9L169.4,237.6Z M181.0,233.6L181.1,232.2L179.8,230.4L179.3,231.4L177.0,231.6L175.3,233.8L177.6,235.9L178.6,238.6L180.7,238.8L180.3,241.4L183.8,239.6L180.8,237.4L181.0,233.6Z M172.3,228.3L169.2,229.0L171.9,230.9L173.1,229.5L172.3,228.3Z M184.1,219.2L183.8,216.9L178.6,219.3L178.8,220.9L175.3,221.0L176.4,224.9L176.1,226.7L180.7,224.4L184.1,219.2Z M211.8,222.4L212.7,220.5L210.9,219.9L202.4,219.8L200.1,220.1L195.3,218.1L194.6,218.8L193.6,223.3L191.8,222.9L189.8,225.6L191.2,228.8L187.3,228.4L185.2,231.7L185.1,239.3L184.3,241.4L182.4,243.4L182.0,245.2L178.9,246.1L179.2,248.9L181.5,250.8L186.3,248.0L183.8,251.6L180.0,258.8L179.2,263.3L177.6,265.8L175.7,270.0L177.8,270.0L184.2,258.6L183.3,261.7L187.9,258.7L187.2,259.9L189.1,262.8L187.0,262.3L185.3,266.2L186.6,269.9L181.0,277.7L179.9,277.5L180.4,281.6L181.3,283.0L182.8,280.6L185.3,282.7L188.2,281.7L190.8,283.4L195.3,281.4L197.9,282.6L195.6,284.5L193.6,287.7L193.5,289.4L195.1,293.9L196.3,295.8L199.4,295.6L198.4,299.1L196.9,299.8L197.4,302.9L195.3,306.4L197.8,310.4L196.6,310.4L195.0,307.8L193.9,308.2L194.1,310.6L183.8,309.3L176.6,315.0L181.5,314.2L182.8,314.4L182.1,320.5L182.8,320.9L179.4,324.9L177.4,325.9L169.5,327.8L167.3,329.3L170.0,334.4L174.3,333.1L178.6,335.5L178.0,337.0L180.4,337.1L183.2,340.7L186.0,341.7L189.7,339.8L192.3,339.5L196.1,337.4L187.0,345.1L179.7,343.2L174.2,345.7L171.7,346.1L170.3,349.3L166.2,352.7L160.4,356.6L156.6,357.8L162.0,360.6L163.1,359.1L167.1,357.2L171.9,357.0L178.1,360.3L182.3,354.2L188.0,353.7L191.4,356.1L193.6,356.1L196.8,357.3L199.0,355.7L202.8,355.8L204.9,354.8L204.3,353.4L210.6,356.7L217.0,356.8L222.2,358.2L226.6,356.9L234.5,353.3L235.5,349.8L229.9,349.2L227.8,348.4L226.4,346.5L230.4,345.6L229.3,342.7L231.6,341.6L235.1,341.4L239.3,336.5L241.3,331.5L241.0,326.5L238.5,323.8L234.2,322.2L230.3,321.5L227.0,323.7L224.9,321.8L228.7,317.9L228.3,314.8L227.2,312.4L223.5,308.0L227.4,310.0L225.2,302.5L225.4,299.6L221.9,293.7L217.6,290.4L216.1,283.7L215.0,273.2L211.9,267.8L208.0,264.9L205.8,264.5L203.5,265.4L198.5,263.3L202.8,263.0L205.0,261.5L208.5,260.0L205.2,257.1L207.9,257.0L210.9,254.9L213.9,251.5L220.3,241.6L219.8,239.5L216.7,237.8L211.2,236.6L204.1,235.8L199.3,236.3L202.3,232.3L201.2,231.9L204.2,229.0L210.2,225.5L211.8,222.4Z M214.1,218.9L214.3,217.3L213.5,217.4L214.1,218.9Z M212.2,217.6L211.7,215.6L211.0,215.2L212.2,217.6Z M214.0,213.9L213.5,211.9L211.4,213.6L211.6,214.5L214.0,213.9Z M219.1,211.3L220.5,210.4L219.4,210.1L219.1,211.3Z M217.4,211.8L216.6,209.9L215.1,209.0L216.3,211.7L217.4,211.8Z M233.8,191.3L232.4,192.2L232.4,199.6L233.6,198.6L235.7,193.2L233.8,191.3Z M236.0,192.1L236.9,189.2L236.2,188.5L235.2,190.4L236.0,192.1Z M239.1,187.4L237.8,187.5L237.5,188.3L239.1,187.4Z " data-iso="GBR" data-key="GB" data-label="United Kingdom"/><path d="M691.2,428.3L695.3,429.8L696.1,429.9L700.0,429.4L700.0,423.2L695.0,422.6L693.7,423.6L689.2,424.3L688.1,427.5L691.2,428.3Z " data-iso="GEO" data-key="GE" data-label="Georgia"/><path d="M188.4,375.1L186.8,375.3L186.8,375.6L188.4,375.1Z " data-iso="GGY" data-key="GG" data-label="Guernsey"/><path d="M516.4,612.7L512.5,613.3L512.9,617.4L515.0,618.1L517.5,617.5L525.7,617.7L529.3,618.3L530.1,620.6L536.5,619.3L542.0,617.5L549.6,616.0L550.7,611.4L549.1,612.6L543.4,614.9L543.1,611.8L539.3,612.8L534.1,613.0L532.5,612.2L527.3,613.1L526.1,613.8L522.1,612.9L521.0,613.2L519.5,611.2L518.9,612.3L516.4,612.7Z M562.2,605.8L561.4,603.1L560.3,603.8L561.8,606.8L562.2,605.8Z M503.9,603.3L504.3,602.2L501.6,601.3L501.9,603.0L503.9,603.3Z M569.8,596.1L573.0,590.6L573.6,587.6L569.5,588.9L568.0,596.0L569.8,596.1Z M536.5,594.5L536.1,593.8L536.0,595.5L536.5,594.5Z M549.1,588.8L546.7,589.9L547.6,590.4L549.1,588.8Z M522.7,590.4L520.1,592.7L522.8,591.8L522.7,590.4Z M534.3,590.0L534.6,589.2L532.9,588.2L534.3,590.0Z M555.3,585.1L560.3,581.7L556.5,582.9L555.3,585.1Z M540.5,586.8L540.2,585.9L538.9,587.1L540.5,586.8Z M524.8,587.3L525.3,586.8L524.4,585.6L524.8,587.3Z M531.9,583.5L531.1,582.3L530.0,583.2L531.0,585.0L531.9,583.5Z M535.7,584.6L536.1,583.3L534.8,580.8L533.0,583.3L535.7,584.6Z M521.6,584.3L520.8,583.0L520.3,583.5L521.6,584.3Z M532.6,577.3L533.2,576.3L531.6,575.9L532.6,577.3Z M540.6,574.0L542.9,572.9L541.1,572.0L540.6,574.0Z M530.1,574.6L526.5,573.9L528.9,575.8L530.1,574.6Z M518.2,577.1L517.4,575.4L517.1,576.8L518.2,577.1Z M550.4,567.2L548.0,568.2L547.4,569.3L550.4,569.9L553.7,568.3L553.3,567.3L550.4,567.2Z M471.2,579.8L468.3,578.0L468.8,581.1L470.5,582.3L471.2,579.8Z M526.2,572.5L525.3,570.2L521.8,569.8L522.1,570.8L526.2,572.5Z M466.4,570.4L465.6,568.9L463.8,571.5L464.5,573.2L466.8,574.9L469.0,575.5L466.4,570.4Z M468.5,571.1L467.1,568.7L466.8,569.8L468.5,571.1Z M539.5,562.2L540.1,560.6L539.4,556.6L537.3,555.9L535.2,556.8L537.8,560.1L538.4,563.4L539.5,562.2Z M467.0,566.5L466.6,562.5L465.2,565.8L467.0,566.5Z M519.2,555.5L517.4,553.5L516.2,554.6L519.2,555.5Z M502.3,555.6L498.6,555.4L497.4,557.9L502.1,559.5L505.9,562.1L506.6,563.9L511.9,564.0L514.9,568.2L519.1,570.1L519.8,567.3L516.7,567.1L514.4,564.5L512.9,560.4L503.3,557.4L502.3,555.6Z M508.0,551.3L508.8,549.3L507.8,550.1L508.0,551.3Z M540.3,542.6L539.4,541.9L537.0,542.5L535.5,544.3L534.0,544.6L534.4,547.1L538.0,548.4L543.1,547.9L540.3,543.7L540.3,542.6Z M457.4,553.4L455.3,552.4L454.0,549.7L455.0,548.3L453.6,547.2L451.9,547.7L454.8,553.2L457.4,553.4Z M525.9,533.9L520.9,534.5L521.4,537.0L525.3,537.1L525.9,533.9Z M527.8,525.9L526.0,524.6L524.6,525.5L526.4,526.6L527.8,525.9Z M515.6,524.7L514.4,522.0L513.2,522.1L512.2,524.8L514.0,525.6L515.6,524.7Z M531.9,502.6L530.3,502.4L529.6,504.9L530.6,508.6L528.2,510.4L526.4,510.4L519.9,513.1L516.3,511.6L513.5,512.2L508.2,510.2L504.0,510.8L500.6,513.4L494.1,514.9L491.5,516.3L490.1,516.3L489.4,516.4L488.1,517.0L488.0,519.3L485.2,520.8L478.8,521.5L476.5,524.9L468.0,527.6L466.3,528.0L466.3,529.2L466.8,534.0L464.7,536.0L463.7,540.9L459.5,544.2L460.7,546.7L458.7,549.5L455.9,548.8L457.3,549.8L458.7,551.3L460.5,554.9L462.9,555.8L467.4,559.5L471.9,558.6L471.6,561.2L469.1,560.5L467.8,563.0L470.9,565.2L474.1,570.1L476.7,568.7L478.0,570.1L484.3,567.7L487.9,568.2L490.3,566.4L497.7,569.4L501.2,570.1L500.5,571.2L498.3,571.5L498.1,573.6L492.9,571.6L488.5,570.9L484.4,569.2L480.8,572.2L479.3,572.6L474.4,577.4L475.4,578.9L480.9,583.1L483.0,586.9L481.7,588.9L482.0,590.9L484.5,594.3L486.9,596.2L487.2,591.8L488.8,590.9L491.2,593.1L495.6,600.0L495.3,598.0L496.5,594.1L499.8,595.3L502.2,597.7L504.8,598.7L502.7,595.6L501.2,589.4L498.6,585.0L497.3,583.4L496.4,581.0L501.6,582.0L501.8,583.3L506.9,581.2L505.3,579.0L502.6,578.8L499.8,574.7L501.7,573.0L506.7,571.4L513.4,576.1L513.8,575.5L512.3,568.2L509.4,565.5L507.3,565.4L505.4,563.3L502.7,563.1L500.8,561.0L491.3,558.8L495.9,556.8L497.5,555.0L494.8,553.1L494.0,551.7L495.8,550.2L499.3,553.6L500.6,552.2L496.9,547.2L495.1,546.2L492.7,542.5L489.0,539.0L488.4,531.1L489.8,530.2L492.1,532.2L497.9,534.5L499.5,538.2L503.2,538.2L500.2,536.6L499.2,533.5L502.4,533.7L505.1,536.8L507.2,536.4L506.6,534.9L502.9,532.5L502.9,531.8L510.4,532.1L509.2,530.8L503.9,529.0L504.3,527.8L502.3,524.6L506.5,524.4L508.2,523.0L509.8,520.5L515.2,520.6L518.7,517.6L528.7,518.4L530.9,519.3L531.4,520.0L534.5,514.6L533.5,510.6L536.6,508.0L533.1,502.7L531.9,502.6Z " data-iso="GRC" data-key="GR" data-label="Greece"/><path d="M420.5,499.6L417.2,499.6L422.3,500.7L420.5,499.6Z M408.2,496.7L409.4,498.0L413.8,497.7L413.8,496.8L408.2,496.7Z M432.4,504.4L431.8,503.6L431.2,502.9L431.2,502.3L430.0,502.0L423.3,498.1L421.8,498.1L415.3,495.7L415.9,496.6L420.1,498.5L423.2,498.9L429.9,503.0L432.4,504.4Z M414.9,494.0L408.6,493.6L406.4,492.8L406.8,494.3L408.5,494.5L414.9,494.0Z M409.6,491.9L410.1,490.5L405.3,490.2L405.9,491.9L409.6,491.9Z M391.4,481.0L390.1,480.4L392.3,482.2L391.4,481.0Z M389.6,479.6L387.5,478.0L389.8,480.2L389.6,479.6Z M388.8,474.9L385.0,470.4L383.1,469.0L386.4,473.4L388.8,474.9Z M384.1,467.9L382.3,466.5L382.3,467.8L384.1,467.9Z M380.0,469.8L379.5,464.5L378.8,468.2L380.0,469.8Z M383.7,464.2L380.1,461.4L380.0,463.4L383.7,464.2Z M402.5,437.0L401.4,436.6L400.2,436.6L395.9,441.2L392.4,442.8L392.1,444.4L393.1,446.4L392.7,449.0L388.6,451.0L389.7,452.4L389.6,455.5L388.5,456.0L383.1,455.6L380.5,452.8L378.0,455.8L374.6,456.0L372.2,456.9L368.5,455.6L367.8,456.2L369.3,462.5L373.6,467.0L376.6,461.4L376.9,459.3L380.3,458.9L384.1,462.4L384.9,464.2L386.1,470.5L389.8,474.0L388.1,476.3L388.9,477.7L393.0,482.0L398.7,486.0L399.4,488.3L404.4,487.6L410.9,489.7L413.9,492.6L416.6,494.0L419.3,496.4L417.3,492.5L413.0,487.4L402.6,477.7L401.5,476.2L399.8,471.1L395.1,467.2L395.3,460.1L398.2,459.7L401.6,462.6L404.2,458.9L407.3,459.0L408.8,457.5L416.5,459.6L417.7,458.8L419.8,460.1L421.9,458.8L430.0,459.1L433.7,462.4L434.5,462.3L434.3,461.7L435.4,460.4L434.7,457.6L438.6,456.3L433.5,453.2L433.9,451.0L432.7,450.6L431.4,444.7L431.5,444.3L431.4,444.3L428.7,445.0L426.2,447.6L418.7,447.9L412.5,444.9L403.1,437.2L402.5,437.0Z " data-iso="HRV" data-key="HR" data-label="Croatia"/><path d="M463.3,398.0L459.0,399.4L456.9,397.1L454.8,396.4L452.8,397.4L446.5,397.5L443.5,402.3L438.9,405.6L437.9,405.3L431.9,407.4L427.9,408.2L426.3,411.1L426.2,412.9L415.2,414.2L409.8,410.9L408.2,410.6L407.9,410.8L407.3,411.5L406.8,413.7L407.4,415.9L403.7,416.6L401.8,415.6L400.1,417.3L402.6,418.0L403.1,419.2L400.5,422.2L401.3,426.1L401.1,428.4L398.9,429.1L397.1,431.1L399.3,431.1L400.1,433.4L402.3,436.6L402.5,437.0L403.1,437.2L412.5,444.9L418.7,447.9L426.2,447.6L428.7,445.0L431.4,444.3L431.5,444.3L431.7,444.3L437.7,441.0L439.4,439.4L446.5,439.3L446.9,439.6L447.3,439.1L449.9,438.2L451.2,438.6L452.7,436.5L456.0,436.2L458.2,432.9L460.3,427.6L459.9,426.8L463.2,416.8L464.4,415.1L464.2,413.2L466.5,409.6L471.2,407.1L472.8,404.7L473.0,404.3L472.8,404.1L471.4,401.7L466.3,399.9L464.6,397.5L463.5,397.7L463.3,398.0Z " data-iso="HUN" data-key="HU" data-label="Hungary"/><path d="M184.3,292.5L185.3,291.2L185.4,289.1L184.0,289.1L181.6,291.2L180.8,292.9L181.8,294.2L184.3,292.5Z " data-iso="IMN" data-key="IM" data-label="Isle of Man"/><path d="M129.3,283.9L129.6,282.7L127.6,281.6L129.3,283.9Z M161.5,270.7L162.8,270.2L161.7,266.9L158.3,268.9L156.4,267.4L156.2,268.5L151.1,267.9L149.4,269.7L149.0,271.9L144.3,274.4L146.9,276.3L150.2,276.6L143.9,282.3L140.2,280.3L138.5,281.2L137.3,279.3L133.5,278.2L129.2,279.5L130.3,281.3L129.4,284.9L132.7,285.5L128.9,287.1L130.0,289.7L125.8,290.2L128.3,292.9L127.3,293.6L129.9,294.6L130.7,296.4L135.0,297.6L135.9,298.3L133.5,299.1L129.4,301.2L129.9,302.3L125.3,305.4L128.6,306.9L133.2,305.7L134.9,307.5L131.9,307.7L125.9,307.4L122.6,311.0L123.0,311.9L118.8,310.3L116.3,312.1L121.1,313.6L117.1,315.2L115.1,316.5L115.2,317.8L117.6,319.0L123.0,318.6L117.2,320.9L116.4,321.7L122.3,321.7L118.8,324.4L124.3,325.7L129.7,325.6L135.1,324.2L135.1,321.6L143.1,322.0L145.0,320.4L149.7,320.8L151.3,319.2L151.5,320.7L157.8,320.8L156.8,318.8L160.1,316.1L164.0,307.3L164.0,302.5L164.7,297.8L164.4,293.5L166.5,291.0L166.3,290.3L161.9,289.8L162.3,287.7L160.5,283.9L157.6,284.5L157.3,285.9L153.6,286.5L150.9,284.3L150.4,278.9L153.1,278.6L152.6,276.2L160.9,271.3L161.5,270.7Z " data-iso="IRL" data-key="IE" data-label="Ireland"/><path d="M156.9,70.3L156.8,67.9L152.7,64.0L150.7,68.5L147.4,67.6L146.5,66.6L142.4,69.1L139.7,64.5L138.3,65.2L137.7,69.9L136.4,66.8L135.7,62.3L130.3,63.7L129.1,66.3L127.2,63.3L127.2,61.0L125.0,60.3L122.5,65.1L120.1,66.7L120.1,65.2L117.5,65.7L114.0,69.0L114.5,67.0L113.7,65.6L114.3,61.1L116.3,61.7L117.8,59.9L118.4,57.3L117.6,55.7L115.6,48.1L115.0,47.5L110.7,47.3L113.7,50.4L112.2,49.7L110.9,51.1L112.4,53.5L108.2,53.0L108.8,51.7L105.7,50.8L104.6,49.4L104.2,52.9L102.9,52.1L102.0,53.2L104.4,55.3L101.8,55.6L100.8,53.3L98.9,55.2L99.1,56.9L96.7,54.4L95.2,55.0L97.3,57.8L100.0,58.8L105.4,59.4L108.2,61.7L108.2,62.7L110.9,64.7L104.5,66.4L107.2,70.6L98.7,67.9L98.5,67.1L94.6,66.8L92.5,66.0L92.3,69.0L96.0,69.3L101.4,72.6L101.9,74.0L100.8,75.6L102.3,78.5L101.2,80.3L101.6,82.6L100.5,83.6L96.8,85.0L92.5,84.4L92.0,85.9L93.9,87.3L100.2,90.1L102.9,89.8L103.6,92.8L106.6,95.1L105.3,95.8L106.2,98.8L107.9,99.6L111.9,103.5L115.7,105.9L121.6,106.0L123.4,104.0L134.6,104.2L137.1,103.0L143.7,101.5L150.8,101.2L152.9,99.8L154.6,96.6L157.8,97.1L159.8,94.0L161.8,93.9L163.1,89.8L164.6,86.7L163.8,84.6L161.2,81.9L161.2,80.0L158.8,79.7L160.8,76.7L160.9,75.1L159.2,74.3L163.5,70.1L162.4,69.6L157.6,70.7L156.9,70.3Z " data-iso="ISL" data-key="IS" data-label="Iceland"/><path d="M399.2,579.0L399.9,578.2L395.2,579.1L393.1,580.5L388.0,580.8L386.7,582.0L382.0,583.3L373.8,583.9L369.3,581.0L365.3,581.9L365.3,582.7L362.6,583.1L361.0,581.1L358.5,583.4L357.3,588.2L358.3,589.9L363.8,591.5L367.1,593.0L369.8,595.1L375.9,598.6L380.6,599.0L383.7,601.1L385.7,604.0L389.5,605.3L392.7,605.4L395.0,601.2L396.4,599.8L393.5,593.8L393.4,592.4L395.0,586.7L399.2,579.0Z M375.7,537.6L374.8,536.7L374.6,537.3L375.7,537.6Z M319.9,535.1L318.3,531.3L314.8,528.6L311.8,531.1L309.4,533.8L306.2,535.4L302.0,534.3L301.1,538.6L304.6,544.8L304.5,547.6L303.6,551.2L304.7,551.6L303.5,558.0L303.3,563.4L306.3,568.2L309.4,568.6L311.3,566.4L311.8,563.0L317.5,564.9L318.5,564.4L319.3,561.2L320.4,551.5L319.9,545.6L322.1,541.7L319.9,535.1Z M330.0,501.5L326.4,502.7L329.3,503.1L330.0,501.5Z M331.2,433.0L330.6,435.2L330.9,438.4L326.9,437.5L326.4,440.1L327.3,443.7L326.3,443.7L324.4,441.4L321.5,442.6L319.7,441.7L319.2,440.2L314.1,450.1L313.2,450.4L311.2,447.5L311.7,446.1L309.7,445.5L307.3,442.5L307.5,440.4L304.9,441.4L302.2,446.2L299.4,448.4L297.1,447.4L290.7,448.3L290.3,447.9L289.3,448.8L287.6,449.6L289.9,455.1L291.1,456.5L289.2,460.0L287.5,461.3L284.9,461.4L286.0,464.9L289.0,466.6L289.4,468.5L286.9,471.9L288.3,476.0L293.1,478.8L295.9,478.2L296.8,479.7L294.2,483.4L294.3,485.0L297.3,484.6L304.4,479.1L307.7,475.6L310.3,474.4L316.7,476.3L322.0,480.1L325.9,481.6L328.3,484.5L329.2,490.3L330.7,492.7L331.5,499.6L336.8,503.6L341.4,508.9L345.7,511.2L347.9,514.7L351.3,517.1L353.0,519.3L358.5,525.0L361.3,526.0L364.5,528.8L368.0,528.1L374.5,530.4L377.5,536.0L380.5,535.6L382.5,538.6L386.5,537.8L387.5,538.4L389.6,542.6L389.2,545.0L393.9,547.7L397.7,547.8L399.1,548.8L401.6,554.8L404.1,559.4L405.5,564.9L407.0,566.2L407.0,569.3L405.3,569.8L402.9,572.1L403.4,574.3L402.4,577.4L400.3,582.1L401.5,583.7L405.9,583.4L408.7,578.0L412.0,575.0L411.9,569.8L414.3,566.6L416.8,565.6L418.8,565.8L419.7,564.4L418.9,562.1L418.5,557.9L414.4,554.8L411.4,554.0L410.3,552.2L410.2,550.3L411.8,545.4L416.0,538.7L418.0,538.7L419.1,540.4L421.0,541.3L427.2,541.8L430.4,547.4L434.1,549.1L435.5,544.1L435.0,542.1L433.1,539.7L429.0,536.8L427.8,535.3L421.4,532.7L416.3,529.3L409.0,526.9L401.9,523.9L400.4,522.6L400.4,520.8L403.7,517.2L403.3,515.9L393.7,516.1L390.7,516.0L386.7,514.1L382.4,511.0L377.7,506.7L375.5,503.7L372.6,495.4L371.1,491.9L366.0,487.0L361.1,483.1L358.4,481.9L354.7,478.0L353.5,474.5L352.8,469.5L356.0,465.3L354.4,464.1L353.1,461.2L352.9,457.1L358.7,455.4L361.9,453.7L363.9,451.3L367.0,452.3L369.0,451.2L370.9,453.6L370.2,454.3L372.0,453.8L368.5,447.6L367.4,447.8L368.8,444.3L366.3,443.7L365.9,441.9L369.2,439.3L369.4,438.4L366.9,437.8L363.1,437.7L353.9,435.6L351.1,431.7L351.2,429.2L346.7,430.9L338.4,433.1L337.9,434.2L331.5,433.1L331.2,433.0Z " data-iso="ITA" data-key="IT" data-label="Italy"/><path d="M193.0,380.5L190.9,379.5L190.4,381.0L193.0,380.5Z " data-iso="JEY" data-key="JE" data-label="Jersey"/><path d="M700.0,624.8L697.4,623.7L695.0,623.7L693.0,622.0L689.7,621.9L688.3,626.7L700.0,626.7L700.0,624.8Z " data-iso="JOR" data-key="JO" data-label="Jordan"/><path d="M470.6,502.7L472.3,497.0L472.0,495.6L467.7,495.0L467.7,493.6L462.9,489.7L460.1,488.6L458.9,487.3L457.3,488.5L457.6,491.3L455.9,492.9L456.0,494.6L454.5,495.3L453.0,495.9L451.1,496.8L450.8,497.3L451.6,500.3L451.6,500.4L452.1,500.8L454.2,503.7L455.6,504.1L458.0,506.2L459.3,510.4L459.2,511.2L459.3,511.3L460.8,511.3L461.4,507.5L464.8,505.3L470.9,503.2L470.9,503.2L470.6,502.7Z " data-iso="-99" data-key="-99" data-label="Kosovo"/><path d="M321.3,429.3L321.0,427.8L320.8,427.4L320.6,426.2L320.5,425.9L320.0,427.6L319.9,428.9L320.0,429.5L320.2,429.5L321.1,429.6L321.3,429.3Z " data-iso="LIE" data-key="LI" data-label="Liechtenstein"/><path d="M434.0,282.9L434.6,283.0L435.1,281.7L435.5,279.2L434.8,280.8L434.0,282.9Z M433.7,270.3L434.3,273.8L436.9,279.6L437.3,282.7L437.3,282.9L445.9,285.1L450.7,284.5L453.9,287.8L453.3,291.5L454.1,295.3L454.6,296.0L455.1,295.3L457.5,296.5L462.0,298.5L462.8,301.6L462.9,301.9L463.7,302.1L470.4,301.0L471.3,301.3L474.0,299.3L475.5,299.1L476.0,296.1L477.7,296.0L479.7,293.6L482.1,292.0L482.5,282.9L485.7,279.2L486.0,277.1L489.3,276.3L489.5,275.0L487.2,273.0L487.4,268.1L487.2,267.3L486.7,267.3L484.0,266.5L476.9,261.8L471.0,261.2L468.8,258.2L467.0,258.8L465.7,260.5L462.0,261.8L442.5,262.4L438.7,264.6L433.5,269.5L433.7,270.3Z " data-iso="LTU" data-key="LT" data-label="Lithuania"/><path d="M284.0,375.6L282.6,374.8L281.3,376.1L279.4,380.7L280.9,383.6L280.1,385.1L279.8,385.4L280.1,386.0L282.9,387.0L283.4,386.5L285.1,386.8L285.9,387.2L286.0,386.2L287.8,382.2L283.9,377.1L284.0,376.1L284.1,375.7L284.0,375.6Z " data-iso="LUX" data-key="LU" data-label="Luxembourg"/><path d="M486.8,234.9L483.3,234.2L479.0,236.2L473.7,232.2L471.8,232.0L465.0,229.9L458.6,234.5L458.7,235.9L459.7,238.2L461.2,244.8L457.9,249.6L455.4,250.6L451.7,249.2L449.6,245.5L444.4,241.6L443.2,239.6L436.1,243.3L434.3,247.8L434.0,253.1L431.9,256.7L432.8,266.3L433.5,269.5L438.7,264.6L442.5,262.4L462.0,261.8L465.7,260.5L467.0,258.8L468.8,258.2L471.0,261.2L476.9,261.8L484.0,266.5L486.7,267.3L487.2,267.3L487.4,267.1L490.9,263.7L493.5,263.6L499.6,256.2L499.9,256.2L499.9,255.4L499.9,254.1L496.7,248.9L492.5,243.2L492.3,237.7L488.1,234.6L487.0,234.8L486.8,234.9Z " data-iso="LVA" data-key="LV" data-label="Latvia"/><path d="M293.6,485.3L293.6,485.1L293.3,484.9L292.9,485.6L293.6,485.3Z " data-iso="MCO" data-key="MC" data-label="Monaco"/><path d="M542.6,434.3L545.0,433.4L544.6,430.6L546.7,426.9L548.6,420.7L547.5,419.0L547.0,416.1L549.5,414.7L550.1,416.8L556.1,414.3L557.4,415.5L560.5,413.5L557.6,412.1L556.6,408.1L552.3,406.3L549.9,400.7L547.6,399.7L544.0,391.6L542.9,390.4L541.4,391.4L538.4,388.8L535.6,388.9L535.1,390.0L533.4,388.3L530.3,388.2L526.8,386.1L523.6,385.8L520.4,388.3L516.1,388.9L514.2,390.9L514.0,391.6L515.1,391.3L518.4,392.5L521.0,395.4L524.2,400.3L528.4,404.7L534.9,409.7L538.1,414.9L538.5,423.7L538.9,426.5L540.8,431.8L540.0,432.8L541.3,434.0L542.1,435.0L542.6,434.3Z " data-iso="MDA" data-key="MD" data-label="Moldova"/><path d="M480.2,500.7L475.1,501.4L473.1,502.6L471.6,503.2L470.9,503.2L470.9,503.2L464.8,505.3L461.4,507.5L460.8,511.3L459.3,511.3L459.2,511.2L459.0,511.4L458.4,517.3L459.3,521.5L460.6,523.8L466.1,527.6L466.3,528.0L468.0,527.6L476.5,524.9L478.8,521.5L485.2,520.8L488.0,519.3L488.1,517.0L489.4,516.4L490.1,516.3L490.2,515.9L489.9,511.7L490.3,509.7L482.8,503.0L480.6,500.8L480.2,500.7Z " data-iso="MKD" data-key="MK" data-label="Macedonia"/><path d="M387.2,620.0L384.2,618.0L384.2,619.8L387.2,620.0Z M383.6,617.2L382.9,616.4L381.7,616.7L383.6,617.2Z " data-iso="MLT" data-key="MT" data-label="Malta"/><path d="M438.6,484.8L436.3,484.9L436.8,489.3L435.1,488.4L432.6,492.5L432.8,494.1L430.6,495.3L431.4,502.2L431.2,502.3L431.2,502.9L431.8,503.6L432.4,504.4L432.8,504.4L437.4,507.0L440.6,510.0L441.6,511.8L443.7,513.0L442.4,507.9L446.3,499.6L447.5,501.3L451.3,500.4L451.6,500.4L451.6,500.3L450.8,497.3L451.1,496.8L453.0,495.9L454.5,495.3L454.5,494.8L449.1,491.5L445.6,490.5L439.0,485.0L439.0,484.8L438.6,484.8Z " data-iso="MNE" data-key="ME" data-label="Montenegro"/><path d="M264.1,352.9L263.1,352.2L261.7,352.8L256.9,351.7L256.0,351.8L263.1,354.8L265.3,352.6L264.1,352.9Z M263.0,346.3L261.3,346.0L262.8,348.2L264.2,348.0L263.0,346.3Z M274.8,324.5L274.9,322.5L273.3,324.0L273.6,325.6L274.8,324.5Z M280.2,364.2L280.8,364.5L281.3,364.6L283.4,364.8L284.2,362.2L282.6,360.8L285.4,358.2L284.9,356.8L286.4,352.4L284.1,347.5L286.6,345.7L287.9,346.3L292.7,345.5L292.5,343.4L295.4,340.6L295.9,337.0L292.8,335.5L293.4,333.2L296.7,331.5L298.7,322.4L297.3,322.0L294.9,319.5L285.2,320.0L281.6,321.6L279.6,324.4L276.4,326.5L273.4,326.6L272.7,327.7L270.5,334.9L268.2,338.9L264.8,342.1L263.1,345.1L265.2,348.7L260.6,348.5L257.4,349.2L258.0,350.2L261.1,351.8L263.1,351.4L264.4,352.2L265.3,352.6L266.1,353.1L268.4,351.3L269.7,352.3L271.1,351.3L272.0,352.8L274.0,351.9L275.7,355.2L282.1,358.3L280.9,361.6L279.8,362.6L280.2,364.2L280.2,364.2Z M279.7,319.4L280.6,318.7L278.3,319.2L279.7,319.4Z M290.1,318.0L289.7,317.9L288.6,318.5L290.1,318.0Z M294.2,317.0L295.0,316.3L293.3,317.0L294.2,317.0Z " data-iso="NLD" data-key="NL" data-label="Netherlands"/><path d="M287.2,201.8L287.0,200.3L286.3,203.5L287.2,201.8Z M287.3,188.5L286.3,186.9L286.0,188.4L287.3,188.5Z M315.1,152.0L315.0,149.7L312.9,150.6L315.1,152.0Z M318.2,146.5L320.9,145.6L318.1,145.4L318.2,146.5Z M339.3,126.6L337.8,124.7L336.4,127.0L339.3,126.6Z M348.3,109.0L349.9,107.1L348.0,107.8L348.3,109.0Z M347.6,106.7L348.7,106.2L348.3,103.8L347.6,106.7Z M350.5,75.8L351.1,72.5L349.6,76.7L350.5,75.8Z M356.1,69.0L354.0,69.4L352.2,73.7L356.3,70.7L356.1,69.0Z M364.0,57.3L360.0,59.6L360.0,62.7L362.3,62.9L365.2,61.7L364.0,57.3Z M367.9,63.4L368.8,60.5L367.6,55.7L367.8,51.4L365.4,56.6L366.3,58.3L365.6,62.7L363.8,65.7L360.6,66.6L358.6,69.1L358.7,70.2L361.1,69.9L362.9,68.0L366.2,67.7L369.9,65.0L372.6,61.9L371.1,57.9L369.7,61.3L367.9,63.4Z M377.2,45.3L374.9,48.8L374.7,53.2L373.8,54.4L376.0,55.0L376.9,53.2L380.6,51.7L381.0,48.3L377.2,45.3Z M386.7,36.4L385.6,33.5L384.4,38.5L382.2,41.7L381.5,44.2L385.0,43.8L387.7,40.4L388.9,37.0L386.7,36.4Z M410.6,24.7L407.5,26.3L407.2,28.1L410.8,27.1L410.6,24.7Z M412.9,24.0L412.9,22.6L411.9,24.9L412.9,24.0Z M408.7,20.5L407.4,20.8L406.4,22.7L402.0,24.4L406.2,25.6L408.7,20.5Z M341.0,225.3L343.3,227.2L344.6,221.0L343.5,215.9L348.8,209.4L350.4,207.0L351.1,201.2L348.6,193.7L348.4,191.9L351.7,191.0L353.2,185.8L352.1,184.3L347.1,179.7L348.1,171.3L346.5,165.0L347.2,158.0L345.4,153.1L347.0,149.7L346.7,148.0L350.5,141.8L354.3,139.7L360.1,140.5L361.3,136.3L359.0,132.1L357.3,131.0L360.5,124.8L362.0,120.9L363.5,110.3L362.5,104.7L365.1,104.2L368.9,101.4L368.3,98.3L373.2,89.8L374.3,86.7L371.8,82.3L373.8,80.0L375.5,74.1L378.6,70.3L382.7,72.3L383.5,70.1L383.3,63.8L384.5,62.0L387.1,62.8L396.5,62.1L394.6,61.2L396.3,57.4L396.3,55.8L394.4,53.2L396.7,52.6L397.5,52.5L397.7,51.9L400.5,51.3L399.7,49.6L400.8,48.0L403.0,47.7L409.1,55.2L409.5,56.1L413.7,56.2L417.5,54.9L419.1,53.1L425.7,55.4L429.1,47.9L427.9,37.8L429.2,34.2L431.1,31.2L434.5,30.0L437.1,27.6L438.5,28.8L444.0,31.6L446.2,32.1L448.4,35.0L446.9,40.5L447.8,42.4L448.4,42.9L449.2,42.2L449.5,37.8L456.6,31.8L455.7,27.6L454.7,27.6L453.5,29.3L449.7,30.2L447.4,26.5L442.2,25.8L441.8,25.0L448.6,24.0L453.4,19.6L450.1,16.1L446.2,14.1L442.4,14.6L440.1,12.9L438.6,13.3L437.9,17.7L438.2,19.7L436.5,18.8L435.7,12.1L434.0,11.3L430.8,11.3L429.8,14.6L431.7,15.6L430.0,21.5L428.1,23.6L427.1,16.2L426.3,14.9L423.8,20.9L422.0,26.1L421.4,29.8L419.8,28.7L420.1,22.9L421.9,18.0L418.9,18.1L414.9,16.2L413.6,20.4L413.3,25.3L412.5,25.6L410.2,30.6L411.2,33.7L408.9,32.7L407.0,28.9L405.9,28.5L401.1,31.7L398.6,32.0L403.4,38.1L399.7,35.6L395.2,37.9L394.9,39.0L396.9,44.4L395.3,44.2L394.0,47.3L393.1,47.6L394.1,44.5L393.9,38.9L393.3,37.6L391.4,39.9L390.5,46.8L390.1,40.8L387.1,41.7L384.1,46.4L386.0,49.2L382.8,47.4L381.6,47.6L381.2,49.5L381.6,52.3L379.3,53.5L376.4,60.6L374.9,60.8L372.9,64.3L377.3,64.5L376.7,66.0L372.2,66.0L371.7,70.2L371.0,72.2L370.4,69.4L366.7,71.2L362.6,76.4L364.3,78.4L366.0,77.0L365.5,78.8L368.4,83.8L365.0,80.6L363.9,80.3L361.7,85.6L367.4,86.4L363.1,86.7L358.1,89.0L356.7,93.9L355.6,93.8L352.0,100.0L352.4,103.4L358.4,101.7L356.4,104.1L354.4,104.1L350.2,105.6L351.6,107.0L347.2,113.6L345.7,118.2L345.8,119.6L348.6,120.9L350.1,119.7L348.6,122.5L346.1,121.3L341.2,124.7L339.8,128.5L342.3,127.5L341.5,128.6L334.4,134.1L331.8,138.2L330.1,139.8L326.6,146.1L328.2,146.2L330.3,149.4L332.5,148.4L337.1,145.1L337.0,142.6L338.2,141.4L341.1,141.2L338.9,142.9L340.4,144.5L337.2,146.3L335.1,148.7L334.4,150.6L332.5,150.2L330.0,151.5L327.6,147.5L324.7,148.3L323.4,150.2L321.0,147.0L317.6,148.7L319.0,150.6L318.8,152.5L315.4,155.0L314.9,156.1L310.8,155.8L309.3,157.0L306.3,158.0L304.2,162.2L307.9,161.6L309.2,162.3L314.3,161.5L309.7,165.2L308.1,164.1L303.8,163.3L300.7,163.5L298.7,166.9L302.3,167.1L299.2,167.8L295.3,167.1L290.4,170.5L289.8,172.7L291.1,174.3L292.8,174.3L300.7,177.2L297.0,177.3L292.6,175.1L288.8,174.8L288.0,177.9L291.0,182.0L288.0,183.6L288.7,186.9L290.4,188.4L300.1,188.2L300.6,186.7L303.9,188.4L305.8,188.4L307.4,186.2L308.9,188.3L304.6,189.6L295.9,188.6L291.8,189.4L288.4,188.8L287.6,189.3L287.5,195.0L288.9,197.4L288.1,198.8L288.7,203.6L292.1,205.3L287.6,206.2L286.8,209.8L286.7,213.1L290.0,210.2L290.6,208.8L293.6,206.3L293.9,204.9L296.3,201.7L298.0,200.6L303.6,199.4L300.7,201.7L299.3,205.2L299.5,200.9L296.1,203.7L294.6,207.0L292.6,208.9L292.2,213.1L290.5,212.6L288.1,213.2L286.0,220.1L286.3,221.2L288.9,220.7L289.9,219.3L292.4,218.4L296.4,215.6L293.3,219.4L292.4,223.4L296.2,224.4L295.2,225.5L289.4,224.6L289.2,230.7L290.1,232.4L295.9,237.1L298.6,238.0L297.8,238.8L298.8,240.7L299.5,239.3L301.2,241.6L305.4,241.8L309.2,241.0L315.2,237.5L319.0,233.0L323.3,229.1L322.6,228.2L327.0,225.4L327.3,226.6L330.9,224.9L332.6,221.2L332.4,217.1L334.4,218.7L336.2,222.8L341.0,224.8L341.0,225.3Z M419.5,12.9L418.4,15.0L420.2,15.9L422.5,15.1L421.6,13.1L419.5,12.9Z M224.8,10.5L231.1,8.7L231.8,6.5L229.8,6.6L228.2,8.1L225.2,9.3L224.8,10.5Z " data-iso="NOR" data-key="NO" data-label="Norway"/><path d="M422.8,298.9L421.4,299.9L417.2,301.0L413.0,298.6L411.1,294.8L414.9,296.4L414.4,295.5L409.8,293.3L399.5,296.1L396.0,298.7L392.8,299.6L389.5,304.4L375.0,309.9L371.8,311.6L370.4,311.6L370.0,311.3L369.9,311.8L370.1,312.6L371.5,312.8L373.6,313.3L373.0,315.9L370.6,315.0L372.6,322.5L372.2,325.6L369.9,329.6L374.1,333.4L375.3,335.3L374.8,338.2L376.2,340.0L377.1,342.9L375.7,347.2L379.3,353.3L380.6,356.9L380.2,359.6L378.8,363.5L378.8,363.7L379.7,363.6L380.6,363.2L380.6,361.0L383.5,361.8L383.8,363.0L392.6,366.9L394.9,366.3L395.9,368.8L395.1,369.2L396.0,371.5L399.0,375.1L400.4,375.1L402.8,369.8L409.2,371.9L411.0,372.9L409.8,373.7L413.2,376.6L415.6,376.0L420.3,377.1L421.4,379.5L424.0,381.7L424.4,382.9L424.4,383.4L425.6,383.5L428.1,384.9L429.1,382.9L431.5,381.6L433.0,383.6L438.6,387.6L441.6,383.7L444.4,383.2L448.7,383.6L449.4,382.1L455.6,381.4L462.4,385.0L465.6,385.7L466.4,385.8L466.8,385.6L469.8,385.4L466.6,378.6L466.8,376.5L469.6,370.9L475.6,361.7L478.3,360.7L479.0,357.0L477.3,354.3L478.2,352.6L476.2,350.9L472.2,345.3L471.9,343.7L471.2,342.6L470.2,341.0L470.3,334.8L469.4,332.7L464.8,330.8L465.4,327.7L470.3,322.8L469.6,316.6L465.0,307.5L462.9,301.9L462.8,301.6L462.0,298.5L457.5,296.5L455.1,295.3L454.6,296.0L454.3,296.2L448.7,296.9L423.2,298.5L422.8,298.9Z " data-iso="POL" data-key="PL" data-label="Poland"/><path d="M87.3,488.1L88.2,490.7L87.4,491.3L86.8,497.7L87.1,500.0L85.4,506.7L83.7,508.9L81.1,514.4L80.9,516.9L74.7,525.5L71.1,528.2L67.4,538.0L70.1,539.0L71.8,538.9L74.1,536.7L74.0,538.4L70.0,540.0L71.2,543.9L73.7,543.5L76.6,545.8L73.9,544.7L73.9,549.4L72.1,552.9L70.9,561.9L67.0,568.0L72.6,567.8L78.5,570.0L82.3,572.2L87.4,570.5L88.6,570.6L88.7,563.4L90.0,561.2L94.4,557.3L96.6,557.2L97.5,556.0L96.0,554.6L93.9,549.3L95.6,545.2L99.4,542.6L100.1,539.3L98.5,538.4L96.5,530.9L96.9,528.4L101.2,529.4L103.4,527.9L104.7,525.7L104.0,521.9L107.4,519.2L107.3,517.4L108.7,510.0L108.3,507.7L112.0,504.9L117.9,501.9L118.3,498.7L115.5,497.6L115.9,493.5L115.5,492.8L110.5,491.6L109.1,490.7L107.2,492.3L105.4,492.5L102.1,490.7L99.5,490.4L95.5,489.0L96.6,485.0L90.4,485.7L88.9,486.5L87.3,488.1Z " data-iso="PRT" data-key="PT" data-label="Portugal"/><path d="M541.3,434.0L540.0,432.8L540.8,431.8L538.9,426.5L538.5,423.7L538.1,414.9L534.9,409.7L528.4,404.7L524.2,400.3L521.0,395.4L518.4,392.5L515.1,391.3L514.0,391.6L513.6,391.9L510.7,393.2L509.9,397.1L502.3,400.0L496.5,404.4L492.3,401.4L487.8,402.6L481.4,402.1L478.9,402.6L476.4,401.4L473.4,403.9L473.0,404.3L472.8,404.7L471.2,407.1L466.5,409.6L464.2,413.2L464.4,415.1L463.2,416.8L459.9,426.8L460.3,427.6L458.2,432.9L456.0,436.2L452.7,436.5L451.2,438.6L449.9,438.2L447.3,439.1L446.9,439.6L447.7,440.5L448.5,441.7L451.4,443.2L453.2,445.3L455.7,450.3L463.7,454.1L462.5,456.9L464.6,458.6L462.8,459.7L472.3,463.4L473.6,462.9L475.1,460.7L476.8,459.9L478.7,460.6L477.9,462.6L478.0,465.4L480.2,467.3L480.4,467.5L481.4,468.1L484.7,469.6L484.0,473.9L487.6,472.7L491.5,472.5L500.1,472.6L502.5,471.7L511.6,472.0L515.8,471.5L523.4,464.2L526.5,462.2L530.6,460.3L541.9,461.3L543.5,460.4L546.1,462.8L548.3,463.1L552.8,462.7L552.7,461.7L552.8,458.4L551.5,453.2L553.1,449.1L552.3,445.6L552.9,443.8L552.1,442.1L554.5,444.4L560.2,441.5L560.3,435.3L560.3,434.2L556.1,432.3L554.1,433.1L549.3,437.2L543.8,436.4L542.1,435.0L541.3,434.0Z " data-iso="ROU" data-key="RO" data-label="Romania"/><path d="M434.6,283.0L434.0,282.9L433.6,283.9L429.9,289.2L425.8,290.2L425.3,295.2L424.5,296.8L423.2,298.5L448.7,296.9L454.3,296.2L454.6,296.0L454.1,295.3L453.3,291.5L453.9,287.8L450.7,284.5L445.9,285.1L437.3,282.9L437.6,285.5L437.7,288.5L431.8,288.4L433.9,284.7L434.6,283.0Z M513.9,91.1L512.7,93.1L515.0,94.4L513.9,91.1Z M546.9,49.1L545.2,48.2L545.2,49.3L546.9,49.1Z M559.4,0.0L560.3,0.7L562.2,1.1L559.4,0.0Z M455.7,27.6L456.6,31.8L449.5,37.8L449.2,42.2L448.4,42.9L448.0,43.2L445.6,45.6L447.6,45.8L449.1,54.4L450.7,56.8L455.4,57.8L459.9,62.0L461.7,65.2L459.1,76.0L459.7,78.0L464.7,83.9L469.4,89.9L471.6,93.5L471.7,95.5L470.6,99.3L473.0,105.1L472.0,106.5L472.8,108.6L476.6,110.2L477.5,112.0L477.0,113.7L478.8,116.6L483.2,120.5L483.4,121.5L481.7,127.8L485.3,130.1L492.5,133.3L496.8,137.8L495.2,148.3L493.3,152.3L489.3,163.6L487.0,168.7L482.0,176.8L478.6,184.0L481.5,182.7L483.8,180.3L485.5,183.1L484.2,182.6L490.5,187.2L495.9,185.7L500.7,188.7L500.7,190.2L496.6,189.8L492.0,190.2L490.5,193.8L487.5,193.9L486.6,196.9L483.9,196.0L484.9,199.7L484.8,201.0L486.4,202.5L484.9,204.2L484.4,208.6L482.9,214.6L485.0,219.3L485.6,222.9L489.4,228.8L487.7,229.9L487.0,234.4L487.0,234.8L488.1,234.6L492.3,237.7L492.5,243.2L496.7,248.9L499.9,254.1L499.9,255.4L499.9,256.2L501.5,257.4L504.8,256.5L506.7,258.1L508.6,256.3L512.1,256.9L513.4,260.3L514.3,260.8L518.8,257.0L520.5,256.4L525.0,258.4L528.0,259.3L529.4,265.1L531.2,267.7L530.7,272.6L534.4,274.0L537.8,279.4L539.3,280.7L544.4,282.8L545.2,286.3L549.0,285.4L552.7,288.5L555.3,289.6L554.0,294.2L550.9,297.3L548.8,297.5L546.6,296.5L544.2,297.2L543.4,300.6L547.2,303.5L549.9,311.4L552.6,314.0L552.8,314.4L553.0,314.4L556.6,314.2L558.0,309.9L560.8,309.0L571.3,304.6L572.2,304.9L576.9,309.5L580.8,311.9L578.6,314.4L582.0,321.2L590.6,319.2L594.4,321.3L594.3,321.9L597.0,325.7L597.8,328.9L601.5,331.2L602.4,329.8L605.7,328.7L611.2,329.9L618.1,324.2L619.0,324.0L623.6,327.9L628.2,329.6L629.6,326.7L632.1,327.4L637.7,327.9L643.8,327.3L648.1,328.5L651.4,327.8L653.4,333.4L650.7,338.0L653.3,339.4L652.7,343.7L655.1,345.0L658.1,348.9L658.5,356.7L648.9,360.5L648.5,362.9L644.8,367.1L645.3,371.4L646.8,375.0L649.2,372.6L651.7,370.1L650.1,372.7L654.0,370.8L654.4,368.9L656.3,368.2L658.4,371.6L657.0,372.5L650.9,378.7L652.4,380.9L648.5,381.8L646.9,383.7L644.6,384.2L645.6,385.8L655.7,390.3L652.3,391.4L652.2,393.1L650.0,393.9L650.2,397.6L649.0,402.4L650.4,405.3L646.5,407.9L640.7,408.1L640.0,409.0L643.0,409.5L639.9,412.5L648.9,414.5L650.4,416.1L653.5,417.2L656.5,415.6L661.8,418.8L668.6,418.7L677.9,422.5L681.0,424.5L686.6,427.1L688.1,427.5L689.2,424.3L693.7,423.6L695.0,422.6L700.0,423.2L700.0,0.0L577.2,0.0L575.5,6.5L573.3,11.9L570.8,13.3L573.4,15.7L569.1,20.2L571.0,23.6L573.1,31.0L569.4,35.1L565.8,36.8L562.5,35.7L559.6,33.3L553.8,32.0L553.5,30.9L554.3,25.0L560.0,20.1L558.8,18.3L549.8,13.2L544.5,14.1L539.0,17.5L534.7,17.1L535.0,18.4L541.6,20.5L544.8,25.3L548.7,37.6L553.0,38.5L557.9,44.3L559.3,52.0L561.2,55.4L557.7,54.3L556.4,54.6L555.2,52.4L552.5,51.9L548.6,53.7L545.4,53.3L544.8,58.5L544.0,61.5L540.1,68.5L539.6,70.4L537.5,74.2L539.2,78.1L543.6,81.6L545.0,82.2L547.7,85.6L545.2,86.4L544.6,90.3L543.4,90.9L538.9,90.1L530.7,90.3L525.9,88.0L521.1,88.6L521.7,91.8L520.4,93.2L520.9,94.6L526.8,99.0L530.3,99.8L532.2,98.6L534.2,99.3L536.9,105.1L533.6,108.8L524.7,108.1L522.6,106.0L517.9,104.3L516.6,105.3L513.2,104.8L511.3,103.3L510.7,99.9L509.6,99.5L508.3,96.6L506.2,94.0L503.0,91.0L503.6,89.7L502.7,82.6L498.5,79.3L496.0,78.4L491.9,78.0L491.8,75.9L489.9,75.7L487.3,73.1L484.8,72.7L481.3,70.7L479.5,67.1L483.3,67.1L484.8,69.8L486.1,70.5L498.3,70.7L504.1,72.5L510.3,72.0L516.7,71.0L519.5,71.7L526.5,70.0L530.1,67.4L534.0,62.6L535.5,59.2L536.7,51.5L535.3,46.5L532.9,44.9L528.4,38.5L519.0,36.2L517.4,36.6L511.2,34.5L508.6,35.0L502.1,31.4L487.9,27.7L484.1,27.5L474.6,30.1L474.3,33.5L472.6,28.7L467.5,29.2L466.1,29.9L463.8,27.1L468.4,26.9L468.2,24.9L461.1,23.0L462.0,24.8L460.8,25.5L460.6,27.2L456.8,27.5L455.7,27.6Z " data-iso="RUS" data-key="RU" data-label="Russia"/><path d="M431.5,444.3L431.4,444.7L432.7,450.6L433.9,451.0L433.5,453.2L438.6,456.3L434.7,457.6L435.4,460.4L434.3,461.7L434.5,462.3L434.9,462.2L438.7,462.0L436.6,468.7L436.9,471.3L439.6,472.8L442.9,475.6L440.1,476.9L440.6,479.3L442.3,481.5L439.7,483.9L439.0,484.8L439.0,485.0L445.6,490.5L449.1,491.5L454.5,494.8L454.5,495.3L456.0,494.6L455.9,492.9L457.6,491.3L457.3,488.5L458.9,487.3L460.1,488.6L462.9,489.7L467.7,493.6L467.7,495.0L472.0,495.6L472.3,497.0L470.6,502.7L470.9,503.2L471.6,503.2L473.1,502.6L475.1,501.4L480.2,500.7L480.6,500.8L481.5,500.4L482.5,498.3L481.0,495.3L480.9,491.6L483.7,490.4L486.3,485.6L486.3,484.8L482.4,481.9L480.5,481.0L477.4,475.8L478.1,471.6L479.5,470.4L480.0,467.8L480.4,467.5L480.2,467.3L478.0,465.4L477.9,462.6L478.7,460.6L476.8,459.9L475.1,460.7L473.6,462.9L472.3,463.4L462.8,459.7L464.6,458.6L462.5,456.9L463.7,454.1L455.7,450.3L453.2,445.3L451.4,443.2L448.5,441.7L447.7,440.5L446.9,439.6L446.5,439.3L439.4,439.4L437.7,441.0L431.7,444.3L431.5,444.3Z " data-iso="SRB" data-key="RS" data-label="Serbia"/><path d="M465.6,385.7L462.4,385.0L455.6,381.4L449.4,382.1L448.7,383.6L444.4,383.2L441.6,383.7L438.6,387.6L433.0,383.6L431.5,381.6L429.1,382.9L428.1,384.9L425.6,383.5L424.4,383.4L424.2,383.5L421.9,384.0L419.6,386.9L416.9,391.8L414.3,394.4L410.5,396.4L407.2,396.1L405.1,399.4L404.9,400.8L404.8,401.0L404.1,403.6L404.2,404.5L407.1,410.2L407.9,410.8L408.2,410.6L409.8,410.9L415.2,414.2L426.2,412.9L426.3,411.1L427.9,408.2L431.9,407.4L437.9,405.3L438.9,405.6L443.5,402.3L446.5,397.5L452.8,397.4L454.8,396.4L456.9,397.1L459.0,399.4L463.3,398.0L463.5,397.7L463.2,395.0L464.9,391.7L465.2,389.4L466.3,386.5L466.4,385.8L465.6,385.7Z " data-iso="SVK" data-key="SK" data-label="Slovakia"/><path d="M402.3,436.6L400.1,433.4L399.3,431.1L397.1,431.1L396.5,431.5L395.7,434.4L393.5,434.0L387.1,435.5L379.5,440.0L369.9,438.4L369.4,438.4L369.2,439.3L365.9,441.9L366.3,443.7L368.8,444.3L367.4,447.8L368.5,447.6L372.0,453.8L370.2,454.3L369.2,455.2L368.5,455.6L372.2,456.9L374.6,456.0L378.0,455.8L380.5,452.8L383.1,455.6L388.5,456.0L389.6,455.5L389.7,452.4L388.6,451.0L392.7,449.0L393.1,446.4L392.1,444.4L392.4,442.8L395.9,441.2L400.2,436.6L401.4,436.6L402.5,437.0L402.3,436.6Z " data-iso="SVN" data-key="SI" data-label="Slovenia"/><path d="M390.2,270.1L391.9,261.2L393.7,252.9L391.3,259.6L390.4,260.1L388.8,265.5L389.0,269.9L390.2,270.1Z M411.4,241.8L409.1,240.9L408.9,242.1L406.5,242.4L403.3,247.4L404.7,254.5L406.4,255.1L409.1,252.2L410.7,249.4L409.4,248.0L409.2,244.2L411.4,241.8Z M411.9,240.3L411.6,239.3L410.9,240.6L411.9,240.3Z M403.9,214.6L404.7,213.4L404.0,213.3L403.9,214.6Z M397.5,52.5L396.7,52.6L394.4,53.2L396.3,55.8L396.3,57.4L394.6,61.2L396.5,62.1L387.1,62.8L384.5,62.0L383.3,63.8L383.5,70.1L382.7,72.3L378.6,70.3L375.5,74.1L373.8,80.0L371.8,82.3L374.3,86.7L373.2,89.8L368.3,98.3L368.9,101.4L365.1,104.2L362.5,104.7L363.5,110.3L362.0,120.9L360.5,124.8L357.3,131.0L359.0,132.1L361.3,136.3L360.1,140.5L354.3,139.7L350.5,141.8L346.7,148.0L347.0,149.7L345.4,153.1L347.2,158.0L346.5,165.0L348.1,171.3L347.1,179.7L352.1,184.3L353.2,185.8L351.7,191.0L348.4,191.9L348.6,193.7L351.1,201.2L350.4,207.0L348.8,209.4L343.5,215.9L344.6,221.0L343.3,227.2L341.0,225.3L340.2,224.5L339.3,224.6L339.1,227.3L340.1,234.8L341.5,237.1L341.7,240.9L342.6,242.9L344.0,243.4L344.4,247.7L345.7,248.3L346.5,252.7L347.4,252.3L348.3,256.0L350.9,261.4L355.4,266.2L355.8,268.0L353.3,269.3L353.9,272.8L352.0,271.9L352.8,274.5L356.7,281.0L356.0,286.8L360.3,287.8L364.9,286.2L368.5,286.6L370.1,284.3L368.6,279.2L371.7,275.4L376.3,273.0L379.0,273.2L380.7,272.6L383.8,273.4L385.3,271.6L386.9,265.3L388.0,263.1L389.2,256.9L388.4,253.6L389.7,250.7L388.4,244.3L389.6,242.4L389.3,238.3L388.4,233.7L390.8,232.5L385.1,230.0L391.1,229.7L395.0,225.9L400.3,221.9L402.5,219.7L402.7,217.8L404.4,217.0L403.8,215.9L398.0,218.6L393.0,219.0L389.3,216.3L382.6,216.8L385.4,215.4L386.1,213.8L387.8,214.8L388.5,214.0L393.2,215.2L393.2,213.7L396.9,213.9L396.9,216.2L398.6,217.0L402.2,214.4L406.6,208.2L404.4,204.1L402.7,203.6L402.1,201.4L397.0,197.5L396.4,196.2L391.3,195.8L390.3,194.9L388.6,185.2L388.2,177.6L390.5,178.1L389.4,175.1L389.1,167.2L388.7,164.2L392.0,164.0L393.5,162.2L391.7,157.8L396.3,156.9L397.3,152.0L400.0,150.7L402.0,146.4L408.1,142.5L411.8,138.5L412.9,133.1L415.8,127.8L412.1,122.4L414.4,116.7L413.6,112.0L415.7,110.0L416.7,108.1L417.9,108.1L418.0,103.9L419.3,104.5L420.5,103.0L422.0,104.2L428.8,103.1L430.6,102.4L427.7,97.0L425.3,93.5L425.9,86.0L423.0,82.1L420.8,75.9L420.1,75.5L417.1,64.9L412.8,61.2L407.5,59.8L401.5,55.5L399.3,53.2L397.5,52.5Z " data-iso="SWE" data-key="SE" data-label="Sweden"/><path d="M532.3,530.1L532.2,529.4L529.1,529.6L529.4,531.2L532.3,530.1Z M700.0,468.0L695.1,467.7L688.7,471.7L685.6,474.3L683.6,475.2L677.5,476.0L675.3,475.3L671.1,476.2L666.3,476.5L665.0,475.3L661.9,474.7L659.2,477.5L657.9,477.7L654.4,476.1L651.6,472.4L645.9,475.1L639.3,472.5L639.1,470.1L637.1,470.1L634.5,472.8L627.8,474.7L617.7,476.7L613.0,480.3L608.4,483.1L605.9,485.2L603.8,488.2L597.2,494.8L596.5,497.8L595.5,499.0L590.1,500.8L583.9,500.3L578.8,502.4L571.0,502.9L568.3,505.7L568.4,507.3L573.1,509.8L579.4,509.5L575.3,511.0L568.6,513.9L566.8,516.0L570.1,517.8L561.0,519.6L553.6,519.8L555.5,521.2L554.1,522.4L550.9,523.2L548.0,521.4L544.8,523.1L541.3,523.8L538.5,527.8L537.0,531.1L535.4,532.1L536.1,537.7L536.1,541.0L545.0,537.7L545.3,540.1L544.2,541.7L546.8,545.1L547.5,548.3L549.5,548.6L548.5,550.7L548.3,554.6L549.4,555.7L552.1,556.3L549.1,557.6L546.9,557.5L546.8,558.7L543.8,554.2L542.2,555.7L543.3,557.6L541.9,560.7L545.3,562.0L547.3,561.0L550.3,562.9L555.2,563.3L555.3,569.8L556.4,571.6L561.3,574.8L561.8,576.2L558.3,578.4L558.8,580.1L559.8,579.1L571.5,577.1L568.3,581.1L564.3,582.3L565.0,584.1L566.7,582.7L570.5,581.6L569.8,583.2L572.2,582.4L573.2,580.0L575.6,579.6L579.1,580.6L583.4,579.8L585.8,584.5L589.0,586.2L594.0,586.8L598.9,584.1L600.7,582.6L603.7,582.6L604.3,577.9L603.6,573.3L604.2,571.9L613.8,570.7L620.2,572.4L623.7,572.8L632.2,578.3L636.0,578.4L637.5,576.9L645.2,573.9L647.3,572.7L653.4,563.3L656.6,559.2L657.8,558.2L664.8,559.4L667.9,559.5L670.5,557.3L670.7,555.9L674.8,551.3L676.2,551.9L677.8,554.9L674.6,562.2L677.9,566.8L677.4,568.4L681.3,568.7L681.4,566.7L683.0,565.0L683.3,556.7L683.2,550.5L689.2,551.3L694.1,549.8L700.0,544.6L700.0,468.0Z M531.9,502.6L533.1,502.7L536.6,508.0L533.5,510.6L534.5,514.6L531.4,520.0L531.9,520.6L532.6,521.7L541.2,519.8L540.6,521.4L536.4,524.9L535.4,526.4L535.4,530.6L541.4,522.0L547.0,517.6L548.6,514.6L549.1,512.2L552.1,510.8L554.4,510.7L558.7,508.4L565.2,508.7L567.3,507.6L567.7,503.6L566.3,503.6L558.0,501.6L555.9,500.5L552.2,496.0L552.1,494.0L546.4,496.1L542.2,493.9L539.0,495.8L531.8,502.1L531.9,502.6Z " data-iso="TUR" data-key="TR" data-label="Turkey"/><path d="M582.7,411.6L578.2,411.6L579.2,412.4L582.7,411.6Z M552.8,314.4L550.9,314.8L546.0,316.7L545.2,317.5L543.0,322.2L542.7,326.1L544.7,329.9L541.8,331.2L539.4,329.1L530.8,332.4L527.4,329.4L523.9,333.2L523.0,331.9L519.7,332.0L509.0,333.8L507.2,331.7L503.3,332.2L494.1,331.6L478.0,335.4L476.2,339.2L470.9,341.0L471.3,342.5L471.2,342.6L471.9,343.7L472.2,345.3L476.2,350.9L478.2,352.6L477.3,354.3L479.0,357.0L478.3,360.7L475.6,361.7L469.6,370.9L466.8,376.5L466.6,378.6L469.8,385.4L466.8,385.6L466.4,385.8L466.3,386.5L465.2,389.4L464.9,391.7L463.2,395.0L463.5,397.7L464.6,397.5L466.3,399.9L471.4,401.7L472.8,404.1L473.0,404.3L473.4,403.9L476.4,401.4L478.9,402.6L481.4,402.1L487.8,402.6L492.3,401.4L496.5,404.4L502.3,400.0L509.9,397.1L510.7,393.2L513.6,391.9L514.0,391.6L514.2,390.9L516.1,388.9L520.4,388.3L523.6,385.8L526.8,386.1L530.3,388.2L533.4,388.3L535.1,390.0L535.6,388.9L538.4,388.8L541.4,391.4L542.9,390.4L544.0,391.6L547.6,399.7L549.9,400.7L552.3,406.3L556.6,408.1L557.6,412.1L560.5,413.5L557.4,415.5L556.1,414.3L550.1,416.8L549.5,414.7L547.0,416.1L547.5,419.0L548.6,420.7L546.7,426.9L544.6,430.6L545.0,433.4L542.6,434.3L542.1,435.0L543.8,436.4L549.3,437.2L554.1,433.1L556.1,432.3L560.3,434.2L560.2,432.7L558.7,429.6L557.7,428.8L558.1,425.9L559.7,425.9L563.7,422.5L567.1,414.6L567.5,409.4L571.0,407.2L573.1,406.9L575.1,403.4L575.3,405.4L579.2,404.6L578.4,399.9L575.4,395.6L576.5,396.3L579.3,400.9L579.4,402.1L582.3,404.7L585.0,404.5L587.2,403.0L585.5,406.0L577.8,406.6L576.0,407.1L581.7,407.8L581.9,408.5L579.6,410.3L582.8,410.6L588.6,412.1L596.3,408.2L599.5,409.5L601.9,409.2L602.6,410.5L597.7,415.5L592.0,423.3L597.0,422.9L603.2,424.0L605.5,425.0L607.0,427.9L606.8,434.3L609.8,435.6L614.7,434.3L616.5,431.7L617.8,428.0L620.2,425.7L624.5,424.5L624.8,422.7L626.7,420.6L628.4,417.5L632.4,418.2L636.3,416.6L638.0,415.3L638.3,409.2L632.1,411.7L627.2,414.4L623.2,413.2L619.2,409.9L615.3,404.4L614.8,402.4L616.7,400.4L617.7,396.9L618.8,397.9L619.2,400.7L619.9,397.3L623.3,391.8L625.3,390.3L628.1,389.5L629.4,387.8L633.5,386.7L634.4,384.4L638.3,381.3L639.6,377.9L642.6,376.5L646.5,375.4L646.8,375.0L645.3,371.4L644.8,367.1L648.5,362.9L648.9,360.5L658.5,356.7L658.1,348.9L655.1,345.0L652.7,343.7L653.3,339.4L650.7,338.0L653.4,333.4L651.4,327.8L648.1,328.5L643.8,327.3L637.7,327.9L632.1,327.4L629.6,326.7L628.2,329.6L623.6,327.9L619.0,324.0L618.1,324.2L611.2,329.9L605.7,328.7L602.4,329.8L601.5,331.2L597.8,328.9L597.0,325.7L594.3,321.9L594.4,321.3L590.6,319.2L582.0,321.2L578.6,314.4L580.8,311.9L576.9,309.5L572.2,304.9L571.3,304.6L560.8,309.0L558.0,309.9L556.6,314.2L553.0,314.4L552.8,314.4Z " data-iso="UKR" data-key="UA" data-label="Ukraine"/><path d="M355.9,517.8L355.9,517.6L355.8,517.6L355.9,517.8Z " data-iso="VAT" data-key="VA" data-label="Vatican"/></g></svg>