<?xml version="1.0" ?><!DOCTYPE svg  PUBLIC '-//W3C//DTD SVG 1.1//EN'  'http://www.w3.org/Graphics/SVG/1.1/DTD/svg11.dtd'><svg enable_background="new 0 0 700 628" height="628px" pretty_print="False" style="stroke-linejoin: round; stroke:#000; fill: none;" version="1.1" viewBox="0 0 700 628" width="700px" xmlns="http://www.w3.org/2000/svg" xmlns:xlink="http://www.w3.org/1999/xlink"><defs><style type="text/css"><![CDATA[path { fill-rule: evenodd; }]]></style></defs><metadata><views><view h="628.705000475" padding="0.05" w="700"><proj id="laea" lat0="46" lon0="11"/><bbox h="452.25" w="504.33" x="756.77" y="676.86"/></view></views></metadata><g class="" id="layer0"><path d="M452.1,500.8L454.2,503.7L455.6,504.1L458.0,506.2L459.3,510.4L459.2,511.2L459.0,511.4L458.4,517.3L459.3,521.5L460.6,523.8L466.1,527.6L466.3,528.0L466.3,529.2L466.8,534.0L464.7,536.0L463.7,540.9L459.5,544.2L460.7,546.7L458.7,549.5L455.9,548.8L455.7,547.3L453.4,543.3L448.3,541.0L445.9,537.9L447.3,536.6L446.0,531.3L446.8,528.7L445.7,520.4L446.8,514.0L445.3,513.0L443.7,513.0L442.4,507.9L446.3,499.6L447.5,501.3L451.3,500.4L451.6,500.4L452.1,500.8Z " data-iso="ALB" data-key="AL"/><path d="M420.0,203.0L419.3,203.6L418.9,202.5L420.0,203.0Z M411.6,201.5L410.6,202.3L411.2,200.5L411.6,201.5Z M414.0,198.4L416.5,199.7L415.0,202.7L413.0,203.1L411.6,200.7L414.0,198.4Z " data-iso="ALA" data-key="-99"/><path d="M220.3,500.9L219.1,501.5L217.1,499.7L217.4,498.9L217.8,498.5L219.2,498.4L220.9,499.1L220.8,500.5L220.7,500.9L220.3,500.9Z " data-iso="AND" data-key="AD"/><path d="M404.8,401.0L404.1,403.6L404.2,404.5L407.1,410.2L407.9,410.8L407.3,411.5L406.8,413.7L407.4,415.9L403.7,416.6L401.8,415.6L400.1,417.3L402.6,418.0L403.1,419.2L400.5,422.2L401.3,426.1L401.1,428.4L398.9,429.1L397.1,431.1L396.5,431.5L395.7,434.4L393.5,434.0L387.1,435.5L379.5,440.0L369.9,438.4L369.4,438.4L366.9,437.8L363.1,437.7L353.9,435.6L351.1,431.7L351.2,429.2L346.7,430.9L338.4,433.1L337.9,434.2L331.5,433.1L331.2,433.0L331.2,432.4L330.0,430.9L328.0,433.0L323.0,429.9L321.5,429.6L321.1,429.6L321.3,429.3L321.0,427.8L320.8,427.4L320.6,426.2L320.5,425.9L321.5,423.9L321.7,422.6L320.9,421.8L320.6,421.6L320.9,421.4L324.2,421.1L326.4,422.5L328.8,425.8L331.6,421.4L336.1,422.1L337.4,423.9L341.1,423.4L345.9,420.7L351.3,420.0L351.4,418.5L354.7,419.6L357.0,419.0L358.5,421.2L360.9,422.2L360.0,415.2L357.7,411.5L358.3,410.6L364.0,407.5L365.0,406.4L365.7,403.2L367.9,404.1L369.2,400.2L369.3,399.9L369.7,400.0L372.1,402.6L379.4,402.4L379.5,401.1L382.2,395.6L391.9,397.1L394.6,398.9L398.1,398.9L398.6,398.3L404.0,399.1L404.6,400.5L404.9,400.8L404.8,401.0Z " data-iso="AUT" data-key="AT"/><path d="M280.2,364.1L281.8,363.7L282.3,364.7L281.3,364.6L283.4,364.8L283.6,365.2L285.9,367.6L285.1,368.5L287.0,372.5L284.8,373.8L284.1,375.4L284.1,375.7L284.0,375.6L282.6,374.8L281.3,376.1L279.4,380.7L280.9,383.6L280.1,385.1L279.8,385.4L278.9,385.3L276.7,385.6L274.3,382.6L269.9,380.4L269.3,377.4L270.4,374.4L266.6,377.2L262.6,376.8L263.0,371.9L261.7,370.5L257.6,370.1L257.4,367.8L254.1,366.6L251.4,361.9L248.6,361.9L246.7,355.7L251.7,353.3L254.6,352.2L256.0,351.8L263.1,354.8L265.3,352.6L266.1,353.1L268.4,351.3L269.7,352.3L271.1,351.3L272.0,352.8L274.0,351.9L275.7,355.2L282.1,358.3L280.9,361.6L279.8,362.6L280.2,364.2L280.2,364.1Z " data-iso="BEL" data-key="BE"/><path d="M553.4,466.8L552.6,468.9L550.7,468.7L548.6,469.7L546.9,473.8L547.9,481.2L546.4,482.3L543.9,487.0L548.9,490.5L551.5,492.8L552.1,494.0L546.4,496.1L542.2,493.9L539.0,495.8L531.8,502.1L531.9,502.6L530.3,502.4L529.6,504.9L530.6,508.6L528.2,510.4L526.4,510.4L519.9,513.1L516.3,511.6L513.5,512.2L508.2,510.2L504.0,510.8L500.6,513.4L494.1,514.9L491.5,516.3L490.1,516.3L490.2,515.9L489.9,511.7L490.3,509.7L482.8,503.0L480.6,500.8L481.5,500.4L482.5,498.3L481.0,495.3L480.9,491.6L483.7,490.4L486.3,485.6L486.3,484.8L482.4,481.9L480.5,481.0L477.4,475.8L478.1,471.6L479.5,470.4L480.0,467.8L480.4,467.5L481.4,468.1L484.7,469.6L484.0,473.9L487.6,472.7L491.5,472.5L500.1,472.6L502.5,471.7L511.6,472.0L515.8,471.5L523.4,464.2L526.5,462.2L530.6,460.3L541.9,461.3L543.5,460.4L546.1,462.8L548.3,463.1L552.8,462.7L553.4,466.8Z " data-iso="BGR" data-key="BG"/><path d="M434.5,462.3L434.9,462.2L438.7,462.0L436.6,468.7L436.9,471.3L439.6,472.8L442.9,475.6L440.1,476.9L440.6,479.3L442.3,481.5L439.7,483.9L439.0,484.8L438.6,484.8L436.3,484.9L436.8,489.3L435.1,488.4L432.6,492.5L432.8,494.1L430.6,495.3L431.4,502.2L431.2,502.3L430.0,502.0L423.3,498.1L417.3,492.5L413.0,487.4L402.6,477.7L401.5,476.2L399.8,471.1L395.1,467.2L395.3,460.1L398.2,459.7L401.6,462.6L404.2,458.9L407.3,459.0L408.8,457.5L416.5,459.6L417.7,458.8L419.8,460.1L421.9,458.8L430.0,459.1L433.7,462.4L434.5,462.3Z " data-iso="BIH" data-key="BA"/><path d="M501.5,257.4L504.8,256.5L506.7,258.1L508.6,256.3L512.1,256.9L513.4,260.3L514.3,260.8L518.8,257.0L520.5,256.4L525.0,258.4L528.0,259.3L529.4,265.1L531.2,267.7L530.7,272.6L534.4,274.0L537.8,279.4L539.3,280.7L544.4,282.8L545.2,286.3L549.0,285.4L552.7,288.5L555.3,289.6L554.0,294.2L550.9,297.3L548.8,297.5L546.6,296.5L544.2,297.2L543.4,300.6L547.2,303.5L549.9,311.4L552.6,314.0L552.8,314.4L550.9,314.8L546.0,316.7L545.2,317.5L543.0,322.2L542.7,326.1L544.7,329.9L541.8,331.2L539.4,329.1L530.8,332.4L527.4,329.4L523.9,333.2L523.0,331.9L519.7,332.0L509.0,333.8L507.2,331.7L503.3,332.2L494.1,331.6L478.0,335.4L476.2,339.2L470.9,341.0L471.3,342.5L471.2,342.6L470.2,341.0L470.3,334.8L469.4,332.7L464.8,330.8L465.4,327.7L470.3,322.8L469.6,316.6L465.0,307.5L462.9,301.9L463.7,302.1L470.4,301.0L471.3,301.3L474.0,299.3L475.5,299.1L476.0,296.1L477.7,296.0L479.7,293.6L482.1,292.0L482.5,282.9L485.7,279.2L486.0,277.1L489.3,276.3L489.5,275.0L487.2,273.0L487.4,268.1L487.2,267.3L487.4,267.1L490.9,263.7L493.5,263.6L499.6,256.2L499.9,256.2L501.5,257.4Z " data-iso="BLR" data-key="BY"/><path d="M320.9,421.8L321.7,422.6L321.5,423.9L320.5,425.9L320.0,427.6L319.9,428.9L320.0,429.5L320.2,429.5L321.1,429.6L321.5,429.6L323.0,429.9L328.0,433.0L330.0,430.9L331.2,432.4L331.2,433.0L330.6,435.2L330.9,438.4L326.9,437.5L326.4,440.1L327.3,443.7L326.3,443.7L324.4,441.4L321.5,442.6L319.7,441.7L319.2,440.2L314.1,450.1L313.2,450.4L311.2,447.5L311.7,446.1L309.7,445.5L307.3,442.5L307.5,440.4L304.9,441.4L302.2,446.2L299.4,448.4L297.1,447.4L290.7,448.3L290.3,447.9L290.1,447.3L287.6,443.6L288.2,441.8L287.6,439.3L285.5,438.9L282.5,439.4L279.4,443.5L278.1,442.2L280.1,439.6L279.4,438.7L284.2,432.0L284.4,430.4L287.4,428.3L290.7,424.9L290.4,423.3L292.0,421.2L295.3,422.3L297.2,420.4L298.6,419.7L299.5,420.2L306.8,419.8L310.2,417.2L311.5,418.3L318.6,420.3L320.6,421.6L320.9,421.8Z " data-iso="CHE" data-key="CH"/><path d="M639.2,593.1L640.6,592.4L640.5,588.6L647.7,587.6L649.6,586.8L655.2,583.0L659.2,579.1L654.3,586.5L654.8,589.1L656.1,590.1L654.2,590.1L651.9,592.1L648.0,591.0L644.8,591.3L641.5,593.8L638.3,593.1L639.2,593.1Z " data-iso="-99" data-key="-99"/><path d="M656.5,590.3L652.4,592.8L650.6,596.2L648.0,598.5L643.2,601.3L640.1,601.9L637.4,601.6L633.9,598.2L633.1,596.1L634.5,596.3L637.5,593.2L638.3,593.1L641.5,593.8L644.8,591.3L648.0,591.0L651.9,592.1L654.2,590.1L656.1,590.1L656.5,590.3Z " data-iso="CYP" data-key="CY"/><path d="M379.7,363.6L380.6,363.2L380.6,361.0L383.5,361.8L383.8,363.0L392.6,366.9L394.9,366.3L395.9,368.8L395.1,369.2L396.0,371.5L399.0,375.1L400.4,375.1L402.8,369.8L409.2,371.9L411.0,372.9L409.8,373.7L413.2,376.6L415.6,376.0L420.3,377.1L421.4,379.5L424.0,381.7L424.4,382.9L424.4,383.4L424.2,383.5L421.9,384.0L419.6,386.9L416.9,391.8L414.3,394.4L410.5,396.4L407.2,396.1L405.1,399.4L404.9,400.8L404.6,400.5L404.0,399.1L398.6,398.3L398.1,398.9L394.6,398.9L391.9,397.1L382.2,395.6L379.5,401.1L379.4,402.4L372.1,402.6L369.7,400.0L369.3,399.9L368.8,399.1L366.2,396.7L365.0,396.8L363.8,395.1L359.0,390.6L357.8,390.6L355.8,388.4L354.3,381.0L351.6,378.6L349.5,374.7L350.0,374.0L351.6,376.2L354.5,372.5L358.8,372.2L359.6,370.7L361.9,369.2L364.5,368.4L365.0,367.1L369.0,365.8L372.2,364.0L372.9,361.1L376.7,362.9L376.6,363.9L378.6,364.0L378.8,363.7L379.7,363.6Z " data-iso="CZE" data-key="CZ"/><path d="M369.7,312.6L368.4,312.8L366.0,308.4L368.2,309.9L370.0,311.3L369.9,311.8L370.1,312.6L369.7,312.6Z M340.4,304.0L338.5,302.0L339.9,302.5L340.4,304.0Z M364.7,304.1L361.3,306.5L359.5,305.2L359.8,299.9L360.8,298.8L364.7,304.1Z M325.2,297.2L327.9,299.5L328.0,301.1L326.3,302.9L329.1,302.7L334.9,305.7L338.3,306.3L337.7,308.0L335.7,309.8L341.6,312.0L345.6,308.6L348.8,308.1L353.3,303.0L357.9,303.8L359.1,306.0L362.2,308.3L365.0,308.0L366.6,313.1L370.6,315.0L370.6,315.0L372.6,322.5L372.2,325.6L369.9,329.6L374.1,333.4L375.3,335.3L374.8,338.2L376.2,340.0L377.1,342.9L375.7,347.2L379.3,353.3L380.6,356.9L380.2,359.6L378.8,363.5L378.8,363.7L378.6,364.0L376.6,363.9L376.7,362.9L372.9,361.1L372.2,364.0L369.0,365.8L365.0,367.1L364.5,368.4L361.9,369.2L359.6,370.7L358.8,372.2L354.5,372.5L351.6,376.2L350.0,374.0L349.5,374.7L351.6,378.6L354.3,381.0L355.8,388.4L357.8,390.6L359.0,390.6L363.8,395.1L365.0,396.8L366.2,396.7L368.8,399.1L369.3,399.9L369.2,400.2L367.9,404.1L365.7,403.2L365.0,406.4L364.0,407.5L358.3,410.6L357.7,411.5L360.0,415.2L360.9,422.2L358.5,421.2L357.0,419.0L354.7,419.6L351.4,418.5L351.3,420.0L345.9,420.7L341.1,423.4L337.4,423.9L336.1,422.1L331.6,421.4L328.8,425.8L326.4,422.5L324.2,421.1L320.9,421.4L320.6,421.6L318.6,420.3L311.5,418.3L310.2,417.2L306.8,419.8L299.5,420.2L298.6,419.7L298.0,419.5L298.6,411.6L301.9,402.0L305.5,397.9L305.4,396.4L301.7,395.0L297.9,393.0L292.9,392.3L289.9,392.5L286.3,387.2L285.9,387.2L286.0,386.2L287.8,382.2L283.9,377.1L284.0,376.1L284.1,375.7L284.1,375.4L284.8,373.8L287.0,372.5L285.1,368.5L285.9,367.6L283.6,365.2L283.4,364.8L284.2,362.2L282.6,360.8L285.4,358.2L284.9,356.8L286.4,352.4L284.1,347.5L286.6,345.7L287.9,346.3L292.7,345.5L292.5,343.4L295.4,340.6L295.9,337.0L292.8,335.5L293.4,333.2L296.7,331.5L298.7,322.4L298.2,321.6L297.3,320.7L299.1,316.0L299.9,315.6L307.3,315.8L309.5,320.1L310.5,317.3L312.3,316.3L313.6,312.8L316.3,313.6L319.5,313.3L323.7,317.8L320.5,313.3L318.1,312.5L316.5,310.8L316.6,306.4L314.0,305.7L313.9,304.7L317.2,302.8L317.3,301.6L314.7,297.2L314.6,295.3L316.9,295.5L319.7,296.5L325.2,296.9L325.2,297.2Z " data-iso="DEU" data-key="DE"/><path d="M341.2,295.9L344.1,296.8L345.2,299.5L342.2,300.3L338.0,297.9L340.2,294.9L341.2,295.9Z M332.5,296.6L331.1,296.4L330.4,294.9L332.5,296.6Z M352.9,294.5L348.6,295.4L350.5,293.2L352.9,294.5Z M328.3,295.9L325.8,295.5L326.1,293.0L327.8,294.2L328.3,295.9Z M335.0,298.3L334.5,298.4L337.1,291.4L335.0,298.3Z M377.8,292.6L373.8,291.4L374.4,288.1L378.1,290.5L377.8,292.6Z M334.2,283.6L335.8,288.5L335.5,291.8L333.9,293.1L330.3,292.5L327.7,291.2L326.5,287.9L326.5,285.2L334.2,283.6Z M353.8,283.7L352.7,284.4L352.3,283.4L353.8,283.7Z M333.8,280.7L333.3,277.1L334.1,278.4L333.8,280.7Z M352.8,280.5L352.8,282.2L349.7,284.8L351.4,289.0L348.3,290.7L348.0,297.1L346.1,297.9L344.0,290.8L340.4,290.5L339.3,288.4L339.5,286.1L337.4,281.7L340.7,281.2L343.6,277.7L345.5,282.1L347.6,276.0L349.3,274.9L353.0,276.3L352.8,280.5Z M338.1,255.7L337.0,254.7L338.4,254.3L338.1,255.7Z M325.2,296.9L319.7,296.5L316.9,295.5L314.6,295.3L314.6,293.9L313.8,291.4L314.8,291.0L314.4,286.5L309.8,283.3L310.8,266.2L316.0,267.4L317.7,264.2L320.1,264.0L320.6,264.8L321.3,259.6L320.0,259.0L316.6,264.3L311.9,263.7L313.5,259.8L315.4,257.7L317.2,257.8L324.2,255.9L328.0,250.0L330.8,249.4L334.0,247.4L332.5,250.4L333.3,252.3L331.0,259.9L330.8,266.4L332.8,268.1L336.2,268.1L336.2,272.0L333.2,273.6L332.1,272.3L330.2,276.9L329.7,279.2L327.0,279.6L327.9,281.4L323.9,285.5L324.6,289.4L322.4,293.2L323.6,293.2L324.8,295.1L325.2,296.9Z " data-iso="DNK" data-key="DK"/><path d="M-95.0,683.7L-97.1,685.9L-99.1,683.1L-97.4,683.6L-95.3,682.8L-95.0,683.7Z M-57.8,690.3L-58.8,694.8L-61.8,696.1L-64.8,692.6L-64.3,690.9L-61.8,688.8L-57.8,690.3Z M-84.0,683.7L-85.5,681.5L-83.6,680.7L-82.6,681.8L-84.0,683.7Z M-70.2,682.0L-72.4,685.4L-76.5,686.6L-77.8,683.6L-77.5,679.6L-76.2,680.1L-69.2,679.1L-66.3,679.8L-66.4,680.6L-70.2,682.0Z M-40.3,695.4L-42.8,696.7L-42.8,695.3L-40.6,694.5L-35.3,687.3L-32.8,688.4L-33.3,690.1L-36.1,695.2L-40.3,695.4Z M-91.0,672.7L-92.1,667.5L-90.7,666.5L-88.8,667.1L-89.6,671.9L-91.0,672.7Z M-30.3,685.2L-32.6,685.3L-28.5,682.1L-25.6,682.4L-26.5,684.7L-30.3,685.2Z M212.1,565.8L209.6,565.6L210.2,564.0L212.1,565.8Z M210.6,561.4L210.0,562.4L207.6,561.3L209.6,558.5L212.5,558.2L210.6,561.4Z M234.4,549.0L238.4,549.9L235.1,556.0L232.7,557.2L230.6,555.8L228.2,552.6L225.5,553.4L224.0,551.0L229.8,547.4L234.4,549.0Z M249.5,549.4L244.1,547.0L244.1,545.2L246.8,545.2L248.9,546.1L249.5,549.4Z M179.4,479.5L183.7,483.1L182.6,486.2L184.8,486.4L191.1,489.9L192.8,492.1L196.4,492.2L199.3,494.9L202.4,494.8L207.8,495.9L208.1,494.2L209.6,493.7L216.6,497.1L217.4,498.9L217.1,499.7L219.1,501.5L220.3,500.9L220.7,500.9L222.5,501.9L228.9,503.7L231.2,504.7L239.4,504.1L239.7,505.2L238.2,508.6L239.2,510.1L239.1,512.4L235.8,515.1L226.4,519.3L223.2,522.1L216.4,522.9L209.4,524.3L204.8,527.9L206.4,530.5L202.8,531.2L199.2,535.9L192.6,542.6L188.5,548.2L188.3,550.0L189.1,556.2L191.0,559.4L193.3,560.9L190.1,564.6L185.4,566.5L183.3,568.3L182.6,570.1L181.2,570.8L179.1,579.5L176.0,580.1L170.8,579.5L166.2,581.8L163.7,584.1L161.1,588.6L157.2,591.5L155.8,590.0L153.9,589.4L149.0,590.7L147.6,589.9L140.3,589.3L135.1,587.5L127.7,586.8L123.0,589.6L119.4,589.0L113.3,592.4L111.0,594.8L108.6,595.1L103.5,591.2L101.8,583.7L100.4,582.7L100.9,579.4L100.0,577.0L94.4,571.5L91.8,570.8L88.6,570.6L88.7,563.4L90.0,561.2L94.4,557.3L96.6,557.2L97.5,556.0L96.0,554.6L93.9,549.3L95.6,545.2L99.4,542.6L100.1,539.3L98.5,538.4L96.5,530.9L96.9,528.4L101.2,529.4L103.4,527.9L104.7,525.7L104.0,521.9L107.4,519.2L107.3,517.4L108.7,510.0L108.3,507.7L112.0,504.9L117.9,501.9L118.3,498.7L115.5,497.6L115.9,493.5L115.5,492.8L110.5,491.6L109.1,490.7L107.2,492.3L105.4,492.5L102.1,490.7L99.5,490.4L95.5,489.0L96.6,485.0L90.4,485.7L88.9,486.5L88.0,486.6L88.2,483.5L90.1,482.1L91.0,476.1L88.5,474.8L90.6,471.7L89.3,471.1L87.6,467.8L89.1,464.7L93.4,462.9L97.5,463.9L101.3,463.1L101.2,461.3L105.3,459.5L109.2,459.2L113.8,463.3L116.0,464.6L118.1,464.5L131.0,466.3L132.9,467.8L137.0,469.2L139.4,470.6L146.2,473.4L148.7,473.9L154.1,473.5L159.7,475.4L164.0,477.5L169.5,477.8L172.6,479.8L179.0,479.6L179.4,479.5Z " data-iso="ESP" data-key="ES"/><path d="M441.2,224.4L444.3,224.2L447.9,226.3L444.4,229.2L440.1,231.5L438.3,236.7L437.3,235.8L438.7,232.8L436.0,227.1L436.8,227.5L438.7,225.5L441.2,224.4Z M447.8,224.6L445.8,222.7L447.4,222.9L447.8,224.6Z M443.3,220.5L441.9,220.8L440.3,223.3L438.7,220.6L435.3,219.7L441.0,217.6L442.7,217.8L443.3,220.5Z M484.8,201.0L486.4,202.5L484.9,204.2L484.4,208.6L482.9,214.6L485.0,219.3L485.6,222.9L489.4,228.8L487.7,229.9L487.0,234.4L487.0,234.8L486.8,234.9L483.3,234.2L479.0,236.2L473.7,232.2L471.8,232.0L465.0,229.9L458.6,234.5L458.6,233.8L459.1,230.3L458.9,226.0L457.6,225.7L456.5,227.6L452.1,227.1L451.0,224.8L449.7,223.8L447.4,218.2L447.9,216.8L447.1,213.5L451.9,211.0L451.4,209.7L453.9,207.5L455.7,207.5L458.0,205.9L462.8,205.0L465.4,202.5L471.3,202.7L472.7,202.4L479.2,202.8L484.1,202.4L484.7,201.2L484.8,201.0Z " data-iso="EST" data-key="EE"/><path d="M430.2,199.9L429.0,199.5L429.4,199.0L430.2,199.9Z M432.4,195.6L434.6,196.4L433.2,198.5L431.8,197.1L432.4,195.6Z M431.0,196.4L429.2,195.5L430.4,195.4L431.0,196.4Z M425.9,193.8L424.8,194.8L424.2,194.1L425.9,193.8Z M416.9,148.6L418.5,149.1L416.4,149.3L416.9,148.6Z M438.4,115.0L437.4,115.7L436.7,113.9L438.4,115.0Z M448.4,42.9L448.0,43.2L445.6,45.6L447.6,45.8L449.1,54.4L450.7,56.8L455.4,57.8L459.9,62.0L461.7,65.2L459.1,76.0L459.7,78.0L464.7,83.9L469.4,89.9L471.6,93.5L471.7,95.5L470.6,99.3L473.0,105.1L472.0,106.5L472.8,108.6L476.6,110.2L477.5,112.0L477.0,113.7L478.8,116.6L483.2,120.5L483.4,121.5L481.7,127.8L485.3,130.1L492.5,133.3L496.8,137.8L495.2,148.3L493.3,152.3L489.3,163.6L487.0,168.7L482.0,176.8L478.6,184.0L478.3,184.1L472.7,185.5L471.8,186.6L468.6,188.3L465.9,189.0L463.6,188.3L464.8,190.4L462.4,192.1L461.6,191.1L458.0,194.3L451.7,198.1L444.4,200.3L441.2,203.8L441.7,202.0L439.1,197.3L437.4,200.7L435.8,201.0L435.4,198.1L435.8,195.3L433.0,195.0L428.7,192.3L425.6,192.7L423.9,185.0L424.4,181.1L424.3,177.6L421.7,170.6L420.5,169.5L420.1,163.5L418.6,162.5L417.6,159.1L417.9,156.1L420.8,151.5L419.5,148.8L423.8,147.5L425.1,146.2L424.2,144.1L425.2,143.1L425.7,140.3L427.3,139.4L430.4,135.3L432.6,130.8L434.5,126.1L435.9,123.6L437.0,118.5L439.4,116.6L442.0,116.5L442.0,113.9L440.7,111.9L440.1,106.2L439.1,105.2L434.7,104.0L433.7,102.7L431.1,102.2L430.6,102.4L427.7,97.0L425.3,93.5L425.9,86.0L423.0,82.1L420.8,75.9L420.1,75.5L417.1,64.9L412.8,61.2L407.5,59.8L401.5,55.5L399.3,53.2L397.5,52.5L397.7,51.9L400.5,51.3L399.7,49.6L400.8,48.0L403.0,47.7L409.1,55.2L409.5,56.1L413.7,56.2L417.5,54.9L419.1,53.1L425.7,55.4L429.1,47.9L427.9,37.8L429.2,34.2L431.1,31.2L434.5,30.0L437.1,27.6L438.5,28.8L444.0,31.6L446.2,32.1L448.4,35.0L446.9,40.5L447.8,42.4L448.4,42.9Z " data-iso="FIN" data-key="FI"/><path d="M1168.7,1370.0L1161.2,1372.2L1160.3,1371.7L1160.5,1366.7L1162.9,1365.0L1165.5,1364.2L1169.6,1366.5L1168.7,1370.0Z M979.1,1310.1L976.4,1306.7L977.3,1305.6L979.7,1306.4L979.1,1310.1Z M-715.3,759.1L-716.4,760.3L-714.4,760.1L-713.0,766.1L-711.3,767.9L-710.4,770.0L-711.6,779.9L-714.5,780.2L-718.4,781.7L-722.7,785.2L-726.8,786.9L-727.2,788.0L-734.8,794.6L-739.4,795.1L-743.2,791.8L-744.5,787.8L-747.4,787.1L-750.1,783.4L-750.3,782.2L-755.8,781.6L-761.0,774.8L-761.1,773.6L-759.5,772.4L-758.2,772.7L-754.7,770.3L-751.9,766.8L-751.5,764.0L-747.0,761.4L-745.9,758.6L-747.5,750.9L-747.8,747.3L-746.3,739.0L-744.9,734.5L-743.0,730.4L-740.3,729.1L-735.6,728.5L-732.6,725.4L-730.1,725.5L-726.4,733.8L-724.1,736.4L-720.0,742.8L-719.1,746.9L-716.6,754.7L-714.9,758.0L-715.3,759.1Z M-743.7,498.8L-746.4,496.0L-744.6,494.7L-744.9,488.8L-743.3,489.0L-743.0,494.4L-743.7,498.8Z M-734.8,472.3L-735.0,470.2L-733.8,470.3L-734.8,472.3Z M-737.3,465.8L-738.5,462.7L-736.5,458.6L-735.5,458.4L-734.7,460.3L-735.0,462.7L-737.3,465.8Z M-732.5,465.9L-734.0,462.1L-731.3,459.9L-730.7,467.6L-732.5,465.9Z M318.5,502.2L318.2,504.7L319.0,506.6L319.3,513.3L317.3,517.2L317.1,520.6L314.3,526.4L310.6,524.1L308.5,519.1L309.1,518.0L306.8,512.0L308.2,510.9L307.8,508.5L308.8,506.4L314.2,503.4L316.7,499.8L318.4,499.2L318.5,502.2Z M279.8,385.4L280.1,386.0L282.9,387.0L283.4,386.5L285.1,386.8L285.9,387.2L286.3,387.2L289.9,392.5L292.9,392.3L297.9,393.0L301.7,395.0L305.4,396.4L305.5,397.9L301.9,402.0L298.6,411.6L298.0,419.5L298.6,419.7L297.2,420.4L295.3,422.3L292.0,421.2L290.4,423.3L290.7,424.9L287.4,428.3L284.4,430.4L284.2,432.0L279.4,438.7L280.1,439.6L278.1,442.2L279.4,443.5L282.5,439.4L285.5,438.9L287.6,439.3L288.2,441.8L287.6,443.6L290.1,447.3L290.3,447.9L289.3,448.8L287.6,449.6L289.9,455.1L291.1,456.5L289.2,460.0L287.5,461.3L284.9,461.4L286.0,464.9L289.0,466.6L289.4,468.5L286.9,471.9L288.3,476.0L293.1,478.8L295.9,478.2L296.8,479.7L294.2,483.4L294.3,485.0L293.6,485.3L293.6,485.1L293.3,484.9L292.9,485.6L291.4,486.1L286.3,490.3L282.4,494.2L276.6,496.0L272.8,495.3L271.2,493.9L268.0,492.8L267.0,490.7L264.0,490.1L263.9,488.8L259.5,489.7L252.9,486.9L251.7,485.2L249.9,485.6L248.2,487.2L241.2,491.2L238.0,496.9L238.2,501.2L239.3,503.6L239.4,504.1L231.2,504.7L228.9,503.7L222.5,501.9L220.7,500.9L220.8,500.5L220.9,499.1L219.2,498.4L217.8,498.5L217.4,498.9L216.6,497.1L209.6,493.7L208.1,494.2L207.8,495.9L202.4,494.8L199.3,494.9L196.4,492.2L192.8,492.1L191.1,489.9L184.8,486.4L182.6,486.2L183.7,483.1L179.4,479.5L181.5,479.3L183.6,477.5L186.5,470.0L189.1,461.0L191.5,459.1L190.7,457.7L189.4,459.2L193.6,444.8L196.7,449.1L197.1,453.0L197.7,453.1L195.9,445.1L192.9,442.1L194.7,441.4L194.3,438.1L194.8,431.5L192.1,430.4L187.9,426.9L185.6,419.5L186.7,417.6L185.0,415.1L186.3,413.6L190.4,415.1L188.0,413.1L182.0,412.0L183.3,409.5L180.2,406.7L177.6,406.2L173.8,403.6L165.9,399.7L164.0,400.0L162.3,396.9L159.8,395.1L164.1,393.7L162.3,390.9L165.5,391.7L165.0,390.8L160.4,389.6L161.0,386.6L163.4,385.7L168.9,385.3L171.1,385.9L175.7,384.7L178.5,384.8L180.8,386.1L183.5,391.0L186.6,389.6L190.6,390.3L191.3,391.5L197.7,391.5L196.8,388.5L197.7,381.8L196.0,376.5L196.1,373.2L202.6,374.3L202.3,375.6L203.1,379.4L209.8,381.0L213.6,382.6L218.8,380.4L217.3,379.4L218.4,376.2L223.5,374.2L227.0,373.8L230.7,372.8L235.0,368.9L234.6,368.1L235.9,360.6L236.4,359.3L240.0,356.8L245.8,356.1L246.7,355.7L248.6,361.9L251.4,361.9L254.1,366.6L257.4,367.8L257.6,370.1L261.7,370.5L263.0,371.9L262.6,376.8L266.6,377.2L270.4,374.4L269.3,377.4L269.9,380.4L274.3,382.6L276.7,385.6L278.9,385.3L279.8,385.4Z " data-iso="FRA" data-key="FR"/><path d="M193.3,167.2L192.2,165.4L193.4,164.8L193.3,167.2Z M195.5,161.4L195.0,162.0L194.3,159.4L195.5,161.4Z M192.7,154.9L190.9,155.5L190.8,154.4L192.7,154.9Z M197.4,154.5L195.9,155.8L193.8,155.9L193.4,152.5L195.2,152.4L197.4,154.5Z " data-iso="FRO" data-key="FO"/><path d="M207.4,357.5L204.6,358.8L202.6,357.1L205.0,355.7L207.4,357.5Z M183.3,307.4L184.2,308.6L180.9,310.2L179.5,307.7L179.8,305.6L182.5,305.6L183.3,307.4Z M166.3,290.3L161.9,289.8L162.3,287.7L160.5,283.9L157.6,284.5L157.3,285.9L153.6,286.5L150.9,284.3L150.4,278.9L153.1,278.6L152.6,276.2L160.9,271.3L161.1,272.0L162.6,271.9L163.8,270.4L168.5,270.5L171.7,271.7L173.0,277.2L174.0,279.2L171.8,281.8L174.7,282.1L173.4,283.8L173.8,287.0L170.7,288.7L169.0,290.9L167.1,291.0L166.3,290.3Z M182.3,269.9L180.3,268.9L180.3,266.5L182.0,265.2L182.8,267.9L182.3,269.9Z M174.6,259.8L173.9,264.4L172.1,264.9L172.1,261.9L174.6,259.8Z M175.6,262.0L175.0,260.5L176.9,258.3L178.4,257.5L178.0,259.2L175.6,262.0Z M179.6,253.6L175.9,252.6L176.8,250.4L177.1,247.8L178.3,248.7L179.6,253.6Z M177.5,242.2L176.6,241.9L176.4,241.0L177.5,242.2Z M169.4,237.6L169.1,232.9L170.2,233.1L169.4,237.6Z M181.0,233.6L180.8,237.4L183.8,239.6L180.3,241.4L180.7,238.8L178.6,238.6L177.6,235.9L175.3,233.8L177.0,231.6L179.3,231.4L179.8,230.4L181.1,232.2L181.0,233.6Z M172.3,228.3L173.1,229.5L171.9,230.9L169.2,229.0L172.3,228.3Z M184.1,219.2L180.7,224.4L176.1,226.7L176.4,224.9L175.3,221.0L178.8,220.9L178.6,219.3L183.8,216.9L184.1,219.2Z M211.8,222.4L210.2,225.5L204.2,229.0L201.2,231.9L202.3,232.3L199.3,236.3L204.1,235.8L211.2,236.6L216.7,237.8L219.8,239.5L220.3,241.6L213.9,251.5L210.9,254.9L207.9,257.0L205.2,257.1L208.5,260.0L205.0,261.5L202.8,263.0L198.5,263.3L203.5,265.4L205.8,264.5L208.0,264.9L211.9,267.8L215.0,273.2L216.1,283.7L217.6,290.4L221.9,293.7L225.4,299.6L225.2,302.5L227.4,310.0L223.5,308.0L227.2,312.4L228.3,314.8L228.7,317.9L224.9,321.8L227.0,323.7L230.3,321.5L234.2,322.2L238.5,323.8L241.0,326.5L241.3,331.5L239.3,336.5L235.1,341.4L231.6,341.6L229.3,342.7L230.4,345.6L226.4,346.5L227.8,348.4L229.9,349.2L235.5,349.8L234.5,353.3L226.6,356.9L222.2,358.2L217.0,356.8L210.6,356.7L204.3,353.4L204.9,354.8L202.8,355.8L199.0,355.7L196.8,357.3L193.6,356.1L191.4,356.1L188.0,353.7L182.3,354.2L178.1,360.3L171.9,357.0L167.1,357.2L163.1,359.1L162.0,360.6L156.6,357.8L160.4,356.6L166.2,352.7L170.3,349.3L171.7,346.1L174.2,345.7L179.7,343.2L187.0,345.1L196.1,337.4L192.3,339.5L189.7,339.8L186.0,341.7L183.2,340.7L180.4,337.1L178.0,337.0L178.6,335.5L174.3,333.1L170.0,334.4L167.3,329.3L169.5,327.8L177.4,325.9L179.4,324.9L182.8,320.9L182.1,320.5L182.8,314.4L181.5,314.2L176.6,315.0L183.8,309.3L194.1,310.6L193.9,308.2L195.0,307.8L196.6,310.4L197.8,310.4L195.3,306.4L197.4,302.9L196.9,299.8L198.4,299.1L199.4,295.6L196.3,295.8L195.1,293.9L193.5,289.4L193.6,287.7L195.6,284.5L197.9,282.6L195.3,281.4L190.8,283.4L188.2,281.7L185.3,282.7L182.8,280.6L181.3,283.0L180.4,281.6L179.9,277.5L181.0,277.7L186.6,269.9L185.3,266.2L187.0,262.3L189.1,262.8L187.2,259.9L187.9,258.7L183.3,261.7L184.2,258.6L177.8,270.0L175.7,270.0L177.6,265.8L179.2,263.3L180.0,258.8L183.8,251.6L186.3,248.0L181.5,250.8L179.2,248.9L178.9,246.1L182.0,245.2L182.4,243.4L184.3,241.4L185.1,239.3L185.2,231.7L187.3,228.4L191.2,228.8L189.8,225.6L191.8,222.9L193.6,223.3L194.6,218.8L195.3,218.1L200.1,220.1L202.4,219.8L210.9,219.9L212.7,220.5L211.8,222.4Z M214.1,218.9L213.5,217.4L214.3,217.3L214.1,218.9Z M212.2,217.6L211.0,215.2L211.7,215.6L212.2,217.6Z M214.0,213.9L211.6,214.5L211.4,213.6L213.5,211.9L214.0,213.9Z M219.1,211.3L219.4,210.1L220.5,210.4L219.1,211.3Z M217.4,211.8L216.3,211.7L215.1,209.0L216.6,209.9L217.4,211.8Z M233.8,191.3L235.7,193.2L233.6,198.6L232.4,199.6L232.4,192.2L233.8,191.3Z M236.0,192.1L235.2,190.4L236.2,188.5L236.9,189.2L236.0,192.1Z M239.1,187.4L237.5,188.3L237.8,187.5L239.1,187.4Z " data-iso="GBR" data-key="GB"/><path d="M771.2,420.9L770.7,425.8L772.6,426.9L778.3,428.4L778.1,432.4L777.4,433.1L773.2,432.6L770.5,434.2L768.7,434.3L767.1,432.9L761.3,433.4L757.9,439.6L753.8,441.8L750.8,442.8L742.9,448.1L742.4,448.5L730.5,444.6L729.4,445.6L728.9,448.0L725.7,448.5L722.3,449.7L721.5,451.2L717.3,451.4L718.4,447.4L717.5,442.8L715.2,440.4L710.0,432.9L708.7,432.0L704.8,431.9L703.4,430.5L700.1,429.4L691.2,428.3L688.1,427.5L689.2,424.3L693.7,423.6L695.0,422.6L701.0,423.2L704.3,422.6L707.6,423.4L713.1,421.7L715.4,420.0L723.0,418.6L726.1,419.9L735.6,420.4L735.9,422.7L738.7,422.4L743.7,416.7L746.0,416.3L747.6,417.4L747.7,414.7L751.5,414.5L754.6,415.8L757.0,414.6L759.3,414.7L760.2,419.4L766.1,420.4L771.3,420.2L771.2,420.9Z " data-iso="GEO" data-key="GE"/><path d="M188.4,375.1L186.8,375.6L186.8,375.3L188.4,375.1Z " data-iso="GGY" data-key="GG"/><path d="M516.4,612.7L518.9,612.3L519.5,611.2L521.0,613.2L522.1,612.9L526.1,613.8L527.3,613.1L532.5,612.2L534.1,613.0L539.3,612.8L543.1,611.8L543.4,614.9L549.1,612.6L550.7,611.4L549.6,616.0L542.0,617.5L536.5,619.3L530.1,620.6L529.3,618.3L525.7,617.7L517.5,617.5L515.0,618.1L512.9,617.4L512.5,613.3L516.4,612.7Z M562.2,605.8L561.8,606.8L560.3,603.8L561.4,603.1L562.2,605.8Z M503.9,603.3L501.9,603.0L501.6,601.3L504.3,602.2L503.9,603.3Z M569.8,596.1L568.0,596.0L569.5,588.9L573.6,587.6L573.0,590.6L569.8,596.1Z M536.5,594.5L536.0,595.5L536.1,593.8L536.5,594.5Z M549.1,588.8L547.6,590.4L546.7,589.9L549.1,588.8Z M522.7,590.4L522.8,591.8L520.1,592.7L522.7,590.4Z M534.3,590.0L532.9,588.2L534.6,589.2L534.3,590.0Z M555.3,585.1L556.5,582.9L560.3,581.7L555.3,585.1Z M540.5,586.8L538.9,587.1L540.2,585.9L540.5,586.8Z M524.8,587.3L524.4,585.6L525.3,586.8L524.8,587.3Z M531.9,583.5L531.0,585.0L530.0,583.2L531.1,582.3L531.9,583.5Z M535.7,584.6L533.0,583.3L534.8,580.8L536.1,583.3L535.7,584.6Z M521.6,584.3L520.3,583.5L520.8,583.0L521.6,584.3Z M532.6,577.3L531.6,575.9L533.2,576.3L532.6,577.3Z M540.6,574.0L541.1,572.0L542.9,572.9L540.6,574.0Z M530.1,574.6L528.9,575.8L526.5,573.9L530.1,574.6Z M518.2,577.1L517.1,576.8L517.4,575.4L518.2,577.1Z M550.4,567.2L553.3,567.3L553.7,568.3L550.4,569.9L547.4,569.3L548.0,568.2L550.4,567.2Z M471.2,579.8L470.5,582.3L468.8,581.1L468.3,578.0L471.2,579.8Z M526.2,572.5L522.1,570.8L521.8,569.8L525.3,570.2L526.2,572.5Z M466.4,570.4L469.0,575.5L466.8,574.9L464.5,573.2L463.8,571.5L465.6,568.9L466.4,570.4Z M468.5,571.1L466.8,569.8L467.1,568.7L468.5,571.1Z M539.5,562.2L538.4,563.4L537.8,560.1L535.2,556.8L537.3,555.9L539.4,556.6L540.1,560.6L539.5,562.2Z M467.0,566.5L465.2,565.8L466.6,562.5L467.0,566.5Z M519.2,555.5L516.2,554.6L517.4,553.5L519.2,555.5Z M502.3,555.6L503.3,557.4L512.9,560.4L514.4,564.5L516.7,567.1L519.8,567.3L519.1,570.1L514.9,568.2L511.9,564.0L506.6,563.9L505.9,562.1L502.1,559.5L497.4,557.9L498.6,555.4L502.3,555.6Z M508.0,551.3L507.8,550.1L508.8,549.3L508.0,551.3Z M540.3,542.6L540.3,543.7L543.1,547.9L538.0,548.4L534.4,547.1L534.0,544.6L535.5,544.3L537.0,542.5L539.4,541.9L540.3,542.6Z M457.4,553.4L454.8,553.2L451.9,547.7L453.6,547.2L455.0,548.3L454.0,549.7L455.3,552.4L457.4,553.4Z M525.9,533.9L525.3,537.1L521.4,537.0L520.9,534.5L525.9,533.9Z M527.8,525.9L526.4,526.6L524.6,525.5L526.0,524.6L527.8,525.9Z M515.6,524.7L514.0,525.6L512.2,524.8L513.2,522.1L514.4,522.0L515.6,524.7Z M530.9,519.3L528.7,518.4L518.7,517.6L515.2,520.6L509.8,520.5L508.2,523.0L506.5,524.4L502.3,524.6L504.3,527.8L503.9,529.0L509.2,530.8L510.4,532.1L502.9,531.8L502.9,532.5L506.6,534.9L507.2,536.4L505.1,536.8L502.4,533.7L499.2,533.5L500.2,536.6L503.2,538.2L499.5,538.2L497.9,534.5L492.1,532.2L489.8,530.2L488.4,531.1L489.0,539.0L492.7,542.5L495.1,546.2L496.9,547.2L500.6,552.2L499.3,553.6L495.8,550.2L494.0,551.7L494.8,553.1L497.5,555.0L495.9,556.8L491.3,558.8L500.8,561.0L502.7,563.1L505.4,563.3L507.3,565.4L509.4,565.5L512.3,568.2L513.8,575.5L513.4,576.1L506.7,571.4L501.7,573.0L499.8,574.7L502.6,578.8L505.3,579.0L506.9,581.2L501.8,583.3L501.6,582.0L496.4,581.0L497.3,583.4L498.6,585.0L501.2,589.4L502.7,595.6L504.8,598.7L502.2,597.7L499.8,595.3L496.5,594.1L495.3,598.0L495.6,600.0L491.2,593.1L488.8,590.9L487.2,591.8L486.9,596.2L484.5,594.3L482.0,590.9L481.7,588.9L483.0,586.9L480.9,583.1L475.4,578.9L474.4,577.4L479.3,572.6L480.8,572.2L484.4,569.2L488.5,570.9L492.9,571.6L498.1,573.6L498.3,571.5L500.5,571.2L501.2,570.1L497.7,569.4L490.3,566.4L487.9,568.2L484.3,567.7L478.0,570.1L476.7,568.7L474.1,570.1L470.9,565.2L467.8,563.0L469.1,560.5L471.6,561.2L471.9,558.6L467.4,559.5L462.9,555.8L460.5,554.9L458.7,551.3L457.3,549.8L455.9,548.8L458.7,549.5L460.7,546.7L459.5,544.2L463.7,540.9L464.7,536.0L466.8,534.0L466.3,529.2L466.3,528.0L468.0,527.6L476.5,524.9L478.8,521.5L485.2,520.8L488.0,519.3L488.1,517.0L489.4,516.4L490.1,516.3L491.5,516.3L494.1,514.9L500.6,513.4L504.0,510.8L508.2,510.2L513.5,512.2L516.3,511.6L519.9,513.1L526.4,510.4L528.2,510.4L530.6,508.6L529.6,504.9L530.3,502.4L531.9,502.6L533.1,502.7L536.6,508.0L533.5,510.6L534.5,514.6L531.4,520.0L530.9,519.3Z " data-iso="GRC" data-key="GR"/><path d="M420.5,499.6L422.3,500.7L417.2,499.6L420.5,499.6Z M408.2,496.7L413.8,496.8L413.8,497.7L409.4,498.0L408.2,496.7Z M423.3,498.1L430.0,502.0L431.2,502.3L431.2,502.9L431.8,503.6L432.4,504.4L429.9,503.0L423.2,498.9L420.1,498.5L415.9,496.6L415.3,495.7L421.8,498.1L423.3,498.1Z M414.9,494.0L408.5,494.5L406.8,494.3L406.4,492.8L408.6,493.6L414.9,494.0Z M409.6,491.9L405.9,491.9L405.3,490.2L410.1,490.5L409.6,491.9Z M391.4,481.0L392.3,482.2L390.1,480.4L391.4,481.0Z M389.6,479.6L389.8,480.2L387.5,478.0L389.6,479.6Z M388.8,474.9L386.4,473.4L383.1,469.0L385.0,470.4L388.8,474.9Z M384.1,467.9L382.3,467.8L382.3,466.5L384.1,467.9Z M380.0,469.8L378.8,468.2L379.5,464.5L380.0,469.8Z M383.7,464.2L380.0,463.4L380.1,461.4L383.7,464.2Z M431.5,444.3L431.4,444.7L432.7,450.6L433.9,451.0L433.5,453.2L438.6,456.3L434.7,457.6L435.4,460.4L434.3,461.7L434.5,462.3L433.7,462.4L430.0,459.1L421.9,458.8L419.8,460.1L417.7,458.8L416.5,459.6L408.8,457.5L407.3,459.0L404.2,458.9L401.6,462.6L398.2,459.7L395.3,460.1L395.1,467.2L399.8,471.1L401.5,476.2L402.6,477.7L413.0,487.4L417.3,492.5L419.3,496.4L416.6,494.0L413.9,492.6L410.9,489.7L404.4,487.6L399.4,488.3L398.7,486.0L393.0,482.0L388.9,477.7L388.1,476.3L389.8,474.0L386.1,470.5L384.9,464.2L384.1,462.4L380.3,458.9L376.9,459.3L376.6,461.4L373.6,467.0L369.3,462.5L367.8,456.2L368.5,455.6L372.2,456.9L374.6,456.0L378.0,455.8L380.5,452.8L383.1,455.6L388.5,456.0L389.6,455.5L389.7,452.4L388.6,451.0L392.7,449.0L393.1,446.4L392.1,444.4L392.4,442.8L395.9,441.2L400.2,436.6L401.4,436.6L402.5,437.0L403.1,437.2L412.5,444.9L418.7,447.9L426.2,447.6L428.7,445.0L431.4,444.3L431.5,444.3Z " data-iso="HRV" data-key="HR"/><path d="M464.6,397.5L466.3,399.9L471.4,401.7L472.8,404.1L473.0,404.3L472.8,404.7L471.2,407.1L466.5,409.6L464.2,413.2L464.4,415.1L463.2,416.8L459.9,426.8L460.3,427.6L458.2,432.9L456.0,436.2L452.7,436.5L451.2,438.6L449.9,438.2L447.3,439.1L446.9,439.6L446.5,439.3L439.4,439.4L437.7,441.0L431.7,444.3L431.5,444.3L431.4,444.3L428.7,445.0L426.2,447.6L418.7,447.9L412.5,444.9L403.1,437.2L402.5,437.0L402.3,436.6L400.1,433.4L399.3,431.1L397.1,431.1L398.9,429.1L401.1,428.4L401.3,426.1L400.5,422.2L403.1,419.2L402.6,418.0L400.1,417.3L401.8,415.6L403.7,416.6L407.4,415.9L406.8,413.7L407.3,411.5L407.9,410.8L408.2,410.6L409.8,410.9L415.2,414.2L426.2,412.9L426.3,411.1L427.9,408.2L431.9,407.4L437.9,405.3L438.9,405.6L443.5,402.3L446.5,397.5L452.8,397.4L454.8,396.4L456.9,397.1L459.0,399.4L463.3,398.0L463.5,397.7L464.6,397.5Z " data-iso="HUN" data-key="HU"/><path d="M184.3,292.5L181.8,294.2L180.8,292.9L181.6,291.2L184.0,289.1L185.4,289.1L185.3,291.2L184.3,292.5Z " data-iso="IMN" data-key="IM"/><path d="M129.3,283.9L127.6,281.6L129.6,282.7L129.3,283.9Z M166.5,291.0L164.4,293.5L164.7,297.8L164.0,302.5L164.0,307.3L160.1,316.1L156.8,318.8L157.8,320.8L151.5,320.7L151.3,319.2L149.7,320.8L145.0,320.4L143.1,322.0L135.1,321.6L135.1,324.2L129.7,325.6L124.3,325.7L118.8,324.4L122.3,321.7L116.4,321.7L117.2,320.9L123.0,318.6L117.6,319.0L115.2,317.8L115.1,316.5L117.1,315.2L121.1,313.6L116.3,312.1L118.8,310.3L123.0,311.9L122.6,311.0L125.9,307.4L131.9,307.7L134.9,307.5L133.2,305.7L128.6,306.9L125.3,305.4L129.9,302.3L129.4,301.2L133.5,299.1L135.9,298.3L135.0,297.6L130.7,296.4L129.9,294.6L127.3,293.6L128.3,292.9L125.8,290.2L130.0,289.7L128.9,287.1L132.7,285.5L129.4,284.9L130.3,281.3L129.2,279.5L133.5,278.2L137.3,279.3L138.5,281.2L140.2,280.3L143.9,282.3L150.2,276.6L146.9,276.3L144.3,274.4L149.0,271.9L149.4,269.7L151.1,267.9L156.2,268.5L156.4,267.4L158.3,268.9L161.7,266.9L162.8,270.2L161.5,270.7L160.9,271.3L152.6,276.2L153.1,278.6L150.4,278.9L150.9,284.3L153.6,286.5L157.3,285.9L157.6,284.5L160.5,283.9L162.3,287.7L161.9,289.8L166.3,290.3L166.5,291.0Z " data-iso="IRL" data-key="IE"/><path d="M156.9,70.3L157.6,70.7L162.4,69.6L163.5,70.1L159.2,74.3L160.9,75.1L160.8,76.7L158.8,79.7L161.2,80.0L161.2,81.9L163.8,84.6L164.6,86.7L163.1,89.8L161.8,93.9L159.8,94.0L157.8,97.1L154.6,96.6L152.9,99.8L150.8,101.2L143.7,101.5L137.1,103.0L134.6,104.2L123.4,104.0L121.6,106.0L115.7,105.9L111.9,103.5L107.9,99.6L106.2,98.8L105.3,95.8L106.6,95.1L103.6,92.8L102.9,89.8L100.2,90.1L93.9,87.3L92.0,85.9L92.5,84.4L96.8,85.0L100.5,83.6L101.6,82.6L101.2,80.3L102.3,78.5L100.8,75.6L101.9,74.0L101.4,72.6L96.0,69.3L92.3,69.0L92.5,66.0L94.6,66.8L98.5,67.1L98.7,67.9L107.2,70.6L104.5,66.4L110.9,64.7L108.2,62.7L108.2,61.7L105.4,59.4L100.0,58.8L97.3,57.8L95.2,55.0L96.7,54.4L99.1,56.9L98.9,55.2L100.8,53.3L101.8,55.6L104.4,55.3L102.0,53.2L102.9,52.1L104.2,52.9L104.6,49.4L105.7,50.8L108.8,51.7L108.2,53.0L112.4,53.5L110.9,51.1L112.2,49.7L113.7,50.4L110.7,47.3L115.0,47.5L115.6,48.1L117.6,55.7L118.4,57.3L117.8,59.9L116.3,61.7L114.3,61.1L113.7,65.6L114.5,67.0L114.0,69.0L117.5,65.7L120.1,65.2L120.1,66.7L122.5,65.1L125.0,60.3L127.2,61.0L127.2,63.3L129.1,66.3L130.3,63.7L135.7,62.3L136.4,66.8L137.7,69.9L138.3,65.2L139.7,64.5L142.4,69.1L146.5,66.6L147.4,67.6L150.7,68.5L152.7,64.0L156.8,67.9L156.9,70.3Z " data-iso="ISL" data-key="IS"/><path d="M399.2,579.0L395.0,586.7L393.4,592.4L393.5,593.8L396.4,599.8L395.0,601.2L392.7,605.4L389.5,605.3L385.7,604.0L383.7,601.1L380.6,599.0L375.9,598.6L369.8,595.1L367.1,593.0L363.8,591.5L358.3,589.9L357.3,588.2L358.5,583.4L361.0,581.1L362.6,583.1L365.3,582.7L365.3,581.9L369.3,581.0L373.8,583.9L382.0,583.3L386.7,582.0L388.0,580.8L393.1,580.5L395.2,579.1L399.9,578.2L399.2,579.0Z M375.7,537.6L374.6,537.3L374.8,536.7L375.7,537.6Z M319.9,535.1L322.1,541.7L319.9,545.6L320.4,551.5L319.3,561.2L318.5,564.4L317.5,564.9L311.8,563.0L311.3,566.4L309.4,568.6L306.3,568.2L303.3,563.4L303.5,558.0L304.7,551.6L303.6,551.2L304.5,547.6L304.6,544.8L301.1,538.6L302.0,534.3L306.2,535.4L309.4,533.8L311.8,531.1L314.8,528.6L318.3,531.3L319.9,535.1Z M330.0,501.5L329.3,503.1L326.4,502.7L330.0,501.5Z M369.4,438.4L369.2,439.3L365.9,441.9L366.3,443.7L368.8,444.3L367.4,447.8L368.5,447.6L372.0,453.8L370.2,454.3L370.9,453.6L369.0,451.2L367.0,452.3L363.9,451.3L361.9,453.7L358.7,455.4L352.9,457.1L353.1,461.2L354.4,464.1L356.0,465.3L352.8,469.5L353.5,474.5L354.7,478.0L358.4,481.9L361.1,483.1L366.0,487.0L371.1,491.9L372.6,495.4L375.5,503.7L377.7,506.7L382.4,511.0L386.7,514.1L390.7,516.0L393.7,516.1L403.3,515.9L403.7,517.2L400.4,520.8L400.4,522.6L401.9,523.9L409.0,526.9L416.3,529.3L421.4,532.7L427.8,535.3L429.0,536.8L433.1,539.7L435.0,542.1L435.5,544.1L434.1,549.1L430.4,547.4L427.2,541.8L421.0,541.3L419.1,540.4L418.0,538.7L416.0,538.7L411.8,545.4L410.2,550.3L410.3,552.2L411.4,554.0L414.4,554.8L418.5,557.9L418.9,562.1L419.7,564.4L418.8,565.8L416.8,565.6L414.3,566.6L411.9,569.8L412.0,575.0L408.7,578.0L405.9,583.4L401.5,583.7L400.3,582.1L402.4,577.4L403.4,574.3L402.9,572.1L405.3,569.8L407.0,569.3L407.0,566.2L405.5,564.9L404.1,559.4L401.6,554.8L399.1,548.8L397.7,547.8L393.9,547.7L389.2,545.0L389.6,542.6L387.5,538.4L386.5,537.8L382.5,538.6L380.5,535.6L377.5,536.0L374.5,530.4L368.0,528.1L364.5,528.8L361.3,526.0L358.5,525.0L353.0,519.3L351.3,517.1L347.9,514.7L345.7,511.2L341.4,508.9L336.8,503.6L331.5,499.6L330.7,492.7L329.2,490.3L328.3,484.5L325.9,481.6L322.0,480.1L316.7,476.3L310.3,474.4L307.7,475.6L304.4,479.1L297.3,484.6L294.3,485.0L294.2,483.4L296.8,479.7L295.9,478.2L293.1,478.8L288.3,476.0L286.9,471.9L289.4,468.5L289.0,466.6L286.0,464.9L284.9,461.4L287.5,461.3L289.2,460.0L291.1,456.5L289.9,455.1L287.6,449.6L289.3,448.8L290.3,447.9L290.7,448.3L297.1,447.4L299.4,448.4L302.2,446.2L304.9,441.4L307.5,440.4L307.3,442.5L309.7,445.5L311.7,446.1L311.2,447.5L313.2,450.4L314.1,450.1L319.2,440.2L319.7,441.7L321.5,442.6L324.4,441.4L326.3,443.7L327.3,443.7L326.4,440.1L326.9,437.5L330.9,438.4L330.6,435.2L331.2,433.0L331.5,433.1L337.9,434.2L338.4,433.1L346.7,430.9L351.2,429.2L351.1,431.7L353.9,435.6L363.1,437.7L366.9,437.8L369.4,438.4Z " data-iso="ITA" data-key="IT"/><path d="M193.0,380.5L190.4,381.0L190.9,379.5L193.0,380.5Z " data-iso="JEY" data-key="JE"/><path d="M739.1,616.4L737.7,619.1L712.0,637.0L730.8,648.7L725.9,659.4L716.4,664.8L715.8,665.6L714.0,672.2L709.4,678.9L702.4,680.0L692.8,681.1L692.3,677.7L692.0,666.4L691.2,660.8L692.4,649.6L691.5,648.1L691.0,640.4L691.4,638.6L687.9,624.4L689.7,621.9L693.0,622.0L695.0,623.7L701.5,624.8L706.4,624.0L727.9,597.6L736.1,610.8L735.2,611.5L736.8,613.9L739.4,612.2L740.5,613.7L739.1,616.4Z " data-iso="JOR" data-key="JO"/><path d="M470.9,503.2L464.8,505.3L461.4,507.5L460.8,511.3L459.3,511.3L459.2,511.2L459.3,510.4L458.0,506.2L455.6,504.1L454.2,503.7L452.1,500.8L451.6,500.4L451.6,500.3L450.8,497.3L451.1,496.8L453.0,495.9L454.5,495.3L456.0,494.6L455.9,492.9L457.6,491.3L457.3,488.5L458.9,487.3L460.1,488.6L462.9,489.7L467.7,493.6L467.7,495.0L472.0,495.6L472.3,497.0L470.6,502.7L470.9,503.2L470.9,503.2Z " data-iso="-99" data-key="-99"/><path d="M320.2,429.5L320.0,429.5L319.9,428.9L320.0,427.6L320.5,425.9L320.6,426.2L320.8,427.4L321.0,427.8L321.3,429.3L321.1,429.6L320.2,429.5Z " data-iso="LIE" data-key="LI"/><path d="M434.6,283.0L434.0,282.9L434.8,280.8L435.5,279.2L435.1,281.7L434.6,283.0Z M487.2,267.3L487.4,268.1L487.2,273.0L489.5,275.0L489.3,276.3L486.0,277.1L485.7,279.2L482.5,282.9L482.1,292.0L479.7,293.6L477.7,296.0L476.0,296.1L475.5,299.1L474.0,299.3L471.3,301.3L470.4,301.0L463.7,302.1L462.9,301.9L462.8,301.6L462.0,298.5L457.5,296.5L455.1,295.3L454.6,296.0L454.1,295.3L453.3,291.5L453.9,287.8L450.7,284.5L445.9,285.1L437.3,282.9L437.3,282.7L436.9,279.6L434.3,273.8L433.7,270.3L433.5,269.5L438.7,264.6L442.5,262.4L462.0,261.8L465.7,260.5L467.0,258.8L468.8,258.2L471.0,261.2L476.9,261.8L484.0,266.5L486.7,267.3L487.2,267.3Z " data-iso="LTU" data-key="LT"/><path d="M284.0,376.1L283.9,377.1L287.8,382.2L286.0,386.2L285.9,387.2L285.1,386.8L283.4,386.5L282.9,387.0L280.1,386.0L279.8,385.4L280.1,385.1L280.9,383.6L279.4,380.7L281.3,376.1L282.6,374.8L284.0,375.6L284.1,375.7L284.0,376.1Z " data-iso="LUX" data-key="LU"/><path d="M488.1,234.6L492.3,237.7L492.5,243.2L496.7,248.9L499.9,254.1L499.9,255.4L499.9,256.2L499.6,256.2L493.5,263.6L490.9,263.7L487.4,267.1L487.2,267.3L486.7,267.3L484.0,266.5L476.9,261.8L471.0,261.2L468.8,258.2L467.0,258.8L465.7,260.5L462.0,261.8L442.5,262.4L438.7,264.6L433.5,269.5L432.8,266.3L431.9,256.7L434.0,253.1L434.3,247.8L436.1,243.3L443.2,239.6L444.4,241.6L449.6,245.5L451.7,249.2L455.4,250.6L457.9,249.6L461.2,244.8L459.7,238.2L458.7,235.9L458.6,234.5L465.0,229.9L471.8,232.0L473.7,232.2L479.0,236.2L483.3,234.2L486.8,234.9L487.0,234.8L488.1,234.6Z " data-iso="LVA" data-key="LV"/><path d="M293.6,485.3L292.9,485.6L293.3,484.9L293.6,485.1L293.6,485.3Z " data-iso="MCO" data-key="MC"/><path d="M541.3,434.0L540.0,432.8L540.8,431.8L538.9,426.5L538.5,423.7L538.1,414.9L534.9,409.7L528.4,404.7L524.2,400.3L521.0,395.4L518.4,392.5L515.1,391.3L514.0,391.6L514.2,390.9L516.1,388.9L520.4,388.3L523.6,385.8L526.8,386.1L530.3,388.2L533.4,388.3L535.1,390.0L535.6,388.9L538.4,388.8L541.4,391.4L542.9,390.4L544.0,391.6L547.6,399.7L549.9,400.7L552.3,406.3L556.6,408.1L557.6,412.1L560.5,413.5L557.4,415.5L556.1,414.3L550.1,416.8L549.5,414.7L547.0,416.1L547.5,419.0L548.6,420.7L546.7,426.9L544.6,430.6L545.0,433.4L542.6,434.3L542.1,435.0L541.3,434.0Z " data-iso="MDA" data-key="MD"/><path d="M482.8,503.0L490.3,509.7L489.9,511.7L490.2,515.9L490.1,516.3L489.4,516.4L488.1,517.0L488.0,519.3L485.2,520.8L478.8,521.5L476.5,524.9L468.0,527.6L466.3,528.0L466.1,527.6L460.6,523.8L459.3,521.5L458.4,517.3L459.0,511.4L459.2,511.2L459.3,511.3L460.8,511.3L461.4,507.5L464.8,505.3L470.9,503.2L470.9,503.2L471.6,503.2L473.1,502.6L475.1,501.4L480.2,500.7L480.6,500.8L482.8,503.0Z " data-iso="MKD" data-key="MK"/><path d="M387.2,620.0L384.2,619.8L384.2,618.0L387.2,620.0Z M383.6,617.2L381.7,616.7L382.9,616.4L383.6,617.2Z " data-iso="MLT" data-key="MT"/><path d="M439.0,485.0L445.6,490.5L449.1,491.5L454.5,494.8L454.5,495.3L453.0,495.9L451.1,496.8L450.8,497.3L451.6,500.3L451.6,500.4L451.3,500.4L447.5,501.3L446.3,499.6L442.4,507.9L443.7,513.0L441.6,511.8L440.6,510.0L437.4,507.0L432.8,504.4L432.4,504.4L431.8,503.6L431.2,502.9L431.2,502.3L431.4,502.2L430.6,495.3L432.8,494.1L432.6,492.5L435.1,488.4L436.8,489.3L436.3,484.9L438.6,484.8L439.0,484.8L439.0,485.0Z " data-iso="MNE" data-key="ME"/><path d="M256.9,351.7L261.7,352.8L263.1,352.2L264.1,352.9L265.3,352.6L263.1,354.8L256.0,351.8L256.9,351.7Z M263.0,346.3L264.2,348.0L262.8,348.2L261.3,346.0L263.0,346.3Z M274.8,324.5L273.6,325.6L273.3,324.0L274.9,322.5L274.8,324.5Z M264.4,352.2L263.1,351.4L261.1,351.8L258.0,350.2L257.4,349.2L260.6,348.5L265.2,348.7L263.1,345.1L264.8,342.1L268.2,338.9L270.5,334.9L272.7,327.7L273.4,326.6L276.4,326.5L279.6,324.4L281.6,321.6L285.2,320.0L294.9,319.5L297.3,322.0L298.7,322.4L296.7,331.5L293.4,333.2L292.8,335.5L295.9,337.0L295.4,340.6L292.5,343.4L292.7,345.5L287.9,346.3L286.6,345.7L284.1,347.5L286.4,352.4L284.9,356.8L285.4,358.2L282.6,360.8L284.2,362.2L283.4,364.8L281.3,364.6L280.8,364.5L280.2,364.2L280.2,364.2L279.8,362.6L280.9,361.6L282.1,358.3L275.7,355.2L274.0,351.9L272.0,352.8L271.1,351.3L269.7,352.3L268.4,351.3L266.1,353.1L265.3,352.6L264.4,352.2Z M279.7,319.4L278.3,319.2L280.6,318.7L279.7,319.4Z M290.1,318.0L288.6,318.5L289.7,317.9L290.1,318.0Z M294.2,317.0L293.3,317.0L295.0,316.3L294.2,317.0Z " data-iso="NLD" data-key="NL"/><path d="M287.2,201.8L286.3,203.5L287.0,200.3L287.2,201.8Z M287.3,188.5L286.0,188.4L286.3,186.9L287.3,188.5Z M315.1,152.0L312.9,150.6L315.0,149.7L315.1,152.0Z M318.2,146.5L318.1,145.4L320.9,145.6L318.2,146.5Z M339.3,126.6L336.4,127.0L337.8,124.7L339.3,126.6Z M348.3,109.0L348.0,107.8L349.9,107.1L348.3,109.0Z M347.6,106.7L348.3,103.8L348.7,106.2L347.6,106.7Z M350.5,75.8L349.6,76.7L351.1,72.5L350.5,75.8Z M356.1,69.0L356.3,70.7L352.2,73.7L354.0,69.4L356.1,69.0Z M364.0,57.3L365.2,61.7L362.3,62.9L360.0,62.7L360.0,59.6L364.0,57.3Z M367.9,63.4L369.7,61.3L371.1,57.9L372.6,61.9L369.9,65.0L366.2,67.7L362.9,68.0L361.1,69.9L358.7,70.2L358.6,69.1L360.6,66.6L363.8,65.7L365.6,62.7L366.3,58.3L365.4,56.6L367.8,51.4L367.6,55.7L368.8,60.5L367.9,63.4Z M377.2,45.3L381.0,48.3L380.6,51.7L376.9,53.2L376.0,55.0L373.8,54.4L374.7,53.2L374.9,48.8L377.2,45.3Z M386.7,36.4L388.9,37.0L387.7,40.4L385.0,43.8L381.5,44.2L382.2,41.7L384.4,38.5L385.6,33.5L386.7,36.4Z M410.6,24.7L410.8,27.1L407.2,28.1L407.5,26.3L410.6,24.7Z M412.9,24.0L411.9,24.9L412.9,22.6L412.9,24.0Z M408.7,20.5L406.2,25.6L402.0,24.4L406.4,22.7L407.4,20.8L408.7,20.5Z M455.7,27.6L456.6,31.8L449.5,37.8L449.2,42.2L448.4,42.9L447.8,42.4L446.9,40.5L448.4,35.0L446.2,32.1L444.0,31.6L438.5,28.8L437.1,27.6L434.5,30.0L431.1,31.2L429.2,34.2L427.9,37.8L429.1,47.9L425.7,55.4L419.1,53.1L417.5,54.9L413.7,56.2L409.5,56.1L409.1,55.2L403.0,47.7L400.8,48.0L399.7,49.6L400.5,51.3L397.7,51.9L397.5,52.5L396.7,52.6L394.4,53.2L396.3,55.8L396.3,57.4L394.6,61.2L396.5,62.1L387.1,62.8L384.5,62.0L383.3,63.8L383.5,70.1L382.7,72.3L378.6,70.3L375.5,74.1L373.8,80.0L371.8,82.3L374.3,86.7L373.2,89.8L368.3,98.3L368.9,101.4L365.1,104.2L362.5,104.7L363.5,110.3L362.0,120.9L360.5,124.8L357.3,131.0L359.0,132.1L361.3,136.3L360.1,140.5L354.3,139.7L350.5,141.8L346.7,148.0L347.0,149.7L345.4,153.1L347.2,158.0L346.5,165.0L348.1,171.3L347.1,179.7L352.1,184.3L353.2,185.8L351.7,191.0L348.4,191.9L348.6,193.7L351.1,201.2L350.4,207.0L348.8,209.4L343.5,215.9L344.6,221.0L343.3,227.2L341.0,225.3L341.0,224.8L336.2,222.8L334.4,218.7L332.4,217.1L332.6,221.2L330.9,224.9L327.3,226.6L327.0,225.4L322.6,228.2L323.3,229.1L319.0,233.0L315.2,237.5L309.2,241.0L305.4,241.8L301.2,241.6L299.5,239.3L298.8,240.7L297.8,238.8L298.6,238.0L295.9,237.1L290.1,232.4L289.2,230.7L289.4,224.6L295.2,225.5L296.2,224.4L292.4,223.4L293.3,219.4L296.4,215.6L292.4,218.4L289.9,219.3L288.9,220.7L286.3,221.2L286.0,220.1L288.1,213.2L290.5,212.6L292.2,213.1L292.6,208.9L294.6,207.0L296.1,203.7L299.5,200.9L299.3,205.2L300.7,201.7L303.6,199.4L298.0,200.6L296.3,201.7L293.9,204.9L293.6,206.3L290.6,208.8L290.0,210.2L286.7,213.1L286.8,209.8L287.6,206.2L292.1,205.3L288.7,203.6L288.1,198.8L288.9,197.4L287.5,195.0L287.6,189.3L288.4,188.8L291.8,189.4L295.9,188.6L304.6,189.6L308.9,188.3L307.4,186.2L305.8,188.4L303.9,188.4L300.6,186.7L300.1,188.2L290.4,188.4L288.7,186.9L288.0,183.6L291.0,182.0L288.0,177.9L288.8,174.8L292.6,175.1L297.0,177.3L300.7,177.2L292.8,174.3L291.1,174.3L289.8,172.7L290.4,170.5L295.3,167.1L299.2,167.8L302.3,167.1L298.7,166.9L300.7,163.5L303.8,163.3L308.1,164.1L309.7,165.2L314.3,161.5L309.2,162.3L307.9,161.6L304.2,162.2L306.3,158.0L309.3,157.0L310.8,155.8L314.9,156.1L315.4,155.0L318.8,152.5L319.0,150.6L317.6,148.7L321.0,147.0L323.4,150.2L324.7,148.3L327.6,147.5L330.0,151.5L332.5,150.2L334.4,150.6L335.1,148.7L337.2,146.3L340.4,144.5L338.9,142.9L341.1,141.2L338.2,141.4L337.0,142.6L337.1,145.1L332.5,148.4L330.3,149.4L328.2,146.2L326.6,146.1L330.1,139.8L331.8,138.2L334.4,134.1L341.5,128.6L342.3,127.5L339.8,128.5L341.2,124.7L346.1,121.3L348.6,122.5L350.1,119.7L348.6,120.9L345.8,119.6L345.7,118.2L347.2,113.6L351.6,107.0L350.2,105.6L354.4,104.1L356.4,104.1L358.4,101.7L352.4,103.4L352.0,100.0L355.6,93.8L356.7,93.9L358.1,89.0L363.1,86.7L367.4,86.4L361.7,85.6L363.9,80.3L365.0,80.6L368.4,83.8L365.5,78.8L366.0,77.0L364.3,78.4L362.6,76.4L366.7,71.2L370.4,69.4L371.0,72.2L371.7,70.2L372.2,66.0L376.7,66.0L377.3,64.5L372.9,64.3L374.9,60.8L376.4,60.6L379.3,53.5L381.6,52.3L381.2,49.5L381.6,47.6L382.8,47.4L386.0,49.2L384.1,46.4L387.1,41.7L390.1,40.8L390.5,46.8L391.4,39.9L393.3,37.6L393.9,38.9L394.1,44.5L393.1,47.6L394.0,47.3L395.3,44.2L396.9,44.4L394.9,39.0L395.2,37.9L399.7,35.6L403.4,38.1L398.6,32.0L401.1,31.7L405.9,28.5L407.0,28.9L408.9,32.7L411.2,33.7L410.2,30.6L412.5,25.6L413.3,25.3L413.6,20.4L414.9,16.2L418.9,18.1L421.9,18.0L420.1,22.9L419.8,28.7L421.4,29.8L422.0,26.1L423.8,20.9L426.3,14.9L427.1,16.2L428.1,23.6L430.0,21.5L431.7,15.6L429.8,14.6L430.8,11.3L434.0,11.3L435.7,12.1L436.5,18.8L438.2,19.7L437.9,17.7L438.6,13.3L440.1,12.9L442.4,14.6L446.2,14.1L450.1,16.1L453.4,19.6L448.6,24.0L441.8,25.0L442.2,25.8L447.4,26.5L449.7,30.2L453.5,29.3L454.7,27.6L455.7,27.6Z M419.5,12.9L421.6,13.1L422.5,15.1L420.2,15.9L418.4,15.0L419.5,12.9Z M224.8,10.5L225.2,9.3L228.2,8.1L229.8,6.6L231.8,6.5L231.1,8.7L224.8,10.5Z M376.5,-35.1L376.0,-34.4L374.5,-36.9L376.0,-37.1L376.5,-35.1Z M374.8,-105.0L376.4,-104.9L378.4,-99.4L382.6,-98.4L382.2,-96.1L385.4,-94.6L386.6,-95.4L389.6,-93.6L387.1,-91.4L385.3,-86.4L384.3,-86.3L383.5,-84.3L381.6,-86.6L382.3,-87.9L375.2,-87.9L376.2,-90.5L370.7,-103.1L374.8,-105.0Z M392.7,-109.4L390.9,-110.2L390.9,-111.7L392.7,-109.4Z M338.5,-102.4L340.6,-99.6L341.1,-96.1L338.9,-99.6L338.0,-100.0L336.3,-104.8L336.8,-107.0L338.5,-102.4Z M398.6,-115.3L400.8,-115.8L399.8,-114.6L396.9,-114.5L397.6,-116.1L398.6,-115.3Z M355.7,-124.4L357.0,-125.1L359.2,-123.0L359.8,-121.5L360.0,-117.1L361.0,-119.9L364.3,-113.3L366.9,-113.1L367.6,-111.7L369.3,-113.1L369.9,-110.7L373.6,-107.2L368.3,-104.6L366.8,-100.3L366.5,-97.0L365.0,-94.3L365.4,-86.9L363.9,-85.4L362.0,-77.8L361.9,-70.5L360.0,-70.4L355.9,-74.7L354.0,-77.8L350.3,-80.9L349.4,-85.5L351.8,-85.0L352.5,-87.7L358.7,-89.9L360.3,-90.0L359.4,-91.8L353.9,-90.5L351.2,-88.9L347.7,-91.3L347.5,-93.0L352.2,-95.3L354.4,-97.9L356.1,-98.9L358.4,-99.0L357.8,-104.1L353.1,-100.9L352.8,-105.5L352.1,-103.7L350.1,-104.3L350.2,-100.3L348.9,-97.1L345.4,-96.4L339.7,-106.9L339.5,-108.5L342.0,-107.3L341.2,-113.2L339.5,-113.5L338.3,-110.9L336.8,-118.3L337.0,-119.3L339.8,-122.3L341.7,-120.5L346.1,-123.1L346.5,-120.7L344.1,-120.1L342.6,-118.2L345.2,-118.4L347.6,-114.7L347.5,-116.1L349.8,-121.7L350.6,-120.3L353.6,-112.2L355.8,-109.1L353.4,-125.9L353.8,-126.6L355.7,-124.4Z M402.3,-137.3L399.4,-136.2L403.9,-140.0L404.8,-139.9L402.3,-137.3Z M367.5,-131.4L369.4,-131.6L372.0,-128.9L372.4,-129.5L372.7,-135.9L374.3,-131.5L375.0,-131.5L377.1,-134.9L381.1,-133.6L384.2,-133.3L386.9,-131.9L385.3,-121.1L382.5,-119.2L381.1,-116.5L377.1,-116.0L376.3,-118.9L373.3,-117.9L366.4,-119.4L365.5,-120.2L368.0,-121.3L368.6,-123.3L362.8,-122.3L361.0,-123.6L360.2,-125.2L361.9,-127.2L360.2,-127.4L359.2,-129.1L361.3,-129.7L363.1,-128.6L363.6,-129.5L362.1,-131.6L364.1,-130.6L363.1,-134.3L364.6,-134.0L367.5,-131.4Z " data-iso="NOR" data-key="NO"/><path d="M454.6,296.0L455.1,295.3L457.5,296.5L462.0,298.5L462.8,301.6L462.9,301.9L465.0,307.5L469.6,316.6L470.3,322.8L465.4,327.7L464.8,330.8L469.4,332.7L470.3,334.8L470.2,341.0L471.2,342.6L471.9,343.7L472.2,345.3L476.2,350.9L478.2,352.6L477.3,354.3L479.0,357.0L478.3,360.7L475.6,361.7L469.6,370.9L466.8,376.5L466.6,378.6L469.8,385.4L466.8,385.6L466.4,385.8L465.6,385.7L462.4,385.0L455.6,381.4L449.4,382.1L448.7,383.6L444.4,383.2L441.6,383.7L438.6,387.6L433.0,383.6L431.5,381.6L429.1,382.9L428.1,384.9L425.6,383.5L424.4,383.4L424.4,382.9L424.0,381.7L421.4,379.5L420.3,377.1L415.6,376.0L413.2,376.6L409.8,373.7L411.0,372.9L409.2,371.9L402.8,369.8L400.4,375.1L399.0,375.1L396.0,371.5L395.1,369.2L395.9,368.8L394.9,366.3L392.6,366.9L383.8,363.0L383.5,361.8L380.6,361.0L380.6,363.2L379.7,363.6L378.8,363.7L378.8,363.5L380.2,359.6L380.6,356.9L379.3,353.3L375.7,347.2L377.1,342.9L376.2,340.0L374.8,338.2L375.3,335.3L374.1,333.4L369.9,329.6L372.2,325.6L372.6,322.5L370.6,315.0L373.0,315.9L373.6,313.3L371.5,312.8L370.1,312.6L369.9,311.8L370.0,311.3L370.4,311.6L371.8,311.6L375.0,309.9L389.5,304.4L392.8,299.6L396.0,298.7L399.5,296.1L409.8,293.3L414.4,295.5L414.9,296.4L411.1,294.8L413.0,298.6L417.2,301.0L421.4,299.9L422.8,298.9L423.2,298.5L448.7,296.9L454.3,296.2L454.6,296.0Z " data-iso="POL" data-key="PL"/><path d="M-60.8,603.9L-59.2,605.5L-57.4,605.6L-55.6,607.5L-57.1,609.3L-59.5,608.2L-61.3,606.5L-60.8,603.9Z M-138.6,477.7L-133.1,480.5L-137.0,481.0L-140.2,478.5L-140.9,476.9L-139.7,475.8L-138.6,477.7Z M-163.5,452.8L-162.8,453.9L-167.4,451.5L-166.9,448.9L-165.7,449.6L-163.5,452.8Z M-168.6,448.5L-170.4,446.1L-168.4,446.3L-168.6,448.5Z M-158.5,453.4L-159.1,453.3L-163.2,447.1L-158.5,453.4Z M-149.7,456.4L-152.6,453.8L-150.6,452.7L-149.2,453.7L-149.7,456.4Z M-189.9,418.5L-190.7,418.9L-190.5,416.2L-189.9,418.5Z M87.4,570.5L82.3,572.2L78.5,570.0L72.6,567.8L67.0,568.0L70.9,561.9L72.1,552.9L73.9,549.4L73.9,544.7L76.6,545.8L73.7,543.5L71.2,543.9L70.0,540.0L74.0,538.4L74.1,536.7L71.8,538.9L70.1,539.0L67.4,538.0L71.1,528.2L74.7,525.5L80.9,516.9L81.1,514.4L83.7,508.9L85.4,506.7L87.1,500.0L86.8,497.7L87.4,491.3L88.2,490.7L87.3,488.1L88.9,486.5L90.4,485.7L96.6,485.0L95.5,489.0L99.5,490.4L102.1,490.7L105.4,492.5L107.2,492.3L109.1,490.7L110.5,491.6L115.5,492.8L115.9,493.5L115.5,497.6L118.3,498.7L117.9,501.9L112.0,504.9L108.3,507.7L108.7,510.0L107.3,517.4L107.4,519.2L104.0,521.9L104.7,525.7L103.4,527.9L101.2,529.4L96.9,528.4L96.5,530.9L98.5,538.4L100.1,539.3L99.4,542.6L95.6,545.2L93.9,549.3L96.0,554.6L97.5,556.0L96.6,557.2L94.4,557.3L90.0,561.2L88.7,563.4L88.6,570.6L87.4,570.5Z " data-iso="PRT" data-key="PT"/><path d="M543.8,436.4L549.3,437.2L554.1,433.1L556.1,432.3L560.3,434.2L560.3,435.3L560.2,441.5L554.5,444.4L552.1,442.1L552.9,443.8L552.3,445.6L553.1,449.1L551.5,453.2L552.8,458.4L552.7,461.7L552.8,462.7L548.3,463.1L546.1,462.8L543.5,460.4L541.9,461.3L530.6,460.3L526.5,462.2L523.4,464.2L515.8,471.5L511.6,472.0L502.5,471.7L500.1,472.6L491.5,472.5L487.6,472.7L484.0,473.9L484.7,469.6L481.4,468.1L480.4,467.5L480.2,467.3L478.0,465.4L477.9,462.6L478.7,460.6L476.8,459.9L475.1,460.7L473.6,462.9L472.3,463.4L462.8,459.7L464.6,458.6L462.5,456.9L463.7,454.1L455.7,450.3L453.2,445.3L451.4,443.2L448.5,441.7L447.7,440.5L446.9,439.6L447.3,439.1L449.9,438.2L451.2,438.6L452.7,436.5L456.0,436.2L458.2,432.9L460.3,427.6L459.9,426.8L463.2,416.8L464.4,415.1L464.2,413.2L466.5,409.6L471.2,407.1L472.8,404.7L473.0,404.3L473.4,403.9L476.4,401.4L478.9,402.6L481.4,402.1L487.8,402.6L492.3,401.4L496.5,404.4L502.3,400.0L509.9,397.1L510.7,393.2L513.6,391.9L514.0,391.6L515.1,391.3L518.4,392.5L521.0,395.4L524.2,400.3L528.4,404.7L534.9,409.7L538.1,414.9L538.5,423.7L538.9,426.5L540.8,431.8L540.0,432.8L541.3,434.0L542.1,435.0L543.8,436.4Z " data-iso="ROU" data-key="RO"/><path d="M1005.4,-651.0L1005.8,-651.5L1005.9,-651.3L1005.4,-651.0Z M992.9,-659.3L992.7,-658.0L990.0,-660.1L992.9,-659.3Z M986.3,-650.7L986.0,-652.6L983.6,-654.9L988.7,-652.5L991.1,-650.6L1002.3,-646.3L1005.4,-646.6L1003.1,-644.8L992.3,-648.6L987.2,-649.6L986.3,-650.7Z M950.1,-672.8L955.1,-669.7L963.7,-665.8L964.7,-664.4L967.8,-664.0L972.7,-662.0L975.6,-661.4L981.0,-658.7L967.5,-662.1L960.4,-664.6L958.7,-665.7L955.6,-665.8L956.5,-667.3L953.4,-670.0L947.5,-672.1L945.3,-673.5L947.0,-675.0L950.1,-672.8Z M934.2,-682.4L937.4,-680.2L931.5,-681.1L929.6,-682.3L925.8,-683.2L916.9,-688.0L934.2,-682.4Z M891.8,-698.1L895.3,-697.0L895.4,-695.6L893.6,-697.0L885.8,-698.8L885.3,-699.3L891.8,-698.1Z M867.9,-702.8L869.7,-702.0L868.0,-702.1L867.9,-702.8Z M843.5,-704.5L841.5,-704.1L841.2,-705.1L843.5,-704.5Z M828.7,-707.0L829.9,-704.9L824.1,-704.7L824.6,-705.8L826.7,-705.8L828.7,-707.0Z M803.9,-708.7L806.5,-708.4L808.8,-707.1L812.8,-706.4L813.8,-704.8L812.2,-703.9L808.2,-704.2L805.2,-706.0L799.3,-705.4L796.0,-706.4L797.0,-707.4L803.9,-708.7Z M794.1,-709.7L794.6,-707.2L791.8,-707.8L792.1,-709.6L794.1,-709.7Z M800.1,-702.4L800.8,-700.3L799.4,-700.9L800.1,-702.4Z M862.3,-571.6L864.7,-574.7L869.3,-575.5L874.0,-579.1L876.0,-581.2L880.4,-583.7L884.5,-585.1L895.4,-586.4L899.6,-589.3L901.3,-589.9L905.5,-593.9L915.4,-599.2L918.2,-601.0L922.3,-605.0L931.0,-611.1L932.2,-612.6L933.5,-616.4L934.3,-615.6L932.3,-608.9L934.0,-604.5L940.9,-598.7L962.9,-597.7L966.1,-598.1L970.6,-600.7L971.7,-604.4L977.7,-609.3L976.1,-612.3L981.4,-614.8L988.0,-614.3L985.0,-613.5L980.9,-610.8L984.0,-605.7L983.5,-603.9L988.4,-601.3L997.4,-600.7L1001.3,-599.8L999.7,-597.6L994.8,-595.4L990.6,-595.0L984.1,-595.4L976.3,-593.2L967.0,-593.8L963.0,-592.3L957.8,-587.9L953.4,-588.2L942.7,-587.5L932.4,-585.1L926.5,-582.5L919.6,-582.4L916.1,-581.4L913.7,-579.4L908.8,-573.2L903.5,-571.7L898.0,-571.8L889.9,-570.3L884.5,-568.5L880.7,-571.0L880.9,-572.6L878.8,-574.2L873.2,-574.3L869.6,-572.9L867.1,-568.5L865.6,-570.4L862.5,-570.9L862.3,-571.6Z M621.9,-746.4L621.9,-747.2L624.8,-743.2L623.8,-742.5L621.9,-746.4Z M887.3,-519.5L890.9,-519.1L891.1,-516.4L888.5,-517.9L887.3,-519.5Z M882.9,-526.3L882.3,-528.9L883.6,-528.1L887.7,-527.7L891.8,-525.5L890.2,-521.2L883.4,-522.7L882.9,-526.3Z M437.3,282.9L445.9,285.1L450.7,284.5L453.9,287.8L453.3,291.5L454.1,295.3L454.6,296.0L454.3,296.2L448.7,296.9L423.2,298.5L424.5,296.8L425.3,295.2L425.8,290.2L429.9,289.2L433.6,283.9L434.0,282.9L434.6,283.0L433.9,284.7L431.8,288.4L437.7,288.5L437.6,285.5L437.3,282.9Z M635.1,-736.4L636.5,-738.0L639.1,-730.9L639.6,-727.2L638.1,-727.2L635.9,-729.9L636.4,-730.8L635.1,-736.4Z M629.5,-680.6L626.6,-678.9L624.1,-676.7L619.2,-678.0L614.9,-678.0L616.1,-681.5L617.3,-682.2L621.0,-681.2L625.0,-680.6L629.5,-680.6Z M513.9,91.1L515.0,94.4L512.7,93.1L513.9,91.1Z M690.5,-57.4L685.2,-57.1L688.0,-59.9L690.5,-57.4Z M546.9,49.1L545.2,49.3L545.2,48.2L546.9,49.1Z M415.7,-599.1L409.8,-602.9L409.4,-605.3L405.3,-608.4L405.5,-610.7L403.7,-609.3L406.0,-606.6L402.5,-609.7L402.5,-611.5L397.4,-614.0L386.7,-621.6L386.4,-625.0L387.7,-626.1L384.6,-625.3L384.0,-625.8L384.9,-630.2L384.0,-632.8L385.3,-637.1L382.6,-638.4L381.8,-641.2L379.3,-639.6L379.6,-643.1L376.8,-640.4L378.7,-636.6L378.4,-633.0L381.8,-630.5L373.4,-631.0L370.8,-631.7L370.8,-632.7L366.9,-634.1L366.3,-633.3L369.6,-631.9L363.9,-633.7L360.1,-634.3L350.5,-642.9L350.9,-644.4L343.7,-647.2L346.0,-647.5L350.6,-649.8L350.9,-652.8L356.6,-651.5L355.2,-654.2L355.7,-654.7L361.5,-654.5L366.8,-651.9L369.8,-651.6L367.9,-652.7L366.3,-657.5L369.4,-657.8L365.7,-659.7L365.7,-660.8L369.2,-662.6L372.9,-663.3L371.2,-664.1L372.3,-666.3L368.8,-667.7L370.8,-669.5L371.6,-668.2L372.9,-669.9L375.2,-671.0L376.9,-669.1L376.3,-667.3L379.0,-669.6L387.0,-663.9L390.8,-662.2L394.0,-662.0L397.5,-658.6L396.9,-655.5L398.3,-652.0L402.0,-650.4L407.1,-649.0L417.1,-649.2L418.5,-647.4L420.3,-640.8L417.2,-639.4L415.6,-636.2L419.6,-638.8L420.9,-637.8L420.5,-636.2L422.2,-636.5L423.0,-638.4L425.8,-637.6L427.8,-641.4L427.7,-642.8L425.4,-645.6L425.7,-647.3L429.2,-650.6L433.0,-652.5L417.0,-598.2L415.7,-599.1Z M565.9,-10.5L566.0,-3.8L562.2,1.1L560.3,0.7L554.9,-7.0L555.1,-8.9L557.4,-11.8L563.3,-11.4L565.9,-10.5Z M637.6,-79.2L638.5,-77.8L637.0,-77.3L636.5,-79.1L637.6,-79.2Z M541.6,-556.1L540.6,-551.5L539.0,-550.1L533.6,-548.5L539.9,-553.5L541.6,-556.1Z M486.8,-569.9L488.7,-569.3L493.6,-563.4L492.7,-562.4L488.7,-562.2L483.3,-566.4L483.8,-567.8L486.8,-569.9Z M604.6,-56.2L607.2,-53.5L603.3,-50.4L602.7,-51.1L598.7,-50.0L595.6,-51.1L592.1,-53.1L591.5,-56.4L592.6,-57.5L597.9,-56.4L604.6,-56.2Z M620.7,-87.4L619.1,-87.6L617.5,-88.8L620.7,-87.4Z M526.1,-531.2L527.4,-530.0L525.9,-529.6L526.1,-531.2Z M555.2,-49.0L558.8,-47.1L560.4,-44.4L558.0,-45.0L552.6,-47.0L555.2,-49.0Z M416.9,-570.8L417.4,-567.4L409.9,-562.9L406.8,-562.1L408.9,-569.9L411.6,-570.8L416.9,-570.8Z M619.7,-438.3L622.1,-437.2L622.8,-434.4L620.9,-434.8L619.0,-437.1L619.7,-438.3Z M399.6,-562.8L396.6,-564.0L392.5,-569.9L399.4,-571.2L403.7,-571.6L408.9,-569.9L406.8,-562.1L399.6,-562.8Z M628.5,-151.2L627.5,-149.1L625.5,-148.8L623.0,-154.0L625.9,-156.3L627.8,-154.6L628.5,-151.2Z M626.1,-162.9L624.2,-160.5L621.4,-160.8L619.3,-164.6L623.0,-164.7L626.1,-162.9Z M611.9,-144.4L609.0,-143.5L607.0,-144.8L607.2,-145.9L609.7,-147.4L611.9,-144.4Z M543.1,-82.1L548.5,-84.0L552.1,-77.7L552.1,-72.9L555.0,-69.4L556.6,-68.5L560.4,-63.7L566.1,-60.1L573.5,-56.9L582.9,-56.0L582.5,-52.5L579.7,-51.6L579.8,-49.7L575.0,-48.9L573.3,-47.1L568.4,-45.1L562.8,-43.8L563.4,-49.7L556.7,-50.7L555.3,-52.8L553.8,-50.8L549.8,-47.5L547.2,-47.8L542.7,-52.4L543.2,-56.9L544.0,-57.4L543.8,-60.5L540.9,-66.7L538.5,-66.5L538.2,-69.1L539.9,-71.3L536.7,-73.9L537.6,-77.8L538.7,-78.2L543.1,-82.1Z M597.6,-131.2L595.5,-128.3L591.7,-131.4L591.0,-133.9L592.1,-136.5L598.3,-136.1L599.1,-135.6L597.6,-131.2Z M608.2,-158.0L606.4,-156.2L605.3,-156.0L608.2,-158.0Z M605.0,-153.2L603.8,-154.2L604.2,-155.9L605.0,-153.2Z M568.9,-437.3L568.7,-439.7L569.8,-444.2L575.4,-446.6L577.9,-443.1L579.6,-439.8L579.8,-437.6L581.8,-434.3L584.2,-431.6L581.1,-433.9L575.0,-433.4L570.5,-435.4L568.9,-437.3Z M615.8,-367.3L614.4,-366.4L614.3,-367.0L615.8,-367.3Z M611.9,-190.1L611.2,-188.6L609.9,-189.1L611.9,-190.1Z M610.1,-186.9L610.5,-186.3L608.6,-186.7L610.1,-186.9Z M587.2,-414.6L584.1,-409.3L583.9,-410.4L587.2,-414.6Z M571.2,-432.2L573.8,-429.1L570.2,-427.3L567.5,-429.8L568.4,-431.1L571.2,-432.2Z M620.7,-318.1L626.8,-315.7L626.3,-313.1L624.3,-310.7L623.0,-310.0L619.0,-312.5L620.7,-318.1Z M601.4,-208.6L602.8,-210.2L604.0,-209.3L603.3,-206.8L601.4,-208.6Z M587.0,-194.8L588.2,-192.8L586.7,-191.9L585.4,-195.4L587.0,-194.8Z M532.3,-439.5L526.2,-444.0L528.0,-446.2L524.1,-449.3L521.0,-453.6L524.4,-455.3L530.5,-453.9L534.9,-449.6L535.1,-446.0L536.1,-444.6L536.9,-439.2L530.3,-436.7L532.3,-439.5Z M564.1,-403.5L565.7,-401.9L557.8,-399.6L560.4,-402.9L564.1,-403.5Z M501.5,-449.0L501.7,-447.8L500.9,-447.9L501.5,-449.0Z M546.5,-414.2L545.9,-418.2L543.5,-416.8L537.9,-416.3L538.5,-421.3L535.4,-425.5L534.4,-432.8L538.3,-432.9L540.1,-434.5L544.0,-434.5L547.8,-430.4L545.9,-427.0L539.8,-424.5L543.2,-422.2L546.0,-424.1L550.0,-431.5L554.3,-430.6L553.3,-427.5L559.0,-423.9L560.8,-421.5L560.5,-420.1L566.8,-420.5L567.9,-415.5L565.8,-412.5L564.1,-408.4L562.1,-407.4L558.5,-406.9L554.0,-407.0L552.2,-405.2L547.2,-406.0L544.0,-407.7L546.5,-414.2Z M588.1,-252.9L590.8,-251.5L588.5,-248.1L587.4,-250.2L588.1,-252.9Z M589.7,-253.8L588.6,-253.6L587.2,-254.9L589.7,-253.8Z M580.9,-312.9L582.1,-313.5L582.8,-313.7L580.9,-312.9Z M582.8,-257.9L582.2,-257.1L581.1,-257.2L582.8,-257.9Z M507.3,-433.5L507.5,-431.5L504.9,-432.9L507.3,-433.5Z M543.8,-154.0L543.6,-146.9L542.2,-140.2L540.3,-132.8L538.9,-124.1L540.8,-117.8L542.0,-115.3L541.1,-113.3L542.3,-111.2L540.1,-111.1L544.5,-101.8L543.6,-98.4L546.5,-95.3L544.8,-95.1L547.1,-93.2L547.5,-90.1L548.6,-87.8L548.1,-86.0L545.3,-84.7L540.2,-83.1L538.7,-79.7L536.1,-82.0L531.9,-83.7L532.4,-89.9L530.8,-99.9L530.1,-99.4L527.6,-103.1L526.5,-107.0L525.5,-106.0L523.4,-107.0L525.3,-114.2L526.7,-114.6L525.2,-117.1L524.3,-124.4L526.1,-129.1L525.3,-130.3L526.4,-137.0L529.0,-138.1L531.2,-140.1L533.2,-147.2L531.6,-158.6L533.4,-162.6L535.3,-163.4L541.6,-160.9L543.8,-154.0Z M574.4,-254.7L574.2,-251.4L571.3,-256.2L574.4,-254.7Z M566.4,-232.0L566.3,-231.2L564.4,-233.0L566.4,-232.0Z M571.9,-294.6L570.0,-294.4L571.4,-295.5L571.9,-294.6Z M771.3,420.2L766.1,420.4L760.2,419.4L759.3,414.7L757.0,414.6L754.6,415.8L751.5,414.5L747.7,414.7L747.6,417.4L746.0,416.3L743.7,416.7L738.7,422.4L735.9,422.7L735.6,420.4L726.1,419.9L723.0,418.6L715.4,420.0L713.1,421.7L707.6,423.4L704.3,422.6L701.0,423.2L695.0,422.6L693.7,423.6L689.2,424.3L688.1,427.5L686.6,427.1L681.0,424.5L677.9,422.5L668.6,418.7L661.8,418.8L656.5,415.6L653.5,417.2L650.4,416.1L648.9,414.5L639.9,412.5L643.0,409.5L640.0,409.0L640.7,408.1L646.5,407.9L650.4,405.3L649.0,402.4L650.2,397.6L650.0,393.9L652.2,393.1L652.3,391.4L655.7,390.3L645.6,385.8L644.6,384.2L646.9,383.7L648.5,381.8L652.4,380.9L650.9,378.7L657.0,372.5L658.4,371.6L656.3,368.2L654.4,368.9L654.0,370.8L650.1,372.7L651.7,370.1L649.2,372.6L646.8,375.0L645.3,371.4L644.8,367.1L648.5,362.9L648.9,360.5L658.5,356.7L658.1,348.9L655.1,345.0L652.7,343.7L653.3,339.4L650.7,338.0L653.4,333.4L651.4,327.8L648.1,328.5L643.8,327.3L637.7,327.9L632.1,327.4L629.6,326.7L628.2,329.6L623.6,327.9L619.0,324.0L618.1,324.2L611.2,329.9L605.7,328.7L602.4,329.8L601.5,331.2L597.8,328.9L597.0,325.7L594.3,321.9L594.4,321.3L590.6,319.2L582.0,321.2L578.6,314.4L580.8,311.9L576.9,309.5L572.2,304.9L571.3,304.6L560.8,309.0L558.0,309.9L556.6,314.2L553.0,314.4L552.8,314.4L552.6,314.0L549.9,311.4L547.2,303.5L543.4,300.6L544.2,297.2L546.6,296.5L548.8,297.5L550.9,297.3L554.0,294.2L555.3,289.6L552.7,288.5L549.0,285.4L545.2,286.3L544.4,282.8L539.3,280.7L537.8,279.4L534.4,274.0L530.7,272.6L531.2,267.7L529.4,265.1L528.0,259.3L525.0,258.4L520.5,256.4L518.8,257.0L514.3,260.8L513.4,260.3L512.1,256.9L508.6,256.3L506.7,258.1L504.8,256.5L501.5,257.4L499.9,256.2L499.9,255.4L499.9,254.1L496.7,248.9L492.5,243.2L492.3,237.7L488.1,234.6L487.0,234.8L487.0,234.4L487.7,229.9L489.4,228.8L485.6,222.9L485.0,219.3L482.9,214.6L484.4,208.6L484.9,204.2L486.4,202.5L484.8,201.0L484.9,199.7L483.9,196.0L486.6,196.9L487.5,193.9L490.5,193.8L492.0,190.2L496.6,189.8L500.7,190.2L500.7,188.7L495.9,185.7L490.5,187.2L484.2,182.6L485.5,183.1L483.8,180.3L481.5,182.7L478.6,184.0L482.0,176.8L487.0,168.7L489.3,163.6L493.3,152.3L495.2,148.3L496.8,137.8L492.5,133.3L485.3,130.1L481.7,127.8L483.4,121.5L483.2,120.5L478.8,116.6L477.0,113.7L477.5,112.0L476.6,110.2L472.8,108.6L472.0,106.5L473.0,105.1L470.6,99.3L471.7,95.5L471.6,93.5L469.4,89.9L464.7,83.9L459.7,78.0L459.1,76.0L461.7,65.2L459.9,62.0L455.4,57.8L450.7,56.8L449.1,54.4L447.6,45.8L445.6,45.6L448.0,43.2L448.4,42.9L449.2,42.2L449.5,37.8L456.6,31.8L455.7,27.6L456.8,27.5L460.6,27.2L460.8,25.5L462.0,24.8L461.1,23.0L468.2,24.9L468.4,26.9L463.8,27.1L466.1,29.9L467.5,29.2L472.6,28.7L474.3,33.5L474.6,30.1L484.1,27.5L487.9,27.7L502.1,31.4L508.6,35.0L511.2,34.5L517.4,36.6L519.0,36.2L528.4,38.5L532.9,44.9L535.3,46.5L536.7,51.5L535.5,59.2L534.0,62.6L530.1,67.4L526.5,70.0L519.5,71.7L516.7,71.0L510.3,72.0L504.1,72.5L498.3,70.7L486.1,70.5L484.8,69.8L483.3,67.1L479.5,67.1L481.3,70.7L484.8,72.7L487.3,73.1L489.9,75.7L491.8,75.9L491.9,78.0L496.0,78.4L498.5,79.3L502.7,82.6L503.6,89.7L503.0,91.0L506.2,94.0L508.3,96.6L509.6,99.5L510.7,99.9L511.3,103.3L513.2,104.8L516.6,105.3L517.9,104.3L522.6,106.0L524.7,108.1L533.6,108.8L536.9,105.1L534.2,99.3L532.2,98.6L530.3,99.8L526.8,99.0L520.9,94.6L520.4,93.2L521.7,91.8L521.1,88.6L525.9,88.0L530.7,90.3L538.9,90.1L543.4,90.9L544.6,90.3L545.2,86.4L547.7,85.6L545.0,82.2L543.6,81.6L539.2,78.1L537.5,74.2L539.6,70.4L540.1,68.5L544.0,61.5L544.8,58.5L545.4,53.3L548.6,53.7L552.5,51.9L555.2,52.4L556.4,54.6L557.7,54.3L561.2,55.4L559.3,52.0L557.9,44.3L553.0,38.5L548.7,37.6L544.8,25.3L541.6,20.5L535.0,18.4L534.7,17.1L539.0,17.5L544.5,14.1L549.8,13.2L558.8,18.3L560.0,20.1L554.3,25.0L553.5,30.9L553.8,32.0L559.6,33.3L562.5,35.7L565.8,36.8L569.4,35.1L573.1,31.0L571.0,23.6L569.1,20.2L573.4,15.7L570.8,13.3L573.3,11.9L578.5,-1.5L580.1,-4.9L582.1,-7.5L584.1,-5.5L585.4,-5.9L585.1,-8.9L583.6,-9.8L582.8,-12.1L585.5,-19.6L588.6,-21.2L586.6,-19.0L587.4,-18.4L589.2,-14.5L591.1,-13.8L590.7,-7.7L594.7,-9.7L595.0,-10.6L599.5,-12.6L597.9,-15.2L598.1,-19.6L601.6,-23.5L603.3,-24.8L606.5,-25.8L607.4,-34.2L609.4,-38.5L614.7,-36.8L615.0,-34.3L617.0,-32.0L620.5,-32.8L621.0,-34.9L617.5,-38.5L619.8,-41.1L618.6,-46.2L616.3,-47.8L615.9,-46.6L607.7,-50.8L608.0,-57.3L612.3,-59.1L616.1,-62.2L620.0,-64.3L625.2,-66.0L632.1,-66.3L636.8,-67.7L644.1,-69.3L645.3,-70.2L647.5,-69.4L658.4,-69.9L656.7,-74.8L652.4,-80.5L651.5,-78.5L647.8,-78.3L644.6,-79.2L641.8,-81.1L637.9,-81.0L634.2,-79.8L635.5,-77.5L632.6,-79.2L629.3,-82.9L629.2,-85.3L626.3,-87.0L620.5,-92.6L617.3,-91.1L613.1,-95.0L611.7,-97.2L611.5,-104.3L610.6,-107.0L598.9,-120.6L595.8,-124.9L597.9,-125.5L602.6,-132.5L609.7,-135.3L614.7,-131.6L621.5,-124.9L625.4,-119.1L628.3,-118.4L632.1,-119.0L637.5,-116.3L642.8,-112.4L644.8,-109.5L646.5,-108.7L657.0,-102.0L658.4,-100.7L664.5,-96.5L666.2,-96.0L673.7,-97.0L675.5,-95.2L679.4,-90.0L681.3,-89.0L684.6,-85.0L684.9,-82.1L690.5,-72.1L690.8,-70.5L689.3,-69.2L694.0,-67.1L693.2,-66.1L693.1,-61.1L690.5,-60.3L689.9,-62.4L688.9,-60.8L684.9,-59.5L682.2,-56.3L682.3,-55.7L687.8,-54.5L694.0,-57.2L697.0,-61.6L701.8,-64.3L702.1,-67.3L699.2,-70.2L699.1,-77.6L698.0,-81.9L692.8,-87.7L690.0,-94.8L685.2,-97.8L678.8,-99.6L674.5,-103.8L674.6,-107.6L677.0,-115.2L681.0,-114.6L684.9,-114.8L695.5,-109.2L697.8,-107.2L702.3,-108.0L706.2,-114.6L699.5,-109.1L695.4,-111.3L692.9,-113.7L692.9,-116.0L681.8,-120.3L671.7,-115.4L670.1,-108.3L665.1,-104.5L662.2,-107.2L656.8,-108.6L650.6,-114.6L646.1,-120.9L644.9,-121.5L636.8,-123.1L634.1,-123.9L629.2,-124.0L624.9,-130.5L624.5,-137.4L620.0,-141.9L613.1,-144.3L613.5,-146.2L614.9,-146.5L623.6,-143.4L629.8,-136.8L632.9,-136.3L635.8,-133.2L639.6,-133.7L641.4,-134.9L646.2,-140.9L651.8,-142.1L652.7,-142.9L652.7,-146.2L650.8,-143.7L646.2,-144.6L644.5,-143.8L643.6,-141.8L636.1,-139.3L630.4,-141.0L629.9,-143.5L635.4,-146.9L635.4,-150.8L631.7,-150.3L631.7,-148.7L629.9,-150.4L628.6,-154.5L631.4,-159.6L635.2,-160.6L637.5,-162.3L639.8,-162.9L641.3,-162.4L648.3,-165.8L648.5,-168.3L650.3,-170.6L651.4,-170.7L656.0,-164.4L656.2,-163.3L660.3,-160.8L662.4,-160.2L666.7,-157.2L667.8,-157.2L662.9,-161.6L662.4,-163.4L663.7,-163.6L668.9,-161.3L673.1,-157.5L676.4,-156.6L676.1,-158.4L674.0,-159.0L672.3,-163.6L671.1,-164.4L662.9,-165.9L660.6,-166.0L652.4,-172.1L649.0,-172.4L639.2,-170.3L637.5,-169.4L635.0,-166.9L628.8,-167.7L625.3,-170.4L621.1,-170.4L617.7,-171.8L614.6,-174.3L615.6,-180.0L618.7,-187.2L619.2,-192.8L620.9,-195.5L619.6,-196.8L620.0,-201.3L621.8,-202.7L625.6,-195.4L629.8,-195.1L633.3,-196.8L627.5,-195.1L625.2,-198.3L625.5,-201.7L622.9,-204.9L621.2,-203.8L615.0,-203.7L611.8,-201.7L610.1,-204.2L613.0,-205.4L612.8,-207.0L605.9,-203.1L603.6,-205.8L606.5,-206.7L603.2,-211.4L602.0,-212.0L599.5,-210.5L600.2,-213.5L596.3,-221.8L596.9,-222.9L595.2,-225.8L595.5,-231.1L594.5,-232.9L593.7,-240.0L593.1,-242.2L592.7,-239.6L590.3,-239.1L590.2,-241.2L589.1,-245.1L590.2,-246.7L590.7,-250.0L594.1,-249.3L593.0,-251.8L595.1,-251.4L589.7,-260.8L594.0,-264.4L598.1,-262.8L595.8,-264.4L592.1,-264.9L585.5,-262.0L585.0,-262.4L586.0,-267.7L582.1,-271.1L576.8,-271.3L573.1,-273.7L567.5,-278.1L565.3,-281.6L567.1,-288.8L569.5,-289.9L572.4,-287.4L575.0,-283.0L574.9,-288.2L576.7,-288.3L575.7,-290.6L576.6,-293.9L577.7,-294.4L584.4,-291.3L585.6,-290.4L584.1,-296.0L581.3,-296.5L580.3,-301.4L580.7,-303.7L579.6,-305.5L580.4,-308.9L585.2,-313.6L591.2,-314.0L587.1,-316.2L596.7,-318.6L599.5,-317.7L595.2,-314.1L595.4,-313.4L599.7,-315.5L598.8,-316.6L601.3,-318.7L604.3,-318.4L609.9,-315.8L613.4,-312.8L615.7,-311.5L617.5,-309.1L621.6,-305.2L623.3,-304.5L624.5,-302.8L636.7,-295.2L638.1,-293.2L638.3,-290.9L643.8,-287.8L644.3,-285.5L650.7,-282.6L652.9,-281.0L652.9,-282.5L647.3,-286.6L646.4,-292.6L640.0,-300.2L640.5,-301.5L635.5,-306.8L633.9,-306.6L635.6,-303.7L634.1,-301.9L629.8,-304.6L630.2,-308.9L631.6,-309.2L634.3,-313.0L634.1,-314.1L631.4,-316.5L629.1,-316.0L631.1,-317.6L633.4,-318.3L638.0,-317.6L639.8,-319.2L647.3,-318.8L649.5,-317.7L652.5,-318.6L645.1,-319.6L641.8,-319.6L639.2,-320.6L636.9,-319.2L635.0,-321.6L633.9,-325.0L631.6,-327.3L630.9,-332.5L631.3,-336.2L630.0,-341.3L631.3,-343.7L632.3,-341.6L636.2,-341.9L637.8,-344.6L638.1,-346.8L638.0,-354.3L636.8,-355.9L636.5,-361.6L635.2,-362.3L633.7,-361.5L634.1,-363.4L631.3,-364.9L623.6,-363.0L617.7,-366.9L617.7,-368.8L619.5,-373.1L620.8,-377.9L616.1,-379.1L615.7,-382.4L618.2,-385.6L617.6,-387.1L620.2,-390.1L623.8,-389.2L623.2,-390.8L624.3,-392.2L630.7,-390.4L629.5,-393.0L634.2,-395.8L635.8,-395.6L636.9,-394.0L633.5,-387.3L634.1,-387.0L638.1,-391.3L642.5,-395.4L639.8,-396.0L641.4,-398.1L641.8,-397.0L645.1,-396.1L644.7,-397.2L651.1,-402.3L652.5,-407.8L651.0,-407.9L653.9,-410.3L651.4,-411.9L642.7,-412.7L642.0,-412.2L633.9,-411.5L629.6,-411.9L633.5,-415.8L634.3,-421.6L632.3,-424.3L626.0,-426.9L623.9,-430.9L624.9,-437.2L624.6,-439.6L621.4,-441.1L621.8,-438.9L619.1,-438.5L617.0,-439.2L615.4,-442.5L616.4,-444.2L612.9,-447.2L610.7,-444.5L606.3,-442.1L603.3,-441.8L601.3,-442.6L602.9,-440.3L605.3,-438.9L599.7,-437.9L598.8,-438.2L595.9,-441.7L594.6,-442.5L590.7,-442.1L589.9,-439.8L588.6,-440.1L587.4,-442.3L587.7,-443.7L586.8,-446.3L581.8,-452.2L576.3,-462.3L575.3,-463.9L576.4,-465.5L581.6,-459.7L586.2,-459.4L585.8,-460.3L582.4,-461.8L574.7,-468.3L575.6,-468.7L582.5,-468.7L580.0,-466.7L579.9,-465.0L584.0,-467.3L586.2,-466.4L587.0,-464.7L589.8,-465.9L589.8,-467.2L586.6,-469.2L581.8,-469.9L575.8,-469.4L571.6,-470.1L568.0,-473.9L565.3,-479.3L565.1,-481.0L566.6,-483.8L567.9,-483.8L572.2,-481.2L571.5,-487.7L568.9,-489.6L569.5,-490.5L573.9,-490.7L568.3,-493.0L568.4,-500.0L570.5,-499.2L568.7,-503.5L561.8,-507.7L553.8,-510.4L550.9,-512.3L548.7,-512.7L538.2,-520.4L535.9,-523.7L534.0,-527.4L533.5,-530.9L535.5,-535.0L541.7,-539.2L537.6,-546.1L542.2,-552.4L542.3,-555.6L546.2,-557.8L540.9,-556.4L536.3,-550.7L532.1,-550.1L522.9,-551.9L518.2,-553.9L516.0,-557.1L508.5,-560.9L507.5,-562.0L500.5,-564.8L495.5,-563.9L494.1,-564.6L493.5,-567.3L495.0,-571.6L489.9,-576.6L490.2,-581.2L483.7,-582.9L479.0,-581.1L477.8,-573.1L480.2,-571.6L476.3,-569.3L474.6,-566.0L465.9,-570.6L462.3,-572.2L458.6,-575.6L456.7,-574.3L451.4,-576.8L445.0,-578.9L441.8,-579.1L435.3,-584.5L432.3,-585.8L429.2,-588.2L423.4,-591.0L423.1,-592.4L421.0,-593.4L417.0,-598.2L433.0,-652.5L438.8,-654.9L441.5,-655.0L447.8,-656.3L449.5,-654.9L453.9,-653.3L457.2,-648.2L457.6,-650.3L461.0,-649.7L466.9,-646.5L469.9,-647.5L476.0,-646.8L481.2,-646.8L471.1,-648.1L467.2,-647.3L465.9,-650.6L468.3,-651.7L464.7,-651.2L462.1,-652.6L459.8,-651.8L456.2,-652.4L458.0,-656.3L456.5,-658.7L454.5,-660.3L451.4,-658.9L450.6,-660.6L450.6,-664.7L449.6,-665.1L450.3,-669.3L453.2,-669.5L449.8,-673.2L446.7,-677.5L448.5,-679.1L446.6,-682.8L447.0,-684.0L454.2,-687.3L462.2,-682.8L467.4,-678.9L470.3,-677.6L471.5,-679.0L469.7,-680.4L474.7,-680.5L479.1,-681.7L490.5,-682.2L491.6,-682.9L495.9,-683.1L499.3,-683.8L501.5,-683.3L506.7,-683.7L508.3,-682.7L515.8,-684.9L517.2,-683.5L520.3,-685.8L524.4,-686.4L524.5,-687.2L531.5,-688.2L542.3,-689.1L543.9,-688.9L552.3,-693.8L554.1,-692.8L555.3,-689.9L554.9,-689.0L555.7,-685.4L558.1,-682.0L568.5,-678.1L578.5,-676.5L581.8,-676.6L589.9,-678.6L593.3,-678.6L589.8,-675.0L585.9,-672.0L587.5,-671.3L590.9,-671.7L601.2,-670.9L604.1,-673.3L606.2,-672.1L606.7,-668.8L612.1,-668.8L612.5,-666.3L613.7,-665.6L621.2,-667.1L625.8,-671.3L629.3,-672.2L630.8,-671.7L631.2,-673.0L639.5,-673.5L645.2,-674.7L650.9,-677.6L651.7,-680.4L649.3,-683.5L647.3,-682.3L642.0,-686.3L641.7,-687.2L645.2,-689.0L650.6,-689.4L655.5,-694.5L655.8,-696.8L654.4,-697.3L654.2,-700.2L656.7,-704.1L661.6,-704.5L663.5,-703.1L663.9,-700.2L658.1,-699.9L660.7,-697.8L663.6,-697.7L664.6,-699.4L670.9,-698.6L678.8,-701.2L682.5,-703.9L685.1,-712.1L691.5,-712.0L696.2,-709.5L697.0,-707.8L705.3,-705.6L716.3,-705.8L719.7,-707.3L721.2,-710.2L723.0,-710.8L725.3,-714.6L726.9,-712.0L728.7,-710.7L737.7,-708.1L741.5,-707.9L741.7,-705.4L742.9,-704.9L743.4,-707.3L747.7,-708.6L751.7,-711.3L755.7,-712.2L761.6,-713.0L767.1,-712.7L778.6,-711.3L786.5,-709.8L784.1,-707.2L784.4,-705.5L777.3,-700.2L771.1,-694.3L771.0,-692.3L767.5,-688.2L752.1,-672.7L743.1,-664.6L732.4,-659.5L722.2,-655.7L713.3,-656.3L703.8,-655.0L701.9,-652.6L702.0,-651.3L699.3,-651.7L697.9,-653.6L695.5,-654.8L691.0,-654.0L688.6,-656.2L685.6,-657.7L678.8,-657.5L671.3,-658.1L664.7,-657.4L658.7,-655.6L651.3,-655.5L647.8,-655.0L644.2,-655.8L638.6,-655.3L634.7,-654.6L622.1,-653.1L616.9,-653.9L613.4,-653.8L609.9,-655.3L605.6,-655.7L605.8,-653.7L600.7,-652.9L599.3,-650.0L596.9,-648.4L595.0,-648.1L591.3,-644.6L582.7,-642.0L578.5,-645.5L575.8,-644.9L578.5,-643.2L583.4,-638.0L592.5,-635.8L594.5,-637.6L596.8,-638.3L602.8,-642.8L602.7,-645.3L605.5,-644.6L605.0,-643.1L609.3,-641.5L612.3,-641.9L632.7,-643.6L635.3,-642.3L639.0,-641.8L636.4,-640.1L633.0,-638.8L636.4,-637.1L633.4,-633.5L629.2,-632.4L624.1,-629.3L632.1,-627.5L632.0,-624.2L640.7,-620.4L647.8,-616.3L652.2,-615.5L657.7,-615.3L660.6,-617.0L668.5,-616.6L672.7,-617.6L684.7,-616.3L691.3,-616.6L696.9,-617.3L701.9,-619.1L702.0,-619.9L698.3,-621.6L696.3,-624.8L695.9,-626.7L698.1,-628.3L702.4,-625.9L703.5,-623.8L706.5,-623.4L708.9,-622.3L709.5,-619.0L712.3,-617.0L716.3,-616.4L719.7,-616.4L721.9,-614.3L722.3,-612.6L726.3,-611.6L729.9,-609.5L732.7,-606.9L731.5,-603.9L727.5,-605.7L723.8,-608.9L720.8,-610.1L723.1,-606.3L722.8,-602.6L725.9,-599.0L728.6,-598.9L728.5,-597.1L733.1,-588.8L736.2,-586.8L742.5,-585.1L744.3,-585.1L743.6,-587.4L745.2,-587.8L748.5,-585.1L748.0,-582.4L751.1,-580.0L755.4,-578.4L757.3,-574.4L758.8,-572.7L759.4,-570.3L760.4,-569.9L764.7,-570.1L767.3,-567.9L766.7,-563.8L774.3,-556.5L777.8,-551.8L781.0,-549.8L782.7,-547.2L788.5,-543.6L795.7,-540.9L801.3,-540.3L807.2,-538.4L811.1,-536.2L816.2,-535.0L824.0,-535.2L828.7,-532.3L832.6,-531.5L840.4,-527.7L844.5,-526.7L848.2,-524.8L856.3,-522.5L860.3,-522.1L867.3,-520.1L871.8,-518.1L879.8,-514.0L883.6,-511.5L889.0,-509.7L894.5,-506.6L896.5,-504.8L902.8,-502.7L904.4,-503.4L903.5,-509.3L900.8,-512.8L897.4,-517.8L898.3,-518.3L907.1,-519.1L911.2,-520.7L908.5,-523.8L904.5,-524.1L902.6,-522.5L899.6,-524.3L897.8,-526.9L900.8,-526.0L902.8,-524.6L903.2,-527.6L904.7,-528.2L908.1,-527.6L912.0,-525.2L909.2,-530.1L907.1,-531.9L903.2,-534.3L899.5,-534.8L897.7,-536.4L899.7,-536.8L906.6,-535.0L904.2,-537.2L900.4,-538.0L895.1,-537.4L890.8,-536.1L889.9,-540.2L888.9,-542.2L885.0,-545.3L885.5,-550.5L888.2,-553.0L889.4,-557.0L888.8,-560.4L889.4,-564.6L895.2,-564.0L896.9,-561.1L897.7,-563.7L897.4,-565.5L904.7,-566.1L905.5,-566.7L906.3,-570.5L908.9,-570.0L911.2,-570.4L916.0,-569.0L919.1,-567.5L923.1,-567.5L927.1,-566.7L935.2,-566.7L939.6,-567.2L946.0,-569.7L946.0,-570.4L949.9,-569.3L954.6,-571.0L965.6,-571.1L965.8,-571.7L970.0,-570.7L979.0,-569.8L983.1,-567.7L990.7,-564.3L1001.6,-561.6L1010.0,-557.9L1016.5,-556.4L1020.3,-556.2L1022.5,-555.0L1026.7,-554.2L1036.9,-550.3L1041.7,-547.6L1047.8,-544.7L1053.9,-541.0L1062.1,-537.4L1073.6,-530.9L1085.3,-526.6L1089.3,-523.9L1092.8,-522.4L1099.7,-517.1L1107.4,-510.4L1109.9,-508.6L1113.8,-504.8L1119.5,-497.8L1119.2,-492.1L1121.5,-486.9L1115.2,-487.5L1115.7,-486.2L1120.4,-481.5L1116.4,-483.4L1118.1,-480.6L1124.1,-477.0L1127.8,-475.3L1132.4,-472.1L1133.8,-467.0L1136.0,-467.9L1140.5,-465.7L1137.4,-463.9L1133.4,-463.7L1129.8,-469.5L1127.2,-471.4L1125.8,-471.5L1118.1,-474.0L1108.6,-473.7L1107.2,-474.3L1096.3,-471.0L1095.5,-471.2L1090.5,-476.9L1082.4,-481.8L1083.1,-483.4L1081.3,-493.8L1078.5,-497.1L1071.9,-497.8L1067.5,-501.0L1064.7,-501.2L1061.3,-503.0L1055.6,-505.0L1050.8,-505.1L1048.3,-506.1L1039.5,-507.7L1031.8,-510.1L1031.0,-511.2L1024.8,-513.9L1021.4,-511.7L1016.3,-512.1L1017.3,-506.9L1020.9,-503.0L1026.1,-499.0L1027.8,-495.4L1033.0,-490.7L1038.2,-488.2L1042.6,-480.4L1046.6,-471.5L1042.4,-468.3L1040.6,-468.1L1038.1,-468.9L1035.3,-468.4L1034.8,-467.4L1031.9,-466.2L1030.0,-466.8L1028.8,-466.0L1029.5,-460.3L1026.8,-457.5L1025.9,-454.6L1024.9,-454.2L1027.1,-450.1L1026.4,-446.2L1024.9,-445.5L1027.7,-440.3L1028.6,-437.7L1026.5,-432.9L1025.4,-432.4L1019.2,-433.4L1017.8,-430.7L1011.7,-430.4L1006.5,-426.4L995.7,-423.6L992.1,-421.7L986.2,-420.1L984.2,-418.5L984.2,-417.4L979.6,-415.6L979.8,-414.2L977.5,-413.4L977.5,-411.1L976.7,-407.6L978.8,-405.0L978.3,-401.5L975.5,-393.1L976.3,-390.1L979.5,-384.4L980.4,-380.3L985.9,-370.8L987.6,-366.5L990.3,-363.5L1000.0,-356.1L1001.4,-356.1L1001.1,-362.1L1002.3,-362.4L1011.6,-361.4L1014.2,-359.4L1017.1,-356.3L1019.6,-354.2L1023.0,-352.8L1026.1,-350.9L1030.6,-349.0L1032.3,-347.6L1042.8,-341.9L1046.8,-343.1L1048.5,-342.1L1051.4,-336.3L1054.2,-332.7L1061.1,-325.3L1060.2,-321.2L1060.3,-318.6L1057.8,-313.1L1056.9,-312.7L1055.3,-307.6L1058.2,-302.6L1057.6,-298.0L1054.7,-295.7L1053.2,-292.5L1053.3,-289.4L1054.6,-285.7L1058.5,-279.5L1062.5,-274.1L1065.8,-272.2L1068.0,-267.8L1068.1,-264.2L1069.8,-260.6L1071.3,-252.0L1075.4,-243.1L1074.1,-240.1L1074.9,-238.5L1073.2,-231.6L1072.0,-228.7L1072.1,-221.8L1070.8,-219.9L1066.3,-216.5L1061.6,-217.8L1060.5,-214.7L1060.3,-211.7L1058.4,-209.0L1056.5,-208.5L1054.3,-206.7L1054.2,-201.4L1052.2,-198.4L1050.6,-193.6L1051.8,-190.0L1053.0,-181.5L1054.5,-173.0L1053.0,-169.9L1051.9,-169.6L1049.0,-164.6L1045.1,-161.8L1042.9,-163.0L1032.6,-165.3L1031.8,-165.1L1027.8,-157.2L1022.9,-151.0L1021.4,-145.7L1013.8,-138.6L1018.1,-133.3L1018.9,-129.8L1021.0,-127.7L1024.1,-123.0L1028.8,-119.6L1036.8,-118.7L1039.2,-119.9L1042.1,-118.1L1045.5,-114.8L1047.1,-111.3L1046.8,-109.1L1048.0,-107.2L1049.0,-102.9L1045.9,-101.8L1044.7,-99.3L1045.0,-97.8L1043.8,-95.1L1041.4,-92.9L1040.5,-90.7L1041.4,-87.2L1039.8,-83.2L1037.5,-82.3L1036.9,-78.9L1027.2,-79.9L1021.7,-68.5L1019.5,-68.9L1019.0,-67.3L1019.9,-65.0L1016.2,-63.9L1018.2,-60.9L1017.1,-55.9L1019.2,-51.2L1018.9,-50.5L1020.2,-41.6L1020.0,-35.1L1021.3,-32.7L1022.5,-27.9L1023.7,-27.5L1024.8,-23.5L1024.2,-21.5L1025.3,-18.4L1023.8,-18.0L1022.2,-10.3L1024.3,-8.2L1025.4,-4.9L1024.6,-3.3L1024.4,1.0L1014.0,2.8L1013.5,3.6L1010.5,1.0L1012.4,8.5L1006.7,14.8L1005.4,15.9L1001.0,15.5L997.7,14.1L994.5,15.9L992.6,18.1L991.5,18.2L986.1,16.3L982.8,15.9L978.7,17.5L976.7,18.8L975.9,21.6L976.4,22.9L976.3,29.4L974.5,33.1L972.8,34.0L970.8,38.4L967.2,36.7L965.4,39.3L963.2,36.8L959.9,37.6L958.7,39.6L962.2,45.2L962.3,50.9L949.3,47.3L927.6,42.6L914.4,40.4L898.9,43.0L897.9,42.9L896.5,40.0L893.3,35.2L893.0,39.1L892.1,41.1L891.9,45.8L890.5,50.1L891.9,51.9L892.0,54.0L890.7,57.8L891.0,62.8L892.5,65.5L889.2,66.2L887.2,69.8L887.6,72.4L883.4,70.8L882.7,67.0L881.3,63.7L880.4,67.2L878.6,68.9L875.7,68.9L873.6,70.7L875.2,72.7L874.5,74.4L869.6,71.7L868.4,71.6L867.3,77.2L865.4,79.9L862.4,80.7L858.7,75.5L850.1,71.0L846.7,70.0L845.5,72.1L845.2,75.7L840.6,76.9L834.8,81.2L832.9,89.3L834.9,91.3L833.2,94.6L833.2,96.5L826.1,109.0L823.2,113.1L821.6,114.6L821.3,117.6L822.5,120.1L817.5,124.4L816.1,126.6L814.9,130.4L813.2,132.3L811.0,137.1L808.2,140.4L807.9,142.1L804.7,145.1L804.5,146.6L799.0,148.9L798.5,151.3L802.4,156.8L805.3,157.1L805.7,159.8L810.6,158.2L814.6,157.6L816.2,160.1L811.3,163.1L808.8,165.6L810.0,171.5L815.5,174.8L815.0,179.5L813.7,180.7L812.1,185.8L813.0,187.0L815.3,186.5L818.8,187.9L824.9,186.5L828.2,185.0L831.0,185.3L832.2,186.5L834.7,192.9L834.4,195.2L832.9,198.2L830.8,200.7L827.6,202.4L823.8,202.3L824.9,208.2L823.5,210.4L821.6,209.0L819.0,210.4L807.9,209.6L803.2,213.6L803.5,214.8L802.1,217.8L798.4,217.3L796.7,217.9L794.2,221.5L793.6,221.5L791.5,226.4L792.0,228.9L790.2,233.0L788.8,233.6L784.4,233.5L781.6,232.8L777.0,232.8L776.6,233.6L781.0,239.1L770.8,234.8L762.5,233.2L761.2,233.3L757.6,236.0L753.6,237.5L749.4,236.1L747.8,237.8L746.1,242.8L743.8,244.3L740.6,242.7L736.6,243.4L735.9,251.2L734.6,254.3L730.6,260.0L731.0,264.5L728.3,271.0L726.6,271.7L729.4,275.3L733.6,279.9L732.4,283.3L730.1,284.9L722.0,280.8L718.6,280.0L717.8,280.6L717.3,291.7L718.5,298.0L722.7,301.8L723.4,304.6L722.7,309.5L723.6,313.6L725.4,315.9L730.7,316.7L732.1,318.0L734.2,321.9L735.5,322.9L745.8,319.1L753.7,323.8L761.5,330.2L757.7,333.8L766.9,334.8L766.8,336.2L765.1,340.7L763.9,341.6L763.1,345.1L760.3,350.8L754.5,354.6L755.7,355.5L756.8,363.9L757.1,370.2L756.4,370.2L754.8,374.5L756.5,378.3L758.5,377.9L763.3,379.3L764.8,380.3L770.5,388.1L769.5,383.1L770.1,381.9L771.4,388.6L773.6,393.1L774.4,396.3L781.5,401.0L786.2,403.6L790.7,406.6L795.5,408.8L795.3,413.7L792.5,420.4L791.6,423.5L785.6,424.9L783.1,422.8L775.4,419.6L772.6,419.9L771.3,420.2Z M555.5,-295.8L555.7,-291.6L555.1,-292.2L555.5,-295.8Z M554.5,-291.2L552.0,-291.9L552.8,-292.7L554.5,-291.2Z M535.5,-281.7L538.9,-282.4L537.9,-283.2L543.4,-288.1L549.3,-288.3L552.0,-286.7L553.8,-283.0L553.9,-280.6L555.1,-279.9L554.9,-274.7L555.7,-274.0L557.3,-268.1L552.0,-271.2L543.9,-273.7L543.5,-275.0L536.3,-276.6L534.4,-277.9L535.5,-279.8L532.2,-280.6L533.0,-281.6L535.5,-281.7Z M508.0,-209.5L512.4,-211.7L511.5,-209.6L508.0,-209.5Z M528.7,-274.3L527.2,-274.0L527.1,-274.3L528.7,-274.3Z M524.5,-253.5L524.2,-252.0L518.2,-250.3L517.4,-251.0L517.7,-253.6L521.2,-257.4L522.7,-256.6L524.5,-253.5Z M454.5,-159.8L450.9,-158.1L451.7,-161.0L454.5,-159.8Z M473.4,-175.2L471.3,-174.0L470.9,-176.8L473.4,-175.2Z M518.1,-268.8L519.4,-269.2L525.1,-267.5L522.1,-270.5L521.1,-272.8L525.7,-274.5L528.3,-273.4L532.8,-272.6L535.6,-271.1L540.6,-272.3L542.8,-270.5L542.4,-264.7L539.2,-262.9L538.2,-259.7L536.6,-259.5L537.2,-257.8L533.9,-256.8L530.5,-256.7L528.1,-253.8L525.9,-255.3L522.8,-258.4L518.3,-261.3L519.6,-261.9L518.1,-268.8Z M449.7,-159.3L447.6,-161.0L448.6,-161.5L449.7,-159.3Z M462.7,-174.9L466.0,-171.4L464.2,-170.0L460.5,-172.9L462.7,-174.9Z M456.7,-166.5L454.8,-164.9L452.7,-168.2L456.5,-168.2L456.7,-166.5Z M467.5,-173.8L465.1,-173.4L461.0,-176.2L464.2,-178.9L467.4,-178.9L465.9,-177.0L467.5,-173.8Z M455.3,-171.7L455.6,-170.8L454.0,-170.7L455.3,-171.7Z M435.2,-165.7L439.5,-165.7L438.5,-164.1L437.0,-164.9L437.4,-162.2L434.0,-158.9L431.5,-158.9L434.7,-163.5L435.2,-165.7Z M466.5,-190.0L469.3,-187.4L469.1,-182.7L467.5,-182.6L467.0,-180.6L463.9,-182.2L462.8,-183.4L463.4,-186.1L466.5,-190.0Z M440.9,-170.9L445.9,-170.5L446.7,-166.9L445.3,-165.6L443.7,-161.4L445.7,-158.4L444.8,-158.5L443.9,-155.7L443.1,-157.8L441.0,-155.9L438.9,-157.0L439.6,-162.0L442.6,-163.6L439.7,-167.9L440.9,-170.9Z M493.2,-227.8L492.7,-225.4L490.4,-226.7L491.8,-229.1L493.2,-227.8Z M463.0,-189.4L460.1,-189.9L461.5,-191.7L463.0,-189.4Z M448.2,-180.2L450.9,-180.3L453.3,-181.7L458.6,-180.7L457.5,-177.0L453.5,-176.4L450.5,-175.4L448.2,-180.2Z M457.0,-185.9L460.9,-183.2L458.8,-181.8L456.2,-182.3L454.9,-185.8L457.0,-185.9Z M470.6,-190.8L467.3,-190.5L466.4,-193.2L467.7,-195.4L465.7,-198.4L466.1,-198.9L471.0,-197.3L472.0,-193.7L470.6,-190.8Z M497.7,-256.6L498.9,-255.4L497.3,-252.7L495.6,-253.3L496.5,-255.7L497.7,-256.6Z M501.1,-268.3L503.3,-268.6L507.2,-270.8L508.3,-270.6L509.7,-268.5L516.5,-267.7L517.3,-261.5L519.3,-258.0L513.4,-253.1L511.7,-253.2L509.2,-256.6L504.9,-259.3L501.3,-259.6L497.1,-265.6L501.1,-268.3Z M454.8,-190.2L453.6,-189.2L452.9,-190.4L454.8,-190.2Z M448.9,-190.5L452.0,-190.2L453.6,-186.5L452.4,-185.0L449.9,-184.0L447.3,-183.8L448.2,-186.3L447.6,-189.2L448.9,-190.5Z M458.3,-201.1L455.4,-200.8L457.3,-202.1L458.3,-201.1Z M447.6,-193.2L445.9,-194.3L447.5,-196.4L448.9,-195.5L447.6,-193.2Z " data-iso="RUS" data-key="RU"/><path d="M446.9,439.6L447.7,440.5L448.5,441.7L451.4,443.2L453.2,445.3L455.7,450.3L463.7,454.1L462.5,456.9L464.6,458.6L462.8,459.7L472.3,463.4L473.6,462.9L475.1,460.7L476.8,459.9L478.7,460.6L477.9,462.6L478.0,465.4L480.2,467.3L480.4,467.5L480.0,467.8L479.5,470.4L478.1,471.6L477.4,475.8L480.5,481.0L482.4,481.9L486.3,484.8L486.3,485.6L483.7,490.4L480.9,491.6L481.0,495.3L482.5,498.3L481.5,500.4L480.6,500.8L480.2,500.7L475.1,501.4L473.1,502.6L471.6,503.2L470.9,503.2L470.6,502.7L472.3,497.0L472.0,495.6L467.7,495.0L467.7,493.6L462.9,489.7L460.1,488.6L458.9,487.3L457.3,488.5L457.6,491.3L455.9,492.9L456.0,494.6L454.5,495.3L454.5,494.8L449.1,491.5L445.6,490.5L439.0,485.0L439.0,484.8L439.7,483.9L442.3,481.5L440.6,479.3L440.1,476.9L442.9,475.6L439.6,472.8L436.9,471.3L436.6,468.7L438.7,462.0L434.9,462.2L434.5,462.3L434.3,461.7L435.4,460.4L434.7,457.6L438.6,456.3L433.5,453.2L433.9,451.0L432.7,450.6L431.4,444.7L431.5,444.3L431.7,444.3L437.7,441.0L439.4,439.4L446.5,439.3L446.9,439.6Z " data-iso="SRB" data-key="RS"/><path d="M466.3,386.5L465.2,389.4L464.9,391.7L463.2,395.0L463.5,397.7L463.3,398.0L459.0,399.4L456.9,397.1L454.8,396.4L452.8,397.4L446.5,397.5L443.5,402.3L438.9,405.6L437.9,405.3L431.9,407.4L427.9,408.2L426.3,411.1L426.2,412.9L415.2,414.2L409.8,410.9L408.2,410.6L407.9,410.8L407.1,410.2L404.2,404.5L404.1,403.6L404.8,401.0L404.9,400.8L405.1,399.4L407.2,396.1L410.5,396.4L414.3,394.4L416.9,391.8L419.6,386.9L421.9,384.0L424.2,383.5L424.4,383.4L425.6,383.5L428.1,384.9L429.1,382.9L431.5,381.6L433.0,383.6L438.6,387.6L441.6,383.7L444.4,383.2L448.7,383.6L449.4,382.1L455.6,381.4L462.4,385.0L465.6,385.7L466.4,385.8L466.3,386.5Z " data-iso="SVK" data-key="SK"/><path d="M401.4,436.6L400.2,436.6L395.9,441.2L392.4,442.8L392.1,444.4L393.1,446.4L392.7,449.0L388.6,451.0L389.7,452.4L389.6,455.5L388.5,456.0L383.1,455.6L380.5,452.8L378.0,455.8L374.6,456.0L372.2,456.9L368.5,455.6L369.2,455.2L370.2,454.3L372.0,453.8L368.5,447.6L367.4,447.8L368.8,444.3L366.3,443.7L365.9,441.9L369.2,439.3L369.4,438.4L369.9,438.4L379.5,440.0L387.1,435.5L393.5,434.0L395.7,434.4L396.5,431.5L397.1,431.1L399.3,431.1L400.1,433.4L402.3,436.6L402.5,437.0L401.4,436.6Z " data-iso="SVN" data-key="SI"/><path d="M390.2,270.1L389.0,269.9L388.8,265.5L390.4,260.1L391.3,259.6L393.7,252.9L391.9,261.2L390.2,270.1Z M411.4,241.8L409.2,244.2L409.4,248.0L410.7,249.4L409.1,252.2L406.4,255.1L404.7,254.5L403.3,247.4L406.5,242.4L408.9,242.1L409.1,240.9L411.4,241.8Z M411.9,240.3L410.9,240.6L411.6,239.3L411.9,240.3Z M403.9,214.6L404.0,213.3L404.7,213.4L403.9,214.6Z M428.8,103.1L422.0,104.2L420.5,103.0L419.3,104.5L418.0,103.9L417.9,108.1L416.7,108.1L415.7,110.0L413.6,112.0L414.4,116.7L412.1,122.4L415.8,127.8L412.9,133.1L411.8,138.5L408.1,142.5L402.0,146.4L400.0,150.7L397.3,152.0L396.3,156.9L391.7,157.8L393.5,162.2L392.0,164.0L388.7,164.2L389.1,167.2L389.4,175.1L390.5,178.1L388.2,177.6L388.6,185.2L390.3,194.9L391.3,195.8L396.4,196.2L397.0,197.5L402.1,201.4L402.7,203.6L404.4,204.1L406.6,208.2L402.2,214.4L398.6,217.0L396.9,216.2L396.9,213.9L393.2,213.7L393.2,215.2L388.5,214.0L387.8,214.8L386.1,213.8L385.4,215.4L382.6,216.8L389.3,216.3L393.0,219.0L398.0,218.6L403.8,215.9L404.4,217.0L402.7,217.8L402.5,219.7L400.3,221.9L395.0,225.9L391.1,229.7L385.1,230.0L390.8,232.5L388.4,233.7L389.3,238.3L389.6,242.4L388.4,244.3L389.7,250.7L388.4,253.6L389.2,256.9L388.0,263.1L386.9,265.3L385.3,271.6L383.8,273.4L380.7,272.6L379.0,273.2L376.3,273.0L371.7,275.4L368.6,279.2L370.1,284.3L368.5,286.6L364.9,286.2L360.3,287.8L356.0,286.8L356.7,281.0L352.8,274.5L352.0,271.9L353.9,272.8L353.3,269.3L355.8,268.0L355.4,266.2L350.9,261.4L348.3,256.0L347.4,252.3L346.5,252.7L345.7,248.3L344.4,247.7L344.0,243.4L342.6,242.9L341.7,240.9L341.5,237.1L340.1,234.8L339.1,227.3L339.3,224.6L340.2,224.5L341.0,225.3L343.3,227.2L344.6,221.0L343.5,215.9L348.8,209.4L350.4,207.0L351.1,201.2L348.6,193.7L348.4,191.9L351.7,191.0L353.2,185.8L352.1,184.3L347.1,179.7L348.1,171.3L346.5,165.0L347.2,158.0L345.4,153.1L347.0,149.7L346.7,148.0L350.5,141.8L354.3,139.7L360.1,140.5L361.3,136.3L359.0,132.1L357.3,131.0L360.5,124.8L362.0,120.9L363.5,110.3L362.5,104.7L365.1,104.2L368.9,101.4L368.3,98.3L373.2,89.8L374.3,86.7L371.8,82.3L373.8,80.0L375.5,74.1L378.6,70.3L382.7,72.3L383.5,70.1L383.3,63.8L384.5,62.0L387.1,62.8L396.5,62.1L394.6,61.2L396.3,57.4L396.3,55.8L394.4,53.2L396.7,52.6L397.5,52.5L399.3,53.2L401.5,55.5L407.5,59.8L412.8,61.2L417.1,64.9L420.1,75.5L420.8,75.9L423.0,82.1L425.9,86.0L425.3,93.5L427.7,97.0L430.6,102.4L428.8,103.1Z " data-iso="SWE" data-key="SE"/><path d="M532.3,530.1L529.4,531.2L529.1,529.6L532.2,529.4L532.3,530.1Z M717.3,451.4L721.5,451.2L722.3,449.7L725.7,448.5L728.9,448.0L729.4,445.6L730.5,444.6L742.4,448.5L742.8,449.1L745.8,450.4L748.5,454.5L747.9,457.9L750.8,461.3L751.3,463.2L755.3,463.4L759.2,461.3L763.4,462.3L766.4,463.7L767.6,464.9L764.5,464.1L763.7,466.4L764.5,470.7L760.5,473.0L762.1,475.7L763.7,476.3L765.0,479.8L766.8,480.8L769.7,487.4L772.3,488.2L771.9,489.6L772.3,496.5L773.8,496.0L777.9,497.2L779.9,501.8L783.2,503.2L783.1,505.3L781.1,506.3L778.2,510.9L775.3,506.5L773.3,506.8L771.7,509.2L767.6,510.6L761.6,510.8L760.0,512.3L757.3,512.7L756.7,515.1L754.1,518.8L752.8,517.1L749.8,518.7L743.6,523.4L738.5,525.5L736.5,525.8L730.7,529.9L726.2,535.0L718.5,540.5L715.4,541.7L709.8,543.0L705.9,541.7L702.5,542.2L694.1,549.8L689.2,551.3L683.2,550.5L683.3,556.7L683.0,565.0L681.4,566.7L681.3,568.7L677.4,568.4L677.9,566.8L674.6,562.2L677.8,554.9L676.2,551.9L674.8,551.3L670.7,555.9L670.5,557.3L667.9,559.5L664.8,559.4L657.8,558.2L656.6,559.2L653.4,563.3L647.3,572.7L645.2,573.9L637.5,576.9L636.0,578.4L632.2,578.3L623.7,572.8L620.2,572.4L613.8,570.7L604.2,571.9L603.6,573.3L604.3,577.9L603.7,582.6L600.7,582.6L598.9,584.1L594.0,586.8L589.0,586.2L585.8,584.5L583.4,579.8L579.1,580.6L575.6,579.6L573.2,580.0L572.2,582.4L569.8,583.2L570.5,581.6L566.7,582.7L565.0,584.1L564.3,582.3L568.3,581.1L571.5,577.1L559.8,579.1L558.8,580.1L558.3,578.4L561.8,576.2L561.3,574.8L556.4,571.6L555.3,569.8L555.2,563.3L550.3,562.9L547.3,561.0L545.3,562.0L541.9,560.7L543.3,557.6L542.2,555.7L543.8,554.2L546.8,558.7L546.9,557.5L549.1,557.6L552.1,556.3L549.4,555.7L548.3,554.6L548.5,550.7L549.5,548.6L547.5,548.3L546.8,545.1L544.2,541.7L545.3,540.1L545.0,537.7L536.1,541.0L536.1,537.7L535.4,532.1L537.0,531.1L538.5,527.8L541.3,523.8L544.8,523.1L548.0,521.4L550.9,523.2L554.1,522.4L555.5,521.2L553.6,519.8L561.0,519.6L570.1,517.8L566.8,516.0L568.6,513.9L575.3,511.0L579.4,509.5L573.1,509.8L568.4,507.3L568.3,505.7L571.0,502.9L578.8,502.4L583.9,500.3L590.1,500.8L595.5,499.0L596.5,497.8L597.2,494.8L603.8,488.2L605.9,485.2L608.4,483.1L613.0,480.3L617.7,476.7L627.8,474.7L634.5,472.8L637.1,470.1L639.1,470.1L639.3,472.5L645.9,475.1L651.6,472.4L654.4,476.1L657.9,477.7L659.2,477.5L661.9,474.7L665.0,475.3L666.3,476.5L671.1,476.2L675.3,475.3L677.5,476.0L683.6,475.2L685.6,474.3L688.7,471.7L695.1,467.7L700.4,468.0L704.4,467.2L705.9,466.2L710.1,461.9L711.1,459.9L716.7,453.3L717.3,451.4Z M552.2,496.0L555.9,500.5L558.0,501.6L566.3,503.6L567.7,503.6L567.3,507.6L565.2,508.7L558.7,508.4L554.4,510.7L552.1,510.8L549.1,512.2L548.6,514.6L547.0,517.6L541.4,522.0L535.4,530.6L535.4,526.4L536.4,524.9L540.6,521.4L541.2,519.8L532.6,521.7L531.9,520.6L531.4,520.0L534.5,514.6L533.5,510.6L536.6,508.0L533.1,502.7L531.9,502.6L531.8,502.1L539.0,495.8L542.2,493.9L546.4,496.1L552.1,494.0L552.2,496.0Z " data-iso="TUR" data-key="TR"/><path d="M582.7,411.6L579.2,412.4L578.2,411.6L582.7,411.6Z M646.5,375.4L642.6,376.5L639.6,377.9L638.3,381.3L634.4,384.4L633.5,386.7L629.4,387.8L628.1,389.5L625.3,390.3L623.3,391.8L619.9,397.3L619.2,400.7L618.8,397.9L617.7,396.9L616.7,400.4L614.8,402.4L615.3,404.4L619.2,409.9L623.2,413.2L627.2,414.4L632.1,411.7L638.3,409.2L638.0,415.3L636.3,416.6L632.4,418.2L628.4,417.5L626.7,420.6L624.8,422.7L624.5,424.5L620.2,425.7L617.8,428.0L616.5,431.7L614.7,434.3L609.8,435.6L606.8,434.3L607.0,427.9L605.5,425.0L603.2,424.0L597.0,422.9L592.0,423.3L597.7,415.5L602.6,410.5L601.9,409.2L599.5,409.5L596.3,408.2L588.6,412.1L582.8,410.6L579.6,410.3L581.9,408.5L581.7,407.8L576.0,407.1L577.8,406.6L585.5,406.0L587.2,403.0L585.0,404.5L582.3,404.7L579.4,402.1L579.3,400.9L576.5,396.3L575.4,395.6L578.4,399.9L579.2,404.6L575.3,405.4L575.1,403.4L573.1,406.9L571.0,407.2L567.5,409.4L567.1,414.6L563.7,422.5L559.7,425.9L558.1,425.9L557.7,428.8L558.7,429.6L560.2,432.7L560.3,434.2L556.1,432.3L554.1,433.1L549.3,437.2L543.8,436.4L542.1,435.0L542.6,434.3L545.0,433.4L544.6,430.6L546.7,426.9L548.6,420.7L547.5,419.0L547.0,416.1L549.5,414.7L550.1,416.8L556.1,414.3L557.4,415.5L560.5,413.5L557.6,412.1L556.6,408.1L552.3,406.3L549.9,400.7L547.6,399.7L544.0,391.6L542.9,390.4L541.4,391.4L538.4,388.8L535.6,388.9L535.1,390.0L533.4,388.3L530.3,388.2L526.8,386.1L523.6,385.8L520.4,388.3L516.1,388.9L514.2,390.9L514.0,391.6L513.6,391.9L510.7,393.2L509.9,397.1L502.3,400.0L496.5,404.4L492.3,401.4L487.8,402.6L481.4,402.1L478.9,402.6L476.4,401.4L473.4,403.9L473.0,404.3L472.8,404.1L471.4,401.7L466.3,399.9L464.6,397.5L463.5,397.7L463.2,395.0L464.9,391.7L465.2,389.4L466.3,386.5L466.4,385.8L466.8,385.6L469.8,385.4L466.6,378.6L466.8,376.5L469.6,370.9L475.6,361.7L478.3,360.7L479.0,357.0L477.3,354.3L478.2,352.6L476.2,350.9L472.2,345.3L471.9,343.7L471.2,342.6L471.3,342.5L470.9,341.0L476.2,339.2L478.0,335.4L494.1,331.6L503.3,332.2L507.2,331.7L509.0,333.8L519.7,332.0L523.0,331.9L523.9,333.2L527.4,329.4L530.8,332.4L539.4,329.1L541.8,331.2L544.7,329.9L542.7,326.1L543.0,322.2L545.2,317.5L546.0,316.7L550.9,314.8L552.8,314.4L553.0,314.4L556.6,314.2L558.0,309.9L560.8,309.0L571.3,304.6L572.2,304.9L576.9,309.5L580.8,311.9L578.6,314.4L582.0,321.2L590.6,319.2L594.4,321.3L594.3,321.9L597.0,325.7L597.8,328.9L601.5,331.2L602.4,329.8L605.7,328.7L611.2,329.9L618.1,324.2L619.0,324.0L623.6,327.9L628.2,329.6L629.6,326.7L632.1,327.4L637.7,327.9L643.8,327.3L648.1,328.5L651.4,327.8L653.4,333.4L650.7,338.0L653.3,339.4L652.7,343.7L655.1,345.0L658.1,348.9L658.5,356.7L648.9,360.5L648.5,362.9L644.8,367.1L645.3,371.4L646.8,375.0L646.5,375.4Z " data-iso="UKR" data-key="UA"/><path d="M355.9,517.8L355.8,517.6L355.9,517.6L355.9,517.8Z " data-iso="VAT" data-key="VA"/></g></svg>