<?xml version="1.0" encoding="utf-8"?><!DOCTYPE svg  PUBLIC '-//W3C//DTD SVG 1.1//EN'  'http://www.w3.org/Graphics/SVG/1.1/DTD/svg11.dtd'><svg enable_background="new 0 0 700 915" height="915px" pretty_print="False" style="stroke-linejoin: round; stroke:#000; fill: none;" version="1.1" viewBox="0 0 700 915" width="700px" xmlns="http://www.w3.org/2000/svg" xmlns:xlink="http://www.w3.org/1999/xlink"><defs><style type="text/css"><![CDATA[path { fill-rule: evenodd; }]]></style></defs><metadata><views><view h="915.240418178" padding="0" w="700"><proj dist="10" id="satellite" lat0="-22" lon0="-68" tilt="0" up="-15"/><bbox h="1204.21" w="922.02" x="628.28" y="394.5"/></view></views></metadata><g class="" id="layer0"><path d="M425.3,882.2L425.0,884.5L425.9,883.5L425.3,882.2Z M385.9,867.2L390.3,883.2L391.2,886.3L392.7,892.3L392.9,892.0L412.9,888.4L419.3,885.6L419.4,882.7L415.5,883.9L409.1,882.9L401.3,880.3L394.0,876.3L386.5,867.6L385.9,867.2Z M413.0,680.5L411.2,680.8L412.7,681.3L413.0,680.5Z M295.9,468.0L299.0,469.9L298.3,485.7L288.1,493.9L285.7,498.1L286.5,502.0L289.1,504.2L287.9,505.6L287.8,510.5L292.3,518.1L292.0,525.0L297.1,530.5L291.1,534.8L290.0,546.7L287.1,553.0L285.9,558.7L285.9,566.3L285.1,568.0L289.4,579.7L290.6,580.4L287.5,584.4L287.4,592.2L288.4,593.7L287.3,602.2L292.8,606.4L294.2,611.3L299.4,619.5L299.8,622.9L303.2,623.2L303.8,627.7L306.6,636.1L304.0,650.4L302.5,652.3L306.6,658.9L305.0,668.4L302.0,671.2L303.6,682.0L305.9,688.0L312.2,700.3L308.1,705.1L309.1,707.9L307.6,714.5L309.2,722.7L310.8,724.2L311.2,731.4L313.0,737.9L317.3,746.6L314.4,750.2L317.8,759.9L323.6,765.5L326.1,775.7L332.4,774.7L326.4,781.2L326.1,782.9L330.7,782.5L334.1,785.0L333.8,788.9L332.0,792.3L334.2,795.9L333.2,797.0L335.5,813.0L333.8,815.5L334.3,821.8L337.3,824.3L335.6,828.6L336.6,832.5L333.8,835.6L334.1,839.3L331.2,840.3L333.2,847.5L340.0,856.1L342.6,854.1L346.9,853.4L351.5,864.9L355.7,867.4L372.4,862.9L379.3,862.6L386.5,863.3L386.8,862.7L377.7,852.5L375.5,849.2L374.2,850.0L379.6,837.4L379.4,836.0L384.3,832.3L383.8,825.8L384.4,820.6L396.7,804.2L394.1,802.8L395.9,799.5L395.7,796.6L392.4,794.1L386.1,795.1L377.5,790.8L373.8,785.1L375.6,778.2L384.2,767.7L388.6,764.3L391.0,759.4L389.5,750.3L389.9,746.6L393.6,740.4L396.3,738.6L389.3,736.2L389.6,734.9L394.2,731.7L403.3,733.5L403.6,730.0L402.5,726.5L400.3,724.6L395.9,727.6L397.9,729.1L393.1,730.6L392.1,728.7L387.8,727.5L386.7,726.0L383.1,714.8L383.1,710.6L385.4,710.2L393.7,710.8L397.9,711.8L406.4,709.2L412.6,703.7L412.8,701.6L409.9,695.6L410.1,692.1L411.9,690.0L411.6,683.7L408.6,682.5L408.6,676.4L410.2,677.5L434.6,671.0L443.2,666.8L451.8,661.7L457.2,656.8L459.1,650.4L462.0,645.6L465.5,636.4L463.7,629.6L461.6,630.1L457.4,627.9L455.6,622.2L457.3,618.8L456.9,616.8L449.1,611.6L442.7,609.9L440.0,607.1L440.3,603.3L437.2,596.2L437.4,590.7L439.4,587.3L438.5,579.9L438.5,578.6L438.0,563.3L439.4,554.8L438.0,551.2L439.8,545.4L440.2,544.8L440.6,544.0L445.4,536.8L452.2,524.9L457.3,514.5L459.5,514.5L458.6,512.0L463.9,506.6L468.2,500.6L474.2,497.7L479.6,492.3L479.5,481.0L476.2,472.6L471.5,470.2L467.4,471.6L466.4,471.8L467.2,478.0L466.3,487.7L463.0,492.4L459.6,494.2L456.9,500.7L452.3,500.0L448.3,504.4L447.2,503.6L425.9,504.6L420.6,506.3L419.8,504.7L422.9,499.0L424.0,495.4L423.2,490.8L425.6,486.5L428.4,479.2L424.6,473.1L405.6,468.4L395.1,463.6L392.0,463.0L382.1,462.9L367.6,456.0L360.3,449.1L353.8,445.3L353.4,445.0L353.1,444.8L350.6,442.9L344.5,443.6L335.4,446.8L332.5,457.9L327.7,451.0L321.3,450.7L313.1,452.9L304.9,450.3L304.2,455.2L300.0,457.8L297.4,462.9L296.1,467.2L295.9,468.0Z " data-iso-a2="AR" data-key="ARG" data-label="Argentina"/><path d="M407.0,402.4L409.6,399.3L405.3,396.6L408.2,383.8L407.5,383.9L408.4,372.8L403.8,366.2L394.2,361.6L391.4,353.5L392.5,350.9L391.9,348.0L390.0,349.0L367.1,352.8L363.6,341.9L358.5,338.0L361.9,336.4L360.0,329.9L357.7,326.2L356.6,321.8L354.4,318.9L345.6,316.3L335.9,319.0L330.1,314.9L320.6,314.7L304.6,310.6L298.2,312.3L295.8,312.3L284.0,304.9L282.5,304.8L277.8,298.2L278.2,295.7L272.5,277.9L270.5,279.7L260.8,282.5L256.7,284.6L244.9,296.6L239.9,300.5L237.0,305.1L230.7,309.2L230.3,308.5L220.6,309.8L219.0,310.3L221.5,312.8L237.1,328.3L236.8,343.3L236.2,346.2L240.8,352.2L237.5,359.5L237.9,366.1L240.4,367.8L239.7,376.1L243.7,381.2L249.5,382.4L247.6,384.4L247.0,388.8L242.2,397.5L245.0,401.3L245.0,401.3L245.6,402.9L249.8,406.9L252.7,407.4L253.6,410.7L258.6,420.5L264.9,423.6L264.5,429.8L266.5,431.0L266.9,433.7L265.3,434.5L267.4,440.4L270.4,441.4L271.2,445.9L272.6,445.9L277.6,452.1L287.0,470.4L289.5,470.7L293.8,469.1L295.9,468.0L296.1,467.2L297.4,462.9L300.0,457.8L304.2,455.2L304.9,450.3L313.1,452.9L321.3,450.7L327.7,451.0L332.5,457.9L335.4,446.8L344.5,443.6L350.6,442.9L353.1,444.8L353.4,445.0L353.5,444.2L354.5,427.2L352.8,420.1L355.1,414.1L356.7,405.4L379.0,395.4L391.2,392.7L404.9,397.8L406.0,400.3L406.2,402.7L407.0,402.4Z " data-iso-a2="BO" data-key="BOL" data-label="Bolivia"/><path d="M546.1,491.7L545.1,489.0L545.3,492.4L546.1,491.7Z M542.8,472.1L543.5,469.3L542.9,468.7L542.8,472.1Z M579.3,431.0L579.2,429.4L576.9,431.3L579.3,431.0Z M591.8,418.8L590.4,417.9L589.6,420.0L591.8,418.8Z M536.9,138.1L536.4,135.2L536.0,139.5L536.9,138.1Z M526.3,117.6L524.8,117.1L524.7,118.5L526.3,117.6Z M433.0,130.0L437.3,126.4L439.5,118.8L437.8,117.4L433.1,122.2L433.9,125.2L433.0,130.0Z M458.9,110.5L450.0,110.1L445.2,112.8L444.8,117.8L447.0,125.4L450.8,131.0L462.0,130.8L469.1,127.4L469.2,124.9L473.8,124.0L473.1,121.9L475.2,118.5L475.8,109.3L473.0,108.8L462.9,109.2L458.9,110.5Z M444.6,111.1L439.8,111.4L441.5,114.1L444.6,111.1Z M461.0,108.7L460.9,106.5L455.6,109.1L461.0,108.7Z M455.6,104.4L448.4,105.8L447.8,107.1L453.1,108.6L456.3,105.0L455.6,104.4Z M446.7,107.2L445.7,103.6L444.3,108.6L447.0,109.1L446.7,107.2Z M449.5,103.5L450.6,101.7L447.5,101.3L449.5,103.5Z M441.9,84.4L440.5,82.0L438.6,82.4L441.9,84.4Z M285.6,69.2L286.0,69.3L288.4,71.9L284.6,77.5L278.1,81.1L277.4,82.7L269.7,86.9L265.9,87.0L261.6,95.3L253.0,92.7L251.1,93.8L243.2,94.6L231.9,93.9L242.5,99.8L243.8,104.5L248.6,110.4L248.6,111.7L258.2,111.6L258.7,114.0L252.0,119.0L250.7,123.9L238.5,133.7L234.8,140.3L232.7,137.6L230.3,137.5L226.2,141.2L222.2,142.4L217.6,140.5L213.2,138.6L210.7,139.8L208.2,133.4L203.7,129.5L198.2,134.9L195.8,136.0L192.2,133.8L193.3,137.1L176.3,141.7L170.0,143.7L172.1,151.9L182.4,151.7L182.0,155.1L178.6,154.6L171.0,158.8L172.6,166.0L180.5,171.1L184.8,176.6L186.5,182.0L189.0,220.5L188.9,221.0L189.1,221.9L175.3,226.5L163.7,232.1L157.7,238.0L153.9,243.2L150.3,259.2L153.0,263.7L146.7,271.0L146.1,274.8L147.8,278.0L145.2,282.1L148.4,283.8L159.0,293.9L164.8,297.2L165.3,298.9L163.2,303.8L174.9,301.7L179.5,307.7L187.4,305.3L195.3,299.5L199.8,294.1L204.5,315.3L207.2,314.7L217.7,310.7L219.0,310.3L220.6,309.8L230.3,308.5L230.7,309.2L237.0,305.1L239.9,300.5L244.9,296.6L256.7,284.6L260.8,282.5L270.5,279.7L272.5,277.9L278.2,295.7L277.8,298.2L282.5,304.8L284.0,304.9L295.8,312.3L298.2,312.3L304.6,310.6L320.6,314.7L330.1,314.9L335.9,319.0L345.6,316.3L354.4,318.9L356.6,321.8L357.7,326.2L360.0,329.9L361.9,336.4L358.5,338.0L363.6,341.9L367.1,352.8L390.0,349.0L391.9,348.0L392.5,350.9L391.4,353.5L394.2,361.6L403.8,366.2L408.4,372.8L407.5,383.9L408.2,383.8L405.3,396.6L409.6,399.3L407.0,402.4L406.2,402.7L406.7,403.7L413.0,413.8L414.5,430.0L418.7,429.5L428.3,429.8L434.8,425.9L437.2,428.0L445.9,431.7L449.8,445.2L455.3,450.7L462.1,446.4L467.5,449.0L467.7,452.8L466.1,469.7L466.4,471.8L467.4,471.6L471.5,470.2L476.2,472.6L479.5,481.0L479.6,492.3L474.2,497.7L468.2,500.6L463.9,506.6L458.6,512.0L459.5,514.5L457.3,514.5L452.2,524.9L445.4,536.8L440.6,544.0L440.2,544.8L441.1,545.7L443.2,545.6L447.0,542.3L451.0,542.7L458.6,547.7L463.2,553.3L465.9,549.6L472.0,554.7L479.4,556.4L482.4,559.6L489.6,562.7L492.7,567.4L498.8,571.2L494.8,578.2L495.4,582.9L497.6,586.0L502.3,580.3L506.2,572.0L507.5,565.5L509.6,561.2L508.9,554.4L510.6,549.0L512.9,547.2L516.3,540.9L516.2,538.4L518.1,533.6L525.3,531.8L523.5,533.7L521.4,543.7L518.5,549.7L511.8,556.5L510.5,560.3L519.9,549.6L525.3,540.3L528.4,533.0L530.6,523.5L535.9,512.2L543.5,503.8L544.9,496.3L544.4,483.5L541.9,472.3L540.5,470.5L543.7,460.2L539.9,459.2L543.0,457.5L542.5,456.2L545.8,455.7L545.8,457.3L552.2,447.2L557.3,442.3L560.2,438.2L562.9,436.0L574.1,429.7L575.9,430.1L586.0,420.6L585.5,418.1L594.7,415.1L596.7,415.8L594.6,417.9L602.6,415.6L602.1,412.1L605.7,414.9L615.7,413.7L617.6,411.3L616.9,408.4L619.8,404.2L627.8,399.1L626.6,392.1L627.3,388.1L633.0,378.1L638.2,364.4L639.4,359.0L637.9,349.9L638.3,344.3L643.3,336.2L641.8,328.7L643.3,309.9L640.7,301.3L638.7,292.9L638.5,283.7L636.1,278.0L638.8,264.3L641.2,266.1L641.9,268.8L644.8,267.1L649.8,256.6L653.8,243.7L653.5,242.1L664.7,228.2L668.8,220.8L672.5,212.4L673.4,201.1L672.4,191.7L667.5,178.3L662.1,167.3L659.2,163.2L657.0,161.6L651.5,160.6L644.3,161.3L636.6,159.0L634.4,156.4L630.0,154.9L623.6,150.1L616.7,143.7L613.8,143.0L608.9,139.7L595.1,133.3L578.2,135.2L570.4,133.1L565.7,134.0L555.7,130.4L551.6,129.6L549.1,131.4L544.1,133.0L540.5,136.1L537.8,135.4L537.8,138.1L536.0,140.9L534.5,136.0L535.1,128.1L532.9,131.0L533.4,126.7L530.1,123.5L524.3,119.8L521.8,123.3L518.8,118.8L511.4,117.3L510.1,116.3L502.1,115.3L501.5,114.7L489.9,112.4L490.6,113.8L483.3,114.7L482.1,114.0L478.3,122.6L480.6,124.4L475.8,125.1L469.3,137.3L467.7,136.6L468.5,129.2L465.2,131.4L456.2,133.3L454.6,134.8L445.8,125.4L444.1,121.8L432.0,132.2L428.7,133.4L426.9,132.5L427.3,129.8L430.3,129.9L432.1,125.9L432.4,121.1L435.8,111.6L438.1,110.6L446.0,98.2L450.2,93.4L447.5,87.3L440.1,86.1L435.5,82.7L434.3,79.8L426.6,69.2L424.9,64.5L421.3,59.7L419.4,58.3L416.2,58.6L415.5,60.9L409.7,74.6L405.2,86.0L402.8,86.5L398.8,85.3L393.4,86.6L389.1,89.3L381.5,88.4L381.2,88.3L380.5,88.4L372.4,86.9L370.1,88.7L362.8,89.3L360.2,92.2L364.2,94.9L364.1,97.3L357.1,97.6L356.6,97.6L356.1,97.9L351.9,99.2L347.5,98.3L339.1,104.0L331.9,106.8L330.6,111.1L326.5,113.0L320.2,111.9L313.8,108.7L309.7,102.2L304.6,96.8L304.5,90.0L303.7,86.3L306.7,81.2L300.8,75.4L296.2,75.6L296.5,68.5L295.1,68.0L286.8,68.7L285.6,69.2Z " data-iso-a2="BR" data-key="BRA" data-label="Brazil"/><path d="M404.3,901.5L402.7,901.1L402.2,901.4L404.3,901.5Z M406.2,892.3L404.3,890.7L397.3,891.9L398.5,895.1L405.1,894.1L406.2,892.3Z M384.6,895.3L383.0,895.3L384.0,898.5L387.6,899.9L388.6,897.1L392.2,897.3L393.5,899.0L396.8,896.6L394.6,893.0L391.3,894.6L384.6,895.3Z M374.2,897.6L375.3,899.6L380.5,898.2L378.9,896.8L374.2,897.6Z M367.9,889.3L364.9,888.8L361.3,891.4L364.4,893.6L370.0,889.6L367.9,889.3Z M353.3,886.8L346.8,888.0L346.0,889.8L351.1,890.5L353.0,893.1L356.1,890.7L355.5,893.6L359.8,891.0L358.6,887.7L353.3,886.8Z M338.9,884.2L350.3,886.1L347.5,884.3L338.9,884.2Z M392.7,892.3L391.2,886.3L390.3,883.2L385.9,867.2L385.6,867.0L378.7,867.1L374.3,874.0L373.2,878.8L376.3,879.3L377.8,878.1L382.4,877.6L377.4,884.8L379.5,886.9L386.8,887.9L387.0,890.3L379.0,890.3L376.6,888.6L373.4,882.7L371.6,886.4L378.3,891.8L372.7,892.6L368.5,894.1L366.6,896.9L377.9,895.9L381.6,894.9L383.7,893.0L391.5,892.6L392.7,892.3Z M336.6,872.4L333.1,870.9L333.8,872.1L336.6,872.4Z M329.5,870.8L327.8,873.3L333.5,877.7L333.4,873.8L329.5,870.8Z M330.2,866.0L328.3,865.7L325.1,867.6L325.1,871.2L330.5,867.0L330.2,866.0Z M321.1,861.2L320.8,860.2L321.3,862.3L321.1,861.2Z M321.5,856.1L321.0,853.6L317.8,853.6L318.2,857.7L321.5,856.1Z M314.3,839.3L310.0,842.0L311.9,845.2L314.0,842.4L314.3,839.3Z M321.4,841.2L319.4,837.4L315.7,837.4L314.8,843.2L316.5,844.3L313.5,846.4L317.3,851.6L319.6,850.7L318.8,847.0L320.2,845.1L322.7,852.0L321.4,841.2Z M310.3,839.5L312.9,836.9L312.0,834.5L307.9,830.4L306.6,831.5L310.3,839.5Z M318.1,834.9L311.3,828.1L310.1,831.4L318.1,834.9Z M309.7,827.5L308.3,826.4L307.9,827.0L309.7,827.5Z M307.4,799.2L307.9,798.6L305.1,792.8L303.6,800.0L307.4,799.2Z M296.6,791.6L295.3,791.0L295.8,791.6L296.6,791.6Z M310.1,786.5L307.5,783.7L307.4,784.5L310.1,786.5Z M316.3,784.1L312.2,779.2L311.1,783.7L312.9,785.8L316.3,784.1Z M307.2,781.5L303.5,779.1L299.7,787.3L307.3,792.5L307.8,794.1L310.5,790.4L305.5,784.7L307.2,781.5Z M303.9,774.6L301.2,776.3L302.9,776.3L303.9,774.6Z M294.4,774.5L292.6,774.3L293.1,775.2L294.4,774.5Z M302.2,768.5L303.8,762.3L300.0,754.7L300.8,754.0L298.2,749.4L296.1,749.8L293.3,752.4L294.9,760.2L295.4,768.3L297.4,769.6L302.2,768.5Z M201.2,660.3L201.3,659.7L199.2,661.2L201.2,660.3Z M245.0,401.3L244.2,402.5L242.9,409.2L242.8,410.8L236.1,416.5L237.1,417.1L241.7,429.0L247.2,442.0L248.5,449.2L253.0,459.6L255.0,475.2L254.4,482.6L253.0,483.3L254.0,487.8L257.4,491.2L256.9,493.3L258.4,501.2L263.1,512.6L262.2,522.2L264.0,524.8L265.6,533.5L265.9,544.2L266.8,546.9L265.9,550.6L266.6,564.6L265.1,568.9L266.6,572.6L270.6,578.2L271.6,585.3L269.2,588.9L272.8,600.4L281.5,620.1L279.9,627.1L283.2,634.4L281.9,637.2L282.8,655.8L280.4,663.8L281.6,666.0L280.3,669.5L281.1,675.4L279.6,680.2L279.2,688.1L276.5,688.4L278.1,695.4L280.7,697.7L283.3,705.5L289.6,713.9L290.2,716.6L288.1,725.0L290.2,740.8L294.9,745.8L295.4,748.1L300.7,747.0L302.0,743.3L304.2,742.6L305.5,747.4L309.2,747.3L311.8,752.9L308.8,753.4L309.9,762.0L310.9,777.3L318.0,778.8L318.5,782.8L314.4,787.1L313.8,791.1L316.0,790.7L319.2,792.4L315.0,792.7L312.0,794.9L312.2,796.9L315.2,800.8L312.2,799.8L311.8,802.8L311.0,794.8L308.4,795.8L309.6,798.9L301.0,803.7L303.7,806.7L298.9,814.4L304.6,812.8L309.1,814.6L312.3,812.6L314.7,814.3L313.3,824.5L318.4,826.5L321.7,821.3L322.2,826.3L315.2,827.9L318.3,833.1L320.1,834.3L321.8,839.7L325.2,844.6L325.7,840.0L328.3,844.0L325.5,845.5L325.6,848.2L329.3,850.1L324.7,853.8L331.2,855.4L333.2,859.3L334.7,857.2L334.8,860.3L331.1,859.3L326.1,855.8L322.9,860.7L327.0,864.3L335.4,864.3L335.7,868.2L337.4,870.3L340.4,870.3L343.6,872.0L349.1,866.9L343.1,864.2L349.2,865.7L351.3,871.0L350.8,873.8L349.1,869.3L345.9,872.1L343.3,879.5L348.1,876.5L344.6,881.3L350.4,881.4L351.7,875.4L361.5,873.5L357.7,875.1L351.3,879.1L351.9,884.8L356.2,883.1L363.1,875.0L365.4,875.3L365.0,877.8L357.4,882.7L360.0,886.7L364.6,887.4L370.2,885.5L368.5,879.2L368.1,873.6L375.9,868.1L377.7,864.7L381.4,863.6L386.5,863.3L379.3,862.6L372.4,862.9L355.7,867.4L351.5,864.9L346.9,853.4L342.6,854.1L340.0,856.1L333.2,847.5L331.2,840.3L334.1,839.3L333.8,835.6L336.6,832.5L335.6,828.6L337.3,824.3L334.3,821.8L333.8,815.5L335.5,813.0L333.2,797.0L334.2,795.9L332.0,792.3L333.8,788.9L334.1,785.0L330.7,782.5L326.1,782.9L326.4,781.2L332.4,774.7L326.1,775.7L323.6,765.5L317.8,759.9L314.4,750.2L317.3,746.6L313.0,737.9L311.2,731.4L310.8,724.2L309.2,722.7L307.6,714.5L309.1,707.9L308.1,705.1L312.2,700.3L305.9,688.0L303.6,682.0L302.0,671.2L305.0,668.4L306.6,658.9L302.5,652.3L304.0,650.4L306.6,636.1L303.8,627.7L303.2,623.2L299.8,622.9L299.4,619.5L294.2,611.3L292.8,606.4L287.3,602.2L288.4,593.7L287.4,592.2L287.5,584.4L290.6,580.4L289.4,579.7L285.1,568.0L285.9,566.3L285.9,558.7L287.1,553.0L290.0,546.7L291.1,534.8L297.1,530.5L292.0,525.0L292.3,518.1L287.8,510.5L287.9,505.6L289.1,504.2L286.5,502.0L285.7,498.1L288.1,493.9L298.3,485.7L299.0,469.9L295.9,468.0L293.8,469.1L289.5,470.7L287.0,470.4L277.6,452.1L272.6,445.9L271.2,445.9L270.4,441.4L267.4,440.4L265.3,434.5L266.9,433.7L266.5,431.0L264.5,429.8L264.9,423.6L258.6,420.5L253.6,410.7L252.7,407.4L249.8,406.9L245.6,402.9L245.0,401.3Z " data-iso-a2="CL" data-key="CHL" data-label="Chile"/><path d="M54.0,169.0L52.8,168.0L52.5,168.6L54.0,169.0Z M46.3,91.4L45.3,93.8L48.8,96.5L50.3,99.2L43.5,107.8L43.1,110.7L44.7,111.3L50.8,115.0L52.5,119.8L55.9,125.1L52.8,129.4L54.9,130.2L58.5,139.8L58.6,146.9L61.0,146.3L61.3,148.2L63.7,147.1L58.9,162.7L54.1,169.7L51.7,170.2L48.2,173.5L50.2,180.8L47.1,180.9L46.8,185.4L47.4,186.2L56.1,188.7L63.3,189.3L65.0,188.5L74.5,192.0L78.7,192.0L84.1,190.0L84.2,188.0L88.7,187.3L92.0,188.9L98.3,189.5L100.9,189.6L101.6,188.5L107.9,188.6L111.0,190.0L121.0,196.0L127.1,197.2L130.3,201.6L135.5,202.7L137.4,205.7L145.3,207.1L148.7,207.1L159.6,201.0L160.7,201.4L168.6,198.3L172.9,199.6L182.1,201.2L177.5,215.3L179.7,218.3L187.9,220.2L188.9,221.0L189.0,220.5L186.5,182.0L184.8,176.6L180.5,171.1L172.6,166.0L171.0,158.8L178.6,154.6L182.0,155.1L182.4,151.7L172.1,151.9L170.0,143.7L176.3,141.7L193.3,137.1L192.2,133.8L195.8,136.0L198.2,134.9L203.7,129.5L208.2,133.4L210.7,139.8L213.2,138.6L212.7,137.8L205.0,125.8L198.6,122.7L197.7,116.3L199.5,114.1L196.2,110.1L193.4,108.5L188.1,99.5L186.5,92.0L188.2,84.3L186.9,79.4L182.7,79.9L174.7,83.8L166.0,85.8L161.6,87.8L149.8,80.7L139.5,81.9L137.0,83.7L123.3,87.2L119.5,84.1L116.1,84.0L114.5,78.0L114.3,74.0L109.6,71.2L106.5,66.2L98.5,67.6L101.7,59.2L101.6,50.6L105.6,41.8L108.1,40.1L110.1,34.6L118.7,28.9L119.1,28.2L120.1,24.9L118.2,23.5L111.9,24.3L106.9,28.6L106.8,30.1L100.3,36.3L93.5,43.4L81.7,47.4L80.9,53.2L79.0,51.6L73.5,52.0L66.4,61.4L65.3,66.1L66.5,67.9L65.8,75.3L63.8,75.8L61.2,78.7L60.0,82.6L55.2,92.7L54.1,97.4L53.5,95.4L46.7,91.5L46.3,91.4Z " data-iso-a2="CO" data-key="COL" data-label="Colombia"/><path d="M45.4,249.2L47.5,244.9L46.1,244.7L43.2,247.7L45.4,249.2Z M47.4,189.0L46.2,188.8L46.7,189.3L47.4,189.0Z M48.4,188.0L47.7,189.5L33.2,200.6L35.8,208.4L32.2,218.0L32.8,219.9L31.7,224.7L29.0,226.8L31.4,235.2L33.7,240.7L33.8,244.6L36.0,244.4L42.4,246.5L44.9,240.6L45.3,243.3L48.8,241.0L46.3,254.0L44.5,255.3L44.3,255.6L46.8,259.7L45.5,267.0L46.9,266.5L47.4,270.0L50.0,266.6L58.3,266.6L63.1,271.1L66.8,270.7L68.0,266.3L70.4,263.2L69.8,260.9L70.2,255.0L71.2,251.6L70.9,246.7L73.5,246.3L75.8,238.6L90.4,227.6L96.9,219.3L101.9,209.2L102.0,201.2L104.3,200.3L100.3,190.3L100.9,189.6L98.3,189.5L92.0,188.9L88.7,187.3L84.2,188.0L84.1,190.0L78.7,192.0L74.5,192.0L65.0,188.5L63.3,189.3L56.1,188.7L47.4,186.2L48.4,188.0Z " data-iso-a2="EC" data-key="ECU" data-label="Ecuador"/><path d="M461.0,843.6L460.9,843.0L460.3,842.7L461.0,843.6Z M471.3,838.7L470.5,839.1L470.8,839.5L471.3,838.7Z M448.8,840.8L449.0,842.7L449.7,842.6L448.8,840.8Z M454.6,835.5L452.5,839.1L454.8,840.1L449.8,843.9L452.4,845.0L455.8,841.7L458.6,840.9L463.4,833.1L462.3,832.5L454.6,835.5Z M456.0,834.3L455.3,832.9L454.4,833.2L456.0,834.3Z M466.8,830.4L464.6,836.4L461.5,839.7L461.1,841.7L463.6,844.0L469.6,840.1L469.1,838.2L472.0,836.7L474.6,830.2L471.9,831.7L466.8,830.4Z " data-iso-a2="FK" data-key="FLK" data-label="Falkland Is."/><path d="M376.4,50.4L373.6,55.2L375.6,61.5L378.3,65.5L384.9,71.1L385.5,73.2L383.9,77.4L384.7,82.7L381.3,88.2L381.2,88.3L381.5,88.4L389.1,89.3L393.4,86.6L398.8,85.3L402.8,86.5L405.2,86.0L409.7,74.6L415.5,60.9L415.3,60.4L410.3,54.4L404.8,52.3L403.7,53.6L401.0,50.9L393.4,46.9L385.3,46.5L379.1,44.7L377.2,49.6L376.4,50.4Z " data-iso-a2="FR" data-key="FRA" data-label="France"/><path d="M333.5,55.2L332.9,51.2L329.1,47.1L326.1,46.9L318.4,42.7L312.1,43.1L310.6,47.7L310.6,41.1L303.5,33.8L296.9,30.9L287.1,29.3L284.5,27.8L284.0,27.8L287.3,30.7L277.8,41.5L280.1,45.1L284.8,45.5L280.5,50.5L274.3,54.1L276.7,58.3L274.0,62.3L281.8,67.0L285.6,69.2L286.8,68.7L295.1,68.0L296.5,68.5L296.2,75.6L300.8,75.4L306.7,81.2L303.7,86.3L304.5,90.0L304.6,96.8L309.7,102.2L313.8,108.7L320.2,111.9L326.5,113.0L330.6,111.1L331.9,106.8L339.1,104.0L347.5,98.3L351.9,99.2L356.1,97.9L356.6,97.6L355.9,97.3L353.2,96.9L343.9,88.2L340.0,81.9L335.9,82.7L334.7,81.1L327.6,76.2L327.1,73.2L327.8,67.6L326.3,65.9L328.6,63.3L333.7,62.0L334.8,59.6L333.7,55.3L333.5,55.2Z " data-iso-a2="GY" data-key="GUY" data-label="Guyana"/><path d="M25.0,104.0L24.2,104.3L24.5,104.7L25.0,104.0Z M27.2,103.0L27.3,100.7L25.9,101.4L27.2,103.0Z M43.1,110.7L43.5,107.8L50.3,99.2L48.8,96.5L45.3,93.8L46.3,91.4L41.4,90.2L35.4,87.9L22.5,89.1L14.9,90.7L8.7,97.9L3.6,101.4L0.0,105.3L0.0,118.3L2.9,122.6L6.7,123.9L9.6,122.2L14.6,117.5L13.9,116.4L7.0,112.1L6.9,111.2L15.2,103.3L14.2,103.1L18.2,97.0L22.8,95.4L37.2,98.1L34.0,103.3L42.7,110.5L43.1,110.7Z " data-iso-a2="PA" data-key="PAN" data-label="Panama"/><path d="M187.9,220.2L179.7,218.3L177.5,215.3L182.1,201.2L172.9,199.6L168.6,198.3L160.7,201.4L159.6,201.0L148.7,207.1L145.3,207.1L137.4,205.7L135.5,202.7L130.3,201.6L127.1,197.2L121.0,196.0L111.0,190.0L107.9,188.6L101.6,188.5L100.9,189.6L100.3,190.3L104.3,200.3L102.0,201.2L101.9,209.2L96.9,219.3L90.4,227.6L75.8,238.6L73.5,246.3L70.9,246.7L71.2,251.6L70.2,255.0L69.8,260.9L70.4,263.2L68.0,266.3L66.8,270.7L63.1,271.1L58.3,266.6L50.0,266.6L47.4,270.0L46.9,266.5L45.5,267.0L46.8,259.7L44.3,255.6L42.3,257.9L35.0,272.6L35.6,277.4L38.2,279.5L45.2,288.0L44.6,291.5L43.1,291.4L43.4,294.8L59.3,297.7L65.5,301.6L73.6,310.1L80.0,313.5L92.1,326.5L100.4,337.0L107.5,343.2L110.8,348.8L116.1,350.7L120.3,357.2L125.8,359.8L139.3,372.9L140.5,381.9L142.4,382.7L147.3,387.3L153.8,389.2L161.6,394.5L197.4,401.6L202.2,401.6L208.1,404.3L218.6,406.7L221.2,410.8L234.9,415.9L236.1,416.5L242.8,410.8L242.9,409.2L244.2,402.5L245.0,401.3L245.0,401.3L242.2,397.5L247.0,388.8L247.6,384.4L249.5,382.4L243.7,381.2L239.7,376.1L240.4,367.8L237.9,366.1L237.5,359.5L240.8,352.2L236.2,346.2L236.8,343.3L237.1,328.3L221.5,312.8L219.0,310.3L217.7,310.7L207.2,314.7L204.5,315.3L199.8,294.1L195.3,299.5L187.4,305.3L179.5,307.7L174.9,301.7L163.2,303.8L165.3,298.9L164.8,297.2L159.0,293.9L148.4,283.8L145.2,282.1L147.8,278.0L146.1,274.8L146.7,271.0L153.0,263.7L150.3,259.2L153.9,243.2L157.7,238.0L163.7,232.1L175.3,226.5L189.1,221.9L188.9,221.0L187.9,220.2Z " data-iso-a2="PE" data-key="PER" data-label="Peru"/><path d="M406.0,400.3L404.9,397.8L391.2,392.7L379.0,395.4L356.7,405.4L355.1,414.1L352.8,420.1L354.5,427.2L353.5,444.2L353.4,445.0L353.8,445.3L360.3,449.1L367.6,456.0L382.1,462.9L392.0,463.0L395.1,463.6L405.6,468.4L424.6,473.1L428.4,479.2L425.6,486.5L423.2,490.8L424.0,495.4L422.9,499.0L419.8,504.7L420.6,506.3L425.9,504.6L447.2,503.6L448.3,504.4L452.3,500.0L456.9,500.7L459.6,494.2L463.0,492.4L466.3,487.7L467.2,478.0L466.4,471.8L466.1,469.7L467.7,452.8L467.5,449.0L462.1,446.4L455.3,450.7L449.8,445.2L445.9,431.7L437.2,428.0L434.8,425.9L428.3,429.8L418.7,429.5L414.5,430.0L413.0,413.8L406.7,403.7L406.2,402.7L406.0,400.3Z " data-iso-a2="PY" data-key="PRY" data-label="Paraguay"/><path d="M376.9,48.5L376.1,44.8L364.7,44.4L351.1,47.0L350.2,49.3L345.8,48.9L335.2,49.5L334.0,55.5L333.7,55.3L334.8,59.6L333.7,62.0L328.6,63.3L326.3,65.9L327.8,67.6L327.1,73.2L327.6,76.2L334.7,81.1L335.9,82.7L340.0,81.9L343.9,88.2L353.2,96.9L355.9,97.3L356.6,97.6L357.1,97.6L364.1,97.3L364.2,94.9L360.2,92.2L362.8,89.3L370.1,88.7L372.4,86.9L380.5,88.4L381.2,88.3L381.3,88.2L384.7,82.7L383.9,77.4L385.5,73.2L384.9,71.1L378.3,65.5L375.6,61.5L373.6,55.2L376.4,50.4L376.9,48.5Z " data-iso-a2="SR" data-key="SUR" data-label="Suriname"/><path d="M440.2,544.8L439.8,545.4L438.0,551.2L439.4,554.8L438.0,563.3L438.5,578.6L439.2,579.8L440.5,586.8L438.6,590.1L439.5,599.4L447.5,605.9L455.0,604.1L459.1,606.5L464.9,608.0L468.1,608.1L476.5,605.1L482.0,605.9L487.8,601.9L494.2,593.9L497.1,586.6L497.6,586.0L495.4,582.9L494.8,578.2L498.8,571.2L492.7,567.4L489.6,562.7L482.4,559.6L479.4,556.4L472.0,554.7L465.9,549.6L463.2,553.3L458.6,547.7L451.0,542.7L447.0,542.3L443.2,545.6L441.1,545.7L440.2,544.8Z " data-iso-a2="UY" data-key="URY" data-label="Uruguay"/><path d="M269.3,26.9L270.9,25.0L268.2,25.9L269.3,26.9Z M270.8,23.3L271.8,22.3L270.6,22.5L270.8,23.3Z M222.5,10.2L219.3,12.4L223.3,11.8L222.5,10.2Z M118.7,28.9L110.1,34.6L108.1,40.1L105.6,41.8L101.6,50.6L101.7,59.2L98.5,67.6L106.5,66.2L109.6,71.2L114.3,74.0L114.5,78.0L116.1,84.0L119.5,84.1L123.3,87.2L137.0,83.7L139.5,81.9L149.8,80.7L161.6,87.8L166.0,85.8L174.7,83.8L182.7,79.9L186.9,79.4L188.2,84.3L186.5,92.0L188.1,99.5L193.4,108.5L196.2,110.1L199.5,114.1L197.7,116.3L198.6,122.7L205.0,125.8L212.7,137.8L213.2,138.6L217.6,140.5L222.2,142.4L226.2,141.2L230.3,137.5L232.7,137.6L234.8,140.3L238.5,133.7L250.7,123.9L252.0,119.0L258.7,114.0L258.2,111.6L248.6,111.7L248.6,110.4L243.8,104.5L242.5,99.8L231.9,93.9L243.2,94.6L251.1,93.8L253.0,92.7L261.6,95.3L265.9,87.0L269.7,86.9L277.4,82.7L278.1,81.1L284.6,77.5L288.4,71.9L286.0,69.3L285.6,69.2L281.8,67.0L274.0,62.3L276.7,58.3L274.3,54.1L280.5,50.5L284.8,45.5L280.1,45.1L277.8,41.5L287.3,30.7L284.0,27.8L281.7,27.4L277.6,29.1L273.0,29.5L266.7,33.1L261.7,31.9L266.8,30.7L270.4,20.7L257.4,18.0L256.5,20.4L249.6,17.8L250.1,19.5L246.4,19.2L237.3,13.9L244.6,12.1L246.0,9.9L239.5,10.8L228.9,14.5L223.7,15.5L224.9,17.7L220.0,18.8L212.1,25.0L197.9,26.6L191.3,23.8L181.2,26.6L169.5,31.4L165.8,32.1L162.3,29.2L160.3,25.6L156.9,24.7L147.9,24.7L142.6,26.6L138.4,21.7L135.6,20.3L132.6,24.6L136.8,27.7L134.8,30.1L127.3,34.3L118.7,42.0L128.4,52.2L129.0,56.4L123.7,61.7L120.7,61.5L119.9,59.3L113.7,55.2L118.0,46.2L116.7,39.7L114.4,38.9L112.0,33.7L118.5,29.6L118.7,28.9Z " data-iso-a2="VE" data-key="VEN" data-label="Venezuela"/></g></svg>