<?xml version="1.0" encoding="utf-8"?><!DOCTYPE svg  PUBLIC '-//W3C//DTD SVG 1.1//EN'  'http://www.w3.org/Graphics/SVG/1.1/DTD/svg11.dtd'><svg enable_background="new 0 0 700 960" height="960px" pretty_print="False" style="stroke-linejoin: round; stroke:#000; fill: none;" version="1.1" viewBox="0 0 700 960" width="700px" xmlns="http://www.w3.org/2000/svg" xmlns:xlink="http://www.w3.org/1999/xlink"><defs><style type="text/css"><![CDATA[path { fill-rule: evenodd; }]]></style></defs><metadata><views><view h="960.000910937" padding="0" w="700"><proj id="laea" lat0="63" lon0="-80"/><bbox h="996.71" w="727.52" x="503.25" y="666.39"/></view></views></metadata><g class="" id="layer0"><path d="M606.8,892.1L604.9,890.6L604.6,891.3L606.8,892.1Z " data-iso-a2="AW" data-key="ABW" data-label="Aruba"/><path d="M683.1,814.0L681.3,814.6L681.3,815.0L683.1,814.0Z " data-iso-a2="AI" data-key="AIA" data-label="Anguilla"/><path d="M699.2,817.2L698.7,816.0L698.1,817.3L699.2,817.2Z " data-iso-a2="AG" data-key="ATG" data-label="Antigua and Barb."/><path d="M560.3,801.6L552.6,804.4L558.8,804.1L560.3,801.6Z M559.0,787.9L560.9,788.5L562.2,789.2L559.0,787.9Z M545.6,791.5L549.4,785.5L548.2,785.7L545.6,791.5Z M547.0,785.7L544.0,784.7L544.5,786.1L547.0,785.7Z M527.9,779.0L523.6,777.6L524.5,777.6L527.9,779.0Z M541.8,771.1L540.6,770.8L540.4,772.3L541.8,771.1Z M504.7,771.2L501.3,771.2L505.8,776.8L506.4,775.4L504.7,771.2Z M531.6,770.4L527.4,766.3L529.4,769.1L531.6,770.4Z M508.0,762.5L508.2,761.7L506.7,762.8L508.0,762.5Z M503.6,766.1L500.8,761.9L498.1,760.8L496.5,768.1L499.0,768.6L500.2,770.9L503.6,766.1Z M515.7,756.8L514.2,757.6L518.9,758.6L515.7,756.8Z M494.6,743.6L492.2,745.1L491.2,745.9L494.6,743.6Z M509.0,752.4L509.6,748.6L511.0,747.5L507.6,744.4L509.0,752.4Z " data-iso-a2="BS" data-key="BHS" data-label="Bahamas"/><path d="M685.8,817.2L685.2,816.8L685.4,817.2L685.8,817.2Z " data-iso-a2="BL" data-key="BLM" data-label="St. Barthelemy"/><path d="M381.6,841.9L382.5,840.9L382.0,840.6L381.6,841.9Z M380.9,836.3L381.7,833.8L380.9,835.5L380.9,836.3Z M377.2,829.8L374.4,829.8L369.9,835.0L366.1,834.8L366.1,835.7L365.7,838.4L363.5,853.8L363.2,856.6L367.4,857.1L367.3,856.3L371.9,853.2L375.3,849.9L377.4,840.4L376.7,839.3L379.1,831.4L376.4,831.0L377.2,829.8Z " data-iso-a2="BZ" data-key="BLZ" data-label="Belize"/><path d="M635.3,663.1L634.9,663.0L634.0,663.6L635.3,663.1Z " data-iso-a2="BM" data-key="BMU" data-label="Bermuda"/><path d="M650.2,519.5L649.2,520.3L648.2,520.5L650.2,519.5Z M595.1,529.5L595.1,528.5L595.4,528.3L595.1,529.5Z M590.2,525.9L589.6,524.5L590.1,524.6L590.2,525.9Z M530.7,523.9L530.4,523.0L531.6,522.6L530.7,523.9Z M531.9,525.2L529.4,524.9L530.8,524.2L531.9,525.2Z M551.1,506.4L550.5,506.2L552.5,504.7L551.1,506.4Z M633.3,500.1L635.3,501.9L637.2,495.7L638.5,494.0L642.2,498.2L639.9,501.6L632.5,504.5L630.1,501.0L633.2,488.8L634.8,486.5L636.8,488.9L636.8,496.2L633.3,500.1Z M610.1,499.9L612.2,498.6L615.7,499.1L623.2,496.3L624.5,496.7L620.1,503.5L617.7,501.3L612.8,502.4L607.8,501.0L605.1,499.1L607.1,493.5L607.1,497.0L610.1,499.9Z M622.9,486.6L622.4,485.1L625.9,481.5L622.9,486.6Z M601.0,485.0L601.0,485.9L599.8,485.6L601.0,485.0Z M160.7,380.3L160.2,379.9L161.0,377.9L160.7,380.3Z M523.9,530.9L532.3,525.3L533.2,521.7L536.0,517.3L538.0,516.2L544.3,510.1L546.2,509.6L555.0,504.0L565.1,487.6L568.9,483.8L584.9,472.6L595.2,470.6L600.9,473.9L601.3,476.9L594.8,484.8L587.4,486.8L590.4,487.1L593.8,489.0L597.2,486.4L599.9,487.2L598.1,493.6L600.5,496.3L603.7,502.8L610.9,504.1L609.3,505.5L623.1,506.8L626.7,502.9L627.7,504.5L630.9,503.9L635.8,507.3L625.0,515.8L617.0,520.7L616.9,522.3L613.3,521.2L611.1,522.9L611.8,525.3L608.0,531.8L604.5,535.0L604.6,536.4L599.5,534.6L597.4,534.8L596.6,526.0L607.8,514.2L613.6,513.1L610.6,512.6L604.4,513.3L607.7,508.2L598.8,516.2L594.7,516.1L586.5,521.1L586.1,520.9L581.3,516.4L579.6,515.7L574.0,498.0L572.8,497.4L566.8,499.7L566.1,497.5L564.1,498.2L558.4,512.7L558.3,516.0L554.9,523.7L552.0,525.4L549.7,528.7L522.7,531.5L523.9,530.9Z M669.8,441.9L668.2,443.5L669.2,441.7L669.8,441.9Z M672.5,438.8L671.7,441.1L671.4,440.3L672.5,438.8Z M161.7,369.3L160.8,367.7L161.0,365.1L161.7,369.3Z M147.6,356.2L147.7,352.6L148.5,352.7L147.6,356.2Z M618.4,465.8L615.3,466.8L608.7,466.8L604.2,465.8L596.1,461.9L605.1,460.5L610.6,461.4L618.5,464.4L618.4,465.8Z M160.3,360.5L160.8,359.3L161.6,358.6L160.3,360.5Z M658.2,432.2L658.0,431.2L658.4,431.1L658.2,432.2Z M152.0,343.7L159.0,354.2L159.3,356.2L157.6,366.0L160.5,373.0L159.4,381.6L160.4,380.9L153.3,377.9L150.8,371.2L153.0,370.9L149.2,366.6L146.8,358.4L150.7,358.2L147.7,351.9L147.0,346.8L145.3,344.5L145.9,340.0L148.7,337.1L152.0,343.7Z M655.4,422.9L655.2,424.9L652.5,427.5L654.8,428.3L655.1,431.0L652.8,445.4L653.4,448.0L655.7,441.1L660.3,440.9L659.4,447.8L663.6,446.0L667.9,446.9L670.5,442.4L671.8,443.6L677.6,442.1L677.5,447.7L679.8,449.4L678.1,453.8L685.3,449.6L682.4,456.1L682.4,459.6L685.2,459.1L685.8,455.6L688.1,454.2L689.3,461.0L691.9,457.8L692.7,459.9L693.2,467.5L692.8,469.8L689.7,471.4L687.6,467.5L683.6,468.2L681.0,460.1L679.7,461.0L679.5,465.1L676.7,467.2L675.1,473.9L671.7,475.7L670.5,473.6L672.8,471.6L673.9,467.5L667.0,469.5L667.6,465.6L661.8,470.3L652.4,472.6L643.6,476.8L640.7,473.3L644.6,466.1L644.2,464.7L640.0,466.2L641.5,463.6L644.5,452.6L646.1,436.4L655.4,422.9Z M154.3,332.4L154.2,329.8L155.6,329.9L154.3,332.4Z M654.7,418.7L654.2,418.2L654.4,417.6L654.7,418.7Z M482.4,451.5L480.4,450.8L483.2,450.1L482.4,451.5Z M159.0,321.7L160.9,318.6L162.2,319.2L159.0,321.7Z M156.9,317.9L156.9,314.4L157.8,314.1L156.9,317.9Z M158.7,311.6L158.8,309.5L159.1,309.0L158.7,311.6Z M472.6,442.1L464.7,436.7L468.3,436.4L472.6,442.1Z M148.2,297.5L145.4,300.0L143.4,309.3L142.0,307.6L143.7,294.9L148.2,297.5Z M162.2,315.9L159.2,319.9L156.5,321.1L159.8,316.5L159.2,312.6L162.4,310.4L162.2,315.9Z M160.4,311.2L159.8,310.8L160.0,309.9L160.4,311.2Z M478.3,435.5L477.8,435.8L477.3,435.1L478.3,435.5Z M157.4,307.4L157.0,300.7L159.0,304.5L157.4,307.4Z M161.7,298.4L160.5,298.8L162.0,296.5L161.7,298.4Z M151.6,284.8L153.2,288.3L156.3,289.7L147.5,295.6L145.2,294.5L145.5,289.2L148.5,283.6L151.6,284.8Z M162.6,290.5L163.9,289.2L164.4,290.0L162.6,290.5Z M166.6,289.6L167.5,289.5L169.3,289.4L170.4,289.1L169.8,289.9L168.1,290.3L166.6,290.0L166.6,289.6Z M602.1,384.9L600.8,384.3L601.2,383.9L602.1,384.9Z M485.6,401.9L486.2,398.4L486.6,400.5L485.6,401.9Z M478.0,401.2L479.9,398.9L480.2,399.1L478.0,401.2Z M484.9,400.4L479.4,405.9L481.2,402.5L477.8,404.4L482.4,398.1L484.9,400.4Z M592.5,369.0L592.6,370.6L591.3,370.1L592.5,369.0Z M479.6,385.7L478.9,386.1L479.0,385.2L479.6,385.7Z M476.1,360.7L476.6,359.5L476.8,359.7L476.1,360.7Z M568.4,340.9L565.7,340.6L566.6,339.5L568.4,340.9Z M546.7,347.1L547.5,343.0L548.7,344.2L546.7,347.1Z M563.2,329.9L559.2,327.4L562.6,326.5L563.2,329.9Z M405.3,327.0L404.7,326.0L405.4,325.9L405.3,327.0Z M560.7,324.3L561.7,325.8L559.6,324.3L560.7,324.3Z M480.3,327.6L479.7,336.7L478.9,337.3L476.8,330.0L480.3,327.6Z M560.0,316.2L562.3,316.4L561.3,318.0L560.0,316.2Z M530.5,322.1L528.1,321.8L526.6,319.8L530.5,322.1Z M467.0,321.0L463.7,327.5L461.2,329.6L457.4,330.0L457.4,325.2L459.6,321.3L467.0,321.0Z M489.1,314.9L490.7,318.2L486.0,316.3L489.1,314.9Z M490.1,308.7L488.6,309.1L488.6,308.4L490.1,308.7Z M453.4,292.9L455.1,290.8L466.3,300.0L468.7,303.6L467.9,308.3L474.2,308.5L476.5,311.1L472.8,314.9L465.2,311.7L462.0,306.5L459.7,307.1L458.3,310.4L451.3,317.3L448.4,317.7L447.4,310.9L440.7,311.8L442.0,307.8L444.6,306.5L448.0,289.2L449.6,285.8L452.4,286.5L452.1,289.8L453.4,292.9Z M459.7,287.0L457.8,285.9L458.0,283.5L459.7,287.0Z M354.9,241.0L354.0,240.2L355.1,238.1L354.9,241.0Z M352.9,232.3L353.3,233.9L352.8,233.0L352.9,232.3Z M506.4,262.5L502.1,262.4L501.3,259.6L507.3,261.3L506.4,262.5Z M352.3,231.9L351.9,230.9L352.3,230.5L352.3,231.9Z M448.2,263.0L447.1,258.9L449.0,256.5L448.2,263.0Z M496.8,256.9L499.1,257.8L499.9,263.5L498.8,268.1L491.6,269.7L490.2,262.9L492.2,258.3L496.8,256.9Z M373.4,236.1L372.0,233.9L372.8,233.5L373.4,236.1Z M433.8,243.2L432.8,242.2L433.4,241.3L433.8,243.2Z M481.2,251.3L480.4,250.8L484.3,244.8L485.3,245.8L481.2,251.3Z M435.4,241.1L434.9,242.8L434.1,241.5L435.4,241.1Z M490.5,247.5L489.0,244.3L491.2,246.0L490.5,247.5Z M391.1,230.2L391.0,228.6L391.2,228.0L391.1,230.2Z M414.2,234.9L412.6,237.3L413.3,235.1L414.2,234.9Z M527.7,238.3L526.3,237.7L528.1,237.2L527.7,238.3Z M485.9,240.9L482.8,243.8L483.7,241.9L485.9,240.9Z M406.7,232.0L407.6,231.9L410.3,236.7L411.3,244.3L406.3,246.5L396.1,237.3L405.7,229.1L406.7,232.0Z M449.9,234.8L448.7,235.8L448.3,234.8L449.9,234.8Z M398.7,219.0L397.9,216.8L398.2,216.6L398.7,219.0Z M372.8,480.2L372.8,480.2L372.8,480.2L370.1,480.7L363.2,476.2L361.0,468.5L360.0,472.9L329.2,464.7L319.6,461.7L278.9,446.7L269.7,442.7L230.9,423.5L222.2,418.6L199.5,404.7L185.7,395.4L166.3,381.1L166.3,380.6L164.5,379.9L165.7,375.3L167.7,373.2L164.5,373.6L163.1,371.2L163.7,368.2L165.2,370.2L167.9,365.0L163.6,366.8L161.9,365.7L162.3,357.0L163.3,355.5L155.7,348.7L159.4,349.1L157.8,346.2L158.4,344.3L153.7,340.8L153.0,336.4L155.8,333.7L155.8,331.7L160.4,326.4L165.3,328.0L167.8,325.7L155.7,328.6L157.2,323.9L161.6,320.5L163.9,314.2L163.6,307.5L166.0,311.6L169.0,306.3L164.3,306.3L160.7,307.7L159.4,300.0L164.3,297.2L164.0,295.4L172.1,289.9L171.7,289.0L178.2,282.5L178.3,282.4L179.0,279.8L177.0,268.9L175.9,267.8L177.7,261.2L180.4,256.6L184.6,245.0L185.2,237.6L187.1,228.9L188.4,227.9L187.3,223.7L178.9,224.2L173.2,221.5L175.8,218.8L178.2,204.6L181.0,203.2L176.3,198.7L174.3,194.3L177.1,192.2L266.4,129.2L266.6,129.8L269.1,136.3L268.3,141.4L268.4,146.7L270.7,152.3L278.5,149.9L282.0,152.6L283.3,156.4L285.7,155.6L291.6,157.6L298.1,160.7L297.8,162.4L280.8,159.7L278.9,162.8L287.0,160.7L290.5,163.7L305.6,165.7L307.1,162.0L307.3,165.6L304.4,172.6L303.8,177.1L306.1,179.9L313.4,174.9L313.8,175.7L308.1,182.1L310.6,184.6L315.0,182.6L319.7,185.5L322.5,194.6L334.9,209.0L336.6,212.8L336.1,218.6L330.9,217.9L328.4,219.3L328.9,221.0L335.9,227.1L338.4,228.6L345.6,230.5L348.0,230.2L349.7,234.0L351.3,234.9L351.1,238.6L352.8,237.3L353.4,243.9L350.9,243.5L355.4,248.0L356.3,237.3L358.7,234.5L365.3,234.1L369.5,231.8L359.5,233.0L356.3,230.1L370.0,228.1L370.6,229.0L370.7,236.3L372.1,239.9L376.5,241.0L381.5,247.6L387.9,248.7L393.1,251.8L396.4,251.2L399.4,254.8L397.3,248.8L401.4,244.2L407.9,249.7L404.5,257.2L404.6,260.7L407.5,262.8L405.4,264.6L402.8,263.7L404.2,267.1L408.5,261.8L409.9,252.8L413.1,253.0L420.1,247.9L419.6,243.5L416.1,245.5L419.3,237.7L413.1,231.8L412.4,225.2L417.6,213.2L419.3,212.6L422.2,208.4L426.9,211.2L428.7,217.7L428.0,221.7L431.2,231.6L425.0,236.2L428.6,238.6L434.2,240.6L432.6,242.2L433.1,254.7L438.6,243.9L439.9,243.6L443.6,250.8L443.4,256.1L441.8,263.5L444.2,269.2L448.1,266.0L451.3,259.6L456.2,246.7L455.2,245.8L455.1,240.8L458.8,238.8L461.7,240.2L468.0,241.7L468.4,246.2L472.2,248.0L470.6,250.9L472.3,253.5L466.7,255.9L471.1,265.6L471.0,272.3L463.9,278.2L460.8,280.0L457.6,275.1L459.7,281.7L456.5,282.1L446.0,277.3L449.2,282.3L441.8,290.7L438.5,290.3L429.9,282.1L430.3,284.5L433.6,289.7L442.9,292.7L442.9,293.7L437.5,301.6L433.0,305.7L429.2,304.7L421.1,309.0L414.3,305.4L407.6,299.5L413.3,307.8L416.0,306.7L420.9,311.7L420.0,316.1L416.1,317.5L411.1,316.9L412.6,320.0L409.7,319.4L402.6,325.2L401.1,329.0L398.4,331.9L392.4,340.5L392.8,341.6L389.0,354.7L387.4,356.8L389.8,361.3L389.7,365.7L392.0,361.6L397.2,363.1L398.6,378.6L398.1,381.7L406.8,382.9L414.7,387.3L419.9,389.6L425.0,394.8L427.8,400.1L431.8,402.2L442.6,409.9L442.6,410.6L451.4,411.0L461.5,414.4L462.6,417.4L461.2,424.9L462.7,428.4L461.4,438.1L466.4,446.5L472.6,453.3L474.3,459.1L480.0,461.4L479.9,459.8L482.7,455.3L487.2,456.8L485.4,454.0L488.8,447.8L484.2,431.3L484.8,427.2L480.1,419.1L485.3,416.8L493.4,411.1L499.3,403.1L500.6,398.8L500.4,392.5L498.1,383.5L493.5,377.3L487.0,371.8L492.3,359.8L493.5,361.0L493.8,355.4L492.4,355.2L491.1,349.2L491.8,346.4L489.7,344.2L491.9,337.5L488.9,334.3L490.9,326.0L494.9,325.9L501.1,329.6L503.5,327.9L507.6,329.9L512.7,325.4L518.0,328.7L522.2,333.0L525.9,338.7L530.9,339.9L533.4,339.4L536.9,340.7L537.1,339.0L538.7,350.5L535.0,352.3L538.1,352.1L540.0,359.1L541.7,358.9L540.5,366.8L546.7,363.2L548.3,363.9L550.6,368.6L549.1,373.2L547.8,373.9L552.0,367.6L554.7,372.5L565.4,358.1L565.8,352.5L564.0,350.2L565.3,347.8L565.7,343.0L568.8,343.2L574.6,349.8L573.8,351.6L582.2,358.1L580.4,361.4L584.5,359.9L584.0,363.4L581.9,366.3L586.1,363.4L591.0,368.0L589.5,371.3L591.9,370.8L597.7,378.3L591.0,378.9L594.4,382.1L600.2,385.4L599.3,386.0L605.9,387.6L609.1,389.7L607.8,395.3L613.0,391.1L614.0,395.5L616.1,391.0L620.5,394.0L622.5,394.0L625.6,391.8L628.7,393.5L629.9,395.7L624.3,402.6L616.2,408.9L616.5,412.2L623.1,405.2L627.8,400.9L631.9,398.5L634.7,403.1L637.3,401.9L642.7,401.8L646.3,405.1L648.4,411.8L651.0,415.7L647.4,424.1L645.3,427.7L641.8,428.8L635.1,433.4L628.7,447.6L615.9,454.1L605.0,454.8L585.6,459.8L579.9,462.2L577.4,464.8L575.5,472.9L568.8,475.9L564.5,481.1L559.8,489.4L548.8,487.9L558.4,489.9L559.2,490.7L558.0,495.1L549.2,507.5L544.4,509.5L538.3,514.9L536.0,516.1L532.4,522.0L527.9,525.2L528.6,527.0L525.5,528.9L522.7,531.5L517.0,534.6L508.4,543.5L505.5,548.7L489.0,549.3L485.1,551.2L487.3,557.4L486.3,558.9L475.6,564.1L466.4,565.8L455.8,571.8L453.6,571.7L449.7,568.0L455.8,559.3L459.2,549.7L456.3,528.8L447.8,522.9L448.9,520.9L444.8,519.6L443.6,515.3L438.0,509.6L411.4,490.3L409.5,490.5L392.0,489.6L387.2,489.6L380.1,485.7L379.3,483.7L372.8,480.2L372.8,480.2Z M419.9,195.2L419.6,192.7L419.9,192.4L419.9,195.2Z M361.5,174.1L368.4,172.6L371.8,177.8L370.3,182.5L375.1,181.0L375.7,176.6L377.5,177.9L379.0,184.4L376.5,193.8L377.5,195.5L380.3,193.7L383.6,179.4L386.9,178.5L389.6,180.9L390.9,185.0L388.8,196.4L388.7,200.0L385.8,206.4L388.4,215.1L389.7,215.4L394.4,222.3L393.3,226.9L389.0,223.7L385.6,226.3L384.0,224.0L383.7,227.8L386.4,227.5L383.8,234.0L379.5,233.4L373.6,229.5L373.8,227.3L370.6,221.4L364.9,224.6L355.4,224.3L342.2,219.8L340.9,214.1L341.8,208.9L335.2,203.5L334.9,196.6L339.2,194.2L346.7,197.0L352.8,201.9L355.9,200.6L346.1,192.6L338.9,187.4L338.8,182.3L352.0,183.4L351.4,182.5L343.1,179.2L345.5,177.0L342.9,175.3L343.6,171.9L349.1,167.6L362.5,166.0L366.2,166.0L366.5,169.0L361.5,174.1Z M392.0,185.6L390.5,178.5L391.7,175.4L396.5,176.9L397.2,179.8L392.0,185.6Z M479.4,194.4L487.3,196.1L488.3,203.8L485.4,203.3L479.6,205.1L476.8,199.3L475.7,199.0L475.3,193.2L479.4,194.4Z M452.4,224.4L458.3,223.3L460.3,218.3L457.9,216.7L456.1,213.1L458.2,210.6L461.0,211.9L458.7,208.2L460.7,197.5L465.0,196.9L464.7,195.5L469.0,193.4L472.5,193.9L476.9,204.9L473.3,210.7L475.6,208.7L474.4,215.1L478.3,211.9L484.0,209.7L484.9,205.8L487.5,205.1L492.7,206.7L495.8,210.6L495.6,212.6L498.8,212.6L496.8,222.4L500.2,215.9L499.8,220.0L501.4,217.7L504.3,216.3L510.0,218.2L511.3,220.7L506.5,226.2L513.8,225.7L513.2,229.0L516.9,224.6L523.7,227.2L517.9,233.7L522.7,231.3L522.8,234.3L526.2,229.7L530.1,234.7L526.7,235.8L525.2,238.4L530.1,238.7L533.6,241.4L528.3,241.8L527.6,246.8L523.7,247.1L534.3,251.1L535.5,254.7L537.9,251.5L542.4,255.9L550.1,260.0L553.1,265.6L560.2,261.2L561.0,265.9L563.4,266.7L563.1,269.2L559.6,269.0L560.3,271.0L563.4,272.5L560.6,273.3L562.3,275.3L560.2,278.5L557.2,276.5L556.8,278.8L559.5,283.5L557.3,285.6L554.1,286.3L551.4,283.8L548.2,279.1L550.2,276.3L545.6,277.5L538.6,271.4L537.6,275.4L534.9,274.1L538.9,279.5L536.3,279.9L531.4,278.0L539.2,283.9L540.1,286.5L544.6,292.2L545.0,290.2L553.5,294.8L551.4,297.0L558.2,301.5L559.6,307.6L558.7,307.8L554.7,302.7L556.9,308.6L559.8,312.0L555.2,313.5L547.2,310.9L541.0,306.0L541.9,309.2L539.4,307.4L540.9,312.8L550.2,317.8L554.9,324.5L554.1,325.9L537.5,322.6L534.4,319.1L530.6,319.4L520.2,313.1L523.2,310.7L512.9,303.6L511.3,300.3L507.2,300.0L504.9,297.9L505.1,301.0L503.0,302.4L500.8,301.6L499.5,303.4L494.0,305.6L491.8,305.2L487.1,301.3L488.4,295.9L490.5,294.8L498.6,293.6L500.2,294.5L505.5,291.0L509.5,289.6L508.2,286.4L504.7,282.7L511.2,271.0L513.0,269.5L511.2,263.5L508.5,258.4L504.5,255.0L504.3,251.8L502.0,253.4L499.5,249.4L496.5,250.2L492.4,249.4L494.4,244.4L490.7,240.0L487.7,239.3L486.8,234.7L483.9,233.9L481.9,230.8L480.2,232.5L482.8,236.4L479.4,238.9L477.2,237.7L471.5,238.3L459.5,237.0L452.8,235.2L452.4,230.9L442.9,229.0L441.5,222.4L448.7,224.6L450.1,224.4L447.1,221.2L441.3,218.0L441.0,211.7L442.7,209.4L442.5,206.4L446.0,198.6L450.4,193.4L458.1,191.2L460.9,191.9L457.0,198.1L454.4,203.7L455.1,206.7L454.9,214.1L458.6,220.3L457.2,222.3L452.4,224.4Z M413.1,180.6L415.0,183.9L421.7,185.1L420.1,189.2L414.6,193.7L417.1,193.1L417.8,198.4L420.0,198.1L418.0,204.3L414.3,209.1L410.0,210.8L406.2,210.5L404.5,202.0L399.6,191.2L402.1,187.8L404.0,192.5L408.1,191.0L406.5,184.8L409.7,181.2L413.1,180.6Z M418.3,183.2L415.1,181.5L420.6,180.8L418.3,183.2Z M435.3,184.0L441.6,187.1L443.7,189.1L435.3,201.0L428.1,199.4L429.8,202.2L426.8,208.0L423.8,201.5L423.6,198.0L425.7,189.1L428.2,188.1L430.2,183.7L435.3,184.0Z M357.5,149.3L362.5,150.8L364.5,153.5L364.9,163.4L364.0,164.0L349.2,164.5L344.9,167.0L342.3,166.4L337.3,171.4L332.1,170.1L329.5,170.8L325.4,169.6L327.4,162.6L324.9,155.8L344.9,143.5L347.1,137.1L356.3,141.8L358.0,147.6L357.5,149.3Z M423.4,176.6L422.3,177.0L423.2,175.6L423.4,176.6Z M429.6,178.5L428.3,177.6L429.4,176.8L429.6,178.5Z M405.5,164.0L403.9,162.3L407.3,163.4L405.5,164.0Z M436.5,173.7L434.1,177.9L431.9,177.4L427.3,172.0L428.6,169.6L433.7,165.9L435.4,166.7L436.5,173.7Z M430.4,166.4L427.7,167.4L430.0,164.6L430.4,166.4Z M366.4,131.5L366.3,131.0L367.6,130.9L366.4,131.5Z M371.6,137.9L369.8,135.4L377.0,134.5L371.6,137.9Z M480.5,167.6L478.7,168.2L480.7,165.0L480.5,167.6Z M415.2,155.3L411.1,156.9L412.3,154.9L410.3,151.3L414.2,151.2L415.2,155.3Z M413.0,147.3L413.8,150.6L413.3,150.6L413.0,147.3Z M429.1,154.3L424.5,169.5L418.3,169.3L416.6,168.5L416.5,164.2L419.5,162.5L415.5,160.6L412.1,160.5L414.8,156.9L416.6,158.0L419.1,151.6L421.2,158.6L423.4,150.5L429.1,154.3Z M420.2,150.0L420.7,149.1L421.5,148.6L420.2,150.0Z M399.4,148.0L402.3,152.6L403.4,150.3L405.6,153.2L405.2,154.7L400.2,161.1L396.5,161.5L392.6,159.2L392.6,157.8L384.4,159.2L378.7,159.0L375.3,153.5L377.6,152.9L387.3,153.2L382.2,151.3L381.2,146.5L376.2,149.4L373.9,148.3L370.9,142.9L372.0,141.4L379.1,142.5L374.8,139.2L380.9,135.4L383.7,137.6L383.0,134.4L386.3,134.5L386.5,138.5L388.9,139.7L389.4,147.8L390.4,150.0L394.6,152.8L395.8,150.9L394.7,147.3L395.9,143.1L401.6,139.0L402.8,140.4L399.4,148.0Z M390.7,133.9L388.0,132.0L390.9,131.9L390.7,133.9Z M439.5,151.6L442.0,154.1L447.3,156.3L446.1,158.0L451.7,161.3L450.9,167.6L451.2,171.3L452.4,169.0L459.1,172.8L461.3,171.0L466.9,168.7L477.5,172.2L479.3,175.5L477.1,182.6L470.2,183.9L467.2,179.6L465.6,183.3L463.0,183.7L456.7,182.7L456.6,183.5L450.7,182.1L451.8,179.4L448.9,180.7L443.5,178.9L444.0,177.8L440.6,175.6L440.5,172.2L442.2,167.9L442.3,164.3L440.7,158.6L439.4,159.3L435.0,158.4L432.7,152.4L433.5,149.2L439.5,151.6Z M390.3,124.9L385.2,130.5L378.2,130.5L381.4,127.2L371.7,132.0L369.3,132.2L367.1,127.9L364.7,127.0L367.9,123.4L382.4,120.2L388.3,121.5L390.3,124.9Z M452.0,149.8L448.9,147.8L450.3,144.9L451.8,145.9L452.0,149.8Z M414.3,140.6L414.8,133.2L415.3,138.9L414.3,140.6Z M439.1,140.8L443.7,142.2L443.1,145.6L436.6,142.6L439.1,140.8Z M423.8,137.3L424.1,134.8L425.5,136.2L423.8,137.3Z M396.6,123.4L397.6,119.5L397.2,120.3L396.6,123.4Z M405.9,124.0L407.5,125.2L403.5,127.0L404.4,128.4L398.1,130.0L396.7,126.9L397.9,123.9L399.9,122.8L405.9,124.0Z M422.7,131.2L422.3,130.5L422.9,130.0L422.7,131.2Z M410.5,119.1L408.7,122.8L406.1,120.3L405.0,121.0L401.3,118.9L402.2,117.7L409.5,117.1L410.5,119.1Z M439.7,132.0L442.3,134.4L440.7,138.8L435.5,139.7L436.6,135.7L435.0,134.0L437.9,128.4L439.7,132.0Z M427.1,118.1L427.7,121.1L431.9,127.2L430.6,137.4L425.9,130.9L420.3,128.6L424.4,123.9L422.1,122.2L422.0,117.9L424.2,116.9L427.1,118.1Z M439.3,114.1L438.0,116.8L436.5,113.9L437.2,112.0L439.3,114.1Z M456.0,104.4L459.7,116.5L460.9,113.7L463.2,120.2L462.2,123.9L465.6,123.7L466.6,127.7L460.1,129.9L456.4,139.5L454.2,134.2L454.7,139.1L448.1,136.6L445.7,128.6L449.5,126.4L447.1,124.6L444.0,118.8L443.8,113.5L445.6,114.8L446.9,107.6L450.7,110.1L449.0,106.7L452.3,101.2L456.0,104.4Z M493.1,83.1L497.8,83.3L497.0,86.5L502.4,83.7L504.0,87.5L507.6,88.5L505.5,94.4L501.1,98.3L498.3,102.7L502.9,99.3L502.4,104.9L495.1,117.7L497.3,117.4L491.2,124.9L487.1,126.1L489.6,128.2L490.7,135.4L488.1,142.8L482.8,143.8L482.3,150.1L478.1,151.5L472.4,151.6L478.0,152.7L482.6,160.0L479.2,163.1L475.1,164.6L474.6,160.7L468.3,161.3L466.2,158.4L465.8,162.2L463.3,162.6L457.3,160.3L454.4,158.4L451.8,159.2L452.1,155.1L455.0,152.6L459.7,151.6L457.5,146.6L459.7,143.5L462.2,145.4L464.9,150.1L467.5,150.1L469.0,147.4L465.3,148.6L464.0,143.5L466.8,139.9L466.5,136.6L464.1,141.3L459.8,140.6L462.0,133.3L466.8,132.4L472.2,133.2L469.2,131.9L468.9,129.3L464.4,118.8L465.1,115.3L473.5,122.2L474.7,123.8L471.8,116.3L480.9,110.5L483.4,102.8L481.5,104.1L477.6,110.8L474.8,112.4L473.6,110.6L469.1,113.3L465.8,112.6L467.0,107.1L463.6,111.0L460.3,107.7L465.6,105.9L461.3,106.1L460.4,104.0L462.6,101.1L459.4,101.8L460.7,99.2L457.7,98.1L464.5,94.3L469.0,95.4L467.8,92.9L470.1,90.7L473.5,95.3L478.5,97.1L474.6,93.0L476.1,87.9L482.0,86.4L484.0,83.9L487.6,84.1L493.1,83.1Z " data-iso-a2="CA" data-key="CAN" data-label="Canada"/><path d="M403.5,913.2L401.6,914.3L403.8,918.3L402.0,919.9L404.4,925.4L408.4,926.7L411.4,929.1L414.0,927.0L410.5,924.6L412.3,923.7L422.5,931.3L430.0,936.2L430.3,942.1L433.3,942.9L432.1,939.8L436.1,941.2L438.9,945.6L439.7,946.8L438.9,944.8L439.4,939.7L441.8,937.6L439.2,934.4L440.6,931.0L444.3,931.1L443.7,930.6L441.5,930.0L433.0,921.2L430.9,916.7L430.6,916.2L427.0,918.0L421.5,915.1L417.9,914.2L414.2,915.0L406.2,912.1L403.5,913.0L403.5,913.2Z " data-iso-a2="CR" data-key="CRI" data-label="Costa Rica"/><path d="M447.6,800.9L445.4,797.1L442.7,796.6L441.6,798.2L442.8,800.5L447.6,800.9Z M505.2,796.8L502.2,795.4L502.5,795.9L505.2,796.8Z M502.7,794.9L502.5,793.9L500.8,794.1L502.7,794.9Z M500.9,793.2L498.9,791.6L498.0,791.7L500.9,793.2Z M456.5,783.5L453.5,783.1L440.0,785.1L430.7,787.9L424.7,794.6L420.5,795.9L425.5,797.4L432.1,793.5L438.3,793.3L445.9,788.4L455.6,788.8L457.3,791.2L453.5,792.0L456.5,794.2L462.8,795.3L463.9,793.6L466.5,796.0L472.0,796.0L495.1,804.3L495.7,807.0L512.3,812.7L511.9,814.3L507.1,817.4L505.2,820.0L523.8,817.7L531.1,818.4L537.7,817.5L546.6,815.2L543.3,812.1L538.7,809.5L530.1,808.0L528.5,805.0L516.0,802.9L514.9,803.3L506.2,797.4L505.6,798.5L499.6,795.2L493.2,792.5L479.6,787.5L471.4,785.4L456.5,783.5Z " data-iso-a2="CU" data-key="CUB" data-label="Cuba"/><path d="M621.8,894.1L620.7,893.2L616.4,892.3L621.8,894.1Z " data-iso-a2="CW" data-key="CUW" data-label="Curaçao"/><path d="M478.1,822.1L476.8,822.1L476.6,822.2L478.1,822.1Z M480.0,822.0L480.9,821.5L479.0,822.1L480.0,822.0Z " data-iso-a2="KY" data-key="CYM" data-label="Cayman Is."/><path d="M578.8,834.9L584.4,836.0L586.8,831.0L590.0,829.8L593.5,830.8L597.1,829.9L601.8,827.1L607.8,826.3L615.5,827.5L618.8,822.6L614.3,820.1L602.8,819.5L606.1,816.7L601.2,817.7L598.1,814.0L595.4,814.8L589.3,813.8L582.2,814.2L576.9,816.0L576.4,816.3L578.5,821.8L576.4,828.5L578.1,834.7L578.8,834.9Z " data-iso-a2="DO" data-key="DOM" data-label="Dominican Rep."/><path d="M663.8,297.0L661.3,298.5L662.7,298.2L663.8,297.0Z M672.2,222.1L670.7,220.3L670.3,221.1L672.2,222.1Z M593.7,215.9L592.0,212.0L591.0,212.4L593.7,215.9Z M585.3,214.7L582.9,213.3L577.4,213.4L576.9,216.6L579.4,217.4L578.3,220.9L583.2,221.0L582.5,223.1L585.6,223.6L589.9,218.6L589.9,216.6L585.3,214.7Z M584.3,203.2L582.2,202.7L582.7,203.8L584.3,203.2Z M662.2,140.5L660.1,140.7L659.7,144.4L656.8,147.4L658.5,148.9L661.7,148.5L664.5,145.6L662.2,140.5Z M576.9,204.2L575.9,201.9L574.9,203.6L576.9,204.2Z M632.3,88.8L634.4,93.1L637.1,89.5L632.3,88.8Z M624.9,86.2L620.1,84.9L625.0,86.6L624.9,86.2Z M609.1,74.8L606.9,73.3L608.1,74.8L609.1,74.8Z M586.6,60.9L584.6,59.4L584.7,63.4L587.3,62.3L586.6,60.9Z M564.3,50.5L561.1,50.4L564.2,51.1L564.3,50.5Z M532.6,79.2L529.8,75.4L526.2,75.1L526.4,76.8L532.6,79.2Z M537.5,52.1L530.6,59.8L534.0,64.7L529.1,63.5L529.8,66.4L526.5,66.5L526.7,72.0L532.1,69.5L527.4,73.5L531.8,77.2L533.7,82.1L525.1,79.3L522.0,80.1L523.5,82.4L522.9,84.9L520.0,83.0L522.4,90.6L517.1,84.0L511.8,90.5L513.0,92.3L510.3,92.0L511.6,100.7L508.6,101.3L506.4,104.9L503.6,113.8L504.8,116.0L509.6,114.9L509.7,124.5L502.9,129.9L503.2,130.9L495.4,139.9L497.6,142.7L505.3,147.1L512.8,144.5L513.0,147.0L508.6,147.6L506.9,150.1L502.0,151.2L501.4,152.5L510.1,156.5L511.7,162.8L514.9,160.3L520.0,159.9L521.7,157.5L531.8,157.3L541.4,161.4L541.1,163.4L551.4,170.0L550.9,174.5L553.3,174.3L560.7,186.0L563.0,185.3L564.8,188.7L563.3,191.1L565.6,195.2L568.7,202.8L572.7,196.8L572.8,194.9L575.6,198.3L576.7,196.0L578.0,201.9L583.9,199.9L586.4,204.4L585.8,207.1L579.8,206.5L575.3,209.9L578.2,211.7L589.8,212.0L593.7,210.0L594.6,211.8L595.3,219.7L597.1,218.3L597.3,227.5L593.3,227.4L590.9,229.7L591.9,233.3L598.1,230.7L599.4,233.0L592.6,235.3L593.3,242.5L597.5,236.8L597.8,237.7L593.7,244.0L597.6,248.7L601.5,247.9L599.0,251.7L600.6,257.4L602.5,256.3L605.8,248.5L603.7,258.4L604.1,260.9L608.7,262.8L611.0,258.3L612.9,257.0L610.9,260.9L613.9,269.1L616.0,273.2L618.2,273.9L618.1,267.7L621.9,266.7L618.9,271.2L619.9,275.4L624.1,270.6L620.6,276.4L627.0,283.2L632.5,286.2L635.5,290.3L637.9,290.7L642.2,293.8L647.8,299.1L653.8,302.3L663.2,293.0L668.1,297.8L672.2,296.5L675.5,300.2L677.5,296.2L677.5,299.4L681.5,299.7L680.2,298.0L683.8,294.7L680.5,291.4L681.2,286.3L673.0,268.3L670.5,267.2L672.1,264.1L671.6,252.7L668.1,246.4L666.8,246.0L667.5,241.7L661.6,240.2L661.2,237.0L663.2,236.4L663.9,232.3L660.2,231.6L665.4,226.1L666.5,223.9L663.1,222.0L665.3,221.9L664.1,216.0L669.2,220.5L671.4,216.1L672.4,216.7L673.6,209.1L673.5,202.0L670.3,194.2L669.5,184.9L666.9,182.4L670.7,181.4L672.9,178.6L676.4,171.4L680.4,157.0L679.5,155.7L678.7,147.7L677.5,147.2L678.2,138.2L669.7,143.2L665.2,149.8L663.1,147.9L661.5,151.0L657.3,154.7L656.1,148.2L654.2,148.6L659.0,143.5L658.4,138.6L656.0,137.4L652.5,140.6L655.0,136.9L662.5,135.7L671.6,137.7L673.2,135.8L669.7,131.9L673.7,134.6L674.3,131.2L668.0,127.1L659.3,124.5L651.0,126.8L648.9,128.7L648.9,126.5L642.7,130.2L643.8,124.8L657.7,122.5L650.4,116.1L642.1,117.7L639.7,120.7L639.2,119.2L634.5,118.5L638.7,117.9L638.0,115.7L640.9,116.3L646.7,114.0L646.5,110.3L647.6,107.9L644.3,105.1L637.5,107.4L640.9,103.9L640.2,101.9L641.6,99.9L632.9,97.6L634.0,99.7L630.7,98.8L631.9,93.5L626.4,90.2L620.8,88.6L618.7,89.9L612.3,91.1L613.8,88.9L613.1,84.9L615.1,83.1L614.0,78.7L612.0,78.4L607.8,81.4L605.7,79.1L602.5,79.1L602.5,81.7L600.2,79.1L591.5,67.1L589.6,67.1L581.4,63.5L580.4,61.0L583.4,57.4L582.1,54.7L575.2,43.7L572.5,41.8L568.2,44.3L567.0,46.1L569.5,51.6L566.1,54.1L568.0,56.8L569.9,62.5L563.7,54.9L558.6,55.5L560.7,57.6L550.7,62.5L555.2,54.6L551.3,49.6L545.5,50.0L541.2,58.2L539.9,57.9L544.0,50.8L537.5,52.1Z " data-iso-a2="GL" data-key="GRL" data-label="Greenland"/><path d="M363.5,835.4L343.9,832.6L343.2,838.7L338.1,837.9L346.0,845.1L348.4,851.5L341.9,851.6L332.6,850.1L325.8,857.7L327.2,860.1L324.5,865.5L329.3,869.8L337.3,874.4L344.0,875.3L345.6,875.9L350.3,878.3L351.0,876.6L357.3,874.0L359.9,872.1L360.1,872.3L360.5,871.8L362.9,869.8L363.5,865.5L365.7,865.0L375.5,859.8L371.2,856.9L371.8,858.0L370.9,858.9L368.1,857.4L367.4,857.1L363.2,856.6L363.5,853.8L365.7,838.4L366.1,835.7L363.5,835.4Z " data-iso-a2="GT" data-key="GTM" data-label="Guatemala"/><path d="M375.5,859.8L365.7,865.0L363.5,865.5L362.9,869.8L360.5,871.8L360.1,872.3L360.4,872.3L370.4,878.3L374.9,878.7L379.2,880.2L378.7,885.5L379.2,885.8L381.4,885.9L382.8,886.4L384.5,889.5L384.4,890.6L388.6,890.7L390.5,888.1L392.6,887.8L392.6,883.0L397.7,883.3L401.5,880.6L405.4,882.2L414.2,875.8L417.7,873.8L420.8,875.7L433.5,872.7L438.2,872.7L437.4,872.2L430.8,869.9L424.8,863.0L420.0,862.1L409.6,861.2L406.0,859.8L398.7,861.6L384.7,860.1L382.2,858.5L376.7,860.2L375.5,859.8Z M405.2,854.7L405.2,854.1L404.6,854.4L405.2,854.7Z " data-iso-a2="HN" data-key="HND" data-label="Honduras"/><path d="M578.1,834.7L576.4,828.5L578.5,821.8L576.4,816.3L575.7,816.6L560.2,815.9L556.5,818.3L565.6,820.5L564.6,824.7L569.8,829.8L555.6,831.6L545.9,831.3L544.9,833.3L553.1,836.3L556.7,834.6L574.4,833.0L577.0,833.9L578.1,834.7Z M565.5,813.9L562.6,813.7L564.7,814.4L565.5,813.9Z " data-iso-a2="HT" data-key="HTI" data-label="Haiti"/><path d="M511.1,835.2L503.7,834.7L501.0,835.7L502.7,840.0L512.0,843.3L522.3,838.0L515.4,835.7L511.1,835.2Z " data-iso-a2="JM" data-key="JAM" data-label="Jamaica"/><path d="M690.8,824.4L689.7,823.9L689.7,824.6L690.8,824.4Z M689.4,823.5L686.8,822.5L686.7,823.0L689.4,823.5Z " data-iso-a2="KN" data-key="KNA" data-label="St. Kitts and Nevis"/><path d="M683.2,815.2L683.0,815.2L682.6,815.3L682.0,815.7L681.9,816.0L683.3,815.6L683.2,815.2Z " data-iso-a2="MF" data-key="MAF" data-label="St. Martin"/><path d="M114.3,752.5L113.3,750.9L112.8,751.3L114.3,752.5Z M395.1,811.5L397.5,808.9L395.4,808.7L395.1,811.5Z M398.5,801.4L398.1,800.9L398.2,801.4L398.5,801.4Z M145.8,701.1L145.6,698.7L145.5,698.8L145.8,701.1Z M127.1,689.3L124.4,686.2L126.8,689.7L127.1,689.3Z M124.0,685.8L123.9,681.6L122.5,682.1L124.0,685.8Z M139.6,675.1L138.9,674.5L139.2,675.1L139.6,675.1Z M83.5,606.5L82.9,603.9L82.9,606.7L83.5,606.5Z M140.9,638.2L141.1,635.3L137.3,637.7L139.2,640.3L140.9,638.2Z M131.9,632.9L132.6,630.1L130.1,625.3L129.8,628.5L131.9,632.9Z M111.3,578.2L111.5,583.0L112.8,585.7L111.6,587.0L111.4,596.5L112.7,599.5L111.4,603.9L112.4,605.2L111.0,609.6L117.7,624.7L120.6,634.9L115.6,639.8L108.4,635.8L111.4,642.7L111.4,645.4L117.5,655.1L122.8,655.0L122.6,659.5L128.3,670.9L125.0,682.7L129.7,691.3L132.8,695.6L135.6,701.5L138.0,704.2L139.1,713.4L145.5,713.1L147.4,710.0L143.6,699.8L137.6,695.0L139.4,689.3L136.8,676.6L137.7,672.8L137.6,665.5L135.0,662.6L133.4,653.2L130.7,647.9L132.0,641.0L125.2,620.6L123.1,612.9L124.5,610.1L128.3,594.1L132.8,601.1L138.2,605.2L137.7,606.5L142.4,611.1L140.0,614.9L140.0,625.2L141.4,638.2L143.0,643.8L145.5,648.3L146.2,652.1L151.9,658.8L150.8,661.4L152.4,666.9L155.5,669.4L160.2,678.3L160.1,680.5L156.7,682.9L156.0,686.4L158.8,690.6L161.5,692.5L168.1,706.1L171.1,708.0L170.5,709.3L174.1,714.9L183.5,735.3L184.2,739.2L183.1,742.8L184.3,747.6L186.4,749.9L185.0,753.8L181.7,755.8L183.5,758.5L178.0,759.8L180.2,768.6L183.0,774.3L193.4,783.7L197.4,790.9L215.7,802.4L217.1,805.1L224.9,812.6L234.0,818.5L237.5,821.7L248.2,826.8L250.6,830.0L255.0,832.2L259.2,836.0L265.9,838.3L270.2,841.4L277.3,843.4L286.9,842.4L293.6,841.2L295.0,839.2L299.4,842.7L305.9,845.5L324.1,865.2L324.5,865.5L327.2,860.1L325.8,857.7L332.6,850.1L341.9,851.6L348.4,851.5L346.0,845.1L338.1,837.9L343.2,838.7L343.9,832.6L363.5,835.4L366.1,835.7L366.1,834.8L369.9,835.0L374.4,829.8L377.2,829.8L377.5,829.4L380.7,826.2L382.0,832.6L383.6,830.8L388.7,818.8L386.0,818.8L391.9,808.9L397.7,802.3L397.3,799.3L389.7,797.9L383.6,795.8L373.2,796.7L362.0,796.7L355.5,798.8L353.4,803.5L352.3,810.6L350.4,811.6L348.8,816.3L341.0,820.1L341.6,822.2L337.4,824.5L334.3,821.9L330.3,820.7L319.0,821.6L306.0,821.6L301.7,821.0L300.4,818.8L295.0,813.7L289.7,812.7L286.5,810.5L283.1,803.8L282.1,797.6L275.4,785.4L271.6,770.4L275.1,778.1L275.6,776.7L273.0,773.3L271.7,763.6L272.5,762.1L280.8,738.4L286.2,731.2L286.9,728.9L279.9,726.2L274.0,723.0L267.6,718.8L264.5,703.4L263.1,701.8L258.9,693.6L259.0,691.5L251.6,674.5L239.1,670.2L233.0,675.6L230.2,676.2L222.7,668.9L219.7,664.3L218.5,652.8L215.8,649.0L208.7,637.2L207.6,634.0L190.7,626.7L188.9,631.6L161.9,619.1L158.0,615.4L135.7,592.2L132.1,588.2L134.0,586.6L111.7,575.9L111.3,578.2Z " data-iso-a2="MX" data-key="MEX" data-label="Mexico"/><path d="M696.1,827.4L695.2,827.5L695.3,828.1L696.1,827.4Z " data-iso-a2="MS" data-key="MSR" data-label="Montserrat"/><path d="M384.4,891.0L380.1,891.0L390.1,899.1L394.6,905.0L400.9,909.9L403.5,912.7L403.5,913.0L406.2,912.1L414.2,915.0L417.9,914.2L421.5,915.1L427.0,918.0L430.6,916.2L429.7,916.0L429.5,909.3L430.2,906.5L428.6,906.0L429.8,899.2L433.0,894.6L432.5,890.6L434.7,883.4L437.6,879.8L436.4,875.3L437.9,873.1L438.2,872.7L433.5,872.7L420.8,875.7L417.7,873.8L414.2,875.8L405.4,882.2L401.5,880.6L397.7,883.3L392.6,883.0L392.6,887.8L390.5,888.1L388.6,890.7L384.4,890.6L384.4,891.0Z " data-iso-a2="NI" data-key="NIC" data-label="Nicaragua"/><path d="M456.5,955.1L453.8,952.3L453.2,953.2L456.5,955.1Z M490.2,945.6L489.4,945.6L489.6,946.0L490.2,945.6Z M492.4,945.3L492.9,943.5L491.6,943.6L492.4,945.3Z M448.5,933.3L447.4,932.9L448.4,933.8L448.5,933.3Z M444.3,931.1L440.6,931.0L439.2,934.4L441.8,937.6L439.4,939.7L438.9,944.8L439.7,946.8L440.1,946.5L448.4,945.4L455.6,947.9L457.9,951.0L461.6,952.2L463.7,949.3L465.7,954.1L469.0,956.4L477.7,953.6L471.7,946.8L471.8,946.0L481.1,942.0L480.3,941.6L485.2,937.7L489.8,937.7L502.7,944.0L499.3,949.1L505.8,956.0L506.7,953.7L510.5,952.3L514.7,948.3L511.1,942.5L512.4,940.8L506.3,936.6L494.9,933.0L491.8,933.1L486.3,931.7L481.5,932.7L476.2,935.5L470.6,936.9L466.8,938.9L460.0,939.9L455.3,937.3L450.5,938.1L448.3,937.0L445.1,931.7L444.3,931.1Z " data-iso-a2="PA" data-key="PAN" data-label="Panama"/><path d="M625.1,827.7L624.5,827.1L624.4,827.5L625.1,827.7Z M645.5,819.7L634.2,821.0L632.0,823.1L634.1,827.2L642.9,825.7L651.9,820.7L651.5,819.2L645.5,819.7Z " data-iso-a2="PR" data-key="PRI" data-label="Puerto Rico"/><path d="M359.9,872.1L357.3,874.0L351.0,876.6L350.3,878.3L351.8,879.1L360.3,882.5L365.3,885.2L373.9,887.5L378.4,885.6L378.7,885.5L379.2,880.2L374.9,878.7L370.4,878.3L360.4,872.3L360.1,872.3L359.9,872.1Z " data-iso-a2="SV" data-key="SLV" data-label="El Salvador"/><path d="M669.3,477.9L669.1,477.4L668.6,478.1L669.3,477.9Z " data-iso-a2="PM" data-key="SPM" data-label="St. Pierre and Miquelon"/><path d="M681.9,816.0L682.4,816.2L683.2,816.2L683.3,815.9L683.3,815.6L681.9,816.0L681.9,816.0Z " data-iso-a2="SX" data-key="SXM" data-label="Sint Maarten"/><path d="M567.8,793.5L568.3,794.5L569.2,793.9L567.8,793.5Z M575.8,793.5L575.6,792.8L574.0,792.8L575.8,793.5Z M573.1,793.0L571.5,792.0L571.4,792.3L573.1,793.0Z " data-iso-a2="TC" data-key="TCA" data-label="Turks and Caicos Is."/><path d="M457.4,768.0L457.6,767.7L457.1,767.9L457.4,768.0Z M459.9,767.5L460.0,766.5L459.8,767.2L459.9,767.5Z M465.9,766.3L467.2,765.8L465.5,766.1L465.9,766.3Z M468.4,765.3L468.7,764.9L468.3,765.2L468.4,765.3Z M473.5,761.6L473.2,761.2L472.7,761.5L473.5,761.6Z M455.0,746.5L453.2,745.4L453.4,746.2L455.0,746.5Z M454.6,745.4L454.2,744.1L453.6,743.7L454.6,745.4Z M287.6,713.6L291.1,708.9L288.7,711.3L287.6,713.6Z M475.8,737.6L473.0,731.1L473.7,733.4L475.8,737.6Z M351.3,701.6L350.6,699.9L350.1,699.8L351.3,701.6Z M382.5,703.9L382.7,703.5L381.9,704.4L382.5,703.9Z M383.3,702.9L383.2,700.0L383.4,701.5L383.3,702.9Z M379.4,699.2L379.9,698.3L378.9,699.4L379.4,699.2Z M462.8,695.5L462.1,697.3L462.3,698.3L462.8,695.5Z M95.1,556.1L94.7,555.0L94.3,554.7L95.1,556.1Z M105.4,560.5L104.9,561.1L105.5,561.5L105.4,560.5Z M93.8,545.6L94.2,544.3L92.6,543.4L93.8,545.6Z M92.2,543.0L91.5,542.1L91.1,542.2L92.2,543.0Z M96.1,544.9L96.1,546.4L98.4,547.4L96.1,544.9Z M512.6,652.6L511.3,652.1L511.4,652.3L512.6,652.6Z M513.0,652.7L515.3,649.5L513.6,651.4L513.0,652.7Z M522.3,645.3L522.6,639.8L522.7,641.4L522.3,645.3Z M521.0,638.3L520.1,637.3L520.8,638.5L521.0,638.3Z M531.2,583.3L531.9,581.6L531.1,582.2L531.2,583.3Z M546.0,576.4L533.8,579.9L532.5,581.8L540.2,580.9L547.7,577.3L546.0,576.4Z M568.5,570.2L567.4,569.7L566.2,570.3L568.5,570.2Z M563.5,569.6L562.0,569.0L561.3,570.0L563.5,569.6Z M555.7,569.4L555.4,568.4L555.3,569.1L555.7,569.4Z M578.9,532.2L577.0,533.0L577.3,533.1L578.9,532.2Z M153.9,398.2L153.9,397.4L153.7,397.7L153.9,398.2Z M158.1,398.6L157.6,397.8L157.1,398.4L158.1,398.6Z M158.8,396.2L159.3,395.2L158.6,396.3L158.8,396.2Z M162.0,390.3L161.4,389.5L161.4,393.1L162.0,390.3Z M162.3,386.4L162.5,384.9L162.0,385.3L162.3,386.4Z M161.6,384.8L161.0,384.5L161.5,385.2L161.6,384.8Z M165.8,382.8L165.8,385.6L163.5,387.3L162.2,393.7L158.2,399.0L155.7,398.5L160.7,392.8L160.6,389.5L153.4,383.3L149.8,378.6L148.8,379.8L145.2,393.9L141.7,400.2L139.9,401.0L144.2,406.1L140.3,402.8L134.8,410.2L129.9,415.6L127.6,419.1L120.4,426.7L115.4,430.6L110.2,439.8L110.3,441.9L107.4,448.6L100.5,454.8L98.3,458.1L99.0,464.5L94.3,474.8L95.8,482.7L95.5,485.7L97.5,491.2L98.5,489.7L103.0,493.5L98.4,491.7L96.2,492.9L94.2,502.6L96.2,504.8L92.6,510.8L94.3,527.9L95.4,530.5L92.5,535.5L93.2,537.5L100.2,543.0L102.0,547.7L107.5,555.4L112.6,566.2L112.9,569.1L111.7,575.8L111.7,575.9L134.0,586.6L132.1,588.2L135.7,592.2L158.0,615.4L161.9,619.1L188.9,631.6L190.7,626.7L207.6,634.0L208.7,637.2L215.8,649.0L218.5,652.8L219.7,664.3L222.7,668.9L230.2,676.2L233.0,675.6L239.1,670.2L251.6,674.5L259.0,691.5L258.9,693.6L263.1,701.8L264.5,703.4L267.6,718.8L274.0,723.0L279.9,726.2L286.9,728.9L287.1,728.2L284.7,716.7L286.1,713.9L284.0,712.8L287.6,712.2L289.1,709.7L288.0,707.4L292.3,704.8L300.1,703.2L302.1,701.4L302.8,703.3L313.4,700.4L318.3,696.7L317.5,692.7L322.4,695.6L327.2,695.1L331.1,693.1L331.6,694.9L339.4,697.0L346.4,700.1L348.0,698.8L353.0,699.1L356.3,704.9L362.7,707.5L366.1,706.4L368.9,708.1L371.6,705.3L379.1,711.1L380.5,709.5L375.5,706.3L373.5,703.7L377.8,700.9L377.5,699.4L373.7,700.2L366.9,696.8L369.2,694.4L371.9,696.1L384.1,696.1L385.4,696.9L393.7,695.5L394.8,698.7L400.3,698.8L401.7,696.6L406.7,698.7L409.3,697.9L416.6,701.4L417.3,701.1L420.9,706.8L420.7,708.2L429.1,706.3L434.6,704.3L438.2,706.5L442.3,712.1L447.8,716.9L449.0,718.8L446.6,730.5L448.5,732.0L448.5,735.1L451.7,741.0L454.8,741.6L454.7,743.7L457.0,746.8L457.5,750.1L460.2,753.0L462.5,753.7L465.2,759.0L465.2,761.6L472.3,760.6L476.4,753.8L477.4,745.6L476.4,739.8L475.3,738.4L469.6,725.0L472.1,723.9L468.1,717.4L465.9,712.8L463.0,703.5L461.7,696.6L465.5,689.2L466.2,685.2L468.2,684.5L472.9,679.1L477.6,676.8L478.5,674.6L485.3,670.9L486.7,667.8L492.3,662.3L499.5,658.9L505.1,653.5L513.3,648.7L511.5,647.8L507.2,642.8L512.3,642.8L515.9,644.4L519.7,640.8L518.7,637.2L517.0,640.4L510.2,636.8L515.8,634.4L519.0,635.4L519.0,633.6L514.4,626.0L512.9,626.8L510.1,623.6L513.9,624.8L509.1,619.8L513.9,621.3L511.6,617.7L513.6,615.1L507.3,611.9L503.8,607.4L504.1,609.6L512.8,612.3L511.0,607.8L511.0,602.1L510.0,599.3L516.4,596.2L513.2,600.1L512.5,605.7L513.0,608.2L516.0,609.9L519.4,614.1L516.7,620.7L517.2,623.5L518.7,619.7L524.1,609.8L524.2,604.2L521.2,600.7L521.3,597.8L525.8,599.8L529.6,597.2L532.8,591.2L533.5,585.4L530.8,584.1L531.7,581.3L539.7,574.9L542.6,573.5L554.4,570.8L555.4,566.9L558.2,568.4L561.7,565.9L562.0,568.0L568.1,565.4L562.9,564.7L560.3,560.0L557.4,559.2L558.9,551.8L563.7,540.6L572.3,533.1L576.1,533.0L576.3,530.6L581.0,530.4L588.0,524.6L586.1,521.2L586.1,520.9L581.3,516.4L579.6,515.7L574.0,498.0L572.8,497.4L566.8,499.7L566.1,497.5L564.1,498.2L558.4,512.7L558.3,516.0L554.9,523.7L552.0,525.4L549.7,528.7L522.7,531.5L517.0,534.6L508.4,543.5L505.5,548.7L489.0,549.3L485.1,551.2L487.3,557.4L486.3,558.9L475.6,564.1L466.4,565.8L455.8,571.8L453.6,571.7L449.7,568.0L455.8,559.3L459.2,549.7L456.3,528.8L447.8,522.9L448.9,520.9L444.8,519.6L443.6,515.3L438.0,509.6L411.4,490.3L409.5,490.5L392.0,489.6L387.2,489.6L380.1,485.7L379.3,483.7L372.8,480.2L370.1,480.7L363.2,476.2L361.0,468.5L360.0,472.9L329.2,464.7L319.6,461.7L278.9,446.7L269.7,442.7L230.9,423.5L222.2,418.6L199.5,404.7L185.7,395.4L166.3,381.1L165.8,382.8Z M20.5,10.4L21.3,9.6L21.1,9.3L20.5,10.4Z M20.7,12.5L21.5,10.9L21.0,10.9L20.7,12.5Z M21.3,0.0L21.3,0.1L21.3,0.0L21.3,0.0Z M19.8,4.0L20.6,2.5L20.1,0.0L19.8,4.0Z M21.4,7.9L20.6,5.9L18.5,5.6L21.4,7.9Z M22.9,12.0L24.0,10.9L22.9,11.1L22.9,12.0Z M26.2,38.1L27.5,37.8L26.2,36.9L26.2,38.1Z M23.1,22.1L25.6,26.3L22.7,18.1L23.1,22.1Z M30.5,50.1L31.7,50.7L31.8,50.1L30.5,50.1Z M34.1,56.9L34.5,55.9L34.0,54.8L34.1,56.9Z M41.1,67.9L43.1,68.4L42.1,64.8L34.8,61.4L36.1,63.5L41.1,67.9Z M48.7,75.7L42.6,73.5L43.8,76.0L48.7,77.8L48.7,75.7Z M51.5,80.5L52.0,81.4L53.0,79.6L51.5,80.5Z M52.5,82.2L54.1,81.9L53.8,81.1L52.5,82.2Z M59.5,101.8L60.1,99.6L59.6,99.9L59.5,101.8Z M64.9,101.8L66.4,101.2L65.6,100.5L64.9,101.8Z M64.7,93.3L65.3,92.2L62.2,86.6L58.7,85.2L57.0,85.8L57.2,88.7L59.1,89.7L62.1,95.1L64.7,93.3Z M71.2,120.7L71.9,119.7L71.7,119.8L71.2,120.7Z M72.9,118.9L72.4,118.5L72.3,118.2L72.9,118.9Z M165.6,283.2L165.4,281.0L163.9,282.4L165.6,283.2Z M157.0,277.2L158.7,271.4L155.7,279.1L157.0,277.2Z M72.6,110.5L70.8,110.2L71.0,111.7L72.6,110.5Z M160.5,269.5L157.5,270.2L160.2,270.0L160.5,269.5Z M88.1,141.0L89.0,140.2L87.9,139.9L88.1,141.0Z M170.6,281.4L172.9,277.5L170.4,275.3L167.3,282.8L170.6,281.4Z M166.1,261.5L163.9,263.4L164.6,265.6L162.2,266.8L159.0,281.0L160.3,282.4L163.7,279.0L166.7,268.4L166.1,261.5Z M168.8,266.2L170.8,265.5L170.0,263.8L168.8,266.2Z M170.6,270.6L172.6,266.0L168.2,267.6L168.0,270.8L170.6,270.6Z M98.7,145.8L99.8,145.9L99.7,145.2L98.7,145.8Z M171.3,264.0L172.8,263.7L173.1,261.2L171.3,264.0Z M168.7,255.3L167.0,253.4L162.7,261.4L167.0,258.1L168.7,255.3Z M108.0,149.7L108.6,149.9L108.0,147.7L108.0,149.7Z M169.0,246.3L166.0,245.7L163.5,252.4L161.3,253.7L160.2,256.5L167.3,249.7L169.0,246.3Z M115.2,144.4L115.8,143.3L116.0,142.4L115.2,144.4Z M115.7,146.5L113.4,140.7L107.6,138.1L102.7,142.8L111.1,150.5L113.4,151.7L116.4,149.6L115.7,146.5Z M173.9,235.4L171.4,232.8L168.2,233.5L167.6,242.1L168.6,241.2L170.3,245.5L174.5,241.6L173.9,235.4Z M179.4,242.3L179.5,240.5L178.4,240.9L179.4,242.3Z M177.3,241.1L168.2,251.1L174.6,250.2L177.7,243.9L177.3,241.1Z M122.6,146.4L117.4,142.3L121.2,149.2L123.1,149.2L122.6,146.4Z M123.7,145.3L125.4,145.1L125.2,144.7L123.7,145.3Z M151.4,160.5L152.2,159.7L151.4,159.1L151.4,160.5Z M149.6,163.6L156.1,164.7L151.0,162.7L149.6,163.6Z M123.6,58.4L119.4,52.5L117.2,57.0L123.6,58.4Z M162.2,173.7L162.8,173.3L161.7,172.9L162.2,173.7Z M159.7,166.5L157.9,165.9L158.4,167.2L159.7,166.5Z M121.5,19.7L120.0,20.5L120.0,21.9L121.5,19.7Z M159.6,156.4L160.3,155.2L160.1,154.9L159.6,156.4Z M159.2,21.4L159.9,19.8L155.6,21.7L157.0,25.0L152.9,32.6L156.2,36.5L157.8,29.3L160.0,27.5L159.2,21.4Z M191.9,42.6L193.3,43.7L192.5,42.8L191.9,42.6Z M166.6,289.6L167.5,289.5L169.3,289.4L170.4,289.1L170.7,288.8L174.3,286.5L174.9,285.2L177.6,282.6L178.3,282.4L179.0,279.8L177.0,268.9L175.9,267.8L177.7,261.2L180.4,256.6L184.6,245.0L185.2,237.6L187.1,228.9L188.4,227.9L187.3,223.7L178.9,224.2L173.2,221.5L175.8,218.8L178.2,204.6L181.0,203.2L176.3,198.7L174.3,194.3L177.1,192.2L266.4,129.2L266.3,128.9L266.5,118.6L263.4,114.9L259.9,104.9L258.9,93.1L255.2,85.9L256.7,83.1L258.8,83.2L258.8,79.0L256.5,73.7L258.2,72.9L255.5,70.8L258.8,69.3L259.6,65.4L252.7,62.4L250.9,58.6L241.5,50.1L243.0,49.3L235.5,46.8L228.2,46.1L224.9,43.6L223.3,35.8L219.5,36.2L214.8,38.5L213.8,41.3L203.9,52.0L204.5,60.4L201.9,60.4L199.4,63.4L200.9,64.6L201.1,67.9L199.1,69.2L198.1,62.9L202.8,58.3L202.3,56.8L196.2,64.1L193.0,62.7L191.9,54.3L195.2,52.5L196.7,48.4L190.8,41.5L187.2,38.9L184.2,34.5L181.7,38.4L181.0,44.5L179.0,43.3L172.9,45.7L174.4,58.8L173.0,62.1L180.7,70.7L179.2,72.3L173.3,73.4L168.5,76.1L163.7,73.6L163.5,69.4L160.2,68.6L157.4,64.5L158.7,60.9L152.7,58.4L136.6,55.4L132.4,60.0L132.8,63.5L130.4,72.8L130.6,64.5L124.8,64.5L120.9,71.3L119.0,73.2L121.5,78.8L125.7,78.7L131.1,80.3L126.1,80.2L125.2,81.6L113.8,89.1L108.0,90.3L112.1,94.3L113.6,98.7L113.4,103.3L109.9,108.0L115.6,108.7L113.5,111.6L119.7,117.4L111.8,116.7L102.6,119.2L98.7,116.7L92.4,115.4L84.4,108.7L80.1,108.8L77.6,101.4L66.5,94.1L66.0,98.6L68.9,98.6L67.1,100.7L69.3,102.5L74.9,104.1L72.3,104.9L74.5,108.3L79.9,114.0L80.1,115.9L86.7,122.0L87.7,119.8L92.4,122.6L92.8,124.4L98.7,127.9L104.4,128.7L104.7,129.8L113.1,133.2L116.1,136.8L124.5,138.4L127.0,135.7L126.9,132.6L131.4,132.5L139.5,136.1L151.4,136.1L158.1,139.8L161.6,144.3L158.0,143.4L157.0,149.7L155.5,142.3L150.5,139.2L144.5,141.5L139.0,141.7L138.8,144.8L133.5,143.8L133.0,145.6L135.4,149.6L140.7,151.9L143.5,151.9L148.3,154.9L148.1,156.9L153.0,158.3L156.6,157.3L155.8,155.8L158.8,154.1L161.5,155.0L163.6,160.2L166.8,162.2L162.6,166.4L163.8,168.9L161.9,172.1L164.1,183.7L166.2,186.2L170.3,195.2L170.5,201.4L176.5,203.5L171.1,205.7L171.6,218.9L170.1,224.0L170.1,227.7L173.3,232.7L176.3,223.1L176.6,228.4L174.7,233.5L177.4,237.8L183.4,228.8L185.0,228.5L181.6,233.5L179.5,238.3L180.6,242.7L179.2,244.9L177.8,250.3L173.7,255.1L175.3,259.3L173.2,268.7L173.9,272.4L172.2,271.4L166.8,273.3L166.4,276.1L175.2,275.9L173.8,276.6L170.1,284.2L168.6,283.5L166.6,289.3L166.6,289.6Z " data-iso-a2="US" data-key="USA" data-label="United States"/><path d="M663.8,816.3L663.1,816.1L662.6,816.5L663.8,816.3Z M666.1,815.2L665.6,814.7L665.5,815.2L666.1,815.2Z " data-iso-a2="VG" data-key="VGB" data-label="British Virgin Is."/><path d="M662.8,823.4L661.5,824.7L664.0,824.1L662.8,823.4Z M663.1,817.0L662.0,817.1L662.4,817.5L663.1,817.0Z M661.0,817.8L658.8,817.8L660.1,818.1L661.0,817.8Z " data-iso-a2="VI" data-key="VIR" data-label="U.S. Virgin Is."/></g></svg>