<?xml version="1.0" encoding="utf-8"?>
<!-- Generator: Adobe Illustrator 16.2.1, SVG Export Plug-In . SVG Version: 6.00 Build 0)  -->
<!DOCTYPE svg PUBLIC "-//W3C//DTD SVG 1.1 Basic//EN" "http://www.w3.org/Graphics/SVG/1.1/DTD/svg11-basic.dtd">
<svg version="1.1" baseProfile="basic" id="Ebene_1"
	 xmlns="http://www.w3.org/2000/svg" xmlns:xlink="http://www.w3.org/1999/xlink" x="0px" y="0px" width="100px" height="100px"
	 viewBox="0 0 100 100" xml:space="preserve">
<path d="M79.432,82.326c-0.063,0-0.125-0.034-0.16-0.088l-0.946-1.459l-0.233-0.811l-0.137-3.573
	c-0.004-0.12-0.05-0.235-0.127-0.324c-0.046-0.05-0.064-0.108-0.056-0.164l0.212-1.397c0.008-0.054,0.039-0.102,0.085-0.131
	c0.031-0.02,0.065-0.03,0.102-0.03c0.101,0.022,0.16,0.056,0.176,0.07c0.053,0.047,0.704,0.59,0.704,0.59l0.377,0.294l0.062,0.082
	l0.109,0.274c0.018,0.046,0.017,0.099-0.004,0.146c-0.019,0.041-0.027,0.086-0.025,0.131l0.008,0.214l-0.148,1.042
	c-0.019,0.136,0.012,0.269,0.084,0.366l0.657,1.825c0.016,0.137-0.021,0.241-0.316,0.319c-0.148,0.04-0.242,0.185-0.22,0.336
	l0.212,1.378c0.007,0.04,0,0.081-0.02,0.118l-0.184,0.352c-0.034,0.063-0.043,0.138-0.026,0.208c0.02,0.082-0.02,0.168-0.095,0.207
	L79.432,82.326z"/>
<path d="M34.809,74.384c-0.053,0-0.102-0.021-0.137-0.058l-0.4-0.418c-0.033-0.034-0.053-0.082-0.053-0.13v-0.141
	c0-0.049,0.019-0.096,0.053-0.132l0.13-0.137c0.037-0.038,0.086-0.06,0.138-0.06h0.268l0.355,0.16
	c0.062,0.032,0.103,0.098,0.103,0.168v0.418c0,0.071-0.04,0.137-0.103,0.169l-0.268,0.139L34.809,74.384z"/>
<path d="M63.268,61.184c-0.028,0-0.058-0.008-0.083-0.021l-0.199-0.101l-2.277-0.932c-0.071-0.029-0.118-0.099-0.118-0.176
	c-0.05-0.197-0.128-0.267-0.275-0.391c-0.035-0.029-0.09-0.062-0.135-0.073c-0.046-0.012-0.072-0.021-0.097-0.037
	c-0.07-0.045-0.104-0.128-0.084-0.207c0.02-0.08,0.089-0.138,0.171-0.145l1.386-0.102c0.089-0.007,0.295-0.054,0.39-0.323l1.4-3.797
	c0.027-0.074,0.099-0.124,0.178-0.124c1.516,0.214,1.516,0.214,1.538,0.214c0.196,0,0.362-0.103,0.444-0.274l0.298-0.623
	c0.031-0.064,0.099-0.107,0.171-0.107l3.012,0.703c0.089,0.021,0.15,0.102,0.147,0.193c-0.007,0.137,0.044,0.274,0.138,0.376
	c0.023,0.025,0.08,0.09,0.104,0.127l0.392,0.819c0.025,0.054,0.024,0.116-0.003,0.17l-0.655,1.254l-0.499,0.529
	c-0.066,0.071-0.111,0.158-0.132,0.256l-0.241,1.256c-0.057,0.116-0.119,0.176-0.144,0.188c-0.026,0.014-0.064,0.038-0.086,0.06
	l-0.448,0.445c-0.032,0.033-0.066,0.053-0.104,0.061l-1.133,0.237L63.268,61.184z M56.312,60.132c-0.067,0-0.129-0.036-0.163-0.095
	c-0.075-0.125-0.193-0.208-0.329-0.233l-1.204-0.208c-0.068-0.012-0.125-0.06-0.146-0.126c-0.021-0.061-0.014-0.144,0.014-0.187
	l0.056-0.086c0.063-0.163,0.166-0.249,0.246-0.249c0,0,2.91,0.328,2.911,0.328c0.068,0,1.075-0.079,1.129-0.082
	c0.077,0,0.159,0.071,0.173,0.165c0.014,0.095-0.051,0.188-0.147,0.21l-2.496,0.559L56.312,60.132z"/>
<path d="M45.699,49.947c-0.06,0-0.115-0.027-0.151-0.074l-0.768-1l-3.624-3.104c-0.049-0.042-0.074-0.104-0.066-0.167
	c0.007-0.062,0.045-0.118,0.102-0.147l0.344-0.179l0.161-0.008l1.11,0.462l0.22,0.38c0.056,0.095,0.156,0.149,0.26,0.149
	c0.042,0,0.084-0.009,0.125-0.027c0.141-0.064,0.209-0.225,0.158-0.372l-0.062-0.179l0.512-0.179
	c0.019-0.001,0.036-0.002,0.052-0.002c0.081,0,0.121,0.021,0.15,0.054l1.709,1.9c0.063,0.069,0.145,0.119,0.237,0.144
	c0.157,0.109,0.259,0.148,0.37,0.15c0.048,0.001,0.096,0.021,0.129,0.056l0.095,0.096c0.042,0.043,0.061,0.105,0.051,0.166
	l-0.128,0.73c-0.013,0.073-0.068,0.132-0.14,0.151l-0.117,0.03c-0.145,0.039-0.264,0.146-0.321,0.289l-0.231,0.562
	c-0.026,0.063-0.083,0.108-0.15,0.117L45.699,49.947z"/>
<path d="M86.553,76.413c-0.056,0-0.109-0.025-0.146-0.069c-0.041-0.049-0.055-0.115-0.035-0.174l0.09-0.284
	c0.063-0.201,0-0.425-0.158-0.558l-1.496-1.272c-0.042-0.036-0.067-0.09-0.067-0.145l-0.112-1.233
	c-0.006-0.068,0.025-0.137,0.083-0.176l0.098-0.064c0.168-0.093,0.257-0.301,0.221-0.544l-0.678-3.699
	c-0.009-0.05,0.003-0.103,0.032-0.142c0.033-0.046,0.078-0.073,0.129-0.079l7.291-0.979c0.069-0.009,0.134-0.042,0.181-0.094
	c0.033-0.036,0.083-0.058,0.135-0.058c0.023,0.011,0.126,0.034,0.151,0.038c0,0,0.034,0.007,0.07,0.015
	c-0.025,0.088-0.04,0.146-0.041,0.209c-0.001,0.039,0.004,0.075,0.011,0.109c-0.073,0.012-0.029,0.025-0.184,0.037
	C91.971,67.263,92,67.394,92,67.55v5.833c0,0.159-0.025,0.291,0.135,0.3c0.168,0.009,0.209,0.018,0.289,0.026
	c0.003,0.028-0.028,0.059-0.018,0.089c0.046,0.142,0.156,0.196,0.234,0.229c0-0.001-0.031-0.021-0.054-0.056
	c0.011,0.018,0.02,0.034,0.034,0.049l0.086,0.084c0.101,0.096,0.215,0.204,0.223,0.284l0.117,0.732
	c0.005,0.058-0.018,0.147-0.102,0.182l-1.167,0.472L86.553,76.413z"/>
<path d="M74.053,72.891c-0.051,0-0.1-0.021-0.135-0.059l-5.13-5.346c-0.067-0.069-0.071-0.178-0.009-0.252l0.314-0.379
	c0.036-0.042,0.09-0.067,0.146-0.067c0.04,0.001,5.76,0.129,5.76,0.129c0.082,0.002,0.152,0.055,0.177,0.132l0.251,0.779
	l0.436,2.521c0.012,0.066-0.012,0.133-0.064,0.177c-0.025,0.021-0.048,0.048-0.065,0.077l-0.982,1.666l-0.333,0.251
	c-0.084,0.058-0.148,0.143-0.188,0.244c-0.022,0.062-0.075,0.108-0.139,0.121L74.053,72.891z"/>
<path d="M82.672,42.311c-0.07,0-0.134-0.038-0.167-0.099l-0.815-1.496c-0.034-0.062-0.029-0.14,0.011-0.198l0.797-1.166
	c0.08-0.113,0.096-0.278,0.04-0.459l-0.975-2.998l-0.307-0.528c-0.028-0.046-0.035-0.101-0.021-0.154
	c0.014-0.048,0.049-0.089,0.096-0.113l3.366-1.718c0.295-0.16,0.303-0.245,0.303-0.45v-1.687c0-0.044,0.123-0.122,0.092-0.185
	c0.154-0.441,0.767-1.981,0.795-2.058c0.043-0.121,0.151-0.126,0.175-0.128c0.055,0.034,0.157,0.056,0.234,0.056
	c0.037,0,0.081-0.005,0.109-0.016c0.089-0.035,0.208-0.095,0.233-0.188c0.032-0.123,0.064-0.222,0.107-0.289l0.768-1.605
	c0.031-0.066,0.099-0.108,0.172-0.108c0.078,0.006,4.521,0.348,4.521,0.348c0.052,0.004,0.099,0.027,0.13,0.066
	c0.034,0.041,0.05,0.09,0.045,0.138l-0.073,0.734l0.002,11.741c0,0.1-0.075,0.182-0.175,0.189l-3.028,0.234
	c-0.046,0.004-0.091,0.018-0.13,0.042L82.732,42.3L82.672,42.311z"/>
<path d="M48.531,62.956c-0.073,0-0.141-0.043-0.171-0.108l-0.255-0.535c-0.043-0.091-0.129-0.154-0.229-0.168
	c-0.058-0.009-0.108-0.042-0.138-0.092c-0.024-0.041-0.032-0.091-0.021-0.139c0.003-0.017,0.012-0.127,0.013-0.143
	c0.024-0.442,0.118-0.442,0.209-0.442c0.031,0.01,0.065,0.014,0.102,0.014c0.098,0,0.205-0.033,0.261-0.101l1.545-1.826
	c0.033-0.039,0.093-0.112,0.121-0.129l0.885,0.013c0.16,0,0.148-0.125,0.148-0.284c0-0.009,0-0.018,0-0.026s0.258-0.028,0.293-0.05
	l0.658-0.367l0.149-0.018l1.28,0.246c0.096,0.018,0.174,0.107,0.168,0.206c-0.005,0.081-0.058,0.152-0.136,0.173
	c-0.155,0.04-0.249,0.196-0.215,0.354c0.009,0.041,0.005,0.085-0.014,0.123c-0.091,0.201,0.015,0.439,0.157,0.589l0.189,0.643
	c0.085,0.16,0.267,0.505,0.267,0.505c0.054,0.099,0.156,0.155,0.263,0.155c0.041,0,0.082-0.008,0.121-0.025l0.708-0.313
	c0.022-0.002,0.042-0.004,0.061-0.004c0.11,0,0.164,0.04,0.19,0.098c0.043,0.093,0.002,0.205-0.092,0.25l-2.506,1.195
	c-0.026,0.003-0.05,0.004-0.07,0.004c-0.099,0-0.146-0.031-0.173-0.078l-0.454-0.757c-0.033-0.047-0.071-0.089-0.111-0.124
	l-0.062-0.453c-0.024-0.146-0.15-0.34-0.296-0.34c-0.006,0-0.013,0-0.02,0c-0.153,0-0.274,0.225-0.28,0.377l-0.012,0.353
	l-2.455,1.187L48.531,62.956z"/>
<path d="M63.513,53.724c-0.051-0.007-0.095-0.034-0.126-0.077l-2.951-4.056c-0.049-0.068-0.048-0.161,0.003-0.227l0.089-0.115
	c0.021-0.028,0.053-0.05,0.087-0.062l4.42-1.578c0.001,0,0.161,0.016,0.162,0.016l3.443,2.102l0.233,0.416
	c0.055,0.097,0.156,0.152,0.262,0.152c0.04,0,0.08-0.008,0.119-0.024c0.141-0.061,0.213-0.218,0.167-0.365l-0.088-0.284
	c0.013-0.02,0.025-0.041,0.035-0.062l0.204-0.424c0.023-0.049,0.067-0.086,0.12-0.101c0.018-0.001,0.033-0.002,0.048-0.002
	c0.055,0,0.085,0.01,0.11,0.027l2.782,1.836c0.045,0.03,0.075,0.078,0.082,0.132c0.008,0.056-0.008,0.11-0.044,0.152l-0.877,1.005
	l-0.446,0.465l-1.693,0.957c-0.053,0.042-0.1,0.07-0.142,0.089c-0.033-0.025-0.074,0.1-0.125,0.089L65.721,53
	c-0.006,0-0.013,0-0.02,0c-0.349,0-0.467,0.096-0.513,0.188l-0.322,0.645c-0.032,0.066-0.105,0.084-0.169,0.084
	c-0.019,0-0.048-0.014-0.075-0.009L63.513,53.724z"/>
<path d="M51.436,58.867C51.338,58.855,51.287,59,51.235,59h-0.72c-0.045,0-0.09-0.146-0.133-0.141l1.14-4.15
	c0.084-0.247-0.006-0.787-0.172-0.97l-3.476-2.207c-0.031-0.02-0.07-0.063-0.083-0.122l-0.326-1.451
	c-0.019-0.083,0.021-0.171,0.097-0.211c0.036-0.019,0.134-0.082,0.16-0.113c0.057-0.052,0.13-0.176,0.136-0.253l0.106-1.472
	c0.035-0.208,0.021-0.302,0.003-0.361c-0.014-0.045-0.038-0.087-0.071-0.121c-0.024-0.025-0.047-0.059-0.044-0.129l0.007-0.243
	l0.252-2.05c0.01-0.086-0.017-0.169-0.069-0.23l-0.352-0.743c-0.025-0.054-0.024-0.117,0.003-0.169l2.403-4.545
	c0.028-0.054,0.082-0.091,0.144-0.099l1.707-0.224c0.196-0.025,0.358-0.184,0.402-0.394l0.888-4.238
	c0.011-0.05,0.041-0.094,0.086-0.122c0.03-0.02,0.063-0.029,0.1-0.029l0.21,0.049l0.793,0.105c0.042,0.006,0.081,0.025,0.109,0.056
	c0.042,0.046,0.098,0.078,0.158,0.091l5.36,1.142l0.625,0.109c0.036,0.006,0.07,0.023,0.099,0.049l2.096,1.94
	c0.029,0.027,0.049,0.061,0.059,0.102l1.107,5.01c0.007,0.032,0.006,0.067-0.004,0.098l-0.208,0.648
	c-0.03,0.086-0.035,0.187-0.011,0.283l0.563,2.707c0.02,0.092-0.033,0.186-0.122,0.218l-4.131,1.478
	c-0.089,0.031-0.163,0.085-0.22,0.159l-0.531,0.694c-0.14,0.181-0.144,0.438-0.011,0.623l3.145,4.324
	c0.038,0.052,0.047,0.117,0.024,0.177L61.186,57.9c-0.026,0.071-0.089,0.118-0.165,0.125l-3.251,0.242l-3.752-0.414l-0.195-0.085
	l-1.246-0.365c-0.027-0.008-0.055-0.012-0.083-0.012c-0.055,0-0.108,0.015-0.156,0.043c-0.071,0.044-0.121,0.115-0.138,0.198
	c-0.035,0.175-0.068,0.37-0.123,0.427L51.436,58.867z"/>
<path d="M58.01,34.794c-0.027,0-0.068-0.006-0.107-0.034l-0.8-0.558c-0.058-0.04-0.088-0.107-0.081-0.175
	c0.008-0.07,0.052-0.129,0.115-0.155l0.668-0.276c0.033,0.013,0.075,0.019,0.12,0.019c0.097,0,0.205-0.03,0.263-0.085
	c0.083-0.08,0.183-0.202,0.146-0.312l-0.77-2.305c-0.019-0.056-0.01-0.117,0.023-0.167c0.032-0.048,0.087-0.079,0.146-0.083
	c0.001,0,2.229-0.136,2.293-0.139c0.045,0,0.102,0.028,0.136,0.075c0.04,0.053,0.05,0.119,0.028,0.179
	c-0.042,0.118-0.016,0.27,0.08,0.351c0.078,0.136,0.063,0.217,0.012,0.271l-0.134,0.141c-0.027,0.028-0.062,0.047-0.101,0.055
	c-0.098,0.02-0.18,0.088-0.218,0.181l-0.793,1.951C58.949,33.71,58.883,33.7,58.81,33.7c-0.152,0-0.264,0.078-0.336,0.135l0,0
	c-0.044,0-0.088,0.009-0.129,0.029c-0.112,0.054-0.18,0.171-0.17,0.294l0.021,0.259c0.018,0.116-0.035,0.249-0.085,0.28
	c-0.007,0.004-0.08,0.056-0.086,0.061L58.01,34.794z M56.144,34.099c-0.03,0-0.061-0.008-0.088-0.022l-0.265-0.137
	c-0.036-0.019-0.065-0.049-0.083-0.085l-0.137-0.28c-0.004-0.142-0.116-0.302-0.257-0.327c-0.026-0.004-0.054-0.007-0.08-0.007
	c-0.113,0-0.218,0.045-0.261,0.152l-0.043,0.108c-0.03,0.078-0.027,0.166,0.01,0.241c0.071,0.147,0.064,0.22,0.023,0.276
	c-0.036,0.051-0.093,0.08-0.153,0.08l-1.073-0.197l-0.484-0.033C53.22,33.856,53.185,34,53.149,34h-0.34
	c-0.218,0-0.477-0.221-0.528-0.277l0.016-0.261c0.001,0.013,0.006-0.02,0.013-0.02c0.012,0,0.03-0.034,0.043-0.045
	c0.052-0.042,0.104-0.096,0.147-0.151l4.079-5.142c0.027-0.036,0.117-0.078,0.192-0.078c0.038,0,0.091,0.01,0.117,0.025
	c0.081,0.046,0.121,0.149,0.089,0.231l-0.54,1.385c-0.043,0.109-0.018,0.232,0.063,0.317l0.178,0.184
	c0.047,0.049,0.064,0.121,0.044,0.184c-0.001,0.003-0.126,0.4-0.143,0.446c-0.04,0.116-0.007,0.25,0.087,0.33
	c0.045,0.039,0.069,0.096,0.065,0.154l-0.132,1.945c-0.005,0.07-0.05,0.133-0.115,0.161c-0.078,0.033-0.152,0.103-0.18,0.183
	c-0.028,0.08-0.035,0.173,0.005,0.248c0.035,0.065,0.029,0.145-0.015,0.204C56.26,34.07,56.203,34.099,56.144,34.099z"/>
<path d="M14.973,91.356c-0.051,0-0.101-0.021-0.138-0.06l-3.695-3.85c-0.039-0.04-0.088-0.068-0.142-0.083
	c-0.001,0-0.12-0.057-0.122-0.057c-0.093-0.031-0.155-0.131-0.138-0.221l1.394-7.132c0.013-0.064,0.058-0.118,0.12-0.142
	l1.114-0.421c0.163-0.062,0.28-0.213,0.309-0.392l1.068-6.807c0.04-0.262-0.12-0.514-0.363-0.576l-3.714-0.903
	c-0.09-0.021-0.15-0.104-0.145-0.194l0.197-3.189c0.005-0.077,0.055-0.143,0.127-0.167l0.208-0.071c0.001,0,0.101-0.007,0.101-0.007
	l15.961,3.299c0.014,0.003,0.108,0.003,0.114,0.003c0.079,0,0.157,0.026,0.176,0.04l2.852,2.229
	c0.032,0.025,0.069,0.043,0.108,0.054l3.422,0.904c0.082,0.021,0.14,0.095,0.143,0.178c0.004,0.132,0.055,0.253,0.141,0.344
	l0.402,0.417c0.092,0.094,0.213,0.146,0.334,0.146c0.05,0,0.1-0.013,0.144-0.036c0.03-0.018,0.113-0.042,0.194-0.042l1.667,0.568
	c0.067,0.023,0.116,0.084,0.125,0.154c0.009,0.072-0.021,0.143-0.081,0.182l-4.975,3.383l-2.5,3.01
	c-0.081,0.1-0.122,0.223-0.119,0.351l0.123,3.335c0.001,0.048-0.014,0.093-0.044,0.128l-2.917,3.419l-4.809,1.999l-0.11,0.011
	L17.7,90.368c-0.02-0.004-0.041-0.006-0.061-0.006c-0.037,0-0.073,0.007-0.108,0.02l-2.485,0.959L14.973,91.356z"/>
<path d="M82.497,20.632l-1.138-0.4c-0.031-0.011-0.107-0.019-0.141-0.019c-0.12,0-0.219,0.034-0.302,0.103l-0.54,0.438
	c-0.034,0.027-0.076,0.042-0.12,0.042c-0.089-0.014-0.138-0.048-0.164-0.096l-1.614-2.87c-0.05-0.087-0.023-0.194,0.059-0.25
	l2.385-1.622c0.026-0.018,0.062-0.03,0.096-0.032c0,0,3.065-0.206,3.143-0.21c0.036,0,0.088,0.023,0.125,0.062
	c0.036,0.04,0.055,0.099,0.047,0.156l-0.259,1.784c-0.012,0.077-0.004,0.16,0.021,0.242l0.885,2.759
	c-0.003,0.156-0.05,0.239-0.075,0.258c-0.09,0.066-0.144,0.08-0.157,0.081L82.497,20.632z"/>
<path d="M77.433,15c-0.059,0-0.097-0.259-0.13-0.282l-3.259-2.336c-0.053-0.036-0.084-0.158-0.083-0.223l0.114-5.983
	C74.097,6.176,74.267,6,74.267,6h11.721c0.024,0,0.048,0.148,0.07,0.146l-2.607,5.622c-0.006,0.012-0.02,0.309-0.095,0.343
	L77.489,15H77.433z"/>
<path d="M37.094,74.224l-1.418-0.492c-0.068-0.023-0.118-0.086-0.127-0.158c-0.019-0.166-0.121-0.315-0.265-0.388l-0.266-0.14
	c-0.043-0.022-0.091-0.034-0.14-0.034c-0.081,0-0.198-0.06-0.223-0.095c-0.073-0.1-0.166-0.162-0.273-0.188l-3.596-0.938
	l-2.447-1.89c-0.065-0.052-0.09-0.14-0.06-0.218l1.372-3.638l0.565-5.832l-0.811-3.641c-0.029-0.133-0.109-0.247-0.224-0.32
	l-3.93-2.376c-0.038-0.022-0.066-0.058-0.08-0.098l-0.467-1.321c-0.022-0.063-0.011-0.133,0.032-0.185
	c0.036-0.044,0.089-0.069,0.146-0.069c5.89,0.822,5.89,0.822,5.913,0.822c0.139,0,0.255-0.049,0.347-0.145
	c0.103-0.103,0.157-0.261,0.14-0.419l-0.256-2.312c-0.008-0.07,0.023-0.138,0.082-0.178c0.032-0.021,0.068-0.033,0.106-0.033
	l2.311,1.224c0.043,0.023,0.181,0.047,0.231,0.047c0.111,0,0.204-0.033,0.284-0.101l5.86-4.91c0.043-0.037,0.09-0.044,0.122-0.044
	c0.045,0,0.088,0.016,0.123,0.045l3.912,3.333l1.583,2.057c0.065,0.087,0.163,0.15,0.266,0.174c0.041,0.009,0.076,0.027,0.103,0.056
	l0.591,0.321c0.043,0.022,0.09,0.033,0.138,0.033c0.041,0,0.081-0.008,0.12-0.024c0.009-0.004,0.059-0.016,0.143-0.016
	c0.091,0,0.144,0.013,0.155,0.018c0.029,0.011,0.074,0.024,0.104,0.026c0.032,0.002,0.111,0.024,0.138,0.04l2.952,1.708
	c0.079,0.046,0.115,0.141,0.084,0.226c0,0.001-1.239,3.524-1.289,3.678c-0.037,0.067-0.11,0.166-0.768,1.042l-2.608,3.478
	c-0.147,0.197-0.135,0.48,0.028,0.66c0.087,0.1,0.214,0.157,0.346,0.157c0.058,0,0.114-0.017,0.162-0.048l0.662-0.426
	c0.042-0.029,0.079-0.041,0.118-0.041c0.102,0.021,0.147,0.059,0.171,0.108l0.314,0.654c0.023,0.048,0.024,0.105,0.003,0.155
	c-0.014,0.034-0.022,0.07-0.023,0.106l-0.15,5.361c-0.005,0.175,0.079,0.342,0.217,0.436l0.575,0.402
	c0.04,0.027,0.067,0.068,0.078,0.116l0.088,0.413c0.012,0.057-0.001,0.113-0.037,0.158c-0.035,0.044-0.088,0.07-0.146,0.071
	L41.2,70.773c-0.059,0.001-0.115,0.02-0.164,0.052l-2.887,1.973c-0.153,0.108-0.234,0.291-0.214,0.479l0.074,0.691
	c0.005,0.05-0.01,0.102-0.043,0.142c-0.031,0.038-0.079,0.062-0.132,0.067c-0.001,0-0.592,0.051-0.684,0.058
	C37.132,74.234,37.113,74.23,37.094,74.224z"/>
<path d="M32.008,48c-0.171,0-0.218-0.542-0.27-1.14l-0.023-0.455c-0.015-0.154-0.145-0.309-0.298-0.309
	c-0.008,0-3.145,0.22-3.233,0.226c-0.016,0-0.079-0.044-0.131-0.109C28.015,46.167,28,46.083,28.02,46.02l0.958-3.144
	c0.096-0.251,0.012-0.53-0.211-0.656l-1.041-0.592c-0.07-0.04-0.107-0.12-0.093-0.199l0.659-3.664
	c0.009-0.049,0.038-0.094,0.08-0.124l2.165-1.503c0.127-0.087,0.208-0.235,0.215-0.396l0.266-4.86
	c0.013-0.248-0.143-0.468-0.371-0.522l-2.2-0.52c-0.051-0.012-0.096-0.046-0.122-0.093c-0.026-0.048-0.031-0.103-0.014-0.153
	l0.945-2.735c0.077-0.222-0.005-0.476-0.195-0.603c-0.05-0.034-0.109-0.051-0.167-0.051c-0.061,0-0.121,0.018-0.173,0.055
	c-0.024,0.017-0.082,0.035-0.154,0.035c-0.073,0-0.13-0.019-0.155-0.037c-0.118-0.087-0.164-0.189-0.158-0.208l1.566-4.978
	c0.019-0.058,0.064-0.104,0.124-0.124l2-0.646c0.016-0.001,0.031-0.002,0.045-0.002c0.083,0,0.126,0.023,0.157,0.059
	c0.049,0.058,0.06,0.142,0.025,0.209l-0.584,1.153c-0.071,0.145-0.074,0.314-0.009,0.456c0.059,0.138,0.179,0.241,0.327,0.276
	l1.979,0.468c0.06,0.014,0.109,0.057,0.132,0.114c0.023,0.058,0.017,0.123-0.017,0.174l-1.717,2.631
	c-0.083,0.124-0.107,0.288-0.063,0.436l2.934,10.002c0.013,0.044,0.083,0.171,0.114,0.205l3.102,4.727
	c0.026,0.04,0.036,0.089,0.027,0.138l-0.995,6.118C37.375,47.622,37.26,48,37.198,48H32.008z M24.227,32.1
	c-0.022,0-0.044-0.004-0.067-0.013l-2.83-0.967C21.231,31.083,21,30.993,21,30.943v-0.168c0-0.025,0.204-0.106,0.302-0.164
	l1.755-0.969c0.023-0.014,0.106-0.027,0.149-0.027c0.043,0,0.107,0.014,0.139,0.037l1.943,1.4c0.05,0.036,0.084,0.093,0.084,0.153
	c0,0.061-0.026,0.118-0.075,0.154l-0.96,0.706C24.305,32.087,24.267,32.1,24.227,32.1z"/>
<path d="M86.77,92.156c-0.05,0-0.096-0.02-0.133-0.056l-2.92-2.835c-0.053-0.051-0.071-0.126-0.049-0.194l0.396-1.241
	c0.06-0.177,0.015-0.383-0.115-0.52l-3.703-3.858c-0.066-0.068-0.071-0.177-0.013-0.252l0.276-0.345l0.742-0.635
	c0.091-0.074,0.135-0.179,0.154-0.253l0.497-2.062c0.015-0.062,0.062-0.114,0.121-0.135l1.47-0.513l2.375-1.627
	c0.021-0.004,0.121-0.043,0.141-0.052l0.218-0.089l5.707-0.71l1.546-0.604c0,0.001,0.163,0.011,0.164,0.012
	c0.049,0.027,0.084,0.078,0.094,0.135l0.038,0.23c0.006,0.039,0.001,0.079-0.017,0.113l-0.202,0.421
	c-0.026,0.054-0.078,0.093-0.139,0.104l-5.219,0.951c-0.174,0.029-0.322,0.166-0.375,0.347c-0.055,0.172-0.011,0.369,0.117,0.507
	l0.722,0.753c0.043,0.045,0.062,0.109,0.047,0.17c-0.015,0.064-0.06,0.115-0.119,0.138l-0.979,0.362
	c-0.03,0.004-0.056,0.006-0.075,0.006c-0.046,0-0.069-0.009-0.091-0.021l-1.601-1.157C85.798,79.217,85.745,79,85.691,79
	c-0.008,0-0.016,0-0.023,0c-0.197,0-0.272,0.214-0.356,0.298c-0.106,0.061-0.193,0.353-0.172,0.546l0.532,5.464
	c0.009,0.123,0.069,0.274,0.168,0.362l2.92,2.565c0.065,0.058,0.083,0.159,0.042,0.238l-1.864,3.578
	c-0.027,0.052-0.078,0.089-0.136,0.098L86.77,92.156z"/>
<path d="M69.306,70.291c-0.033,0-0.082-0.009-0.126-0.049l-2.258-2.036c-0.036-0.032-0.079-0.056-0.125-0.067
	c0.017-0.031,0.027-0.066,0.032-0.103c0.075-0.626,0.165-0.91,0.23-1.118c0.043-0.133,0.075-0.24,0.093-0.366l0.101-1.412
	c0.007-0.078,0.033-0.188,0.049-0.219l1.901-2.475c0.049-0.062,0.105-0.094,0.129-0.096c0.019-0.001,0.04-0.005,0.062-0.012
	c0.028,0.005,0.06,0.017,0.085,0.04l2.687,2.472c0.034,0.027,0.059-0.026,0.1,0.056C72.317,65.008,72.421,65,72.534,65
	c0.006,0,0.012,0,0.019,0c0.119,0,0.224-0.014,0.264-0.127c0.037-0.104,0.077-0.096,0.111-0.112l1.313-0.771l0.098-0.019
	c0.123,0.035,0.165,0.084,0.182,0.14l0.226,0.776c0.021,0.071,0.12,0.173,0.183,0.212l0.164,0.066
	c0.05,0.019,0.089,0.058,0.11,0.106c0.021,0.047,0.021,0.103,0,0.147l-0.173,0.388c-0.03,0.069-0.1,0.115-0.173,0.115l-5.918-0.142
	c-0.137,0-0.262,0.059-0.349,0.162l-0.936,1.112c-0.159,0.185-0.163,0.462-0.008,0.657l1.809,2.27
	c0.061,0.078,0.053,0.188-0.021,0.257C69.4,70.272,69.354,70.291,69.306,70.291z M65.914,68.3h0.526l-0.04,0.05
	c-0.035,0.046-0.091,0.072-0.149,0.072L65.914,68.3z"/>
<path d="M72.647,65.515c-0.054-0.119-0.099-0.215-0.165-0.284l-2.726-3.009c0.003-0.003-0.021-0.082-0.031-0.119l-0.352-1.127
	l-0.115-0.608c0,0-0.055-0.219-0.06-0.232l-0.031-0.153l0.204-1.12c0.007-0.034,0.023-0.067,0.047-0.094l0.391-0.436l0.786-1.478
	c0.03-0.059,0.085-0.096,0.148-0.104l3.451-0.388c0.046-0.005,0.09-0.021,0.128-0.045l3.361-2.141c0.031-0.02,0.066-0.03,0.103-0.03
	c0,0,2.987,0.129,3.063,0.131c0.058,0.002,0.114,0.03,0.147,0.077l0.103,0.138c0.023,0.032,0.053,0.059,0.086,0.079l0.33,0.199
	l0.416,0.311c0.076,0.059,0.095,0.173,0.038,0.256l-1.677,2.447l-1.144,3.001c-0.021,0.054-0.062,0.095-0.116,0.113l-1.305,0.451
	c-0.043,0.015-0.082,0.039-0.114,0.071c-0.029,0.029-0.122,0.079-0.159,0.086L75.94,61.75c-0.039,0.006-0.075,0.02-0.108,0.039
	l-0.723,0.438l-0.121,0.083c-0.072,0.05-0.119,0.129-0.129,0.216l-0.03,0.326c-0.027,0.298-0.046,0.422-0.116,0.462l-1.916,1.956
	C72.74,65.313,72.696,65.401,72.647,65.515z"/>
<path d="M17.023,39.043c-0.05,0-0.097-0.02-0.132-0.054l-0.944-0.919c-0.063-0.062-0.076-0.159-0.03-0.235l2.36-3.934
	c0.074-0.123,0.05-0.28-0.056-0.376l-0.676-0.613c-0.042-0.038-0.065-0.091-0.062-0.146c0.002-0.057,0.029-0.109,0.073-0.144
	l1.974-1.537c0.034-0.026,0.074-0.04,0.117-0.04c0.047,0.035,0.054,0.121,0.054,0.189c0,0.155,0.118,0.3,0.272,0.314
	c0.239,0.022,0.373,0.043,0.445,0.059c0.04,0.083,0.104,0.153,0.182,0.18c0,0,0.256,0.08,0.284,0.092l2.793,1.015
	c0.096,0.035,0.151,0.136,0.125,0.23l-1.257,4.548c-0.019,0.066-0.072,0.119-0.14,0.134l-5.341,1.232L17.023,39.043z"/>
<path d="M67.035,93.828c-0.028,0-0.058-0.007-0.083-0.019l-4.886-2.334c-0.053-0.025-0.09-0.072-0.104-0.129
	c-0.013-0.058,0.001-0.117,0.038-0.163l0.596-0.743c0.032-0.04,0.08-0.066,0.131-0.07c0.002,0,5.114-0.443,5.22-0.452
	c0.034,0.001,0.087,0.025,0.124,0.068c0.039,0.046,0.054,0.108,0.038,0.168l-0.891,3.531c-0.014,0.056-0.051,0.101-0.103,0.125
	L67.035,93.828z M51.161,85.679c-0.027-0.008-0.054-0.021-0.075-0.039c-0.04-0.033-0.064-0.083-0.066-0.137l-0.164-4.188
	c-0.002-0.054,0.019-0.106,0.057-0.145c0.033-0.032,0.082-0.053,0.132-0.053c0.034,0.002,1.672,0.073,1.826,0.08
	C52.85,81.211,53,81.299,53,81.359v3.895c0,0.149-0.146,0.227-0.154,0.252L51.161,85.679z M70.169,85.654
	c-0.021-0.056-0.081-0.17-0.168-0.378l-0.75-1.945c-0.04-0.121-0.083-0.25-0.2-0.325l-6.539-3.932l-6.026-5.521
	c-0.027-0.024-0.049-0.063-0.057-0.103l-0.62-2.84c-0.028-0.125-0.098-0.232-0.197-0.306l-2.135-1.531l-0.291-0.402
	c-0.059-0.077-0.147-0.118-0.238-0.118c-0.053,0-0.105,0.014-0.153,0.042c-0.131,0.078-0.183,0.241-0.12,0.381l0.077,0.172
	l-3.208,1.435l-0.163-0.005c-0.052-0.026-0.088-0.072-0.1-0.129L49.142,69.5c-0.027-0.13-0.1-0.24-0.205-0.312l-0.493-0.344
	c-0.053-0.036-0.083-0.097-0.082-0.162l0.112-4.474c0.002-0.07,0.044-0.136,0.108-0.165l2.601-1.242
	c0.03-0.004,0.057-0.006,0.079-0.006c0.087,0,0.128,0.026,0.155,0.064l0.479,0.664c0.093,0.128,0.231,0.2,0.381,0.2
	c0.053,0,0.104-0.014,0.149-0.039l3.678-2.104c0.116-0.07,0.197-0.18,0.232-0.311c0.019-0.069,0.074-0.123,0.144-0.139
	c0,0,2.624-0.585,2.628-0.585c0.108,0,0.173,0.043,0.202,0.109c0.055,0.121,0.151,0.214,0.271,0.26l2.458,0.933
	c0.054,0.021,0.094,0.062,0.112,0.114s0.013,0.11-0.016,0.158c-0.079,0.135-0.093,0.298-0.039,0.446l0.399,1.11l0.148,0.514
	c0.014,0.05,0.008,0.105-0.02,0.148c-0.028,0.046-0.074,0.078-0.125,0.089l-2.58,0.519c-0.234,0.046-0.4,0.271-0.387,0.521
	l0.133,3.329c0.005,0.14,0.066,0.272,0.169,0.363l13.88,12.343c0.072,0.064,0.084,0.176,0.027,0.254
	c-0.036,0.049-0.092,0.077-0.153,0.077c-0.034,0-0.07-0.01-0.103-0.029l-1.319-0.795l-0.29-0.412
	c-0.058-0.083-0.15-0.128-0.245-0.128c-0.049,0-0.099,0.012-0.145,0.037c-0.134,0.073-0.191,0.236-0.133,0.377l0.113,0.273
	c-0.021,0.035-0.036,0.072-0.046,0.112l-1.078,3.969C70.298,85.404,70.226,85.565,70.169,85.654z"/>
<path d="M80.408,74.796c-0.062,0-0.12-0.03-0.155-0.08c-0.019-0.028-0.065-0.074-0.092-0.095l-0.532-0.415l-0.438-0.366
	c-0.027-0.024-0.049-0.057-0.059-0.092c-0.027-0.094,0.015-0.212,0.086-0.249l0.47-0.241c0.133-0.068,0.226-0.194,0.256-0.346
	l0.118-0.55c0.012-0.052,0.042-0.096,0.086-0.122c0.03-0.019,0.065-0.029,0.1-0.029l0.183,0.043
	c0.051,0.013,0.093,0.044,0.117,0.087l0.998,1.7c0.027,0.045,0.033,0.101,0.019,0.152c-0.016,0.049-0.051,0.091-0.098,0.112
	l-0.977,0.471L80.408,74.796z"/>
<path d="M53.877,60.213c-0.052,0-0.101-0.021-0.136-0.058l-0.134-0.137c-0.055-0.056-0.068-0.143-0.034-0.215l0.085-0.176
	c0.02-0.041,0.029-0.086,0.029-0.131V59.33c0-0.089,0.061-0.164,0.147-0.184c0.007,0,0.014-0.001,0.021-0.001
	c0.104,0,0.163,0.04,0.193,0.103l0.133,0.278l0.018,0.497c0,0.104-0.085,0.189-0.189,0.189H53.877z"/>
<path d="M81.136,34.118c-0.066-0.008-0.126-0.055-0.151-0.122c-0.044-0.121-0.132-0.217-0.245-0.27l-1.164-0.54
	c-0.057-0.026-0.097-0.08-0.107-0.144l-0.032-0.203l0.11-0.635c0.05-0.256-0.091-0.508-0.329-0.585l-2.794-0.887
	c-0.057-0.018-0.103-0.062-0.121-0.117l-0.51-1.467c-0.028-0.165,0.038-0.013,0.14-0.032L83.312,28c0.008,0,0.017,0,0.023,0
	c0.055,0,0.086-0.236,0.112-0.219l1.214,0.656c0.067,0.043,0.101,0.059,0.084,0.136l-0.342,2.139c-0.017,0.1,0.02,0.186,0.094,0.253
	c0.109,0.093,0.191,0.153,0.204,0.186L84.7,32.525c-0.008,0.016-0.084,0.1-0.217,0.167l-2.893,1.439
	c-0.018,0.009-0.066,0.02-0.107,0.021C81.418,34.148,81.136,34.118,81.136,34.118z"/>
<path d="M47.343,51.88c-0.037,0-0.073-0.011-0.104-0.031c-0.049-0.032-0.106-0.048-0.163-0.048c-0.057,0-0.114,0.016-0.164,0.048
	c-0.03,0.021-0.067,0.031-0.103,0.031l-0.638-0.284C46.15,51.573,46,51.486,46,51.429v-0.155l-0.098-0.844l0.053-0.107l0.404-0.934
	c0.022-0.053,0.079-0.163,0.13-0.176L47.037,49c0.013,0,0.026,0,0.04,0c0.132,0,0.31,0.099,0.359,0.121
	c0.008,0.009,0.187,0.164,0.229,0.197c-0.056,0.035-0.102,0.085-0.139,0.125l-0.133,0.106c-0.101,0.072-0.146,0.203-0.115,0.323
	l0.389,1.5c0.006,0.022,0.034,0.091,0.044,0.111l-0.01,0.206c-0.003,0.033-0.084,0.129-0.203,0.177
	C47.481,51.87,47.39,51.88,47.343,51.88z"/>
<path d="M75.79,27.866c-0.048,0-0.096-0.02-0.131-0.053c-0.044-0.042-0.064-0.104-0.057-0.166l0.486-3.346
	c0.009-0.057,0.045-0.109,0.097-0.138l0.166-0.009l2.817,1.009C79.207,25.178,79.247,25,79.286,25c0.009,0,0.017,0,0.025,0
	c0.098,0,0.18,0.178,0.248,0.145c0,0,0.02,0.083,0.021,0.082c0.115-0.069,0.198-0.139,0.229-0.278l0.666-2.89
	c0.011-0.107,0.041-0.159,0.08-0.191l0.663-0.532c0.034-0.027,0.076-0.039,0.119-0.039l0.926,0.312l2.719,0.566
	c0.054,0.011,0.101,0.046,0.127,0.094l0.467,0.623c0.017,0.035,0.222,0.085,0.265,0.126C85.846,23.021,86,23.023,86,23.025v0.156
	c0,0.108-0.094,0.203-0.006,0.256c-0.002,0.06-0.062,0.121-0.035,0.169l1.193,1.98c0.044,0.067-0.006,0.165-0.059,0.229
	l-0.671,0.952C86.385,26.816,86.306,27,86.25,27h-0.237c-0.118,0-0.221-0.082-0.27,0.018c-0.031,0.032-0.071-0.002-0.073,0
	l-0.327,0.345c-0.037,0.042-0.089,0.047-0.147,0.047c-0.034,0-0.067-0.02-0.098-0.039l-1.371-0.858
	c-0.047-0.029-0.103-0.047-0.158-0.047l-0.094-0.009L75.79,27.866z"/>
<path d="M48.676,71.188c-0.076,0-0.145-0.046-0.175-0.117c-0.029-0.069-0.014-0.15,0.04-0.207l0.132-0.137
	c0.035-0.035,0.084-0.057,0.136-0.057C48.952,70.713,49,70.783,49,70.86v0.138c0,0.104-0.085,0.19-0.19,0.19H48.676z"/>
<path d="M91.603,52.731c-0.048-0.045-0.068-0.11-0.056-0.174c0.012-0.062,0.056-0.114,0.115-0.139l1.038-0.421v1.796L91.603,52.731z
	"/>
<path d="M81.758,78.792c-0.06,0-0.113-0.026-0.147-0.072l-1.186-1.556c-0.029-0.039-0.043-0.089-0.037-0.137l0.073-0.604
	c0.005-0.04,0.021-0.075,0.049-0.104l0.338-0.566c0.019-0.033,0.048-0.061,0.083-0.077l1.413-0.679
	c0.039-0.002,0.153-0.029,0.188-0.046l0.344,0.084L83.767,75c0.013,0,0.025,0,0.037,0c0.079,0,0.12-0.223,0.151-0.189l0.256,0.143
	l1.173,0.919c0.057,0.046,0.081,0.089,0.064,0.157l0.006,0.641c0,0.056-0.03,0.105-0.083,0.142l-2.188,1.497l-1.364,0.476
	L81.758,78.792z"/>
<path d="M76.753,75.188c-0.057,0-0.111-0.025-0.148-0.07l-0.229-0.281c-0.03-0.037-0.067-0.065-0.11-0.085l-0.739-0.329
	l-0.139-0.072c-0.083-0.073-0.109-0.13-0.112-0.162l-0.082-0.879c-0.003-0.027,0.001-0.055,0.01-0.08l0.373,0.093
	c0.024,0.006,0.049,0.009,0.072,0.009c0.119,0,0.23-0.071,0.277-0.187c0.057-0.138,0.003-0.296-0.125-0.372l-0.163-0.096
	l0.544-0.754C76.21,71.873,76.261,72,76.319,72c0.001,0,0.002,0,0.003,0c0.072,0,0.116-0.152,0.15-0.121l0.692,0.56l0.368,0.164
	l0.478,0.207c0.092,0.043,0.133,0.14,0.094,0.232c-0.036,0.164-0.128,0.244-0.217,0.244l-0.284-0.01
	c-0.231,0-0.427,0.181-0.464,0.422l-0.2,1.328c-0.011,0.075-0.064,0.135-0.137,0.155L76.753,75.188z"/>
<path d="M46.496,46.525c-0.054,0-0.105-0.023-0.142-0.063l-1.732-1.926c-0.071-0.08-0.171-0.135-0.28-0.153l-0.544-0.081
	c-0.062-0.009-0.116-0.049-0.144-0.106c-0.026-0.056-0.023-0.123,0.009-0.178l2.201-3.751c0.027-0.046,0.072,0.098,0.123,0.087
	L48.449,40c0.007,0,0.014,0,0.021,0c0.086,0,0.138-0.149,0.17-0.105c0.044,0.059,0.051,0.051,0.016,0.116l-1.995,3.697
	c-0.074,0.14-0.082,0.283-0.021,0.43l0.315,0.756c0.014,0.035,0.018,0.067,0.01,0.104l-0.284,1.378
	c-0.014,0.069-0.067,0.125-0.136,0.143L46.496,46.525z"/>
<path d="M50.416,22.134c-0.042,0-0.083-0.014-0.115-0.039l-1.732-1.325c-0.048-0.037-0.076-0.095-0.075-0.155l0.249-10.938
	c0.002-0.085,0.062-0.159,0.144-0.181l1.676-0.423c0.033,0.011,0.086,0.017,0.144,0.017c0.099,0,0.211-0.017,0.26-0.05l4.146-3.014
	C55.19,6.095,55.281,6,55.401,6H57.5C57.665,6,58,6.167,58,6.001c0-0.066,0-0.177,0-0.177c0-0.042,0-0.12,0.03-0.138
	c-0.019,0.011,0.022,0.011,0.047,0.022c0.041,0.052,0.067,0.084,0.132,0.1c0.066,0.016,0.133,0.055,0.133,0.148
	c0,0.039-0.017,0.089-0.092,0.14c-0.089,0.061-0.142,0.164-0.133,0.271l0.353,4.531c0.013,0.131,0.042,0.3,0.071,0.405
	c0.02,0.071,0.063,0.132,0.126,0.172l0.719,0.462c0.068,0.043,0.101,0.122,0.082,0.2l-1.503,6.559
	c-0.014,0.057-0.055,0.106-0.109,0.131c-0.046,0.021-0.087,0.054-0.117,0.095c-0.064,0.087-0.111,0.14-0.173,0.169l-7.076,3.026
	L50.416,22.134z"/>
<path d="M81.464,50.892c-0.044,0-0.075-0.006-0.084-0.009l-1.859-0.772c-0.037-0.016-0.076-0.023-0.115-0.023
	c-0.016,0-0.03,0.001-0.046,0.003l-2.619,0.404l-2.867-0.005c-0.041,0-0.083-0.016-0.117-0.043c-0.11-0.074-4.025-2.66-4.025-2.66
	c-0.037-0.024-0.081-0.041-0.125-0.047c0,0-0.155-0.021-0.17-0.021c-0.027,0-0.056,0.004-0.082,0.011
	c-0.129,0.037-0.238,0.13-0.301,0.257l-0.214,0.447c-0.023,0.049-0.066,0.085-0.119,0.101c-0.021,0.001-0.038,0.002-0.053,0.002
	c-0.051,0-0.075-0.009-0.097-0.022l-3.156-1.925c-0.044-0.027-0.075-0.072-0.086-0.123l-0.545-2.619l0.213-0.748
	c0.029-0.092,0.033-0.19,0.01-0.283l-0.927-4.191c-0.024-0.11-0.108-0.197-0.218-0.226c-0.131-0.034-0.153-0.109-0.172-0.169
	C63.661,38.145,63.606,38,63.565,38c-0.001,0-0.002,0-0.002,0c-0.008,0-0.019-0.022-0.034-0.048
	c-0.032-0.054-0.225-0.092-0.271-0.149C63.223,37.758,63,37.691,63,37.659v-0.555c0-0.105,0.277-0.18,0.578-0.25l0.189-0.017
	c0.037-0.005,0.111-0.017,0.144-0.034c0.086-0.045,3.669-1.892,3.669-1.892l2.519-1.12c0.004,0,0.159-0.005,0.159-0.005l2.739,1.015
	c0.008,0,0.17,0.022,0.177,0.022c0.084,0,0.208-0.01,0.317-0.099c0.034-0.029,0.074-0.044,0.115-0.047l4.559-0.264l1.101-0.142
	l0.155-0.028l0.687,0.291c0.046,0.021,0.08,0.058,0.097,0.104l0.167,0.436l0.396,1.099l0.822,2.696
	c0.018,0.056,0.008,0.117-0.025,0.164l-0.87,1.244c-0.112,0.162-0.123,0.38-0.026,0.555l1.066,1.945l0.094,0.332
	c0.016,0.058,0.108,0.186,0.153,0.225c0.046,0.04,0.069,0.096,0.066,0.154l-0.353,7.22c-0.004,0.088-0.067,0.16-0.154,0.176
	L81.464,50.892z"/>
<path d="M7.013,86.845c-0.055-0.007-0.107-0.039-0.138-0.087c-0.031-0.047-0.039-0.107-0.022-0.161l0.938-2.933
	c0.011-0.035,0.016-0.072,0.014-0.109L7.56,79.313l2.708-7.437c0.089-0.118,0.182-0.162,0.244-0.162l3.05,0.74
	c0.096,0.024,0.158,0.116,0.143,0.214l-0.904,5.764c-0.011,0.067-0.056,0.124-0.12,0.147l-1.1,0.416
	c-0.161,0.063-0.273,0.203-0.306,0.375l-1.486,7.608c-0.018,0.089-0.096,0.153-0.186,0.153L7.013,86.845z"/>
<path d="M84.464,66.985c-0.023-0.005-0.046-0.014-0.066-0.026c-0.049-0.031-0.188-0.077-0.245-0.077l-2.09-1.007l-1.568-1.751
	l-1.717-1.789c-0.045-0.046-0.063-0.114-0.049-0.178c0.015-0.061,0.062-0.111,0.121-0.132l0.777-0.271
	c0.128-0.042,0.238-0.151,0.292-0.29l1.169-3.117l1.878-2.766c0.032-0.047,0.081-0.077,0.136-0.082c0.001,0,2.256-0.235,2.348-0.243
	l1.41,0.25c0.017,0.003,0.034,0.004,0.052,0.004c0.07,0,0.14-0.024,0.194-0.071l2.736-2.331c0.035-0.029,0.078-0.046,0.123-0.046
	c0.066,0.005,0.113,0.03,0.146,0.068l1.869,2.38c-0.072,0.082,0.02,0.177,0.02,0.3v9.61c0,0.067-0.127,0.133-0.086,0.186
	l0.132,0.264c-0.004,0.036-0.049,0.07-0.057,0.085L84.464,66.985z"/>
<path d="M74.672,33.604c-0.066-0.002-0.127-0.038-0.159-0.094c-0.035-0.061-0.033-0.14,0.006-0.199l0.312-0.479
	c0.032-0.047,0.087-0.08,0.146-0.084c0.039-0.003,0.077-0.014,0.112-0.032l1.132-0.574c0.092-0.049,0.162-0.12,0.205-0.204
	c0.028-0.05,0.092-0.088,0.161-0.088l1.775,0.554c0.048,0.015,0.086,0.048,0.108,0.089l-0.312,0.149
	c-0.134,0.064-0.201,0.218-0.156,0.36c0.039,0.127,0.156,0.21,0.286,0.21c0.016,0,0.031-0.001,0.048-0.003l0.186-0.03
	c0.002,0.043-0.012,0.087-0.038,0.123c-0.03,0.04-0.076,0.066-0.128,0.073l-0.27,0.034C78.074,33.408,74.864,33.594,74.672,33.604z"
	/>
<path d="M82.642,73.809c-0.067,0-0.131-0.036-0.164-0.094l-1.26-2.149c-0.062-0.108-0.164-0.189-0.287-0.224l-1.072-0.278
	c-0.024-0.007-0.05-0.01-0.075-0.01c-0.023,0-0.048,0.003-0.07,0.008c-0.136,0.024-0.2,0.037-0.267,0.104
	c-0.062,0.031-0.141,0.146-0.168,0.285l-0.111,0.522c-0.012,0.056-0.05,0.105-0.101,0.13l-0.167,0.002l-0.958-0.455l-0.174-0.091
	l-0.818-0.747c-0.034-0.032-0.055-0.073-0.061-0.12c-0.016-0.105-0.541-3.119-0.541-3.119c-0.316-0.999-0.419-1.323-0.428-1.381
	l0.394-0.957c0.101-0.234,0.018-0.511-0.192-0.644l-0.431-0.268c-0.042-0.026-0.072-0.068-0.084-0.118l-0.199-0.833
	c-0.019-0.076,0.013-0.157,0.077-0.201l0.122-0.082l0.536-0.336c0,0,1.344-0.23,1.346-0.23c0.078,0,0.127,0.021,0.16,0.057
	l2.162,2.251l1.588,1.79c0.025,0.028,0.057,0.052,0.091,0.069l1.979,0.985c0.057,0.028,0.097,0.082,0.105,0.143l0.56,3.733
	c0.013,0.079-0.027,0.157-0.099,0.194l-0.097,0.051c-0.175,0.091-0.28,0.283-0.269,0.489l0.082,1.031
	c0.007,0.088-0.048,0.169-0.133,0.195l-0.921,0.289L82.642,73.809z"/>
<path d="M70.736,55.729c-0.074,0-0.139-0.041-0.17-0.107l-0.348-0.725c-0.025-0.052-0.025-0.112,0-0.163l0.085-0.178
	c0.037-0.139,0.101-0.227,0.132-0.244l1.398-0.786c0.114-0.099,0.212-0.144,0.268-0.144c0.026,0.004,0.396,0.048,0.407,0.048
	c0.032,0,0.064-0.005,0.096-0.016l0.851-0.436C73.534,53.072,73.63,53,73.772,53h2.943c0.049,0,0.098,0.139,0.141,0.115l2.165-1.185
	C79.1,51.896,79,51.896,79,51.841c0-0.002,0-0.003,0-0.003s0.139,0.026,0.07,0.026c0.047,0,0.205-0.021,0.259-0.05l0.839,0.127
	c0.015,0.002,0.056,0.003,0.071,0.003c0.027,0,0.065-0.004,0.092-0.011c0.017-0.005,0.041-0.008,0.058-0.008
	c0.051,0,0.103,0.022,0.14,0.053c0,0.001,0.105,0.084,0.106,0.085c0.05,0.092,0.052,0.147,0.046,0.165
	c-0.011,0.027-0.032,0.057-0.061,0.08c-0.039,0.031-0.068,0.072-0.087,0.118l-0.207,0.507c-0.014,0.033-0.021,0.068-0.022,0.104
	c-0.021,0.14-0.097,0.198-0.184,0.198c0,0-2.544-0.106-2.547-0.106c-0.058,0-0.113,0.017-0.161,0.047l-3.392,2.165L70.736,55.729z"
	/>
<path d="M63.921,67c-0.007,0-0.145-0.512-0.186-0.727l-0.338-2.05l-0.235-1.1c-0.016-0.062-0.005-0.177,0.014-0.211l0.14-0.302
	c0.07-0.054,0.121-0.153,0.134-0.247l0.002,0.014c0.04-0.079,0.132-0.16,0.17-0.169l2.864-0.535l1.35-0.299
	c0.089-0.021,0.174-0.072,0.249-0.151l0.189-0.203c0.036-0.039,0.087-0.062,0.14-0.062c0.08,0.009,0.135,0.044,0.164,0.096
	l0.057,0.097c0.037,0.066,0.028,0.154-0.024,0.215l-2.1,2.429c-0.032,0.037-0.055,0.082-0.066,0.13
	c-0.034,0.15-0.074,0.512-0.087,0.64l-0.019,0.163l-0.049,1.524C66.28,66.424,66.149,67,66.061,67H63.921z"/>
<path d="M60.879,27.765c-0.048-0.008-0.091-0.035-0.12-0.074l-0.695-0.927l-1.724-6.172c-0.025-0.092,0.021-0.189,0.11-0.226
	c0.153-0.065,0.256-0.185,0.291-0.338l1.733-7.751c0.033-0.146,0.004-0.256-0.105-0.389l-0.916-0.95
	c-0.029-0.03-0.048-0.07-0.051-0.112l-0.369-4.492c-0.003-0.032,0.003-0.064,0.016-0.093l0.249-0.226
	C59.339,6.079,59.447,6,59.592,6c0,0,8.8,0,8.807,0l-1.947,1.874c-0.067,0.06-0.104,0.223-0.101,0.312l0.251,5.74
	c0.007,0.185,0.114,0.311,0.149,0.345l2.108,2.098c0.048,0.047,0.066,0.115,0.051,0.179c-0.016,0.064-0.063,0.117-0.128,0.137
	l-3.309,1.044c-0.119,0.038-0.22,0.123-0.282,0.24c-0.063,0.127-0.073,0.269-0.033,0.397l0.764,2.521l-0.35,7.492
	c-0.003,0.055-0.028,0.105-0.07,0.138c-0.034,0.028-0.076,0.043-0.118,0.043L60.879,27.765z"/>
<path d="M82.848,54.51c-0.039,0-0.077-0.013-0.109-0.036l-0.731-0.524l-0.281-0.126c-0.428-0.41-0.497-0.477-0.526-0.513
	c-0.032-0.05-0.042-0.106-0.027-0.159c0.015-0.054,0.05-0.097,0.101-0.121l0.559-0.273c0.115-0.093,0.153-0.123,0.188-0.151
	c0.108-0.088,0.142-0.24,0.079-0.366l-0.07-0.142C82,52.043,82,51.978,82.028,51.922c0.026-0.052,0.079-0.089,0.139-0.098
	l0.247-0.038c0.137-0.021,0.242-0.134,0.253-0.272l0.183-8.11c0.002-0.078,0.054-0.149,0.128-0.175l5.721-2.003
	c0.036-0.007,2.278-0.173,3.183-0.243C91.861,41.03,92,41.083,92,41.141v9.095c0,0.08-0.119,0.156-0.062,0.212
	s0.059,0.087,0.138,0.087l0.541-0.003c0.117,0.017,0.249,0.134,0.257,0.184c0,0.031-0.013,0.187-0.149,0.192
	c-0.035,0.001-0.075,0.009-0.107,0.022l-2.412,0.984c-0.054,0.021-0.101,0.058-0.134,0.105c-0.015,0.02-0.075,0.083-0.096,0.101
	l-2.964,2.321c-0.034,0.025-0.072,0.04-0.112,0.04l-1.352-0.232c-0.183,0.001-2.265,0.216-2.681,0.259L82.848,54.51z"/>
<path d="M60.544,77.578c-0.104,0-0.189-0.086-0.189-0.19v-0.137c0-0.104,0.085-0.19,0.189-0.19c0.106,0,0.19,0.084,0.19,0.19v0.137
	C60.734,77.494,60.65,77.578,60.544,77.578z"/>
</svg>
